<svg xmlns="http://www.w3.org/2000/svg" xmlns:xlink="http://www.w3.org/1999/xlink" viewBox="0 0 2353 840"><defs><linearGradient id="b" x1="164.06" y1="420" x2="655.94" y2="420" gradientTransform="matrix(1, 0, 0, 1, 0, 0)" gradientUnits="userSpaceOnUse"><stop offset=".25" stop-color="#fff"/><stop offset=".85" stop-color="#fff" stop-opacity="0"/></linearGradient></defs><g><circle cx="410" cy="420" r="350" fill="black"/><path d="M410,665.94c-135.63,0-245.94-110.31-245.94-245.94s110.31-245.94,245.94-245.94,245.94,110.31,245.94,245.94-110.31,245.94-245.94,245.94Zm0-457.19c-116.55,0-211.25,94.7-211.25,211.25s94.7,211.25,211.25,211.25,211.25-94.7,211.25-211.25c0-116.55-94.87-211.25-211.25-211.25Z" fill="url(#b)"/></g><g><path d="M849.14,254.23c0-72.77,54.5-116.55,112.46-116.55s90.41,33.39,100.49,72.45l-35.6,11.97c-6.62-27.09-27.41-48.83-64.89-48.83s-73.71,26.78-73.71,80.96,35.91,80.01,74.03,80.01,58.91-23.94,66.47-49.14l34.65,11.34c-10.08,37.8-44.1,74.03-101.12,74.03-60.17,0-112.77-43.47-112.77-116.24Z"/><path d="M1239.74,288.88c0,47.25-33.71,81.59-79.7,81.59s-79.38-34.33-79.38-81.59,33.71-81.27,79.38-81.27,79.7,34.34,79.7,81.27Zm-36.86,0c0-31.81-20.16-48.2-42.84-48.2s-42.84,16.38-42.84,48.2,20.48,48.83,42.84,48.83,42.84-16.7,42.84-48.83Z"/><path d="M1275.02,365.74V137.68h36.54v228.06h-36.54Z"/><path d="M1358.81,365.74V137.68h36.54v228.06h-36.54Z"/><path d="M1578.36,321.96c-8.19,26.77-32.45,48.51-69.3,48.51-41.58,0-78.44-30.24-78.44-82.22,0-48.51,35.91-80.64,74.66-80.64,47.25,0,74.97,31.19,74.97,79.7,0,5.98-.63,11.02-.95,11.65h-112.14c.95,23.31,19.21,40.01,41.9,40.01s33.39-11.66,38.43-26.78l30.87,9.77Zm-34.97-49.77c-.63-17.96-12.6-34.02-37.8-34.02-23,0-36.23,17.64-37.49,34.02h75.29Z"/><path d="M1639.78,288.88c0,30.87,19.85,48.2,42.84,48.2s34.96-16.7,38.43-28.35l32.13,11.66c-7.25,23.94-30.24,50.08-70.56,50.08-45.05,0-79.38-34.96-79.38-81.59s34.33-81.27,78.44-81.27c41.27,0,63.95,25.83,70.25,50.4l-32.76,11.97c-3.46-13.54-13.86-28.67-37.17-28.67s-42.21,16.69-42.21,47.56Z"/><path d="M1831.92,212.34h31.82v32.45h-31.82v71.19c0,13.54,5.99,19.21,19.53,19.21,5.04,0,11.02-.95,12.6-1.26v30.24c-2.21,.95-9.13,3.46-22.37,3.46-28.35,0-45.99-17.01-45.99-45.67v-77.18h-28.35v-32.45h7.88c16.38,0,23.62-10.4,23.62-23.94v-23h33.08v46.94Z"/><path d="M1919.18,134.53c13.23,0,23.94,10.71,23.94,23.94s-10.71,23.62-23.94,23.62-23.62-10.4-23.62-23.62,10.71-23.94,23.62-23.94Zm-17.96,231.21V212.34h36.23v153.41h-36.23Z"/><path d="M2063.13,365.74h-36.54l-62.37-153.41h40.32l40.63,109.62,39.69-109.62h38.43l-60.17,153.41Z"/><path d="M2281.11,321.96c-8.19,26.77-32.45,48.51-69.3,48.51-41.58,0-78.44-30.24-78.44-82.22,0-48.51,35.91-80.64,74.66-80.64,47.25,0,74.97,31.19,74.97,79.7,0,5.98-.63,11.02-.95,11.65h-112.14c.95,23.31,19.21,40.01,41.9,40.01s33.39-11.66,38.43-26.78l30.87,9.77Zm-34.97-49.77c-.63-17.96-12.6-34.02-37.8-34.02-23,0-36.23,17.64-37.49,34.02h75.29Z"/><path d="M1113.11,477.41h39.06l-62.69,223.34h-39.06l-54.18-168.84-54.18,168.84h-38.75l-63.32-223.34h39.69l44.73,163.17,52.29-163.17h39.38l53.24,164.43,43.79-164.43Z"/><path d="M1315.34,623.88c0,47.25-33.71,81.58-79.7,81.58s-79.38-34.33-79.38-81.58,33.71-81.27,79.38-81.27,79.7,34.33,79.7,81.27Zm-36.86,0c0-31.82-20.16-48.2-42.84-48.2s-42.84,16.38-42.84,48.2,20.48,48.83,42.84,48.83,42.84-16.7,42.84-48.83Z"/><path d="M1440.4,583.56c-4.1-.63-8.19-.95-11.97-.95-28.35,0-41.27,16.38-41.27,45.05v73.08h-36.54v-153.41h35.6v24.57c7.25-16.7,24.25-26.46,44.42-26.46,4.41,0,8.19,.63,9.77,.94v37.17Z"/><path d="M1470.95,700.74v-228.06h36.54v228.06h-36.54Z"/><path d="M1696.48,672.71c0,13.86,1.26,25.52,1.58,28.04h-34.96c-.63-3.46-1.58-13.54-1.58-19.84-7.25,12.92-23.31,23.62-45.05,23.62-44.1,0-73.71-34.65-73.71-80.96s29.92-80.33,73.08-80.33c26.78,0,40.32,12.29,45.05,22.05v-92.61h35.59v200.03Zm-75.92-.32c23.94,0,40.63-19.84,40.63-49.14s-16.38-47.57-40.32-47.57-41.58,18.58-41.58,47.88,16.38,48.83,41.27,48.83Z"/></g></svg>
