<svg xmlns="http://www.w3.org/2000/svg" viewBox="0 0 170 17"><path d="M10.69,14.21l1.96,2.6h-1.99l-1.31-1.76c-.81,.37-1.72,.56-2.71,.56C2.79,15.62,0,12.65,0,7.9S2.79,.18,6.63,.18s6.63,2.96,6.63,7.72c0,2.82-.98,5-2.57,6.32Zm-2.65-3.5l1.6,2.1c1.14-1,1.86-2.66,1.86-4.92,0-3.9-2.14-6.01-4.87-6.01S1.76,4,1.76,7.9s2.14,6.01,4.87,6.01c.58,0,1.13-.1,1.64-.28l-2.23-2.92h1.99Z" /><path d="M28.01,.39V10.33c0,3.08-2.3,5.34-5.84,5.34s-5.84-2.26-5.84-5.34V.39h1.82V10.19c0,2.2,1.51,3.78,4.02,3.78s4.02-1.58,4.02-3.78V.39h1.82Z" /><path d="M37.7,15.62c-3.84,0-6.63-2.96-6.63-7.72S33.86,.18,37.7,.18s6.63,2.96,6.63,7.72-2.79,7.72-6.63,7.72Zm0-13.73c-2.73,0-4.87,2.11-4.87,6.01s2.14,6.01,4.87,6.01,4.87-2.11,4.87-6.01-2.14-6.01-4.87-6.01Z" /><path d="M45.96,.39h11.27v1.61h-4.72V15.41h-1.82V2h-4.72V.39Z" /><path d="M60.06,.39h9.07v1.61h-7.25V7.08h6.78v1.61h-6.78v5.11h7.36v1.61h-9.18V.39Z" /><path d="M88.51,5.08c-.44-2.08-2.23-3.2-4.23-3.2-2.73,0-4.87,2.11-4.87,6.01s2.14,6.01,4.87,6.01c1.99,0,3.78-1.12,4.23-3.2h1.82c-.56,3.08-3.02,4.9-6.04,4.9-3.84,0-6.63-2.96-6.63-7.72S80.44,.18,84.28,.18c3.02,0,5.49,1.82,6.04,4.9h-1.82Z" /><path d="M91.98,15.41L97.5,.39h1.88l5.52,15.02h-1.91l-1.51-4.25h-6.07l-1.51,4.25h-1.91Zm8.92-5.87l-2.41-6.78h-.12l-2.41,6.78h4.93Z" /><path d="M104.67,.39h11.27v1.61h-4.72V15.41h-1.82V2h-4.72V.39Z" /><path d="M115.71,15.41L121.23,.39h1.88l5.52,15.02h-1.91l-1.51-4.25h-6.07l-1.51,4.25h-1.91Zm8.92-5.87l-2.41-6.78h-.12l-2.41,6.78h4.93Z" /><path d="M130.98,.39h1.82V13.8h6.98v1.61h-8.8V.39Z" /><path d="M148.07,15.62c-3.84,0-6.63-2.96-6.63-7.72s2.79-7.72,6.63-7.72,6.63,2.96,6.63,7.72-2.79,7.72-6.63,7.72Zm0-13.73c-2.73,0-4.87,2.11-4.87,6.01s2.14,6.01,4.87,6.01,4.87-2.11,4.87-6.01-2.14-6.01-4.87-6.01Z" /><path d="M163.75,1.88c-2.67,0-4.81,2.11-4.81,6.01s2.14,6.01,4.93,6.01c2.55,0,4.32-1.7,4.37-4.4h-3.96v-1.61h5.72v1.61c0,3.72-2.55,6.1-6.13,6.1-3.99,0-6.69-2.96-6.69-7.72s2.72-7.72,6.57-7.72c3.17,0,5.6,2,6.16,4.9h-1.88c-.64-1.97-2.11-3.2-4.28-3.2Z" /></svg>
