<svg xmlns="http://www.w3.org/2000/svg" viewBox="0 0 376 64" ><path d="M0,34V30H52v4Zm76-7.79c-1.28-3.84-3.46-6.33-6.59-6.33a4,4,0,0,0-1.67.32,4.09,4.09,0,0,0-2.49,4.09c0,2.82,2.56,4.29,5.37,5.5,4.87,2,8.13,4.29,8.13,8.7,0,5.82-5.44,8.83-10.56,8.83a12.43,12.43,0,0,1-7.3-2.18,29.61,29.61,0,0,1-1.08-7.55l1.72-.32c1.09,4.23,4,7.94,7.81,7.94a4.47,4.47,0,0,0,1.74-.31,4.34,4.34,0,0,0,2.47-2.43,4.34,4.34,0,0,0,.33-1.74c0-2.82-1.85-4.35-5-5.82-3.84-1.73-8-3.9-8-8.77,0-4.48,3.84-8.32,9.72-8.32A13.19,13.19,0,0,1,76.2,19a35,35,0,0,1,1.41,6.79ZM99.75,46.56V44.9c3.71-.38,4.22-.77,4.22-4.93V29.35c0-5.25-2-7.87-6.27-7.87a8.94,8.94,0,0,0-6.65,3.26V40c0,4.09.32,4.54,4.16,4.93v1.66H81.58l.06-1.66C85.48,44.58,86,44.19,86,40V9.45c0-4-.13-4.29-4.35-4.67V3.24A70.73,70.73,0,0,0,91.05,1V22.5c2.3-2.3,5.7-4.67,9.15-4.67,5.18,0,8.83,3.27,8.83,10.94V40c0,4.23.51,4.61,4.22,4.93v1.66ZM144.61,32.1c0,10.3-7.55,15.23-13.89,15.23-8.77,0-14-7-14-14.14,0-10.56,8.19-15.36,14.08-15.36C138.72,17.83,144.61,24.23,144.61,32.1Zm-22-1c0,8.06,3.45,14.08,8.77,14.08,4,0,7.23-2.94,7.23-11.71,0-7.42-3-13.57-8.7-13.57-3.85,0-7.3,4-7.3,11.2ZM163,18.86a6.5,6.5,0,0,1,3.14-1c7.1,0,11.32,5.83,11.32,12.1,0,9.66-7.61,15.87-15.93,17.4a10.43,10.43,0,0,1-4.41-1.15v8.39c0,4.86.44,5.24,5.37,5.63v1.72h-15.1V60.19c4.1-.39,4.67-.77,4.67-5V26.27c0-4.15-.25-4.28-4.22-4.79V19.94a49,49,0,0,0,9.28-2.75v5ZM157.09,41.7a8.71,8.71,0,0,0,6,2.49c5.37,0,9-4.61,9-11.77,0-6.91-4-10.75-8.58-10.75-2,0-4.67,1.41-6.4,2.75Zm62.12-.9c-2.81,3.71-7,6.53-10.81,6.53-8.06,0-12.86-6.53-12.86-13.38A15.27,15.27,0,0,1,202,21.48a17,17,0,0,1,9.54-3.65h.06a9.14,9.14,0,0,1,5.76,1.73,2.25,2.25,0,0,1,.76.83,2.17,2.17,0,0,1,.26,1.09c0,1.34-1.41,2.75-2.11,2.75-.38,0-.7-.19-1.22-.7a9.33,9.33,0,0,0-6.46-2.63c-4.22,0-7.87,3.52-7.87,10.24,0,8.9,6,11.84,9.66,11.84,2.76,0,4.8-.77,7.75-3.52Zm23.49,6.53a4.91,4.91,0,0,1-3-1.28,6.07,6.07,0,0,1-1.54-2.82c-2.56,1.73-5.63,4.1-7.55,4.1a7.72,7.72,0,0,1-3-.61,7.5,7.5,0,0,1-2.5-1.7,7.67,7.67,0,0,1-2.22-5.49c0-3.14,1.67-5.13,5.19-6.34,3.84-1.28,8.51-3,9.91-4.16V27.94c0-4.67-2.17-7.23-5.43-7.23A3.73,3.73,0,0,0,231,21a3.85,3.85,0,0,0-1.3.92,10.79,10.79,0,0,0-1.86,4.23,1.78,1.78,0,0,1-.66,1.07,1.85,1.85,0,0,1-1.2.4,3,3,0,0,1-2.75-2.75c0-.9.77-1.67,2-2.56a29,29,0,0,1,9.6-4.48,8.28,8.28,0,0,1,5.24,1.73C242.31,21.48,243,24,243,27.43V39.26c0,2.88,1.15,3.84,2.24,3.84a4.66,4.66,0,0,0,2.3-.7l.64,1.67ZM238,31.2c-1.35.7-4.42,2.05-5.76,2.69-2.5,1.15-3.9,2.37-3.9,4.73a4.69,4.69,0,0,0,.28,1.82,4.81,4.81,0,0,0,1,1.57,4.73,4.73,0,0,0,1.5,1.07,4.78,4.78,0,0,0,1.79.41,8.42,8.42,0,0,0,5.12-2.3Zm24,15.29a6.24,6.24,0,0,1-2.68.84c-4,0-6.27-2.56-6.27-7.62V21.16h-4.42l-.26-.7,1.8-1.86h2.88V14l4.16-4.29.9.13V18.6h7.23a2.14,2.14,0,0,1,.32.64,1.87,1.87,0,0,1-.21,1.39,1.81,1.81,0,0,1-.5.53h-6.85V37.54c0,5.18,2.11,6.14,3.78,6.14a8.58,8.58,0,0,0,3.89-1.09l.58,1.67Zm27.45.84a4.88,4.88,0,0,1-3-1.28,6.07,6.07,0,0,1-1.54-2.82c-2.56,1.73-5.63,4.1-7.55,4.1a7.72,7.72,0,0,1-3-.61,7.5,7.5,0,0,1-2.5-1.7,7.67,7.67,0,0,1-2.22-5.49c0-3.14,1.67-5.13,5.19-6.34,3.83-1.28,8.51-3,9.91-4.16V27.94c0-4.67-2.17-7.23-5.44-7.23a3.71,3.71,0,0,0-1.57.29,3.89,3.89,0,0,0-1.31.92,10.92,10.92,0,0,0-1.85,4.23,1.83,1.83,0,0,1-.66,1.07,1.85,1.85,0,0,1-1.2.4A3,3,0,0,1,270,24.87c0-.9.77-1.67,2-2.56a29.07,29.07,0,0,1,9.6-4.48,8.29,8.29,0,0,1,5.25,1.73c2.24,1.92,2.88,4.48,2.88,7.87V39.26c0,2.88,1.15,3.84,2.24,3.84a4.72,4.72,0,0,0,2.3-.7l.64,1.67ZM284.8,31.2c-1.34.7-4.41,2.05-5.76,2.69-2.49,1.15-3.89,2.37-3.89,4.73a4.69,4.69,0,0,0,.28,1.82,4.74,4.74,0,0,0,1,1.57,4.65,4.65,0,0,0,3.28,1.48,8.42,8.42,0,0,0,5.12-2.3Zm11.78,15.36V44.9c4-.38,4.61-.77,4.61-5V9.64c0-4.35-.39-4.48-4.42-4.86V3.24A48.69,48.69,0,0,0,306.24,1V39.9c0,4.22.51,4.61,4.61,5v1.67ZM342.07,32.1c0,10.3-7.55,15.23-13.88,15.23-8.77,0-14-7-14-14.14,0-10.56,8.19-15.36,14.07-15.36C336.19,17.83,342.07,24.23,342.07,32.1Zm-21.94-1c0,8.06,3.45,14.08,8.76,14.08,4,0,7.23-2.94,7.23-11.71,0-7.42-3-13.57-8.69-13.57-3.85,0-7.3,4-7.3,11.2Zm54.26-12a10,10,0,0,1-2.88,3.27l-3.65-.19a8.7,8.7,0,0,1,1.92,5.63c0,6.91-5.76,10.23-11.2,10.23a18.84,18.84,0,0,1-3.26-.31c-.83.57-1.92,1.79-1.92,2.68,0,1.22,1.15,2.43,4,2.43,2.37,0,4.61-.06,6.78-.06,4,0,9.15,1.28,9.15,7.55,0,6.46-7.42,12.67-15.93,12.67-7.16,0-11.07-4.16-11.13-7.81a5,5,0,0,1,1.53-3.58c1.28-1.28,3.78-3.26,5.31-4.48a8.53,8.53,0,0,1-4.73-3.52,4.7,4.7,0,0,1-.7-2.69,13.64,13.64,0,0,0,5.63-3.9,9.2,9.2,0,0,1-5.63-8.57c0-7.23,6.53-10.62,11.45-10.62h.07a11.77,11.77,0,0,1,6.14,1.73c3.07-.2,6.34-.58,8.7-1ZM354.3,48.6c-1.67,1.41-2.95,3.2-2.95,5,0,3.52,3.72,6.14,8.45,6.14,6.08,0,9.21-3.13,9.21-7.1a4.68,4.68,0,0,0-2.88-4.54,16.64,16.64,0,0,0-6.27-.83c-2.94,0-4.41.39-5.56,1.35Zm-1.09-21.18c0,5,2.5,8.57,6,8.57,2.82-.06,5.32-2.56,5.32-7.61s-2.37-8.57-6.08-8.57c-2.69,0-5.25,2.69-5.25,7.62Z"></path></svg>
