<svg xmlns="http://www.w3.org/2000/svg" viewBox="0 0 122 114"><path d="M20.8,51.38v-1.86c0-5.5-2.82-8.7-7.6-8.7-2.6,0-4.71,.92-5.92,2.6-1.3,1.76-1.64,3.32-1.64,7.77v7.86c0,4.16,.29,5.8,1.34,7.52,1.22,2.02,3.44,3.11,6.26,3.11,5.04,0,7.69-3.19,7.69-9.29v-2.05h-4.37v1.8c0,3.66-1.09,5.46-3.36,5.46-1.26,0-2.35-.71-2.77-1.81-.34-.92-.46-2.02-.46-4.16v-9.33c0-2.27,.13-3.11,.67-4.03,.46-.88,1.39-1.39,2.56-1.39,2.14,0,3.28,1.64,3.28,4.87v1.6h4.33Z" /><path d="M22.13,69.27h4.24l.77-4.27h6.72l.79,4.27h4.45l-5.67-28.02h-5.92l-5.38,28.02Zm10.88-8.84h-5.05l2.48-13.8,2.56,13.8Z" /><polygon points="38.41 45.24 43.19 45.24 43.19 69.27 47.51 69.27 47.51 45.24 52.33 45.24 52.33 41.25 38.41 41.25 38.41 45.24" /><polygon points="71.34 41.25 71.34 69.27 81.7 69.27 81.7 65.28 75.67 65.28 75.67 41.25 71.34 41.25" /><path d="M90.9,40.83c-2.69,0-4.79,.92-6.05,2.69-1.13,1.6-1.6,3.49-1.6,6.64v10.21c0,3.15,.46,5.04,1.6,6.64,1.26,1.76,3.36,2.69,6.05,2.69s4.79-.92,6.05-2.69c1.13-1.6,1.6-3.49,1.6-6.64v-10.21c0-3.15-.46-5.04-1.6-6.64-1.26-1.76-3.36-2.69-6.05-2.69Zm3.32,19.45c0,2.27-.08,2.94-.55,3.82-.51,.92-1.56,1.51-2.77,1.51s-2.27-.59-2.77-1.51c-.42-.88-.55-1.6-.55-3.82v-10.04c0-2.23,.13-2.98,.55-3.82,.5-.92,1.56-1.51,2.77-1.51s2.27,.59,2.77,1.51c.46,.88,.55,1.55,.55,3.82v10.04Z" /><path d="M108.47,57.56h3.57v2.51c0,3.91-.97,5.55-3.23,5.55-1.39,0-2.48-.8-2.94-2.1-.34-1.05-.46-2.27-.46-4.58v-8.57c0-2.31,.13-3.11,.63-4.03,.46-.92,1.43-1.43,2.56-1.43,2.18,0,3.32,1.68,3.32,4.87v.91h4.33v-1.16c0-5.5-2.77-8.7-7.61-8.7-2.56,0-4.71,.92-5.92,2.6-1.3,1.72-1.64,3.32-1.64,7.77v7.73c0,3.86,.29,5.67,1.22,7.48,1.09,2.06,3.24,3.28,5.8,3.28,2.27,0,3.82-.8,5.25-2.81l.8,2.39h2.23v-15.28h-7.9v3.57Z" /><path d="M57.14,41.25l-5.38,28.02h4.24l.77-4.27h6.72l.79,4.27h4.45l-5.67-28.02h-5.92Zm.46,19.18l2.48-13.8,2.56,13.8h-5.05Z" /><polygon points="5.44 29.07 9.79 29.07 9.79 4.94 14.62 4.94 14.62 .94 .65 .94 .65 4.94 5.44 4.94 5.44 29.07" /><polygon points="21.11 16.99 27.31 16.99 27.31 29.07 31.65 29.07 31.65 .94 27.31 .94 27.31 12.98 21.11 12.98 21.11 .94 16.77 .94 16.77 29.07 21.11 29.07 21.11 16.99" /><path d="M42.51,29.49c2.7,0,4.81-.93,6.07-2.7,1.14-1.6,1.6-3.5,1.6-6.66V9.88c0-3.16-.46-5.06-1.6-6.66-1.27-1.77-3.37-2.7-6.07-2.7s-4.81,.93-6.07,2.7c-1.14,1.6-1.6,3.5-1.6,6.66v10.25c0,3.16,.46,5.06,1.6,6.66,1.27,1.77,3.37,2.7,6.07,2.7Zm-3.33-19.53c0-2.23,.13-2.99,.55-3.84,.51-.93,1.56-1.52,2.78-1.52s2.28,.59,2.78,1.52c.46,.89,.55,1.56,.55,3.84v10.08c0,2.28-.08,2.95-.55,3.84-.51,.93-1.56,1.52-2.78,1.52s-2.28-.59-2.78-1.52c-.42-.89-.55-1.6-.55-3.84V9.96Z" /><path d="M60.49,29.49c2.53,0,4.6-.89,5.82-2.53,1.18-1.6,1.6-3.42,1.6-6.96V.94h-4.34V20.72c0,3.33-.89,4.68-3.08,4.68s-3.12-1.35-3.12-4.68V.94h-4.34V20c0,3.54,.42,5.36,1.6,6.96,1.22,1.64,3.29,2.53,5.86,2.53Z" /><path d="M78.13,29.49c2.28,0,3.84-.8,5.27-2.83l.8,2.4h2.23V13.73h-7.93v3.58h3.58v2.52c0,3.92-.97,5.57-3.25,5.57-1.39,0-2.49-.8-2.95-2.11-.34-1.05-.46-2.28-.46-4.6V10.09c0-2.32,.13-3.12,.63-4.05,.46-.93,1.43-1.43,2.57-1.43,2.19,0,3.33,1.69,3.33,4.89v.91h4.34v-1.17c0-5.53-2.78-8.73-7.63-8.73-2.57,0-4.72,.93-5.95,2.61-1.31,1.73-1.64,3.33-1.64,7.8v7.76c0,3.88,.3,5.69,1.22,7.51,1.1,2.07,3.25,3.29,5.82,3.29Z" /><polygon points="94.63 16.99 100.82 16.99 100.82 29.07 105.17 29.07 105.17 .94 100.82 .94 100.82 12.98 94.63 12.98 94.63 .94 90.28 .94 90.28 29.07 94.63 29.07 94.63 16.99" /><polygon points="112.17 29.07 116.51 29.07 116.51 4.94 121.35 4.94 121.35 .94 107.38 .94 107.38 4.94 112.17 4.94 112.17 29.07" /><path d="M20.93,95.69c3.38-.84,5.39-3.55,5.39-7.02s-2.17-8.35-10.48-8.35H6.89v32.49h9.44c9.06,0,10.73-5.22,10.73-9.06,0-4.13-2.26-6.89-6.14-8.06Zm-10.61-12.45h3.3c4.22,0,9.27-.25,9.27,5.47s-5.35,5.6-9.52,5.6h-3.05v-11.07Zm4.05,26.65h-4.05v-12.66h4.39c7.14,0,8.94,2.84,8.94,6.72,0,3.55-1.38,5.93-9.27,5.93Z" /><path d="M41.02,89.09c-5.14,0-9.23,3.55-9.23,12.2s4.09,12.2,9.23,12.2,9.23-3.55,9.23-12.2-4.09-12.2-9.23-12.2Zm0,21.63c-5.01,0-5.97-5.51-5.97-9.44s.96-9.44,5.97-9.44,5.97,5.51,5.97,9.44-.96,9.44-5.97,9.44Z" /><path d="M54.92,101.29c0,8.65,4.09,12.2,9.23,12.2s9.23-3.55,9.23-12.2-4.09-12.2-9.23-12.2-9.23,3.55-9.23,12.2Zm15.2,0c0,3.93-.96,9.44-5.97,9.44s-5.97-5.51-5.97-9.44,.96-9.44,5.97-9.44,5.97,5.51,5.97,9.44Z" /><polygon points="94.18 89.76 90.55 89.76 81.99 100.45 81.99 80.32 78.73 80.32 78.73 112.81 81.99 112.81 81.99 104.92 85.75 100.29 91.63 112.81 95.14 112.81 87.83 97.65 94.18 89.76" /><path d="M102.79,95.27c0-2.34,2-3.42,4.14-3.42,2.42,0,3.97,1.13,5.26,3.05l2.3-1.8c-1.8-2.67-4.47-4.01-7.68-4.01-3.8,0-7.06,2.42-7.06,6.39,0,8.27,12.15,5.51,12.15,11.32,0,2.63-2.13,3.93-4.51,3.93-2.76,0-4.76-1.34-6.01-3.72l-2.59,1.63c1.88,3.22,4.89,4.84,8.6,4.84,4.34,0,7.56-2.76,7.56-7.27,0-7.77-12.15-5.3-12.15-10.94Z" /></svg>
