<svg width="189" height="171" viewBox="0 0 189 171" fill="none" xmlns="http://www.w3.org/2000/svg">
<path d="M65.814 166.265L73.314 170.595V161.935L65.814 166.265ZM184.265 110.668L179.935 118.168H188.595L184.265 110.668ZM72.564 167.015H161.835V165.515H72.564V167.015ZM161.835 167.015C167.329 167.015 173.141 164.891 177.576 160.118C182.014 155.342 185.015 147.976 185.015 137.588H183.515C183.515 147.684 180.604 154.656 176.477 159.097C172.348 163.542 166.945 165.515 161.835 165.515V167.015ZM185.015 137.588C185.015 137.57 185.015 137.551 185.015 137.533C185.015 137.514 185.015 137.496 185.015 137.477C185.015 137.459 185.015 137.44 185.015 137.422C185.015 137.403 185.015 137.384 185.015 137.366C185.015 137.348 185.015 137.329 185.015 137.311C185.015 137.292 185.015 137.274 185.015 137.255C185.015 137.237 185.015 137.218 185.015 137.2C185.015 137.182 185.015 137.163 185.015 137.145C185.015 137.126 185.015 137.108 185.015 137.09C185.015 137.071 185.015 137.053 185.015 137.035C185.015 137.016 185.015 136.998 185.015 136.98C185.015 136.961 185.015 136.943 185.015 136.925C185.015 136.906 185.015 136.888 185.015 136.87C185.015 136.851 185.015 136.833 185.015 136.815C185.015 136.797 185.015 136.778 185.015 136.76C185.015 136.742 185.015 136.724 185.015 136.706C185.015 136.687 185.015 136.669 185.015 136.651C185.015 136.633 185.015 136.615 185.015 136.596C185.015 136.578 185.015 136.56 185.015 136.542C185.015 136.524 185.015 136.506 185.015 136.488C185.015 136.47 185.015 136.451 185.015 136.433C185.015 136.415 185.015 136.397 185.015 136.379C185.015 136.361 185.015 136.343 185.015 136.325C185.015 136.307 185.015 136.289 185.015 136.271C185.015 136.253 185.015 136.235 185.015 136.217C185.015 136.199 185.015 136.181 185.015 136.163C185.015 136.145 185.015 136.127 185.015 136.109C185.015 136.091 185.015 136.073 185.015 136.055C185.015 136.037 185.015 136.019 185.015 136.001C185.015 135.984 185.015 135.966 185.015 135.948C185.015 135.93 185.015 135.912 185.015 135.894C185.015 135.876 185.015 135.858 185.015 135.841C185.015 135.823 185.015 135.805 185.015 135.787C185.015 135.769 185.015 135.752 185.015 135.734C185.015 135.716 185.015 135.698 185.015 135.68C185.015 135.663 185.015 135.645 185.015 135.627C185.015 135.609 185.015 135.592 185.015 135.574C185.015 135.556 185.015 135.539 185.015 135.521C185.015 135.503 185.015 135.485 185.015 135.468C185.015 135.45 185.015 135.432 185.015 135.415C185.015 135.397 185.015 135.38 185.015 135.362C185.015 135.344 185.015 135.327 185.015 135.309C185.015 135.291 185.015 135.274 185.015 135.256C185.015 135.239 185.015 135.221 185.015 135.204C185.015 135.186 185.015 135.168 185.015 135.151C185.015 135.133 185.015 135.116 185.015 135.098C185.015 135.081 185.015 135.063 185.015 135.046C185.015 135.028 185.015 135.011 185.015 134.993C185.015 134.976 185.015 134.959 185.015 134.941C185.015 134.924 185.015 134.906 185.015 134.889C185.015 134.871 185.015 134.854 185.015 134.837C185.015 134.819 185.015 134.802 185.015 134.784C185.015 134.767 185.015 134.75 185.015 134.732C185.015 134.715 185.015 134.698 185.015 134.68C185.015 134.663 185.015 134.646 185.015 134.628C185.015 134.611 185.015 134.594 185.015 134.576C185.015 134.559 185.015 134.542 185.015 134.525C185.015 134.507 185.015 134.49 185.015 134.473C185.015 134.456 185.015 134.438 185.015 134.421C185.015 134.404 185.015 134.387 185.015 134.37C185.015 134.352 185.015 134.335 185.015 134.318C185.015 134.301 185.015 134.284 185.015 134.267C185.015 134.249 185.015 134.232 185.015 134.215C185.015 134.198 185.015 134.181 185.015 134.164C185.015 134.147 185.015 134.13 185.015 134.113C185.015 134.096 185.015 134.078 185.015 134.061C185.015 134.044 185.015 134.027 185.015 134.01C185.015 133.993 185.015 133.976 185.015 133.959C185.015 133.942 185.015 133.925 185.015 133.908C185.015 133.891 185.015 133.874 185.015 133.857C185.015 133.84 185.015 133.823 185.015 133.806C185.015 133.79 185.015 133.773 185.015 133.756C185.015 133.739 185.015 133.722 185.015 133.705C185.015 133.688 185.015 133.671 185.015 133.654C185.015 133.637 185.015 133.621 185.015 133.604C185.015 133.587 185.015 133.57 185.015 133.553C185.015 133.536 185.015 133.52 185.015 133.503C185.015 133.486 185.015 133.469 185.015 133.452C185.015 133.436 185.015 133.419 185.015 133.402C185.015 133.385 185.015 133.369 185.015 133.352C185.015 133.335 185.015 133.318 185.015 133.302C185.015 133.285 185.015 133.268 185.015 133.251C185.015 133.235 185.015 133.218 185.015 133.201C185.015 133.185 185.015 133.168 185.015 133.151C185.015 133.135 185.015 133.118 185.015 133.102C185.015 133.085 185.015 133.068 185.015 133.052C185.015 133.035 185.015 133.018 185.015 133.002C185.015 132.985 185.015 132.969 185.015 132.952C185.015 132.936 185.015 132.919 185.015 132.903C185.015 132.886 185.015 132.869 185.015 132.853C185.015 132.836 185.015 132.82 185.015 132.803C185.015 132.787 185.015 132.771 185.015 132.754C185.015 132.738 185.015 132.721 185.015 132.705C185.015 132.688 185.015 132.672 185.015 132.655C185.015 132.639 185.015 132.623 185.015 132.606C185.015 132.59 185.015 132.573 185.015 132.557C185.015 132.541 185.015 132.524 185.015 132.508C185.015 132.491 185.015 132.475 185.015 132.459C185.015 132.442 185.015 132.426 185.015 132.41C185.015 132.393 185.015 132.377 185.015 132.361C185.015 132.345 185.015 132.328 185.015 132.312C185.015 132.296 185.015 132.28 185.015 132.263C185.015 132.247 185.015 132.231 185.015 132.215C185.015 132.198 185.015 132.182 185.015 132.166C185.015 132.15 185.015 132.134 185.015 132.117C185.015 132.101 185.015 132.085 185.015 132.069C185.015 132.053 185.015 132.037 185.015 132.02C185.015 132.004 185.015 131.988 185.015 131.972C185.015 131.956 185.015 131.94 185.015 131.924C185.015 131.908 185.015 131.892 185.015 131.875C185.015 131.859 185.015 131.843 185.015 131.827C185.015 131.811 185.015 131.795 185.015 131.779C185.015 131.763 185.015 131.747 185.015 131.731C185.015 131.715 185.015 131.699 185.015 131.683C185.015 131.667 185.015 131.651 185.015 131.635C185.015 131.619 185.015 131.603 185.015 131.587C185.015 131.572 185.015 131.556 185.015 131.54C185.015 131.524 185.015 131.508 185.015 131.492C185.015 131.476 185.015 131.46 185.015 131.444C185.015 131.428 185.015 131.413 185.015 131.397C185.015 131.381 185.015 131.365 185.015 131.349C185.015 131.333 185.015 131.318 185.015 131.302C185.015 131.286 185.015 131.27 185.015 131.254C185.015 131.239 185.015 131.223 185.015 131.207C185.015 131.191 185.015 131.176 185.015 131.16C185.015 131.144 185.015 131.128 185.015 131.113C185.015 131.097 185.015 131.081 185.015 131.065C185.015 131.05 185.015 131.034 185.015 131.018C185.015 131.003 185.015 130.987 185.015 130.971C185.015 130.956 185.015 130.94 185.015 130.925C185.015 130.909 185.015 130.893 185.015 130.878C185.015 130.862 185.015 130.846 185.015 130.831C185.015 130.815 185.015 130.8 185.015 130.784C185.015 130.769 185.015 130.753 185.015 130.737C185.015 130.722 185.015 130.706 185.015 130.691C185.015 130.675 185.015 130.66 185.015 130.644C185.015 130.629 185.015 130.613 185.015 130.598C185.015 130.582 185.015 130.567 185.015 130.551C185.015 130.536 185.015 130.521 185.015 130.505C185.015 130.49 185.015 130.474 185.015 130.459C185.015 130.443 185.015 130.428 185.015 130.413C185.015 130.397 185.015 130.382 185.015 130.367C185.015 130.351 185.015 130.336 185.015 130.32C185.015 130.305 185.015 130.29 185.015 130.274C185.015 130.259 185.015 130.244 185.015 130.229C185.015 130.213 185.015 130.198 185.015 130.183C185.015 130.167 185.015 130.152 185.015 130.137C185.015 130.122 185.015 130.106 185.015 130.091C185.015 130.076 185.015 130.061 185.015 130.045C185.015 130.03 185.015 130.015 185.015 130C185.015 129.985 185.015 129.969 185.015 129.954C185.015 129.939 185.015 129.924 185.015 129.909C185.015 129.894 185.015 129.878 185.015 129.863C185.015 129.848 185.015 129.833 185.015 129.818C185.015 129.803 185.015 129.788 185.015 129.773C185.015 129.758 185.015 129.742 185.015 129.727C185.015 129.712 185.015 129.697 185.015 129.682C185.015 129.667 185.015 129.652 185.015 129.637C185.015 129.622 185.015 129.607 185.015 129.592C185.015 129.577 185.015 129.562 185.015 129.547C185.015 129.532 185.015 129.517 185.015 129.502C185.015 129.487 185.015 129.472 185.015 129.457C185.015 129.442 185.015 129.427 185.015 129.413C185.015 129.398 185.015 129.383 185.015 129.368C185.015 129.353 185.015 129.338 185.015 129.323C185.015 129.308 185.015 129.293 185.015 129.279C185.015 129.264 185.015 129.249 185.015 129.234C185.015 129.219 185.015 129.204 185.015 129.19C185.015 129.175 185.015 129.16 185.015 129.145C185.015 129.13 185.015 129.116 185.015 129.101C185.015 129.086 185.015 129.071 185.015 129.057C185.015 129.042 185.015 129.027 185.015 129.012C185.015 128.998 185.015 128.983 185.015 128.968C185.015 128.954 185.015 128.939 185.015 128.924C185.015 128.909 185.015 128.895 185.015 128.88C185.015 128.865 185.015 128.851 185.015 128.836C185.015 128.822 185.015 128.807 185.015 128.792C185.015 128.778 185.015 128.763 185.015 128.748C185.015 128.734 185.015 128.719 185.015 128.705C185.015 128.69 185.015 128.676 185.015 128.661C185.015 128.646 185.015 128.632 185.015 128.617C185.015 128.603 185.015 128.588 185.015 128.574C185.015 128.559 185.015 128.545 185.015 128.53C185.015 128.516 185.015 128.501 185.015 128.487C185.015 128.472 185.015 128.458 185.015 128.443C185.015 128.429 185.015 128.415 185.015 128.4C185.015 128.386 185.015 128.371 185.015 128.357C185.015 128.343 185.015 128.328 185.015 128.314C185.015 128.299 185.015 128.285 185.015 128.271C185.015 128.256 185.015 128.242 185.015 128.228C185.015 128.213 185.015 128.199 185.015 128.185C185.015 128.17 185.015 128.156 185.015 128.142C185.015 128.127 185.015 128.113 185.015 128.099C185.015 128.084 185.015 128.07 185.015 128.056C185.015 128.042 185.015 128.027 185.015 128.013C185.015 127.999 185.015 127.985 185.015 127.97C185.015 127.956 185.015 127.942 185.015 127.928C185.015 127.914 185.015 127.899 185.015 127.885C185.015 127.871 185.015 127.857 185.015 127.843C185.015 127.829 185.015 127.814 185.015 127.8C185.015 127.786 185.015 127.772 185.015 127.758C185.015 127.744 185.015 127.73 185.015 127.716C185.015 127.702 185.015 127.688 185.015 127.673C185.015 127.659 185.015 127.645 185.015 127.631C185.015 127.617 185.015 127.603 185.015 127.589C185.015 127.575 185.015 127.561 185.015 127.547C185.015 127.533 185.015 127.519 185.015 127.505C185.015 127.491 185.015 127.477 185.015 127.463C185.015 127.449 185.015 127.435 185.015 127.421C185.015 127.407 185.015 127.393 185.015 127.379C185.015 127.366 185.015 127.352 185.015 127.338C185.015 127.324 185.015 127.31 185.015 127.296C185.015 127.282 185.015 127.268 185.015 127.254C185.015 127.241 185.015 127.227 185.015 127.213C185.015 127.199 185.015 127.185 185.015 127.171C185.015 127.158 185.015 127.144 185.015 127.13C185.015 127.116 185.015 127.102 185.015 127.089C185.015 127.075 185.015 127.061 185.015 127.047C185.015 127.033 185.015 127.02 185.015 127.006C185.015 126.992 185.015 126.978 185.015 126.965C185.015 126.951 185.015 126.937 185.015 126.924C185.015 126.91 185.015 126.896 185.015 126.883C185.015 126.869 185.015 126.855 185.015 126.842C185.015 126.828 185.015 126.814 185.015 126.801C185.015 126.787 185.015 126.773 185.015 126.76C185.015 126.746 185.015 126.733 185.015 126.719C185.015 126.705 185.015 126.692 185.015 126.678C185.015 126.665 185.015 126.651 185.015 126.637C185.015 126.624 185.015 126.61 185.015 126.597C185.015 126.583 185.015 126.57 185.015 126.556C185.015 126.543 185.015 126.529 185.015 126.516C185.015 126.502 185.015 126.489 185.015 126.475C185.015 126.462 185.015 126.448 185.015 126.435C185.015 126.421 185.015 126.408 185.015 126.395C185.015 126.381 185.015 126.368 185.015 126.354C185.015 126.341 185.015 126.328 185.015 126.314C185.015 126.301 185.015 126.287 185.015 126.274C185.015 126.261 185.015 126.247 185.015 126.234C185.015 126.221 185.015 126.207 185.015 126.194C185.015 126.181 185.015 126.167 185.015 126.154C185.015 126.141 185.015 126.127 185.015 126.114C185.015 126.101 185.015 126.087 185.015 126.074C185.015 126.061 185.015 126.048 185.015 126.034C185.015 126.021 185.015 126.008 185.015 125.995C185.015 125.981 185.015 125.968 185.015 125.955C185.015 125.942 185.015 125.929 185.015 125.915C185.015 125.902 185.015 125.889 185.015 125.876C185.015 125.863 185.015 125.85 185.015 125.836C185.015 125.823 185.015 125.81 185.015 125.797C185.015 125.784 185.015 125.771 185.015 125.758C185.015 125.745 185.015 125.731 185.015 125.718C185.015 125.705 185.015 125.692 185.015 125.679C185.015 125.666 185.015 125.653 185.015 125.64C185.015 125.627 185.015 125.614 185.015 125.601C185.015 125.588 185.015 125.575 185.015 125.562C185.015 125.549 185.015 125.536 185.015 125.523C185.015 125.51 185.015 125.497 185.015 125.484C185.015 125.471 185.015 125.458 185.015 125.445C185.015 125.432 185.015 125.419 185.015 125.406C185.015 125.393 185.015 125.38 185.015 125.368C185.015 125.355 185.015 125.342 185.015 125.329C185.015 125.316 185.015 125.303 185.015 125.29C185.015 125.277 185.015 125.264 185.015 125.252C185.015 125.239 185.015 125.226 185.015 125.213C185.015 125.2 185.015 125.187 185.015 125.175C185.015 125.162 185.015 125.149 185.015 125.136C185.015 125.124 185.015 125.111 185.015 125.098C185.015 125.085 185.015 125.072 185.015 125.06C185.015 125.047 185.015 125.034 185.015 125.022C185.015 125.009 185.015 124.996 185.015 124.983C185.015 124.971 185.015 124.958 185.015 124.945C185.015 124.933 185.015 124.92 185.015 124.907C185.015 124.895 185.015 124.882 185.015 124.869C185.015 124.857 185.015 124.844 185.015 124.831C185.015 124.819 185.015 124.806 185.015 124.794C185.015 124.781 185.015 124.768 185.015 124.756C185.015 124.743 185.015 124.731 185.015 124.718C185.015 124.705 185.015 124.693 185.015 124.68C185.015 124.668 185.015 124.655 185.015 124.643C185.015 124.63 185.015 124.618 185.015 124.605C185.015 124.593 185.015 124.58 185.015 124.568C185.015 124.555 185.015 124.543 185.015 124.53C185.015 124.518 185.015 124.505 185.015 124.493C185.015 124.48 185.015 124.468 185.015 124.456C185.015 124.443 185.015 124.431 185.015 124.418C185.015 124.406 185.015 124.394 185.015 124.381C185.015 124.369 185.015 124.356 185.015 124.344C185.015 124.332 185.015 124.319 185.015 124.307C185.015 124.295 185.015 124.282 185.015 124.27C185.015 124.258 185.015 124.245 185.015 124.233C185.015 124.221 185.015 124.208 185.015 124.196C185.015 124.184 185.015 124.172 185.015 124.159C185.015 124.147 185.015 124.135 185.015 124.123C185.015 124.11 185.015 124.098 185.015 124.086C185.015 124.074 185.015 124.061 185.015 124.049C185.015 124.037 185.015 124.025 185.015 124.013C185.015 124 185.015 123.988 185.015 123.976C185.015 123.964 185.015 123.952 185.015 123.94C185.015 123.927 185.015 123.915 185.015 123.903C185.015 123.891 185.015 123.879 185.015 123.867C185.015 123.855 185.015 123.843 185.015 123.83C185.015 123.818 185.015 123.806 185.015 123.794C185.015 123.782 185.015 123.77 185.015 123.758C185.015 123.746 185.015 123.734 185.015 123.722C185.015 123.71 185.015 123.698 185.015 123.686C185.015 123.674 185.015 123.662 185.015 123.65C185.015 123.638 185.015 123.626 185.015 123.614C185.015 123.602 185.015 123.59 185.015 123.578C185.015 123.566 185.015 123.554 185.015 123.542C185.015 123.53 185.015 123.518 185.015 123.506C185.015 123.494 185.015 123.482 185.015 123.471C185.015 123.459 185.015 123.447 185.015 123.435C185.015 123.423 185.015 123.411 185.015 123.399C185.015 123.387 185.015 123.376 185.015 123.364C185.015 123.352 185.015 123.34 185.015 123.328C185.015 123.316 185.015 123.305 185.015 123.293C185.015 123.281 185.015 123.269 185.015 123.257C185.015 123.246 185.015 123.234 185.015 123.222C185.015 123.21 185.015 123.199 185.015 123.187C185.015 123.175 185.015 123.163 185.015 123.152C185.015 123.14 185.015 123.128 185.015 123.117C185.015 123.105 185.015 123.093 185.015 123.081C185.015 123.07 185.015 123.058 185.015 123.046C185.015 123.035 185.015 123.023 185.015 123.011C185.015 123 185.015 122.988 185.015 122.977C185.015 122.965 185.015 122.953 185.015 122.942C185.015 122.93 185.015 122.919 185.015 122.907C185.015 122.895 185.015 122.884 185.015 122.872C185.015 122.861 185.015 122.849 185.015 122.838C185.015 122.826 185.015 122.814 185.015 122.803C185.015 122.791 185.015 122.78 185.015 122.768C185.015 122.757 185.015 122.745 185.015 122.734C185.015 122.722 185.015 122.711 185.015 122.699C185.015 122.688 185.015 122.676 185.015 122.665C185.015 122.654 185.015 122.642 185.015 122.631C185.015 122.619 185.015 122.608 185.015 122.596C185.015 122.585 185.015 122.574 185.015 122.562C185.015 122.551 185.015 122.539 185.015 122.528C185.015 122.517 185.015 122.505 185.015 122.494C185.015 122.483 185.015 122.471 185.015 122.46C185.015 122.448 185.015 122.437 185.015 122.426C185.015 122.415 185.015 122.403 185.015 122.392C185.015 122.381 185.015 122.369 185.015 122.358C185.015 122.347 185.015 122.335 185.015 122.324C185.015 122.313 185.015 122.302 185.015 122.29C185.015 122.279 185.015 122.268 185.015 122.257C185.015 122.246 185.015 122.234 185.015 122.223C185.015 122.212 185.015 122.201 185.015 122.189C185.015 122.178 185.015 122.167 185.015 122.156C185.015 122.145 185.015 122.134 185.015 122.122C185.015 122.111 185.015 122.1 185.015 122.089C185.015 122.078 185.015 122.067 185.015 122.056C185.015 122.045 185.015 122.033 185.015 122.022C185.015 122.011 185.015 122 185.015 121.989C185.015 121.978 185.015 121.967 185.015 121.956C185.015 121.945 185.015 121.934 185.015 121.923C185.015 121.912 185.015 121.901 185.015 121.89C185.015 121.879 185.015 121.868 185.015 121.857C185.015 121.846 185.015 121.835 185.015 121.824C185.015 121.813 185.015 121.802 185.015 121.791C185.015 121.78 185.015 121.769 185.015 121.758C185.015 121.747 185.015 121.736 185.015 121.725C185.015 121.714 185.015 121.703 185.015 121.692C185.015 121.681 185.015 121.671 185.015 121.66C185.015 121.649 185.015 121.638 185.015 121.627C185.015 121.616 185.015 121.605 185.015 121.594C185.015 121.584 185.015 121.573 185.015 121.562C185.015 121.551 185.015 121.54 185.015 121.529C185.015 121.519 185.015 121.508 185.015 121.497C185.015 121.486 185.015 121.476 185.015 121.465C185.015 121.454 185.015 121.443 185.015 121.432C185.015 121.422 185.015 121.411 185.015 121.4C185.015 121.389 185.015 121.379 185.015 121.368C185.015 121.357 185.015 121.347 185.015 121.336C185.015 121.325 185.015 121.314 185.015 121.304C185.015 121.293 185.015 121.282 185.015 121.272C185.015 121.261 185.015 121.25 185.015 121.24C185.015 121.229 185.015 121.219 185.015 121.208C185.015 121.197 185.015 121.187 185.015 121.176C185.015 121.165 185.015 121.155 185.015 121.144C185.015 121.134 185.015 121.123 185.015 121.113C185.015 121.102 185.015 121.091 185.015 121.081C185.015 121.07 185.015 121.06 185.015 121.049C185.015 121.039 185.015 121.028 185.015 121.018C185.015 121.007 185.015 120.997 185.015 120.986C185.015 120.976 185.015 120.965 185.015 120.955C185.015 120.944 185.015 120.934 185.015 120.923C185.015 120.913 185.015 120.902 185.015 120.892C185.015 120.881 185.015 120.871 185.015 120.861C185.015 120.85 185.015 120.84 185.015 120.829C185.015 120.819 185.015 120.809 185.015 120.798C185.015 120.788 185.015 120.777 185.015 120.767C185.015 120.757 185.015 120.746 185.015 120.736C185.015 120.726 185.015 120.715 185.015 120.705C185.015 120.695 185.015 120.684 185.015 120.674C185.015 120.664 185.015 120.653 185.015 120.643C185.015 120.633 185.015 120.622 185.015 120.612C185.015 120.602 185.015 120.592 185.015 120.581C185.015 120.571 185.015 120.561 185.015 120.551C185.015 120.54 185.015 120.53 185.015 120.52C185.015 120.51 185.015 120.499 185.015 120.489C185.015 120.479 185.015 120.469 185.015 120.459C185.015 120.449 185.015 120.438 185.015 120.428C185.015 120.418 185.015 120.408 185.015 120.398C185.015 120.388 185.015 120.377 185.015 120.367C185.015 120.357 185.015 120.347 185.015 120.337C185.015 120.327 185.015 120.317 185.015 120.307C185.015 120.296 185.015 120.286 185.015 120.276C185.015 120.266 185.015 120.256 185.015 120.246C185.015 120.236 185.015 120.226 185.015 120.216C185.015 120.206 185.015 120.196 185.015 120.186C185.015 120.176 185.015 120.166 185.015 120.156C185.015 120.146 185.015 120.136 185.015 120.126C185.015 120.116 185.015 120.106 185.015 120.096C185.015 120.086 185.015 120.076 185.015 120.066C185.015 120.056 185.015 120.046 185.015 120.036C185.015 120.026 185.015 120.016 185.015 120.006C185.015 119.997 185.015 119.987 185.015 119.977C185.015 119.967 185.015 119.957 185.015 119.947C185.015 119.937 185.015 119.927 185.015 119.917C185.015 119.908 185.015 119.898 185.015 119.888C185.015 119.878 185.015 119.868 185.015 119.858C185.015 119.849 185.015 119.839 185.015 119.829C185.015 119.819 185.015 119.809 185.015 119.8C185.015 119.79 185.015 119.78 185.015 119.77C185.015 119.76 185.015 119.751 185.015 119.741C185.015 119.731 185.015 119.721 185.015 119.712C185.015 119.702 185.015 119.692 185.015 119.683C185.015 119.673 185.015 119.663 185.015 119.653C185.015 119.644 185.015 119.634 185.015 119.624C185.015 119.615 185.015 119.605 185.015 119.595C185.015 119.586 185.015 119.576 185.015 119.566C185.015 119.557 185.015 119.547 185.015 119.537C185.015 119.528 185.015 119.518 185.015 119.509C185.015 119.499 185.015 119.489 185.015 119.48C185.015 119.47 185.015 119.461 185.015 119.451C185.015 119.441 185.015 119.432 185.015 119.422C185.015 119.413 185.015 119.403 185.015 119.394C185.015 119.384 185.015 119.375 185.015 119.365C185.015 119.356 185.015 119.346 185.015 119.337C185.015 119.327 185.015 119.318 185.015 119.308C185.015 119.299 185.015 119.289 185.015 119.28C185.015 119.27 185.015 119.261 185.015 119.251C185.015 119.242 185.015 119.232 185.015 119.223C185.015 119.213 185.015 119.204 185.015 119.195C185.015 119.185 185.015 119.176 185.015 119.166C185.015 119.157 185.015 119.148 185.015 119.138C185.015 119.129 185.015 119.12 185.015 119.11C185.015 119.101 185.015 119.091 185.015 119.082C185.015 119.073 185.015 119.063 185.015 119.054C185.015 119.045 185.015 119.035 185.015 119.026C185.015 119.017 185.015 119.008 185.015 118.998C185.015 118.989 185.015 118.98 185.015 118.97C185.015 118.961 185.015 118.952 185.015 118.943C185.015 118.933 185.015 118.924 185.015 118.915C185.015 118.906 185.015 118.896 185.015 118.887C185.015 118.878 185.015 118.869 185.015 118.859C185.015 118.85 185.015 118.841 185.015 118.832C185.015 118.823 185.015 118.814 185.015 118.804C185.015 118.795 185.015 118.786 185.015 118.777C185.015 118.768 185.015 118.759 185.015 118.749C185.015 118.74 185.015 118.731 185.015 118.722C185.015 118.713 185.015 118.704 185.015 118.695C185.015 118.686 185.015 118.677 185.015 118.667C185.015 118.658 185.015 118.649 185.015 118.64C185.015 118.631 185.015 118.622 185.015 118.613C185.015 118.604 185.015 118.595 185.015 118.586C185.015 118.577 185.015 118.568 185.015 118.559C185.015 118.55 185.015 118.541 185.015 118.532C185.015 118.523 185.015 118.514 185.015 118.505C185.015 118.496 185.015 118.487 185.015 118.478C185.015 118.469 185.015 118.46 185.015 118.451C185.015 118.442 185.015 118.433 185.015 118.424C185.015 118.415 185.015 118.406 185.015 118.398C185.015 118.389 185.015 118.38 185.015 118.371C185.015 118.362 185.015 118.353 185.015 118.344C185.015 118.335 185.015 118.326 185.015 118.318C185.015 118.309 185.015 118.3 185.015 118.291C185.015 118.282 185.015 118.273 185.015 118.265C185.015 118.256 185.015 118.247 185.015 118.238C185.015 118.229 185.015 118.22 185.015 118.212C185.015 118.203 185.015 118.194 185.015 118.185C185.015 118.177 185.015 118.168 185.015 118.159C185.015 118.15 185.015 118.142 185.015 118.133C185.015 118.124 185.015 118.115 185.015 118.107C185.015 118.098 185.015 118.089 185.015 118.08C185.015 118.072 185.015 118.063 185.015 118.054C185.015 118.046 185.015 118.037 185.015 118.028C185.015 118.02 185.015 118.011 185.015 118.002C185.015 117.994 185.015 117.985 185.015 117.976C185.015 117.968 185.015 117.959 185.015 117.951C185.015 117.942 185.015 117.933 185.015 117.925C185.015 117.916 185.015 117.908 185.015 117.899C185.015 117.89 185.015 117.882 185.015 117.873C185.015 117.865 185.015 117.856 185.015 117.848C185.015 117.839 185.015 117.83 185.015 117.822C185.015 117.813 185.015 117.805 185.015 117.796C185.015 117.788 185.015 117.779 185.015 117.771C185.015 117.762 185.015 117.754 185.015 117.745C185.015 117.737 185.015 117.728 185.015 117.72C185.015 117.711 185.015 117.703 185.015 117.695C185.015 117.686 185.015 117.678 185.015 117.669C185.015 117.661 185.015 117.652 185.015 117.644C185.015 117.636 185.015 117.627 185.015 117.619C185.015 117.61 185.015 117.602 185.015 117.594C185.015 117.585 185.015 117.577 185.015 117.568C185.015 117.56 185.015 117.552 185.015 117.543C185.015 117.535 185.015 117.527 185.015 117.518C185.015 117.51 185.015 117.502 185.015 117.493C185.015 117.485 185.015 117.477 185.015 117.468C185.015 117.46 185.015 117.452 185.015 117.444C185.015 117.435 185.015 117.427 185.015 117.419H183.515C183.515 117.427 183.515 117.435 183.515 117.444C183.515 117.452 183.515 117.46 183.515 117.468C183.515 117.477 183.515 117.485 183.515 117.493C183.515 117.502 183.515 117.51 183.515 117.518C183.515 117.527 183.515 117.535 183.515 117.543C183.515 117.552 183.515 117.56 183.515 117.568C183.515 117.577 183.515 117.585 183.515 117.594C183.515 117.602 183.515 117.61 183.515 117.619C183.515 117.627 183.515 117.636 183.515 117.644C183.515 117.652 183.515 117.661 183.515 117.669C183.515 117.678 183.515 117.686 183.515 117.695C183.515 117.703 183.515 117.711 183.515 117.72C183.515 117.728 183.515 117.737 183.515 117.745C183.515 117.754 183.515 117.762 183.515 117.771C183.515 117.779 183.515 117.788 183.515 117.796C183.515 117.805 183.515 117.813 183.515 117.822C183.515 117.83 183.515 117.839 183.515 117.848C183.515 117.856 183.515 117.865 183.515 117.873C183.515 117.882 183.515 117.89 183.515 117.899C183.515 117.908 183.515 117.916 183.515 117.925C183.515 117.933 183.515 117.942 183.515 117.951C183.515 117.959 183.515 117.968 183.515 117.976C183.515 117.985 183.515 117.994 183.515 118.002C183.515 118.011 183.515 118.02 183.515 118.028C183.515 118.037 183.515 118.046 183.515 118.054C183.515 118.063 183.515 118.072 183.515 118.08C183.515 118.089 183.515 118.098 183.515 118.107C183.515 118.115 183.515 118.124 183.515 118.133C183.515 118.142 183.515 118.15 183.515 118.159C183.515 118.168 183.515 118.177 183.515 118.185C183.515 118.194 183.515 118.203 183.515 118.212C183.515 118.22 183.515 118.229 183.515 118.238C183.515 118.247 183.515 118.256 183.515 118.265C183.515 118.273 183.515 118.282 183.515 118.291C183.515 118.3 183.515 118.309 183.515 118.318C183.515 118.326 183.515 118.335 183.515 118.344C183.515 118.353 183.515 118.362 183.515 118.371C183.515 118.38 183.515 118.389 183.515 118.398C183.515 118.406 183.515 118.415 183.515 118.424C183.515 118.433 183.515 118.442 183.515 118.451C183.515 118.46 183.515 118.469 183.515 118.478C183.515 118.487 183.515 118.496 183.515 118.505C183.515 118.514 183.515 118.523 183.515 118.532C183.515 118.541 183.515 118.55 183.515 118.559C183.515 118.568 183.515 118.577 183.515 118.586C183.515 118.595 183.515 118.604 183.515 118.613C183.515 118.622 183.515 118.631 183.515 118.64C183.515 118.649 183.515 118.658 183.515 118.667C183.515 118.677 183.515 118.686 183.515 118.695C183.515 118.704 183.515 118.713 183.515 118.722C183.515 118.731 183.515 118.74 183.515 118.749C183.515 118.759 183.515 118.768 183.515 118.777C183.515 118.786 183.515 118.795 183.515 118.804C183.515 118.814 183.515 118.823 183.515 118.832C183.515 118.841 183.515 118.85 183.515 118.859C183.515 118.869 183.515 118.878 183.515 118.887C183.515 118.896 183.515 118.906 183.515 118.915C183.515 118.924 183.515 118.933 183.515 118.943C183.515 118.952 183.515 118.961 183.515 118.97C183.515 118.98 183.515 118.989 183.515 118.998C183.515 119.008 183.515 119.017 183.515 119.026C183.515 119.035 183.515 119.045 183.515 119.054C183.515 119.063 183.515 119.073 183.515 119.082C183.515 119.091 183.515 119.101 183.515 119.11C183.515 119.12 183.515 119.129 183.515 119.138C183.515 119.148 183.515 119.157 183.515 119.166C183.515 119.176 183.515 119.185 183.515 119.195C183.515 119.204 183.515 119.213 183.515 119.223C183.515 119.232 183.515 119.242 183.515 119.251C183.515 119.261 183.515 119.27 183.515 119.28C183.515 119.289 183.515 119.299 183.515 119.308C183.515 119.318 183.515 119.327 183.515 119.337C183.515 119.346 183.515 119.356 183.515 119.365C183.515 119.375 183.515 119.384 183.515 119.394C183.515 119.403 183.515 119.413 183.515 119.422C183.515 119.432 183.515 119.441 183.515 119.451C183.515 119.461 183.515 119.47 183.515 119.48C183.515 119.489 183.515 119.499 183.515 119.509C183.515 119.518 183.515 119.528 183.515 119.537C183.515 119.547 183.515 119.557 183.515 119.566C183.515 119.576 183.515 119.586 183.515 119.595C183.515 119.605 183.515 119.615 183.515 119.624C183.515 119.634 183.515 119.644 183.515 119.653C183.515 119.663 183.515 119.673 183.515 119.683C183.515 119.692 183.515 119.702 183.515 119.712C183.515 119.721 183.515 119.731 183.515 119.741C183.515 119.751 183.515 119.76 183.515 119.77C183.515 119.78 183.515 119.79 183.515 119.8C183.515 119.809 183.515 119.819 183.515 119.829C183.515 119.839 183.515 119.849 183.515 119.858C183.515 119.868 183.515 119.878 183.515 119.888C183.515 119.898 183.515 119.908 183.515 119.917C183.515 119.927 183.515 119.937 183.515 119.947C183.515 119.957 183.515 119.967 183.515 119.977C183.515 119.987 183.515 119.997 183.515 120.006C183.515 120.016 183.515 120.026 183.515 120.036C183.515 120.046 183.515 120.056 183.515 120.066C183.515 120.076 183.515 120.086 183.515 120.096C183.515 120.106 183.515 120.116 183.515 120.126C183.515 120.136 183.515 120.146 183.515 120.156C183.515 120.166 183.515 120.176 183.515 120.186C183.515 120.196 183.515 120.206 183.515 120.216C183.515 120.226 183.515 120.236 183.515 120.246C183.515 120.256 183.515 120.266 183.515 120.276C183.515 120.286 183.515 120.296 183.515 120.307C183.515 120.317 183.515 120.327 183.515 120.337C183.515 120.347 183.515 120.357 183.515 120.367C183.515 120.377 183.515 120.388 183.515 120.398C183.515 120.408 183.515 120.418 183.515 120.428C183.515 120.438 183.515 120.449 183.515 120.459C183.515 120.469 183.515 120.479 183.515 120.489C183.515 120.499 183.515 120.51 183.515 120.52C183.515 120.53 183.515 120.54 183.515 120.551C183.515 120.561 183.515 120.571 183.515 120.581C183.515 120.592 183.515 120.602 183.515 120.612C183.515 120.622 183.515 120.633 183.515 120.643C183.515 120.653 183.515 120.664 183.515 120.674C183.515 120.684 183.515 120.695 183.515 120.705C183.515 120.715 183.515 120.726 183.515 120.736C183.515 120.746 183.515 120.757 183.515 120.767C183.515 120.777 183.515 120.788 183.515 120.798C183.515 120.809 183.515 120.819 183.515 120.829C183.515 120.84 183.515 120.85 183.515 120.861C183.515 120.871 183.515 120.881 183.515 120.892C183.515 120.902 183.515 120.913 183.515 120.923C183.515 120.934 183.515 120.944 183.515 120.955C183.515 120.965 183.515 120.976 183.515 120.986C183.515 120.997 183.515 121.007 183.515 121.018C183.515 121.028 183.515 121.039 183.515 121.049C183.515 121.06 183.515 121.07 183.515 121.081C183.515 121.091 183.515 121.102 183.515 121.113C183.515 121.123 183.515 121.134 183.515 121.144C183.515 121.155 183.515 121.165 183.515 121.176C183.515 121.187 183.515 121.197 183.515 121.208C183.515 121.219 183.515 121.229 183.515 121.24C183.515 121.25 183.515 121.261 183.515 121.272C183.515 121.282 183.515 121.293 183.515 121.304C183.515 121.314 183.515 121.325 183.515 121.336C183.515 121.347 183.515 121.357 183.515 121.368C183.515 121.379 183.515 121.389 183.515 121.4C183.515 121.411 183.515 121.422 183.515 121.432C183.515 121.443 183.515 121.454 183.515 121.465C183.515 121.476 183.515 121.486 183.515 121.497C183.515 121.508 183.515 121.519 183.515 121.529C183.515 121.54 183.515 121.551 183.515 121.562C183.515 121.573 183.515 121.584 183.515 121.594C183.515 121.605 183.515 121.616 183.515 121.627C183.515 121.638 183.515 121.649 183.515 121.66C183.515 121.671 183.515 121.681 183.515 121.692C183.515 121.703 183.515 121.714 183.515 121.725C183.515 121.736 183.515 121.747 183.515 121.758C183.515 121.769 183.515 121.78 183.515 121.791C183.515 121.802 183.515 121.813 183.515 121.824C183.515 121.835 183.515 121.846 183.515 121.857C183.515 121.868 183.515 121.879 183.515 121.89C183.515 121.901 183.515 121.912 183.515 121.923C183.515 121.934 183.515 121.945 183.515 121.956C183.515 121.967 183.515 121.978 183.515 121.989C183.515 122 183.515 122.011 183.515 122.022C183.515 122.033 183.515 122.045 183.515 122.056C183.515 122.067 183.515 122.078 183.515 122.089C183.515 122.1 183.515 122.111 183.515 122.122C183.515 122.134 183.515 122.145 183.515 122.156C183.515 122.167 183.515 122.178 183.515 122.189C183.515 122.201 183.515 122.212 183.515 122.223C183.515 122.234 183.515 122.246 183.515 122.257C183.515 122.268 183.515 122.279 183.515 122.29C183.515 122.302 183.515 122.313 183.515 122.324C183.515 122.335 183.515 122.347 183.515 122.358C183.515 122.369 183.515 122.381 183.515 122.392C183.515 122.403 183.515 122.415 183.515 122.426C183.515 122.437 183.515 122.448 183.515 122.46C183.515 122.471 183.515 122.483 183.515 122.494C183.515 122.505 183.515 122.517 183.515 122.528C183.515 122.539 183.515 122.551 183.515 122.562C183.515 122.574 183.515 122.585 183.515 122.596C183.515 122.608 183.515 122.619 183.515 122.631C183.515 122.642 183.515 122.654 183.515 122.665C183.515 122.676 183.515 122.688 183.515 122.699C183.515 122.711 183.515 122.722 183.515 122.734C183.515 122.745 183.515 122.757 183.515 122.768C183.515 122.78 183.515 122.791 183.515 122.803C183.515 122.814 183.515 122.826 183.515 122.838C183.515 122.849 183.515 122.861 183.515 122.872C183.515 122.884 183.515 122.895 183.515 122.907C183.515 122.919 183.515 122.93 183.515 122.942C183.515 122.953 183.515 122.965 183.515 122.977C183.515 122.988 183.515 123 183.515 123.011C183.515 123.023 183.515 123.035 183.515 123.046C183.515 123.058 183.515 123.07 183.515 123.081C183.515 123.093 183.515 123.105 183.515 123.117C183.515 123.128 183.515 123.14 183.515 123.152C183.515 123.163 183.515 123.175 183.515 123.187C183.515 123.199 183.515 123.21 183.515 123.222C183.515 123.234 183.515 123.246 183.515 123.257C183.515 123.269 183.515 123.281 183.515 123.293C183.515 123.305 183.515 123.316 183.515 123.328C183.515 123.34 183.515 123.352 183.515 123.364C183.515 123.376 183.515 123.387 183.515 123.399C183.515 123.411 183.515 123.423 183.515 123.435C183.515 123.447 183.515 123.459 183.515 123.471C183.515 123.482 183.515 123.494 183.515 123.506C183.515 123.518 183.515 123.53 183.515 123.542C183.515 123.554 183.515 123.566 183.515 123.578C183.515 123.59 183.515 123.602 183.515 123.614C183.515 123.626 183.515 123.638 183.515 123.65C183.515 123.662 183.515 123.674 183.515 123.686C183.515 123.698 183.515 123.71 183.515 123.722C183.515 123.734 183.515 123.746 183.515 123.758C183.515 123.77 183.515 123.782 183.515 123.794C183.515 123.806 183.515 123.818 183.515 123.83C183.515 123.843 183.515 123.855 183.515 123.867C183.515 123.879 183.515 123.891 183.515 123.903C183.515 123.915 183.515 123.927 183.515 123.94C183.515 123.952 183.515 123.964 183.515 123.976C183.515 123.988 183.515 124 183.515 124.013C183.515 124.025 183.515 124.037 183.515 124.049C183.515 124.061 183.515 124.074 183.515 124.086C183.515 124.098 183.515 124.11 183.515 124.123C183.515 124.135 183.515 124.147 183.515 124.159C183.515 124.172 183.515 124.184 183.515 124.196C183.515 124.208 183.515 124.221 183.515 124.233C183.515 124.245 183.515 124.258 183.515 124.27C183.515 124.282 183.515 124.295 183.515 124.307C183.515 124.319 183.515 124.332 183.515 124.344C183.515 124.356 183.515 124.369 183.515 124.381C183.515 124.394 183.515 124.406 183.515 124.418C183.515 124.431 183.515 124.443 183.515 124.456C183.515 124.468 183.515 124.48 183.515 124.493C183.515 124.505 183.515 124.518 183.515 124.53C183.515 124.543 183.515 124.555 183.515 124.568C183.515 124.58 183.515 124.593 183.515 124.605C183.515 124.618 183.515 124.63 183.515 124.643C183.515 124.655 183.515 124.668 183.515 124.68C183.515 124.693 183.515 124.705 183.515 124.718C183.515 124.731 183.515 124.743 183.515 124.756C183.515 124.768 183.515 124.781 183.515 124.794C183.515 124.806 183.515 124.819 183.515 124.831C183.515 124.844 183.515 124.857 183.515 124.869C183.515 124.882 183.515 124.895 183.515 124.907C183.515 124.92 183.515 124.933 183.515 124.945C183.515 124.958 183.515 124.971 183.515 124.983C183.515 124.996 183.515 125.009 183.515 125.022C183.515 125.034 183.515 125.047 183.515 125.06C183.515 125.072 183.515 125.085 183.515 125.098C183.515 125.111 183.515 125.124 183.515 125.136C183.515 125.149 183.515 125.162 183.515 125.175C183.515 125.187 183.515 125.2 183.515 125.213C183.515 125.226 183.515 125.239 183.515 125.252C183.515 125.264 183.515 125.277 183.515 125.29C183.515 125.303 183.515 125.316 183.515 125.329C183.515 125.342 183.515 125.355 183.515 125.368C183.515 125.38 183.515 125.393 183.515 125.406C183.515 125.419 183.515 125.432 183.515 125.445C183.515 125.458 183.515 125.471 183.515 125.484C183.515 125.497 183.515 125.51 183.515 125.523C183.515 125.536 183.515 125.549 183.515 125.562C183.515 125.575 183.515 125.588 183.515 125.601C183.515 125.614 183.515 125.627 183.515 125.64C183.515 125.653 183.515 125.666 183.515 125.679C183.515 125.692 183.515 125.705 183.515 125.718C183.515 125.731 183.515 125.745 183.515 125.758C183.515 125.771 183.515 125.784 183.515 125.797C183.515 125.81 183.515 125.823 183.515 125.836C183.515 125.85 183.515 125.863 183.515 125.876C183.515 125.889 183.515 125.902 183.515 125.915C183.515 125.929 183.515 125.942 183.515 125.955C183.515 125.968 183.515 125.981 183.515 125.995C183.515 126.008 183.515 126.021 183.515 126.034C183.515 126.048 183.515 126.061 183.515 126.074C183.515 126.087 183.515 126.101 183.515 126.114C183.515 126.127 183.515 126.141 183.515 126.154C183.515 126.167 183.515 126.181 183.515 126.194C183.515 126.207 183.515 126.221 183.515 126.234C183.515 126.247 183.515 126.261 183.515 126.274C183.515 126.287 183.515 126.301 183.515 126.314C183.515 126.328 183.515 126.341 183.515 126.354C183.515 126.368 183.515 126.381 183.515 126.395C183.515 126.408 183.515 126.421 183.515 126.435C183.515 126.448 183.515 126.462 183.515 126.475C183.515 126.489 183.515 126.502 183.515 126.516C183.515 126.529 183.515 126.543 183.515 126.556C183.515 126.57 183.515 126.583 183.515 126.597C183.515 126.61 183.515 126.624 183.515 126.637C183.515 126.651 183.515 126.665 183.515 126.678C183.515 126.692 183.515 126.705 183.515 126.719C183.515 126.733 183.515 126.746 183.515 126.76C183.515 126.773 183.515 126.787 183.515 126.801C183.515 126.814 183.515 126.828 183.515 126.842C183.515 126.855 183.515 126.869 183.515 126.883C183.515 126.896 183.515 126.91 183.515 126.924C183.515 126.937 183.515 126.951 183.515 126.965C183.515 126.978 183.515 126.992 183.515 127.006C183.515 127.02 183.515 127.033 183.515 127.047C183.515 127.061 183.515 127.075 183.515 127.089C183.515 127.102 183.515 127.116 183.515 127.13C183.515 127.144 183.515 127.158 183.515 127.171C183.515 127.185 183.515 127.199 183.515 127.213C183.515 127.227 183.515 127.241 183.515 127.254C183.515 127.268 183.515 127.282 183.515 127.296C183.515 127.31 183.515 127.324 183.515 127.338C183.515 127.352 183.515 127.366 183.515 127.379C183.515 127.393 183.515 127.407 183.515 127.421C183.515 127.435 183.515 127.449 183.515 127.463C183.515 127.477 183.515 127.491 183.515 127.505C183.515 127.519 183.515 127.533 183.515 127.547C183.515 127.561 183.515 127.575 183.515 127.589C183.515 127.603 183.515 127.617 183.515 127.631C183.515 127.645 183.515 127.659 183.515 127.673C183.515 127.688 183.515 127.702 183.515 127.716C183.515 127.73 183.515 127.744 183.515 127.758C183.515 127.772 183.515 127.786 183.515 127.8C183.515 127.814 183.515 127.829 183.515 127.843C183.515 127.857 183.515 127.871 183.515 127.885C183.515 127.899 183.515 127.914 183.515 127.928C183.515 127.942 183.515 127.956 183.515 127.97C183.515 127.985 183.515 127.999 183.515 128.013C183.515 128.027 183.515 128.042 183.515 128.056C183.515 128.07 183.515 128.084 183.515 128.099C183.515 128.113 183.515 128.127 183.515 128.142C183.515 128.156 183.515 128.17 183.515 128.185C183.515 128.199 183.515 128.213 183.515 128.228C183.515 128.242 183.515 128.256 183.515 128.271C183.515 128.285 183.515 128.299 183.515 128.314C183.515 128.328 183.515 128.343 183.515 128.357C183.515 128.371 183.515 128.386 183.515 128.4C183.515 128.415 183.515 128.429 183.515 128.443C183.515 128.458 183.515 128.472 183.515 128.487C183.515 128.501 183.515 128.516 183.515 128.53C183.515 128.545 183.515 128.559 183.515 128.574C183.515 128.588 183.515 128.603 183.515 128.617C183.515 128.632 183.515 128.646 183.515 128.661C183.515 128.676 183.515 128.69 183.515 128.705C183.515 128.719 183.515 128.734 183.515 128.748C183.515 128.763 183.515 128.778 183.515 128.792C183.515 128.807 183.515 128.822 183.515 128.836C183.515 128.851 183.515 128.865 183.515 128.88C183.515 128.895 183.515 128.909 183.515 128.924C183.515 128.939 183.515 128.954 183.515 128.968C183.515 128.983 183.515 128.998 183.515 129.012C183.515 129.027 183.515 129.042 183.515 129.057C183.515 129.071 183.515 129.086 183.515 129.101C183.515 129.116 183.515 129.13 183.515 129.145C183.515 129.16 183.515 129.175 183.515 129.19C183.515 129.204 183.515 129.219 183.515 129.234C183.515 129.249 183.515 129.264 183.515 129.279C183.515 129.293 183.515 129.308 183.515 129.323C183.515 129.338 183.515 129.353 183.515 129.368C183.515 129.383 183.515 129.398 183.515 129.413C183.515 129.427 183.515 129.442 183.515 129.457C183.515 129.472 183.515 129.487 183.515 129.502C183.515 129.517 183.515 129.532 183.515 129.547C183.515 129.562 183.515 129.577 183.515 129.592C183.515 129.607 183.515 129.622 183.515 129.637C183.515 129.652 183.515 129.667 183.515 129.682C183.515 129.697 183.515 129.712 183.515 129.727C183.515 129.742 183.515 129.758 183.515 129.773C183.515 129.788 183.515 129.803 183.515 129.818C183.515 129.833 183.515 129.848 183.515 129.863C183.515 129.878 183.515 129.894 183.515 129.909C183.515 129.924 183.515 129.939 183.515 129.954C183.515 129.969 183.515 129.985 183.515 130C183.515 130.015 183.515 130.03 183.515 130.045C183.515 130.061 183.515 130.076 183.515 130.091C183.515 130.106 183.515 130.122 183.515 130.137C183.515 130.152 183.515 130.167 183.515 130.183C183.515 130.198 183.515 130.213 183.515 130.229C183.515 130.244 183.515 130.259 183.515 130.274C183.515 130.29 183.515 130.305 183.515 130.32C183.515 130.336 183.515 130.351 183.515 130.367C183.515 130.382 183.515 130.397 183.515 130.413C183.515 130.428 183.515 130.443 183.515 130.459C183.515 130.474 183.515 130.49 183.515 130.505C183.515 130.521 183.515 130.536 183.515 130.551C183.515 130.567 183.515 130.582 183.515 130.598C183.515 130.613 183.515 130.629 183.515 130.644C183.515 130.66 183.515 130.675 183.515 130.691C183.515 130.706 183.515 130.722 183.515 130.737C183.515 130.753 183.515 130.769 183.515 130.784C183.515 130.8 183.515 130.815 183.515 130.831C183.515 130.846 183.515 130.862 183.515 130.878C183.515 130.893 183.515 130.909 183.515 130.925C183.515 130.94 183.515 130.956 183.515 130.971C183.515 130.987 183.515 131.003 183.515 131.018C183.515 131.034 183.515 131.05 183.515 131.065C183.515 131.081 183.515 131.097 183.515 131.113C183.515 131.128 183.515 131.144 183.515 131.16C183.515 131.176 183.515 131.191 183.515 131.207C183.515 131.223 183.515 131.239 183.515 131.254C183.515 131.27 183.515 131.286 183.515 131.302C183.515 131.318 183.515 131.333 183.515 131.349C183.515 131.365 183.515 131.381 183.515 131.397C183.515 131.413 183.515 131.428 183.515 131.444C183.515 131.46 183.515 131.476 183.515 131.492C183.515 131.508 183.515 131.524 183.515 131.54C183.515 131.556 183.515 131.572 183.515 131.587C183.515 131.603 183.515 131.619 183.515 131.635C183.515 131.651 183.515 131.667 183.515 131.683C183.515 131.699 183.515 131.715 183.515 131.731C183.515 131.747 183.515 131.763 183.515 131.779C183.515 131.795 183.515 131.811 183.515 131.827C183.515 131.843 183.515 131.859 183.515 131.875C183.515 131.892 183.515 131.908 183.515 131.924C183.515 131.94 183.515 131.956 183.515 131.972C183.515 131.988 183.515 132.004 183.515 132.02C183.515 132.037 183.515 132.053 183.515 132.069C183.515 132.085 183.515 132.101 183.515 132.117C183.515 132.134 183.515 132.15 183.515 132.166C183.515 132.182 183.515 132.198 183.515 132.215C183.515 132.231 183.515 132.247 183.515 132.263C183.515 132.28 183.515 132.296 183.515 132.312C183.515 132.328 183.515 132.345 183.515 132.361C183.515 132.377 183.515 132.393 183.515 132.41C183.515 132.426 183.515 132.442 183.515 132.459C183.515 132.475 183.515 132.491 183.515 132.508C183.515 132.524 183.515 132.541 183.515 132.557C183.515 132.573 183.515 132.59 183.515 132.606C183.515 132.623 183.515 132.639 183.515 132.655C183.515 132.672 183.515 132.688 183.515 132.705C183.515 132.721 183.515 132.738 183.515 132.754C183.515 132.771 183.515 132.787 183.515 132.803C183.515 132.82 183.515 132.836 183.515 132.853C183.515 132.869 183.515 132.886 183.515 132.903C183.515 132.919 183.515 132.936 183.515 132.952C183.515 132.969 183.515 132.985 183.515 133.002C183.515 133.018 183.515 133.035 183.515 133.052C183.515 133.068 183.515 133.085 183.515 133.102C183.515 133.118 183.515 133.135 183.515 133.151C183.515 133.168 183.515 133.185 183.515 133.201C183.515 133.218 183.515 133.235 183.515 133.251C183.515 133.268 183.515 133.285 183.515 133.302C183.515 133.318 183.515 133.335 183.515 133.352C183.515 133.369 183.515 133.385 183.515 133.402C183.515 133.419 183.515 133.436 183.515 133.452C183.515 133.469 183.515 133.486 183.515 133.503C183.515 133.52 183.515 133.536 183.515 133.553C183.515 133.57 183.515 133.587 183.515 133.604C183.515 133.621 183.515 133.637 183.515 133.654C183.515 133.671 183.515 133.688 183.515 133.705C183.515 133.722 183.515 133.739 183.515 133.756C183.515 133.773 183.515 133.79 183.515 133.806C183.515 133.823 183.515 133.84 183.515 133.857C183.515 133.874 183.515 133.891 183.515 133.908C183.515 133.925 183.515 133.942 183.515 133.959C183.515 133.976 183.515 133.993 183.515 134.01C183.515 134.027 183.515 134.044 183.515 134.061C183.515 134.078 183.515 134.096 183.515 134.113C183.515 134.13 183.515 134.147 183.515 134.164C183.515 134.181 183.515 134.198 183.515 134.215C183.515 134.232 183.515 134.249 183.515 134.267C183.515 134.284 183.515 134.301 183.515 134.318C183.515 134.335 183.515 134.352 183.515 134.37C183.515 134.387 183.515 134.404 183.515 134.421C183.515 134.438 183.515 134.456 183.515 134.473C183.515 134.49 183.515 134.507 183.515 134.525C183.515 134.542 183.515 134.559 183.515 134.576C183.515 134.594 183.515 134.611 183.515 134.628C183.515 134.646 183.515 134.663 183.515 134.68C183.515 134.698 183.515 134.715 183.515 134.732C183.515 134.75 183.515 134.767 183.515 134.784C183.515 134.802 183.515 134.819 183.515 134.837C183.515 134.854 183.515 134.871 183.515 134.889C183.515 134.906 183.515 134.924 183.515 134.941C183.515 134.959 183.515 134.976 183.515 134.993C183.515 135.011 183.515 135.028 183.515 135.046C183.515 135.063 183.515 135.081 183.515 135.098C183.515 135.116 183.515 135.133 183.515 135.151C183.515 135.168 183.515 135.186 183.515 135.204C183.515 135.221 183.515 135.239 183.515 135.256C183.515 135.274 183.515 135.291 183.515 135.309C183.515 135.327 183.515 135.344 183.515 135.362C183.515 135.38 183.515 135.397 183.515 135.415C183.515 135.432 183.515 135.45 183.515 135.468C183.515 135.485 183.515 135.503 183.515 135.521C183.515 135.539 183.515 135.556 183.515 135.574C183.515 135.592 183.515 135.609 183.515 135.627C183.515 135.645 183.515 135.663 183.515 135.68C183.515 135.698 183.515 135.716 183.515 135.734C183.515 135.752 183.515 135.769 183.515 135.787C183.515 135.805 183.515 135.823 183.515 135.841C183.515 135.858 183.515 135.876 183.515 135.894C183.515 135.912 183.515 135.93 183.515 135.948C183.515 135.966 183.515 135.984 183.515 136.001C183.515 136.019 183.515 136.037 183.515 136.055C183.515 136.073 183.515 136.091 183.515 136.109C183.515 136.127 183.515 136.145 183.515 136.163C183.515 136.181 183.515 136.199 183.515 136.217C183.515 136.235 183.515 136.253 183.515 136.271C183.515 136.289 183.515 136.307 183.515 136.325C183.515 136.343 183.515 136.361 183.515 136.379C183.515 136.397 183.515 136.415 183.515 136.433C183.515 136.451 183.515 136.47 183.515 136.488C183.515 136.506 183.515 136.524 183.515 136.542C183.515 136.56 183.515 136.578 183.515 136.596C183.515 136.615 183.515 136.633 183.515 136.651C183.515 136.669 183.515 136.687 183.515 136.706C183.515 136.724 183.515 136.742 183.515 136.76C183.515 136.778 183.515 136.797 183.515 136.815C183.515 136.833 183.515 136.851 183.515 136.87C183.515 136.888 183.515 136.906 183.515 136.925C183.515 136.943 183.515 136.961 183.515 136.98C183.515 136.998 183.515 137.016 183.515 137.035C183.515 137.053 183.515 137.071 183.515 137.09C183.515 137.108 183.515 137.126 183.515 137.145C183.515 137.163 183.515 137.182 183.515 137.2C183.515 137.218 183.515 137.237 183.515 137.255C183.515 137.274 183.515 137.292 183.515 137.311C183.515 137.329 183.515 137.348 183.515 137.366C183.515 137.384 183.515 137.403 183.515 137.422C183.515 137.44 183.515 137.459 183.515 137.477C183.515 137.496 183.515 137.514 183.515 137.533C183.515 137.551 183.515 137.57 183.515 137.588H185.015Z" fill="black"/>
<path d="M123.573 5.32087L116.073 0.990746L116.073 9.651L123.573 5.32087ZM4.92904 64.1117L9.25916 56.6117L0.598907 56.6117L4.92904 64.1117ZM116.823 4.57087L30.8236 4.57088L30.8236 6.07088L116.823 6.07087L116.823 4.57087ZM30.8236 4.57088C24.5831 4.57088 17.9394 6.24872 12.8359 10.0764C7.70445 13.925 4.17902 19.9143 4.17902 28.3907L5.67902 28.3907C5.67902 20.3886 8.98036 14.843 13.7359 11.2764C18.5194 7.68872 24.8231 6.07088 30.8236 6.07088L30.8236 4.57088ZM4.17902 28.3907C4.17902 40.5477 4.17903 50.9441 4.17903 57.3623L5.67903 57.3623C5.67903 50.9441 5.67902 40.5477 5.67902 28.3907L4.17902 28.3907Z" fill="black"/>
</svg>
