<svg width="217" height="145" viewBox="0 0 217 145" fill="none" xmlns="http://www.w3.org/2000/svg">
  <mask maskUnits="userSpaceOnUse" x="0" y="0" width="0" height="0" fill="black">
    <rect fill="white" width="0" height="0" />
  </mask>
  <path
    d="M216.589 49.6403L210.173 43.823L208.343 52.2877L216.589 49.6403ZM0.841505 2.99478L7.25708 8.81203L9.08718 0.347356L0.841505 2.99478ZM210.15 47.4808L7.59756 3.68814L7.28058 5.15427L209.833 48.9469L210.15 47.4808Z"
    fill="black" mask="url(#)" />
  <mask maskUnits="userSpaceOnUse" x="0" y="0" width="0" height="0" fill="black">
    <rect fill="white" width="0" height="0" />
  </mask>
  <path
    d="M212.565 2.83547L204.038 4.35319L209.616 10.9783L212.565 2.83547ZM43.9717 144.77L52.4979 143.252L46.9204 136.627L43.9717 144.77ZM206.918 6.60895L48.6524 139.849L49.6184 140.997L207.884 7.75644L206.918 6.60895Z"
    fill="black" mask="url(#)" />
</svg>