<svg xmlns="http://www.w3.org/2000/svg" viewBox="0 0 122 60"><path d="M23.51,25.23c-2.27-3.57,1.76-7.68,4.1-10.13C41.35,1.73,64.6,.42,82.71,2.34c13.03,1.64,28.48,5.05,36.21,16.76,2.01,3.41,3.53,7.51,2.46,11.49-3.61,11.82-23.28,17.12-33.98,20.09-7.48,1.95-15.08,3.33-22.71,4.49-12.64,2.73-26.33,3.41-39.36,1.81-8.48-1.32-19.11-3.89-22.59-12.8-1.5-4.26-2.2-8.89-1.31-13.44,1.8-9.26,10.1-15.24,18.07-18.99C35.56,4.24,53.38,1.6,70.95,1.08c13.08-.22,26.71,.07,39.04,4.9,3.97,1.73,8.16,4.26,9.68,8.55l-.19,.07c-1.63-4.14-5.8-6.45-9.74-8.01-12.36-4.36-25.78-4.31-38.74-3.9-17.31,.82-34.82,3.55-50.62,10.93-7.45,3.58-15.23,9.03-16.99,17.52-.85,4.06-.25,8.41,1.12,12.38,1.37,3.97,4.95,6.64,8.67,8.38,7.85,3.54,16.77,4.28,25.33,4.54,8.67,.11,17.53-.3,26.02-2.11,7.64-.97,15.22-2.39,22.69-4.25,10.38-2.81,29.75-8.36,33.01-19.77,.89-3.64-.64-7.38-2.54-10.44-5.37-7.93-14.94-11.61-23.93-13.82C73.72,1.47,44.15,.96,28.06,15.58c-2.31,2.25-6.33,6.08-4.41,9.52l-.14,.14h0Z" fill="blue"/><path d="M120.98,26.74c1.89,17.9-41.93,28.45-63.38,30.88-23.37,2.65-52.97,.22-55.3-20.36C-.52,12.4,37.45,5,58.97,3.32s59.3-2.2,62.01,23.42Z" fill="blue"/></svg>