<svg width="135" height="135" viewBox="0 0 135 135" fill="none" xmlns="http://www.w3.org/2000/svg">
<circle cx="67.2779" cy="67.3366" r="66.389" stroke="white" stroke-width="1.6198"/>
<path d="M22.904 62.8195C22.1945 62.8195 21.6017 62.6835 21.1255 62.4114C20.6493 62.1295 20.2897 61.7213 20.0467 61.1868C19.8037 60.6522 19.6677 59.9962 19.6385 59.2187L21.4899 58.8543C21.5094 59.311 21.5628 59.7144 21.6503 60.0643C21.7475 60.4141 21.8884 60.6863 22.0731 60.8806C22.2674 61.0653 22.5201 61.1576 22.8311 61.1576C23.181 61.1576 23.4288 61.0556 23.5746 60.8515C23.7204 60.6377 23.7933 60.3704 23.7933 60.0497C23.7933 59.5346 23.6767 59.1118 23.4434 58.7814C23.2102 58.4509 22.8992 58.1205 22.5104 57.7901L21.0234 56.478C20.6055 56.1184 20.2702 55.7199 20.0175 55.2826C19.7746 54.8355 19.6531 54.2864 19.6531 53.6353C19.6531 52.7023 19.9252 51.9831 20.4695 51.4777C21.0137 50.9723 21.7572 50.7196 22.6999 50.7196C23.2539 50.7196 23.7155 50.8071 24.0849 50.982C24.4542 51.1472 24.7457 51.3805 24.9596 51.6818C25.1831 51.9831 25.3483 52.3281 25.4552 52.7168C25.5621 53.0959 25.6301 53.4992 25.6593 53.9268L23.8224 54.2475C23.803 53.8782 23.7593 53.5478 23.6912 53.2562C23.6329 52.9647 23.5212 52.7363 23.3559 52.5711C23.2004 52.4058 22.9672 52.3232 22.6562 52.3232C22.3355 52.3232 22.0876 52.4301 21.9127 52.6439C21.7475 52.848 21.6649 53.1056 21.6649 53.4166C21.6649 53.8151 21.7475 54.1455 21.9127 54.4079C22.0779 54.6606 22.316 54.923 22.627 55.1951L24.0994 56.4926C24.5854 56.9008 24.9984 57.3819 25.3386 57.9358C25.6885 58.4801 25.8634 59.141 25.8634 59.9185C25.8634 60.4822 25.7371 60.9827 25.4844 61.42C25.2414 61.8574 24.8964 62.2024 24.4493 62.4551C24.012 62.6981 23.4969 62.8195 22.904 62.8195ZM27.603 62.6592V50.8508H32.5596V52.367H29.7606V55.7637H31.9619V57.2652H29.7606V61.1722H32.5887V62.6592H27.603ZM33.824 62.6592L36.1857 50.8508H38.489L40.8507 62.6592H38.8535L38.387 59.9331H36.3315L35.8504 62.6592H33.824ZM36.5501 58.5627H38.1537L37.3519 53.6061L36.5501 58.5627ZM42.5645 62.6592V50.8508H45.3926C46.1896 50.8508 46.8602 50.948 47.4044 51.1424C47.9584 51.327 48.3763 51.6478 48.6581 52.1046C48.9497 52.5613 49.0955 53.1833 49.0955 53.9706C49.0955 54.4468 49.0518 54.8744 48.9643 55.2534C48.8768 55.6325 48.7262 55.9581 48.5124 56.2302C48.3083 56.4926 48.0216 56.6967 47.6523 56.8425L49.2996 62.6592H47.142L45.7133 57.2507H44.722V62.6592H42.5645ZM44.722 55.8949H45.3926C45.8105 55.8949 46.141 55.8366 46.3839 55.7199C46.6366 55.5936 46.8164 55.3992 46.9233 55.1368C47.0302 54.8647 47.0837 54.5197 47.0837 54.1018C47.0837 53.5089 46.9719 53.0667 46.7484 52.7751C46.5346 52.4739 46.1215 52.3232 45.5093 52.3232H44.722V55.8949ZM54.4405 62.8195C53.5755 62.8195 52.8952 62.6495 52.3995 62.3093C51.9136 61.9691 51.5734 61.5075 51.379 60.9244C51.1847 60.3315 51.0875 59.6512 51.0875 58.8834V54.6703C51.0875 53.8637 51.1847 53.1639 51.379 52.5711C51.5734 51.9782 51.9136 51.5214 52.3995 51.2007C52.8952 50.88 53.5755 50.7196 54.4405 50.7196C55.2568 50.7196 55.8934 50.8605 56.3502 51.1424C56.8167 51.4145 57.1471 51.8081 57.3415 52.3232C57.5359 52.8383 57.6331 53.436 57.6331 54.1163V55.1077H55.563V54.0872C55.563 53.7567 55.5435 53.4555 55.5047 53.1833C55.4755 52.9112 55.3832 52.6974 55.2277 52.5419C55.0819 52.3767 54.8244 52.2941 54.455 52.2941C54.0857 52.2941 53.8136 52.3815 53.6387 52.5565C53.4734 52.7217 53.3665 52.9501 53.3179 53.2417C53.2693 53.5235 53.245 53.8442 53.245 54.2038V59.3353C53.245 59.763 53.2791 60.1177 53.3471 60.3996C53.4151 60.6717 53.5366 60.8806 53.7116 61.0264C53.8962 61.1625 54.144 61.2305 54.455 61.2305C54.8146 61.2305 55.0673 61.1479 55.2131 60.9827C55.3686 60.8077 55.4658 60.5794 55.5047 60.2975C55.5435 60.0157 55.563 59.6998 55.563 59.3499V58.2857H57.6331V59.2333C57.6331 59.9331 57.5408 60.5551 57.3561 61.0993C57.1714 61.6338 56.8459 62.0566 56.3794 62.3676C55.9226 62.6689 55.2763 62.8195 54.4405 62.8195ZM59.7475 62.6592V50.8508H61.8905V55.7928H64.2959V50.8508H66.4535V62.6592H64.2959V57.3236H61.8905V62.6592H59.7475ZM72.9714 62.6592V50.8508H77.928V52.367H75.129V55.7637H77.3303V57.2652H75.129V61.1722H77.9572V62.6592H72.9714ZM79.7902 62.6592V50.8508H81.2917L84.1636 57.586V50.8508H85.9422V62.6592H84.5135L81.627 55.6033V62.6592H79.7902ZM91.2767 62.8195C90.4991 62.8195 89.882 62.6543 89.4252 62.3239C88.9684 61.9934 88.638 61.5269 88.4339 60.9244C88.2395 60.3121 88.1423 59.5929 88.1423 58.7668V54.8015C88.1423 53.956 88.2395 53.2271 88.4339 52.6148C88.6283 52.0025 88.9684 51.536 89.4544 51.2153C89.95 50.8848 90.6303 50.7196 91.4953 50.7196C92.302 50.7196 92.9434 50.8557 93.4196 51.1278C93.8959 51.3999 94.236 51.7935 94.4401 52.3086C94.6539 52.814 94.7608 53.4312 94.7608 54.1601V54.7724H92.7053V54.1018C92.7053 53.7227 92.6762 53.3972 92.6178 53.125C92.5693 52.8529 92.4623 52.6488 92.2971 52.5127C92.1416 52.367 91.8841 52.2941 91.5245 52.2941C91.1454 52.2941 90.8685 52.3864 90.6935 52.5711C90.5283 52.7557 90.4214 52.9987 90.3728 53.3C90.3339 53.6012 90.3145 53.9317 90.3145 54.2913V59.2333C90.3145 59.6415 90.3485 59.9962 90.4165 60.2975C90.4846 60.5988 90.6109 60.832 90.7956 60.9973C90.9802 61.1528 91.2426 61.2305 91.5828 61.2305C91.9327 61.2305 92.1999 61.143 92.3846 60.9681C92.5693 60.7932 92.6956 60.5502 92.7636 60.2392C92.8414 59.9282 92.8803 59.5589 92.8803 59.1313V58.0233H91.6119V56.6675H94.8192V62.6592H93.4342L93.2739 61.4929C93.1184 61.8817 92.8803 62.2024 92.5595 62.4551C92.2485 62.6981 91.8209 62.8195 91.2767 62.8195ZM97.102 62.6592V50.8508H99.2304V62.6592H97.102ZM101.642 62.6592V50.8508H103.143L106.015 57.586V50.8508H107.794V62.6592H106.365L103.478 55.6033V62.6592H101.642ZM110.169 62.6592V50.8508H115.125V52.367H112.326V55.7637H114.528V57.2652H112.326V61.1722H115.154V62.6592H110.169ZM28.2906 85.8195C27.4548 85.8195 26.7891 85.664 26.2934 85.353C25.7977 85.042 25.443 84.595 25.2292 84.0118C25.0154 83.4287 24.9085 82.7387 24.9085 81.9417V77.5245C24.9085 76.7276 25.0154 76.0473 25.2292 75.4836C25.443 74.9102 25.7977 74.4728 26.2934 74.1715C26.7891 73.8703 27.4548 73.7196 28.2906 73.7196C29.1459 73.7196 29.8165 73.8703 30.3024 74.1715C30.7981 74.4728 31.1528 74.9102 31.3666 75.4836C31.5902 76.0473 31.7019 76.7276 31.7019 77.5245V81.9563C31.7019 82.7435 31.5902 83.4287 31.3666 84.0118C31.1528 84.5853 30.7981 85.0323 30.3024 85.353C29.8165 85.664 29.1459 85.8195 28.2906 85.8195ZM28.2906 84.2305C28.6502 84.2305 28.9126 84.1528 29.0778 83.9973C29.2528 83.8418 29.3694 83.6279 29.4277 83.3558C29.486 83.0837 29.5152 82.7873 29.5152 82.4666V77.0289C29.5152 76.6984 29.486 76.402 29.4277 76.1396C29.3694 75.8772 29.2528 75.6731 29.0778 75.5273C28.9126 75.3718 28.6502 75.2941 28.2906 75.2941C27.9505 75.2941 27.6929 75.3718 27.518 75.5273C27.343 75.6731 27.2264 75.8772 27.1681 76.1396C27.1098 76.402 27.0806 76.6984 27.0806 77.0289V82.4666C27.0806 82.7873 27.1049 83.0837 27.1535 83.3558C27.2118 83.6279 27.3285 83.8418 27.5034 83.9973C27.6783 84.1528 27.9407 84.2305 28.2906 84.2305ZM33.881 85.6592V73.8508H37.3506C38.0601 73.8508 38.6335 73.982 39.0709 74.2444C39.5179 74.5068 39.8435 74.8907 40.0476 75.3961C40.2614 75.8918 40.3683 76.4943 40.3683 77.2038C40.3683 77.9716 40.2371 78.5936 39.9747 79.0698C39.7123 79.5363 39.343 79.8765 38.8668 80.0903C38.4003 80.3041 37.8463 80.411 37.2049 80.411H36.0386V85.6592H33.881ZM36.0386 78.8949H36.855C37.2437 78.8949 37.545 78.8414 37.7588 78.7345C37.9824 78.6179 38.133 78.4381 38.2108 78.1951C38.2982 77.9424 38.342 77.6071 38.342 77.1892C38.342 76.7616 38.3079 76.4166 38.2399 76.1542C38.1816 75.8821 38.0455 75.6828 37.8317 75.5565C37.6276 75.4301 37.302 75.367 36.855 75.367H36.0386V78.8949ZM43.3327 85.6592V75.4399H41.4521V73.8508H47.3417V75.4399H45.4903V85.6592H43.3327ZM49.0574 85.6592V73.8508H51.1858V85.6592H49.0574ZM53.5678 85.6592L53.7719 73.8508H56.0023L57.6788 82.0292L59.4282 73.8508H61.5858L61.8045 85.6592H60.2009L60.0259 77.4516L58.3494 85.6592H57.052L55.3463 77.4225L55.1859 85.6592H53.5678ZM64.1043 85.6592V73.8508H66.2327V85.6592H64.1043ZM68.2356 85.6592V84.2742L71.4137 75.3378H68.4105V73.8508H73.5858V74.9588L70.2911 84.1722H73.6004V85.6592H68.2356ZM74.8221 85.6592L77.1838 73.8508H79.4871L81.8488 85.6592H79.8516L79.3851 82.9331H77.3296L76.8485 85.6592H74.8221ZM77.5482 81.5627H79.1518L78.35 76.6061L77.5482 81.5627ZM84.2451 85.6592V75.4399H82.3645V73.8508H88.2541V75.4399H86.4027V85.6592H84.2451ZM89.9698 85.6592V73.8508H92.0982V85.6592H89.9698ZM97.7165 85.8195C96.8807 85.8195 96.215 85.664 95.7193 85.353C95.2236 85.042 94.8689 84.595 94.6551 84.0118C94.4413 83.4287 94.3344 82.7387 94.3344 81.9417V77.5245C94.3344 76.7276 94.4413 76.0473 94.6551 75.4836C94.8689 74.9102 95.2236 74.4728 95.7193 74.1715C96.215 73.8703 96.8807 73.7196 97.7165 73.7196C98.5718 73.7196 99.2424 73.8703 99.7283 74.1715C100.224 74.4728 100.579 74.9102 100.793 75.4836C101.016 76.0473 101.128 76.7276 101.128 77.5245V81.9563C101.128 82.7435 101.016 83.4287 100.793 84.0118C100.579 84.5853 100.224 85.0323 99.7283 85.353C99.2424 85.664 98.5718 85.8195 97.7165 85.8195ZM97.7165 84.2305C98.0761 84.2305 98.3385 84.1528 98.5037 83.9973C98.6787 83.8418 98.7953 83.6279 98.8536 83.3558C98.9119 83.0837 98.9411 82.7873 98.9411 82.4666V77.0289C98.9411 76.6984 98.9119 76.402 98.8536 76.1396C98.7953 75.8772 98.6787 75.6731 98.5037 75.5273C98.3385 75.3718 98.0761 75.2941 97.7165 75.2941C97.3764 75.2941 97.1188 75.3718 96.9439 75.5273C96.7689 75.6731 96.6523 75.8772 96.594 76.1396C96.5357 76.402 96.5065 76.6984 96.5065 77.0289V82.4666C96.5065 82.7873 96.5308 83.0837 96.5794 83.3558C96.6377 83.6279 96.7544 83.8418 96.9293 83.9973C97.1042 84.1528 97.3666 84.2305 97.7165 84.2305ZM103.307 85.6592V73.8508H104.808L107.68 80.586V73.8508H109.459V85.6592H108.03L105.144 78.6033V85.6592H103.307Z" fill="white"/>
</svg>
