<svg width="54" height="55" viewBox="0 0 54 55" fill="none" xmlns="http://www.w3.org/2000/svg">
<path d="M37.4369 17.1429L27.6749 22.5246L29.3521 31.0201L39.9509 25.1882L36.0417 22.6413L37.4369 17.1429ZM16.1182 33.3768L26.5007 27.662L24.8225 19.1617L14.4388 24.8701L16.1182 33.3768ZM44.83 5.91724C43.6441 4.4685 42.1219 3.44828 40.3312 2.90186C38.5404 2.35535 36.8427 2.21122 32.4123 3.0859L13.2559 6.86783C8.82539 7.74251 7.30988 8.52099 5.86115 9.70705C4.41241 10.893 3.39219 12.4152 2.84577 14.2059C2.29925 15.9966 2.15514 17.6943 3.02982 22.1248L6.81172 41.2811C7.68642 45.7117 8.4649 47.2272 9.65096 48.6759C10.8369 50.1247 12.3591 51.1449 14.1498 51.6913C15.9406 52.2378 17.6383 52.382 22.0687 51.5073L41.2251 47.7254C45.6556 46.8507 47.1711 46.0722 48.6198 44.8861C50.0686 43.7002 51.0888 42.178 51.6352 40.3873C52.1817 38.5965 52.3259 36.8988 51.4512 32.4684L47.6693 13.3119C46.7946 8.88148 46.0161 7.36588 44.83 5.91724ZM17.5676 42.598C16.3245 42.8434 15.1142 42.0342 14.8694 40.7943C14.6246 39.5542 15.4366 38.3457 16.6796 38.1003C17.9226 37.8549 19.133 38.6641 19.3778 39.9043C19.6226 41.1442 18.8106 42.3526 17.5676 42.598ZM27.8152 34.3209L26.9377 29.8763L14.5815 36.6794L12.0276 23.743L26.3582 15.8549L27.2393 20.3179L40.5322 13.0071L38.4623 21.7196L44.0644 25.3694L27.8152 34.3209Z" fill="url(#paint0_linear)"/>
<defs>
<linearGradient id="paint0_linear" x1="22.8341" y1="4.97687" x2="31.6469" y2="49.6163" gradientUnits="userSpaceOnUse">
<stop stop-color="#6515DD"/>
<stop offset="1" stop-color="#9A60F2"/>
</linearGradient>
</defs>
</svg>
