<svg width="299" height="204" fill="none" xmlns="http://www.w3.org/2000/svg"><path fill="#43AC32" d="M.663.063H299v203.223H.663z"/><path stroke="#fff" d="M9.783 9.994h280.096v183.361H9.783z"/><path fill-rule="evenodd" clip-rule="evenodd" d="M182.48 105.888c-.015 1.34-.032 2.75-.037 4.21-.019 4.651.14 7.002.14 7.001l-6.15.036-.28-4.205c-2.621 3.385-6.149 5.274-12.334 5.31-6.183.036-14.087-2.782-12.729-11.814.006-.043.015-.084.024-.126l.02-.094c-1.648 7.845-7.923 12.034-15.605 12.034-8.85 0-11.879-5.084-11.879-5.084l-.278 4.039h-6.492c.252-2.767.292-6.955.292-6.955l-.021-6.806c-.019.398-.045.624-.045.624H90.378s.374 9.533 10.022 9.716c7.505.142 8.856-5.179 8.856-5.179l6.938-.014s-.742 9.659-15.823 9.659c-17.55 0-16.738-15.394-16.738-15.394-.084-3.419.56-16.587 17.145-16.583 13.924.003 16.119 10.239 16.367 15.182l-.086-27.156h6.685V91.3s3.587-5.084 11.926-5.036c8.339.047 16.072 5.796 15.887 16.107a20.613 20.613 0 01-.351 3.477c1.663-7.035 13.343-7.412 16.746-7.43 1.938-.01 7.748-.026 7.748-.026.035-4.17-1.2-7.56-7.978-7.691-7.162-.139-7.711 4.661-7.711 4.661h-7.058c1.433-10.477 15.234-9.194 15.234-9.194 13.759.58 14.079 8.093 14.234 11.721.007.168.014.328.022.478.103 2.01.072 4.595.037 7.522zm-81.866-15.123c-9.54.003-10.014 8.624-10.014 8.624h19.518s0-8.627-9.504-8.624zm23.165 11.487s-.171 11.527 10.359 11.392c10.531-.136 10.36-11.155 10.36-11.155s.349-11.902-10.376-11.617c-10.727.285-10.343 11.38-10.343 11.38zm34.1 6.188c.393 5.461 7.093 5.452 7.093 5.452 12.02.161 10.794-10.936 10.793-10.936l-7.578.008s-10.727-.35-10.308 5.476zm40.006 2.031l11.368-23.068h7.011l-20.522 41.123h-7.499l5.939-11.427-15.397-29.696h7.757l11.343 23.068z" fill="#fff"/><path stroke="#fff" d="M289.919 10.923L10.29 193.264"/></svg>