<svg width="40" height="41" viewBox="0 0 40 41" fill="none" xmlns="http://www.w3.org/2000/svg">
<path d="M35.1981 38.1777L38.9927 7.58907C39.0998 6.72589 38.4897 5.92879 37.6299 5.80853L34.8532 5.42016L9.39677 1.85956L6.61902 1.47103C5.76139 1.35108 4.98036 1.9497 4.87049 2.80859L1.42077 30.6168L1.0734 33.4081C0.96768 34.2692 1.57785 35.0657 2.43657 35.1859L19.6578 37.5946L21.337 24.0589L16.8919 23.4372L17.4704 18.7739L21.9154 19.3956L22.5437 14.3309C22.9202 11.2961 25.9144 9.64028 28.1261 9.94962L33.1024 10.6457L32.5761 14.8883L30.2805 14.5672C29.1494 14.409 27.5268 15.1203 27.3862 16.2537L26.9098 20.0937L31.3936 20.7208L30.8151 25.384L26.3313 24.7569L24.6522 38.2926L30.6703 39.1344L33.4469 39.5227C34.3072 39.6436 35.091 39.0409 35.1981 38.1777Z" fill="#0536A7"/>
<path d="M33.4223 39.7176L24.433 38.4602L26.1605 24.5345L30.6443 25.1617L31.1744 20.889L26.6906 20.2619L27.1912 16.2266C27.3416 15.0144 29.0282 14.1935 30.3043 14.372L32.4048 14.6658L32.8827 10.8138L28.1014 10.145C26.1131 9.86694 23.1128 11.3355 22.7378 14.3582L22.0852 19.6183L17.6396 18.9964L17.1096 23.2691L21.5552 23.8909L19.8277 37.8166L2.41185 35.3807C1.44796 35.2459 0.759973 34.3483 0.878312 33.3809L4.67541 2.78152C4.79907 1.81604 5.68161 1.1409 6.64277 1.27534L37.6532 5.61277C38.6181 5.74774 39.3071 6.64657 39.1868 7.61587L35.3922 38.2045C35.2719 39.1738 34.3878 39.8526 33.4223 39.7176ZM24.871 38.1242L33.4708 39.327C34.2222 39.4321 34.9091 38.9038 35.0026 38.15L38.7973 7.56138C38.8908 6.80705 38.3561 6.10843 37.6047 6.00333L6.59431 1.6659C5.84729 1.56142 5.16076 2.08644 5.06391 2.83586L1.26742 33.4348C1.1752 34.1871 1.71062 34.8847 2.46037 34.9896L19.4871 37.3711L21.1178 24.2265L16.6727 23.6048L17.2996 18.551L21.7447 19.1727L22.3488 14.3033C22.7229 11.2876 25.7203 9.4141 28.1499 9.75393L33.3208 10.4772L32.7459 15.1109L30.2559 14.7626C29.1781 14.6118 27.7028 15.297 27.5808 16.2811L27.1286 19.9258L31.6113 20.5528L30.9844 25.6066L26.5017 24.9796L24.871 38.1242Z" fill="#0536A7"/>
</svg>
