<svg width="800" height="800" viewBox="0 0 800 800" fill="none" xmlns="http://www.w3.org/2000/svg">
<g opacity="0.2">
<circle cx="400" cy="400.13" r="399.407" transform="rotate(-90 400 400.13)" stroke="black"/>
<path d="M400 0.722225C413.517 0.722224 426.538 11.6928 438.484 31.9034C450.41 52.0804 461.167 81.3104 470.208 117.474C488.287 189.793 499.475 289.727 499.475 400.13C499.475 510.532 488.287 610.467 470.208 682.786C461.167 718.949 450.41 748.179 438.484 768.356C426.539 788.567 413.517 799.537 400 799.537C386.482 799.537 373.461 788.567 361.515 768.356C349.589 748.179 338.832 718.949 329.791 682.786C311.712 610.467 300.524 510.533 300.524 400.13C300.524 289.727 311.712 189.793 329.791 117.474C338.832 81.3104 349.589 52.0804 361.515 31.9034C373.461 11.6928 386.482 0.722225 400 0.722225Z" stroke="black"/>
<path d="M400 0.722216C482.63 0.722212 557.476 45.3781 611.681 117.652C665.886 189.927 699.428 289.796 699.428 400.13C699.428 510.463 665.886 610.332 611.681 682.607C557.476 754.881 482.63 799.537 400 799.537C317.369 799.537 242.523 754.881 188.318 682.607C134.113 610.332 100.571 510.463 100.571 400.13C100.571 289.796 134.113 189.927 188.318 117.652C242.523 45.3781 317.369 0.72222 400 0.722216Z" stroke="black"/>
<path d="M400 0.72222C454.924 0.722218 504.784 45.2601 540.942 117.576C577.085 189.862 599.454 289.759 599.454 400.13C599.454 510.5 577.085 610.397 540.942 682.683C504.784 754.999 454.924 799.537 400 799.537C345.076 799.537 295.216 754.999 259.058 682.683C222.915 610.397 200.546 510.5 200.546 400.13C200.546 289.759 222.915 189.862 259.058 117.576C295.216 45.2601 345.075 0.722223 400 0.72222Z" stroke="black"/>
<line x1="401.298" y1="1.31738" x2="401.298" y2="800.037" stroke="black"/>
</g>
</svg>
