<svg width="146" height="150" viewBox="2.5 0 146 150" fill="none" xmlns="http://www.w3.org/2000/svg">
<path d="M31.7126 81.9636C31.0032 81.9636 30.4103 81.8275 29.9341 81.5554C29.4579 81.2735 29.0983 80.8654 28.8553 80.3308C28.6123 79.7963 28.4763 79.1403 28.4471 78.3628L30.2986 77.9983C30.318 78.4551 30.3714 78.8584 30.4589 79.2083C30.5561 79.5582 30.697 79.8303 30.8817 80.0247C31.0761 80.2093 31.3287 80.3017 31.6398 80.3017C31.9896 80.3017 32.2375 80.1996 32.3832 79.9955C32.529 79.7817 32.6019 79.5144 32.6019 79.1937C32.6019 78.6786 32.4853 78.2559 32.252 77.9254C32.0188 77.595 31.7078 77.2645 31.319 76.9341L29.8321 75.6221C29.4141 75.2625 29.0788 74.864 28.8262 74.4266C28.5832 73.9796 28.4617 73.4305 28.4617 72.7793C28.4617 71.8463 28.7338 71.1271 29.2781 70.6217C29.8223 70.1164 30.5658 69.8637 31.5085 69.8637C32.0625 69.8637 32.5242 69.9511 32.8935 70.1261C33.2628 70.2913 33.5544 70.5245 33.7682 70.8258C33.9917 71.1271 34.1569 71.4721 34.2638 71.8609C34.3707 72.2399 34.4388 72.6432 34.4679 73.0709L32.6311 73.3916C32.6116 73.0223 32.5679 72.6918 32.4999 72.4003C32.4416 72.1087 32.3298 71.8803 32.1646 71.7151C32.0091 71.5499 31.7758 71.4673 31.4648 71.4673C31.1441 71.4673 30.8963 71.5742 30.7213 71.788C30.5561 71.9921 30.4735 72.2496 30.4735 72.5606C30.4735 72.9591 30.5561 73.2895 30.7213 73.552C30.8865 73.8046 31.1247 74.067 31.4357 74.3392L32.9081 75.6366C33.394 76.0448 33.807 76.5259 34.1472 77.0799C34.4971 77.6241 34.672 78.285 34.672 79.0625C34.672 79.6262 34.5457 80.1267 34.293 80.5641C34.05 81.0014 33.705 81.3464 33.2579 81.5991C32.8206 81.8421 32.3055 81.9636 31.7126 81.9636ZM36.4116 81.8032V69.9949H39.8812C40.5907 69.9949 41.1641 70.1261 41.6015 70.3885C42.0485 70.6509 42.3741 71.0348 42.5782 71.5402C42.792 72.0358 42.8989 72.6384 42.8989 73.3479C42.8989 74.1156 42.7677 74.7376 42.5053 75.2139C42.2429 75.6804 41.8736 76.0205 41.3974 76.2343C40.9309 76.4482 40.3769 76.5551 39.7354 76.5551H38.5692V81.8032H36.4116ZM38.5692 75.0389H39.3856C39.7743 75.0389 40.0756 74.9855 40.2894 74.8786C40.5129 74.7619 40.6636 74.5821 40.7413 74.3392C40.8288 74.0865 40.8725 73.7512 40.8725 73.3333C40.8725 72.9057 40.8385 72.5606 40.7705 72.2982C40.7122 72.0261 40.5761 71.8269 40.3623 71.7005C40.1582 71.5742 39.8326 71.511 39.3856 71.511H38.5692V75.0389ZM47.8897 81.9636C47.0539 81.9636 46.3881 81.8081 45.8925 81.4971C45.3968 81.1861 45.0421 80.739 44.8283 80.1559C44.6144 79.5728 44.5075 78.8827 44.5075 78.0858V73.6686C44.5075 72.8716 44.6144 72.1913 44.8283 71.6276C45.0421 71.0542 45.3968 70.6169 45.8925 70.3156C46.3881 70.0143 47.0539 69.8637 47.8897 69.8637C48.7449 69.8637 49.4155 70.0143 49.9015 70.3156C50.3971 70.6169 50.7519 71.0542 50.9657 71.6276C51.1892 72.1913 51.301 72.8716 51.301 73.6686V78.1004C51.301 78.8876 51.1892 79.5728 50.9657 80.1559C50.7519 80.7293 50.3971 81.1764 49.9015 81.4971C49.4155 81.8081 48.7449 81.9636 47.8897 81.9636ZM47.8897 80.3746C48.2493 80.3746 48.5117 80.2968 48.6769 80.1413C48.8518 79.9858 48.9685 79.772 49.0268 79.4999C49.0851 79.2277 49.1142 78.9313 49.1142 78.6106V73.1729C49.1142 72.8425 49.0851 72.5461 49.0268 72.2836C48.9685 72.0212 48.8518 71.8171 48.6769 71.6714C48.5117 71.5159 48.2493 71.4381 47.8897 71.4381C47.5495 71.4381 47.292 71.5159 47.117 71.6714C46.9421 71.8171 46.8255 72.0212 46.7672 72.2836C46.7088 72.5461 46.6797 72.8425 46.6797 73.1729V78.6106C46.6797 78.9313 46.704 79.2277 46.7526 79.4999C46.8109 79.772 46.9275 79.9858 47.1025 80.1413C47.2774 80.2968 47.5398 80.3746 47.8897 80.3746ZM53.4801 81.8032V69.9949H54.9816L57.8535 76.73V69.9949H59.6321V81.8032H58.2034L55.3169 74.7474V81.8032H53.4801ZM64.9812 81.9636C64.2717 81.9636 63.6788 81.8275 63.2026 81.5554C62.7264 81.2735 62.3668 80.8654 62.1238 80.3308C61.8809 79.7963 61.7448 79.1403 61.7156 78.3628L63.5671 77.9983C63.5865 78.4551 63.64 78.8584 63.7274 79.2083C63.8246 79.5582 63.9655 79.8303 64.1502 80.0247C64.3446 80.2093 64.5973 80.3017 64.9083 80.3017C65.2581 80.3017 65.506 80.1996 65.6518 79.9955C65.7975 79.7817 65.8704 79.5144 65.8704 79.1937C65.8704 78.6786 65.7538 78.2559 65.5205 77.9254C65.2873 77.595 64.9763 77.2645 64.5875 76.9341L63.1006 75.6221C62.6827 75.2625 62.3474 74.864 62.0947 74.4266C61.8517 73.9796 61.7302 73.4305 61.7302 72.7793C61.7302 71.8463 62.0023 71.1271 62.5466 70.6217C63.0908 70.1164 63.8343 69.8637 64.7771 69.8637C65.331 69.8637 65.7927 69.9511 66.162 70.1261C66.5313 70.2913 66.8229 70.5245 67.0367 70.8258C67.2602 71.1271 67.4254 71.4721 67.5323 71.8609C67.6392 72.2399 67.7073 72.6432 67.7364 73.0709L65.8996 73.3916C65.8801 73.0223 65.8364 72.6918 65.7684 72.4003C65.7101 72.1087 65.5983 71.8803 65.4331 71.7151C65.2776 71.5499 65.0443 71.4673 64.7333 71.4673C64.4126 71.4673 64.1648 71.5742 63.9898 71.788C63.8246 71.9921 63.742 72.2496 63.742 72.5606C63.742 72.9591 63.8246 73.2895 63.9898 73.552C64.1551 73.8046 64.3932 74.067 64.7042 74.3392L66.1766 75.6366C66.6625 76.0448 67.0756 76.5259 67.4157 77.0799C67.7656 77.6241 67.9405 78.285 67.9405 79.0625C67.9405 79.6262 67.8142 80.1267 67.5615 80.5641C67.3185 81.0014 66.9735 81.3464 66.5264 81.5991C66.0891 81.8421 65.574 81.9636 64.9812 81.9636ZM73.0012 81.9636C72.1654 81.9636 71.4997 81.8081 71.004 81.4971C70.5084 81.1861 70.1536 80.739 69.9398 80.1559C69.726 79.5728 69.6191 78.8827 69.6191 78.0858V73.6686C69.6191 72.8716 69.726 72.1913 69.9398 71.6276C70.1536 71.0542 70.5084 70.6169 71.004 70.3156C71.4997 70.0143 72.1654 69.8637 73.0012 69.8637C73.8565 69.8637 74.5271 70.0143 75.013 70.3156C75.5087 70.6169 75.8634 71.0542 76.0772 71.6276C76.3008 72.1913 76.4125 72.8716 76.4125 73.6686V78.1004C76.4125 78.8876 76.3008 79.5728 76.0772 80.1559C75.8634 80.7293 75.5087 81.1764 75.013 81.4971C74.5271 81.8081 73.8565 81.9636 73.0012 81.9636ZM73.0012 80.3746C73.3608 80.3746 73.6232 80.2968 73.7884 80.1413C73.9634 79.9858 74.08 79.772 74.1383 79.4999C74.1966 79.2277 74.2258 78.9313 74.2258 78.6106V73.1729C74.2258 72.8425 74.1966 72.5461 74.1383 72.2836C74.08 72.0212 73.9634 71.8171 73.7884 71.6714C73.6232 71.5159 73.3608 71.4381 73.0012 71.4381C72.6611 71.4381 72.4035 71.5159 72.2286 71.6714C72.0536 71.8171 71.937 72.0212 71.8787 72.2836C71.8204 72.5461 71.7912 72.8425 71.7912 73.1729V78.6106C71.7912 78.9313 71.8155 79.2277 71.8641 79.4999C71.9224 79.772 72.0391 79.9858 72.214 80.1413C72.3889 80.2968 72.6513 80.3746 73.0012 80.3746ZM78.5916 81.8032V69.9949H81.4198C82.2167 69.9949 82.8873 70.0921 83.4316 70.2864C83.9856 70.4711 84.4035 70.7918 84.6853 71.2486C84.9769 71.7054 85.1227 72.3274 85.1227 73.1146C85.1227 73.5908 85.0789 74.0185 84.9915 74.3975C84.904 74.7765 84.7534 75.1021 84.5395 75.3742C84.3354 75.6366 84.0487 75.8407 83.6794 75.9865L85.3268 81.8032H83.1692L81.7405 76.3947H80.7492V81.8032H78.5916ZM80.7492 75.0389H81.4198C81.8377 75.0389 82.1682 74.9806 82.4111 74.864C82.6638 74.7376 82.8436 74.5433 82.9505 74.2809C83.0574 74.0087 83.1109 73.6637 83.1109 73.2458C83.1109 72.653 82.9991 72.2108 82.7756 71.9192C82.5618 71.6179 82.1487 71.4673 81.5364 71.4673H80.7492V75.0389ZM90.292 81.9636C89.5825 81.9636 88.9897 81.8275 88.5135 81.5554C88.0373 81.2735 87.6777 80.8654 87.4347 80.3308C87.1917 79.7963 87.0557 79.1403 87.0265 78.3628L88.8779 77.9983C88.8974 78.4551 88.9508 78.8584 89.0383 79.2083C89.1355 79.5582 89.2764 79.8303 89.4611 80.0247C89.6554 80.2093 89.9081 80.3017 90.2191 80.3017C90.569 80.3017 90.8168 80.1996 90.9626 79.9955C91.1084 79.7817 91.1813 79.5144 91.1813 79.1937C91.1813 78.6786 91.0647 78.2559 90.8314 77.9254C90.5982 77.595 90.2872 77.2645 89.8984 76.9341L88.4114 75.6221C87.9935 75.2625 87.6582 74.864 87.4055 74.4266C87.1626 73.9796 87.0411 73.4305 87.0411 72.7793C87.0411 71.8463 87.3132 71.1271 87.8575 70.6217C88.4017 70.1164 89.1452 69.8637 90.0879 69.8637C90.6419 69.8637 91.1035 69.9511 91.4729 70.1261C91.8422 70.2913 92.1337 70.5245 92.3475 70.8258C92.5711 71.1271 92.7363 71.4721 92.8432 71.8609C92.9501 72.2399 93.0181 72.6432 93.0473 73.0709L91.2104 73.3916C91.191 73.0223 91.1473 72.6918 91.0792 72.4003C91.0209 72.1087 90.9092 71.8803 90.7439 71.7151C90.5884 71.5499 90.3552 71.4673 90.0442 71.4673C89.7235 71.4673 89.4756 71.5742 89.3007 71.788C89.1355 71.9921 89.0529 72.2496 89.0529 72.5606C89.0529 72.9591 89.1355 73.2895 89.3007 73.552C89.4659 73.8046 89.704 74.067 90.015 74.3392L91.4874 75.6366C91.9734 76.0448 92.3864 76.5259 92.7266 77.0799C93.0765 77.6241 93.2514 78.285 93.2514 79.0625C93.2514 79.6262 93.125 80.1267 92.8724 80.5641C92.6294 81.0014 92.2844 81.3464 91.8373 81.5991C91.4 81.8421 90.8849 81.9636 90.292 81.9636ZM95.0201 81.8032V69.9949H97.1631V74.9369H99.5685V69.9949H101.726V81.8032H99.5685V76.4676H97.1631V81.8032H95.0201ZM104.174 81.8032V69.9949H106.303V81.8032H104.174ZM108.714 81.8032V69.9949H112.183C112.893 69.9949 113.466 70.1261 113.904 70.3885C114.351 70.6509 114.676 71.0348 114.88 71.5402C115.094 72.0358 115.201 72.6384 115.201 73.3479C115.201 74.1156 115.07 74.7376 114.808 75.2139C114.545 75.6804 114.176 76.0205 113.7 76.2343C113.233 76.4482 112.679 76.5551 112.038 76.5551H110.871V81.8032H108.714ZM110.871 75.0389H111.688C112.077 75.0389 112.378 74.9855 112.592 74.8786C112.815 74.7619 112.966 74.5821 113.044 74.3392C113.131 74.0865 113.175 73.7512 113.175 73.3333C113.175 72.9057 113.141 72.5606 113.073 72.2982C113.014 72.0261 112.878 71.8269 112.665 71.7005C112.46 71.5742 112.135 71.511 111.688 71.511H110.871V75.0389ZM119.902 81.9636C119.192 81.9636 118.599 81.8275 118.123 81.5554C117.647 81.2735 117.287 80.8654 117.044 80.3308C116.801 79.7963 116.665 79.1403 116.636 78.3628L118.488 77.9983C118.507 78.4551 118.561 78.8584 118.648 79.2083C118.745 79.5582 118.886 79.8303 119.071 80.0247C119.265 80.2093 119.518 80.3017 119.829 80.3017C120.179 80.3017 120.427 80.1996 120.572 79.9955C120.718 79.7817 120.791 79.5144 120.791 79.1937C120.791 78.6786 120.674 78.2559 120.441 77.9254C120.208 77.595 119.897 77.2645 119.508 76.9341L118.021 75.6221C117.603 75.2625 117.268 74.864 117.015 74.4266C116.772 73.9796 116.651 73.4305 116.651 72.7793C116.651 71.8463 116.923 71.1271 117.467 70.6217C118.011 70.1164 118.755 69.8637 119.698 69.8637C120.252 69.8637 120.713 69.9511 121.083 70.1261C121.452 70.2913 121.743 70.5245 121.957 70.8258C122.181 71.1271 122.346 71.4721 122.453 71.8609C122.56 72.2399 122.628 72.6432 122.657 73.0709L120.82 73.3916C120.801 73.0223 120.757 72.6918 120.689 72.4003C120.631 72.1087 120.519 71.8803 120.354 71.7151C120.198 71.5499 119.965 71.4673 119.654 71.4673C119.333 71.4673 119.085 71.5742 118.91 71.788C118.745 71.9921 118.663 72.2496 118.663 72.5606C118.663 72.9591 118.745 73.2895 118.91 73.552C119.076 73.8046 119.314 74.067 119.625 74.3392L121.097 75.6366C121.583 76.0448 121.996 76.5259 122.336 77.0799C122.686 77.6241 122.861 78.285 122.861 79.0625C122.861 79.6262 122.735 80.1267 122.482 80.5641C122.239 81.0014 121.894 81.3464 121.447 81.5991C121.01 81.8421 120.495 81.9636 119.902 81.9636Z" fill="white"/>
<path d="M32.0748 15.3092L75.5458 1.18459L119.017 15.3092L145.883 52.2878V97.9959L119.017 134.975L75.5458 149.099L32.0748 134.975L5.20825 97.9959V52.2878L32.0748 15.3092Z" stroke="white" stroke-width="1.6198"/>
</svg>
