<svg width="148" height="158" viewBox="5 0 148 158" fill="none" xmlns="http://www.w3.org/2000/svg">
<path d="M63.7709 85.6709L61.3947 73.8625H63.3044L64.8643 82.2159L66.3221 73.8625H68.2756L65.8993 85.6709H63.7709ZM70.1215 85.6709V73.8625H72.25V85.6709H70.1215ZM74.6611 85.6709V73.8625H77.4455C78.4077 73.8625 79.156 73.9937 79.6905 74.2562C80.2348 74.5186 80.6187 74.9219 80.8422 75.4661C81.0755 76.0104 81.1921 76.7004 81.1921 77.5363V81.8514C81.1921 82.7067 81.0755 83.421 80.8422 83.9944C80.6187 84.5581 80.2397 84.9809 79.7051 85.2627C79.1803 85.5348 78.4563 85.6709 77.533 85.6709H74.6611ZM76.8186 84.1693H77.4747C77.9703 84.1693 78.325 84.0819 78.5389 83.9069C78.7527 83.732 78.8839 83.4793 78.9325 83.1489C78.9811 82.8087 79.0054 82.3957 79.0054 81.9097V77.3905C79.0054 76.9142 78.9713 76.5304 78.9033 76.2388C78.8353 75.9472 78.6944 75.7334 78.4805 75.5974C78.2667 75.4613 77.9217 75.3933 77.4455 75.3933H76.8186V84.1693ZM83.359 85.6709V73.8625H88.3156V75.3787H85.5166V78.7754H87.7179V80.277H85.5166V84.1839H88.3448V85.6709H83.359ZM93.385 85.8313C92.5491 85.8313 91.8834 85.6758 91.3877 85.3648C90.8921 85.0538 90.5373 84.6067 90.3235 84.0236C90.1097 83.4404 90.0028 82.7504 90.0028 81.9535V77.5363C90.0028 76.7393 90.1097 76.059 90.3235 75.4953C90.5373 74.9219 90.8921 74.4845 91.3877 74.1833C91.8834 73.882 92.5491 73.7313 93.385 73.7313C94.2402 73.7313 94.9108 73.882 95.3967 74.1833C95.8924 74.4845 96.2471 74.9219 96.461 75.4953C96.6845 76.059 96.7963 76.7393 96.7963 77.5363V81.968C96.7963 82.7553 96.6845 83.4404 96.461 84.0236C96.2471 84.597 95.8924 85.044 95.3967 85.3648C94.9108 85.6758 94.2402 85.8313 93.385 85.8313ZM93.385 84.2422C93.7445 84.2422 94.007 84.1645 94.1722 84.009C94.3471 83.8535 94.4637 83.6397 94.5221 83.3675C94.5804 83.0954 94.6095 82.799 94.6095 82.4783V77.0406C94.6095 76.7102 94.5804 76.4137 94.5221 76.1513C94.4637 75.8889 94.3471 75.6848 94.1722 75.539C94.007 75.3835 93.7445 75.3058 93.385 75.3058C93.0448 75.3058 92.7872 75.3835 92.6123 75.539C92.4374 75.6848 92.3207 75.8889 92.2624 76.1513C92.2041 76.4137 92.175 76.7102 92.175 77.0406V82.4783C92.175 82.799 92.1993 83.0954 92.2479 83.3675C92.3062 83.6397 92.4228 83.8535 92.5977 84.009C92.7727 84.1645 93.0351 84.2422 93.385 84.2422Z" fill="white"/>
<path d="M42.38 28.2065L79.2884 1.48523L116.197 28.2065L116.199 28.2081L153.018 55.0528L139.01 98.4121L139.009 98.4146L124.856 141.727L79.2897 141.803H79.287L33.7211 141.727L19.568 98.4146L19.5672 98.4121L5.55899 55.0528L42.3778 28.2081L42.38 28.2065Z" stroke="white" stroke-width="1.6198"/>
</svg>
