<svg width="418" height="286" viewBox="0 0 418 286" fill="none" xmlns="http://www.w3.org/2000/svg">
<rect x="0.144104" y="0.649414" width="417.856" height="284.637" fill="#F09A18"/>
<rect x="12.718" y="14.3584" width="392.708" height="257.219" stroke="white"/>
<path fill-rule="evenodd" clip-rule="evenodd" d="M123.041 131.547H150.297L150.297 131.545C150.297 131.545 150.786 133.463 150.786 136.78C150.786 152.507 139.242 163.142 123.471 163.142C105.54 163.142 93.3608 148.791 93.3608 134.074C93.3608 119.054 106.309 105.149 123.045 105.149C136.188 105.149 143.395 113.047 143.395 113.047L137.78 118.771C137.78 118.771 132.423 113.065 123.332 113.065C111.549 113.065 102.151 122.267 102.151 134.215C102.151 146.48 112.009 155.231 123.307 155.231C132.138 155.231 141.493 150.51 142.44 139.441H123.041V131.547ZM154.335 144.316C154.335 134.363 162.282 125.83 173.37 125.83C182.485 125.83 192.37 132.188 192.369 144.533C192.369 155.304 183.872 163.108 173.5 163.108C162.043 163.108 154.335 154.416 154.335 144.316ZM162.645 144.43C162.645 151.027 167.412 155.792 173.455 155.792C178.955 155.792 184.1 151.328 184.1 144.484C184.1 137.491 178.933 133.151 173.48 133.151C167.353 133.151 162.645 137.973 162.645 144.43ZM214.534 125.83C203.446 125.83 195.499 134.363 195.499 144.316C195.499 154.416 203.207 163.108 214.664 163.108C225.036 163.108 233.533 155.304 233.533 144.533C233.533 132.188 223.649 125.83 214.534 125.83ZM214.619 155.792C208.576 155.792 203.809 151.027 203.809 144.43C203.809 137.973 208.517 133.151 214.644 133.151C220.097 133.151 225.264 137.491 225.264 144.484C225.264 151.328 220.119 155.792 214.619 155.792ZM255.139 125.851C259.569 125.851 262.907 127.539 265.348 130.128V126.51H273.287V160.463C273.287 173.622 265.574 179.896 255.455 179.896C246.203 179.896 241.007 174.292 238.425 168.919L245.702 165.924C246.71 168.327 249.611 172.56 255.395 172.56C261.382 172.56 265.348 168.709 265.348 162.279V158.603C263.229 161.024 260.36 163.132 254.963 163.132C246.236 163.132 236.961 155.693 236.961 144.474C236.961 134.625 244.961 125.85 255.139 125.85V125.851ZM245.291 144.583C245.291 151.469 250.339 155.806 255.765 155.806C260.876 155.806 265.989 151.794 265.989 144.513C265.989 137.351 260.866 133.157 255.876 133.157H255.875C250.534 133.157 245.291 137.427 245.291 144.583ZM308.844 155.787C303.521 155.787 301.074 152.917 299.557 150.138L324.946 139.768L323.628 136.728C321.175 130.777 315.454 125.807 307.883 125.807L307.882 125.806C298.281 125.806 290.22 133.325 290.22 144.42C290.22 156.16 299.205 163.123 308.804 163.123C316.815 163.123 321.732 158.809 324.666 154.943L318.121 150.656C316.422 153.251 313.583 155.787 308.844 155.787ZM308.213 132.974C311.672 132.974 314.162 134.784 315.219 136.955L298.265 143.931C297.533 138.531 302.731 132.974 308.213 132.974ZM278.585 107.077H286.361V162.016H278.585V107.077Z" fill="white"/>
<line x1="405.172" y1="15.6923" x2="13.5185" y2="271.081" stroke="white"/>
</svg>
