<?xml version="1.0" encoding="utf-8"?>
<!-- Generator: Adobe Illustrator 14.0.0, SVG Export Plug-In . SVG Version: 6.00 Build 43363)  -->
<!DOCTYPE svg PUBLIC "-//W3C//DTD SVG 1.0//EN" "http://www.w3.org/TR/2001/REC-SVG-20010904/DTD/svg10.dtd">
<svg xmlns="http://www.w3.org/2000/svg" viewBox="0 0 50 21" class="icon-hbo "><path d="M39.5,14.3c2.1,0,3.9-1.7,3.9-3.9s-1.7-3.9-3.9-3.9c-2.1,0-3.9,1.7-3.9,3.9S37.4,14.3,39.5,14.3"></path><path d="M39.5,15.8c-2.9,0-5.3-2.4-5.3-5.3s2.4-5.3,5.3-5.3s5.3,2.4,5.3,5.3S42.4,15.8,39.5,15.8z M29.5,11.9c-0.4-0.5-1-1-1.8-1.5c0.9-0.5,1.5-1.1,1.9-1.9c-0.1,0.6-0.2,1.3-0.2,2C29.4,10.9,29.5,11.4,29.5,11.9z M24.7,15.7 c-0.4,0.4-1.1,0.3-1.6,0.3h-2.4v-3.7h2.2c1.3,0,2.5,0.3,2.5,1.9C25.4,14.8,25.1,15.4,24.7,15.7z M20.7,4.9h2.2c1,0,2.2,0.2,2.2,1.5 c0.1,1.2-0.6,1.9-2.1,1.9h-2.2V4.9L20.7,4.9z M39.6,0.3c-4.4,0-8.2,2.9-9.6,6.8c0.1-0.4,0.1-0.8,0.1-1.3c0-1.5-0.8-3.1-2.1-3.9 c-1.1-0.8-2.3-1.3-3.6-1.3h-8.9v20h8.3c1.6,0,3-0.6,4.4-1.6c1.3-0.9,2.1-2.6,2.1-4.1v-0.2c1.6,3.5,5.1,5.9,9.2,5.9 c5.6,0,10.2-4.6,10.2-10.2S45.2,0.3,39.6,0.3z"></path><path d="M9.3,7.9H5.1V0.5H0v20.1h5.1v-7.8h4.2v7.8h5.1V0.5H9.3L9.3,7.9z"></path></svg>