<svg width="299" height="205" fill="none" xmlns="http://www.w3.org/2000/svg"><path fill="#EF1021" d="M.542.856h298.337v203.223H.542z"/><path stroke="#fff" d="M9.663 10.787h280.096v183.361H9.663z"/><path fill-rule="evenodd" clip-rule="evenodd" d="M124.495 93.267c-3.488-2.42-8.123-2.889-13.021-2.889-4.308 0-9.445.69-12.517 2.76-3.43 2.296-5.127 6.186-5.127 9.428 0 2.957 1.881 6.872 4.81 9.04 3.114 2.296 7.977 2.951 12.56 2.951 4.855 0 9.305-.344 12.879-2.673 3.299-2.101 5.325-5.711 5.274-9.4-.037-3.642-1.699-6.954-4.858-9.217zm-6.023 13.4c-1.542 3.055-4.566 3.689-8.365 3.553-3.285-.32-5.463-1.938-6.316-5.358-.684-2.832-.08-5.8 1.451-7.684 2.557-3.469 10.155-3.242 12.59.133 1.964 2.428 1.964 6.248.64 9.356zm-30.063 2.472c-.032-.396-.058-.716-.058-1.171V96.162a7.47 7.47 0 00-.007-.273c-.026-.687-.06-1.578 1.107-1.773l3.265-.36v-2.743H75.31v2.745c.733 0 2.77.262 3.357.494l.003.001c.338.134 1.01.4 1.01 1.911v4.202H65.872v-4.394c0-.566.116-1.453 1.085-1.807.447-.167 1.589-.258 2.514-.332.33-.026.631-.05.865-.075v-2.745H52.745v2.745c.39.042.76.072 1.117.1.811.064 1.566.123 2.384.321.97.24.965 1.288.962 1.93V108.406c-.029 1.196-.029.929-.029.929 0 1.065-1.022 1.407-1.764 1.433l-2.67.199v2.74h17.59v-2.74c-.548 0-2.283-.246-3.045-.361-1.404-.211-1.418-1.102-1.418-1.917v-4.028h13.812v3.462c0 .101.006.213.011.334.038.775.09 1.863-1.204 2.086-1.295.222-2.72.421-3.177.421v2.741h17.5v-2.738c-.25-.027-.46-.048-.666-.068-.646-.063-1.227-.119-2.742-.354a1.14 1.14 0 01-.966-1.02l-.03-.386zm71.243-11.75c0-2.58-.42-3.56-4.317-3.591v-2.832h13.734v2.745l-.305.029h-.001c-2.11.197-3.436.321-3.879 2.017-.212.798-.208 1.756-.205 2.602V114.008h-12.023l-12.488-17.19V107.1c-.001 2.569-.001 3.854 4.15 3.914v2.741h-13.452v-2.741c4.106-.122 4.142-.856 4.264-3.355l.004-.077.011-.217.029-10.056c0-2.795-2.448-3.6-4.419-3.6v-2.746h16.091l12.806 17.413V97.389zm43.31-3.475c-1.328-.971-3.103-1.617-4.943-2.137-2.319-.655-5.492-.72-7.824-.751l-4.259.03h-15.107v2.741l2.961.3c.773.185 1.315.803 1.291 1.943v13.089s-.109 1.138-.949 1.494c-.851.351-2.068.391-3.303.391v2.741l15.9.025a95.498 95.498 0 011.94-.017c2.453-.007 5.834-.017 8.162-.427 3.359-.588 6.762-2.334 8.2-4.591 1.824-2.848 2.015-4.616 2.015-6.594 0-2.986-1.107-5.969-4.084-8.237zm-13.485 15.723h-6.303V95.431h6.596c2.366-.016 3.693.314 5.101 1.463 1.597 1.301 1.917 3.24 2.004 5.175.156 3.357-.378 7.929-7.398 7.568zm40.791-18.674l11.622 17.696c1.102 1.793 1.726 2.294 4.787 2.355v2.741h-18.572v-2.741s5.476.426 3.241-3.02l-.811-1.17-13.636-.009c.004.051-.72 1.179-.72 1.179-1.558 2.524 1.233 2.882 3.115 3.02v2.741h-13.915v-2.741c3.686-.019 4.444-1.323 5.757-3.583.134-.231.274-.473.424-.724l5.13-8.864c2.801-4.438-3.624-3.937-3.624-3.937v-2.931l17.202-.012zm-6.722 4.345l-4.695 7.701h9.505l-4.81-7.701z" fill="#fff"/><path stroke="#fff" d="M289.799 11.716L10.169 194.057"/></svg>