<svg width="51" height="52" viewBox="0 0 51 52" fill="none" xmlns="http://www.w3.org/2000/svg">
  <mask id="mask0" mask-type="alpha" maskUnits="userSpaceOnUse" x="0" y="0" width="51" height="52">
    <path fill-rule="evenodd" clip-rule="evenodd"
      d="M28.1144 7.97057C33.9895 8.82205 34.6821 8.94535 36.9869 9.38746C39.118 9.79628 40.2311 10.3235 40.9628 10.7372C41.932 11.2852 42.5959 11.8682 43.2542 12.7498C43.9126 13.6313 44.2832 14.4335 44.5335 15.5183C44.7224 16.3373 44.912 17.5543 44.699 19.7138C44.4685 22.0494 44.3901 22.7485 43.5387 28.6236C42.6872 34.4987 42.5639 35.1913 42.1218 37.4961C41.713 39.6272 41.1857 40.7403 40.772 41.472C40.224 42.4412 39.641 43.1051 38.7594 43.7634C37.8778 44.4218 37.0758 44.7924 35.9909 45.0427C35.1719 45.2316 33.9549 45.4212 31.7955 45.2082C29.4603 44.9778 28.7612 44.8994 22.8857 44.0479C17.0103 43.1964 16.3177 43.0731 14.0132 42.631C11.8821 42.2222 10.769 41.6949 10.0373 41.2813C9.06812 40.7333 8.40425 40.1502 7.74593 39.2686C7.0876 38.3871 6.71695 37.585 6.46664 36.5002C6.27768 35.6811 6.08808 34.4641 6.30117 32.3047C6.53157 29.9692 6.60998 29.27 7.46146 23.3949C8.31293 17.5197 8.43623 16.8271 8.87834 14.5223C9.28717 12.3912 9.81438 11.2781 10.2281 10.5465C10.7761 9.57725 11.3591 8.91338 12.2407 8.25506C13.1222 7.59673 13.9244 7.22608 15.0092 6.97577C15.8282 6.78681 17.0452 6.5972 19.2047 6.8103C21.5401 7.04068 22.2393 7.1191 28.1144 7.97057ZM28.689 4.00604C22.7132 3.13998 21.9602 3.05672 19.5979 2.82368C17.2404 2.59115 15.5871 2.73125 14.1087 3.07238C12.5803 3.42499 11.2442 3.99952 9.84366 5.04546C8.44316 6.0914 7.51294 7.20951 6.74095 8.57483C5.99414 9.89565 5.39044 11.4412 4.94411 13.7676C4.49681 16.099 4.36288 16.8446 3.49683 22.8204C2.63077 28.7961 2.5475 29.5491 2.31446 31.9114C2.08194 34.269 2.22204 35.9223 2.56317 37.4007C2.91577 38.9291 3.4903 40.2652 4.53624 41.6657C5.58218 43.0662 6.7003 43.9964 8.06562 44.7684C9.38643 45.5152 10.9319 46.1189 13.2584 46.5652C15.5898 47.0124 16.3354 47.1464 22.3111 48.0124C28.2867 48.8784 29.0398 48.9617 31.4021 49.1948C33.7597 49.4273 35.413 49.2872 36.8914 48.9461C38.4198 48.5934 39.7559 48.0189 41.1564 46.973C42.5569 45.927 43.4871 44.8089 44.2591 43.4436C45.0059 42.1228 45.6096 40.5773 46.0559 38.2508C46.5031 35.9194 46.6371 35.1738 47.5031 29.1981C48.3692 23.2225 48.4524 22.4694 48.6855 20.1071C48.918 17.7496 48.7779 16.0963 48.4368 14.6179C48.0842 13.0895 47.5096 11.7534 46.4637 10.3528C45.4178 8.95235 44.2996 8.02213 42.9343 7.25014C41.6135 6.50333 40.068 5.89963 37.7415 5.4533C35.4103 5.00601 34.6646 4.87209 28.689 4.00604ZM27.1375 14.7105C20.8973 13.8061 15.1054 18.1316 14.201 24.3719C13.2966 30.6122 17.6222 36.404 23.8624 37.3084C30.1026 38.2128 35.8945 33.8873 36.7989 27.647C37.7033 21.4067 33.3777 15.6148 27.1375 14.7105ZM24.437 33.3438C20.3864 32.7567 17.5785 28.9971 18.1655 24.9464C18.7526 20.8958 22.5122 18.0879 26.5629 18.675C30.6137 19.262 33.4214 23.0216 32.8343 27.0724C32.2473 31.123 28.4877 33.9308 24.437 33.3438ZM41.5878 16.3489C41.3765 17.8071 40.0231 18.8179 38.5648 18.6066C37.1066 18.3952 36.0958 17.0418 36.3072 15.5836C36.5185 14.1254 37.8719 13.1146 39.3302 13.3259C40.7884 13.5372 41.7992 14.8907 41.5878 16.3489Z"
      fill="black" />
  </mask>
  <g mask="url(#mask0)">
    <path
      d="M53.4037 26.311C53.4037 41.4573 41.1252 53.7358 25.9789 53.7358C10.8326 53.7358 -1.44586 41.4573 -1.44586 26.311C-1.44586 11.1647 10.8326 -1.11377 25.9789 -1.11377C41.1252 -1.11377 53.4037 11.1647 53.4037 26.311Z"
      fill="url(#paint0_linear)" />
  </g>
  <defs>
    <linearGradient id="paint0_linear" x1="33.8693" y1="1.99238" x2="-1.44587" y2="56.8203"
      gradientUnits="userSpaceOnUse">
      <stop stop-color="#4663D8" />
      <stop offset="0.299471" stop-color="#B62BAD" />
      <stop offset="0.549481" stop-color="#DB287F" />
      <stop offset="0.789074" stop-color="#F16237" />
      <stop offset="1" stop-color="#FFD771" />
    </linearGradient>
  </defs>
</svg>