<svg width="1285" height="728" fill="none" xmlns="http://www.w3.org/2000/svg"><path stroke="#C4C4C4" stroke-width="10" d="M45.461 5.127h510.464M.749 42.425h525.176M45.461 266.217h312.93M.749 79.724h565.176M.749 303.516h352.64M.749 117.023h545.176M.749 340.814h342.102M.749 154.321h555.176M.749 378.113h357.642M.749 191.62h304.944M.749 415.411h352.64M.749 490.009h342.102M.749 452.71h357.642M45.461 564.606h510.464M.749 601.904h525.176M.749 676.501h525.176M.749 639.203h545.176M.749 713.8h555.176"/><path fill="#1A52D3" stroke="#fff" stroke-width="6" d="M100.394 30.404h91.391v23.388h-91.391zM396.798 105.329h71.391v23.388h-71.391zM127.65 252.829h101.391v23.388H127.65zM227.641 365.725h81.391v23.388h-81.391zM32.259 478.357h81.391v23.388H32.259zM173 626.815h81.391v23.388H173zM297.693 701.527h111.391v23.388H297.693zM355.391 552.283h111.391v23.388H355.391z"/><path d="M353.389 686.247v-26.852c0-5.523 4.477-10 10-10h561.256c5.522 0 10-4.477 10-10V539.189c0-5.523 4.477-10 10-10h329.095c5.52 0 10-4.477 10-10v-92.581" stroke="#000" stroke-opacity=".35" stroke-width="1.5"/><path d="M432.947 137.967v37.004c0 16.568 13.431 30 30 30h554.463c16.56 0 30 13.431 30 30v324.393M213.51 620.393v-25.177c0-5.523 4.478-10 10-10h532.78c5.523 0 10 4.477 10 10v13.126c0 5.523 4.477 10 10 10h361.49" stroke="#000" stroke-opacity=".35" stroke-width="1.5"/><path d="M74.478 467.96V236.747c0-5.523 4.477-10 10-10h862.747c5.523 0 10-4.477 10-10v-46.953" stroke="#000" stroke-opacity=".35" stroke-width="1.5"/><path d="M267.113 355.729v-97.206c0-5.523 4.477-10 10-10h852.747c5.52 0 10-4.477 10-10v-20.151" stroke="#000" stroke-opacity=".35" stroke-width="1.5"/><path d="M1151.56 513.187v42.979c0 5.522-4.48 10-10 10H186c-5.523 0-10-4.478-10-10V287.05" stroke="#000" stroke-opacity=".35" stroke-width="1.5"/></svg>