<svg width="183" height="156" fill="none" xmlns="http://www.w3.org/2000/svg"><path stroke="#1A52D3" stroke-width="7" d="M0 42.947h88.826"/><path stroke="#C4C4C4" stroke-width="5" d="M0 55.977h135.387M0 67.497h102.078"/><path stroke="#1A52D3" stroke-width="7" d="M0 89.704h124.927"/><path stroke="#C4C4C4" stroke-width="5" d="M0 102.734h96.859M0 114.254h56.852"/><path d="M20.483 32.08l4.33-7.5h-8.66l4.33 7.5zm34.042 123.277h103.409v-1.5H54.525v1.5zm103.409 0c5.826 0 12.032-1.526 16.803-5.013 4.8-3.507 8.103-8.972 8.103-16.707h-1.5c0 7.244-3.065 12.264-7.488 15.496-4.452 3.254-10.324 4.724-15.918 4.724v1.5zm24.906-21.72v-.074-.075-.076-.077-.078-.078-.08-.081-.082-.083-.084-.084-.086-.087-.087-.089-.09-.09-.092-.092-.093-.095-.095-.096-.097-.098-.099-.1-.101-.101-.103-.103-.105-.105-.106-.108-.108-.109-.109-.111-.112-.112-.113-.115-.115-.116-.117-.117-.119-.119-.121-.121-.122-.122-.124-.125-.125-.126-.127-.128-.129-.129-.13-.132-.132-.132-.134-.134-.135-.136-.137-.138-.138-.139-.14-.141-.142-.142-.143-.144-.144-.146-.146-.147-.147-.149-.149-.15-.151-.151-.152-.153-.154-.154-.155-.156-.156-.157-.158-.159-.159-.161-.16-.162-.162-.163-.164-.164-.165-.165-.167-.167-.168-.168-.169-.17-.17-.171-.172-.172-.173-.174-.174-.175-.176-.176-.177-.177-.178-.179-.179-.18-.181-.181-.182-.183-.183-.183-.185-.184-.186-.186-.187-.187-.188-.188-.189-.19-.19-.19-.192-.192-.192-.193-.193-.194-.195-.195-.196-.196-.197-.197-.198-.199-.198-.2-.2-.2-.201-.202-.202-.202-.203-.204-.204-.204-.205-.206-.206-.206-.207-.208-.207-.209-.209-.209-.21-.21-.211-.211-.211-.212-.213-.213-.213-.214-.214-.215-.215-.215-.216-.217-.216-.218-.217-.218-.219-.218-.22-.219-.22-.221-.22-.222-.221-.222-.222-.223-.223-.223-.224-.224-.225-.225-.225-.225-.226-.227-.226-.227-.227-.228-.228-.228-.229-.229-.229-.23-.23-.23-.23-.23-.232-.231-.232-.232-.232-.233-.232-.234-.233-.234-.233-.235-.234-.235-.235-.235-.236-.235-.236-.237-.236-.237-.237-.237-.238-.237-.238-.238-.239-.238-.239-.239-.239-.24-.239-.24-.24-.24-.24-.24-.242-.24-.242-.241-.242-.241-.242-.242-.242-.242-.243-.242-.243-.243-.243-.243-.244-.243-.244-.243-.244-.244-.245-.244-.244-.245-.244-.245-.245-.244-.245-.246-.245-.245-.245-.246-.245-.246-.246-.245-.246-.246-.246-.246-.246-.246-.246-.247-.246-.246-.246-.247-.246-.247-.246-.247-.246-.247-.247-.246-.247-.246-.247-.247-.246-.247-.247-.246-.247-.246-.247-.246-.247-.247-.246-.246-.247-.246-.247-.246-.246-.246-.247-.246-.246-.246-.246-.246-.245-.246-.246-.245-.246-.245-.245-.246-.245-.245-.245-.245-.245-.244-.245-.244-.244-.245-.244-.244-.243-.244-.244-.243-.243-.244-.242-.243-.243-.243-.242-.242-.242-.242-.242-.242-.24-.242-.241-.241-.24-.241-.24-.24-.24-.24-.24-.24-.238-.24-.238-.238-.239-.238-.237-.238-.237-.238-.236-.237-.236-.237-.235-.236-.236-.235-.235-.234-.235-.234-.233-.234-.233-.233-.233-.233-.232-.231-.232-.231-.231-.23-.231-.23-.23-.23-.229-.228-.229-.228-.228-.227-.227-.227-.227-.226-.225-.226-.225-.225-.224-.224-.224-.223-.223-.222-.223-.221-.222-.22-.221-.22-.22-.22-.22-.218-.218-.218-.217-.217-.217-.216-.216-.215-.215-.215-.214-.213-.213-.213-.213-.211-.212-.21-.211-.21-.21-.209-.209-.208-.208-.207h-1.5V133.637h1.5zm-128.315 20.22H49.53v1.5h4.996v-1.5zM152.09.382H50.483v1.5H152.09v-1.5zm-101.607 0c-16.983 0-30.75 13.767-30.75 30.75h1.5c0-16.154 13.096-29.25 29.25-29.25v-1.5zm-.954 153.475c-15.628 0-28.296-12.668-28.296-28.296h-1.5c0 16.456 13.34 29.796 29.796 29.796v-1.5zM182.84 29.541c0-17.035-13.822-29.159-30.75-29.159v1.5c16.209 0 29.25 11.558 29.25 27.66h1.5z" fill="#000"/></svg>