<svg width="362" height="394" fill="none" xmlns="http://www.w3.org/2000/svg"><path stroke="#C4C4C4" stroke-width="4.55" d="M21.118 23.976h150.256M.773 40.947h156.95M21.117 142.77h142.38M.773 57.917h175.15M.773 159.74h160.448M.773 74.888h166.05M.773 176.711h155.654M.773 91.858h170.6M.773 193.681h162.724M.773 108.829H139.52M.773 210.652h160.448M.773 244.593h155.654M.773 227.622h162.724M21.117 278.534h146.256M.773 295.504h152.95M.773 329.445h152.95M.773 312.475h162.05M.773 346.416h166.6"/><path fill="#1A52D3" stroke="#fff" stroke-width="2.73" d="M46.111 35.477h41.582v10.641H46.111zM110.972 69.567h32.482v10.641h-32.482zM58.513 136.679h46.132v10.641H58.513zM104.007 188.045h37.032v10.641h-37.032zM15.11 239.292h37.032v10.641H15.11zM79.146 306.839h37.032v10.641H79.146zM27.931 340.832h50.682v10.641H27.931z"/><path d="M290.292 230.967c0 18.122-14.691 32.812-32.813 32.812s-32.812-14.69-32.812-32.812 14.69-32.813 32.812-32.813 32.813 14.691 32.813 32.813z" fill="#FFDA18"/><path d="M338.325 33.265c0 18.18-14.737 32.917-32.917 32.917-18.179 0-32.917-14.737-32.917-32.917S287.229.348 305.408.348c18.18 0 32.917 14.738 32.917 32.917z" fill="#EF1021"/><path d="M98.635 300.969v-21.69a5.395 5.395 0 015.395-5.395H315.7a5.394 5.394 0 005.395-5.394v-49.945M53.97 357.818v30.136a5.394 5.394 0 005.394 5.394h250.994a5.394 5.394 0 005.395-5.394v-29.342" stroke="#000" stroke-opacity=".35" stroke-width=".809"/><path d="M64.805 51.449v57.962c0 8.938 7.246 16.184 16.184 16.184h120.416c8.938 0 16.184 7.246 16.184 16.184V290.78M128.485 66.182V39.727a5.395 5.395 0 015.395-5.395h128.259" stroke="#000" stroke-opacity=".35" stroke-width=".809"/><path d="M34.174 234.507V173.12a5.394 5.394 0 015.394-5.394h198.847a5.395 5.395 0 005.394-5.395V140.46" stroke="#000" stroke-opacity=".35" stroke-width=".809"/><path d="M209.795 231.939h-81.401a5.395 5.395 0 01-5.395-5.395V202.5" stroke="#000" stroke-opacity=".35" stroke-width=".809"/><path d="M348.315 321.495c0 18.18-14.737 32.918-32.917 32.918s-32.917-14.738-32.917-32.918c0-18.179 14.737-32.917 32.917-32.917s32.917 14.738 32.917 32.917z" fill="#D511AA"/><path d="M254.852 339.817c0 21.348-17.307 38.655-38.655 38.655-21.349 0-38.655-17.307-38.655-38.655 0-21.349 17.306-38.655 38.655-38.655 21.348 0 38.655 17.306 38.655 38.655z" fill="#286EFA"/><path d="M287.413 35.713v-6.885h-1.165v4.884l-3.127-4.884h-1.485v6.885h1.165v-5.215l3.399 5.215h1.213zm2.318-2.884a1.136 1.136 0 011.156-1.049c.777 0 1.146.495 1.165 1.049h-2.321zm2.447 1.233c-.155.466-.505.825-1.184.825-.7 0-1.263-.514-1.292-1.233h3.457c.01-.02.029-.175.029-.36 0-1.494-.854-2.456-2.311-2.456-1.194 0-2.301.99-2.301 2.486 0 1.602 1.136 2.535 2.418 2.535 1.136 0 1.883-.67 2.136-1.496l-.952-.301zm4.7-3.078l-1.116 3.272-.962-3.272h-1.204l1.534 4.729h1.156l1.146-3.399 1.175 3.399h1.126l1.515-4.73h-1.146l-.942 3.273-1.116-3.272h-1.166zm4.811 3.447c.059.534.583 1.428 1.952 1.428 1.204 0 1.787-.797 1.787-1.515 0-.7-.466-1.243-1.359-1.438l-.719-.145c-.291-.058-.476-.243-.476-.495 0-.292.282-.544.68-.544.631 0 .835.437.874.709l.951-.272c-.077-.466-.505-1.32-1.825-1.32-.981 0-1.738.698-1.738 1.524 0 .65.437 1.194 1.272 1.379l.699.155c.379.078.553.272.553.524 0 .292-.242.544-.708.544-.603 0-.923-.379-.962-.806l-.981.272zm7.47-3.447l-1.117 3.272-.961-3.272h-1.204l1.534 4.729h1.155l1.146-3.399 1.175 3.399h1.127l1.514-4.73h-1.145l-.942 3.273-1.117-3.272h-1.165zm5.901 1.845a1.136 1.136 0 011.156-1.049c.776 0 1.145.495 1.165 1.049h-2.321zm2.447 1.233c-.155.466-.505.825-1.185.825a1.266 1.266 0 01-1.291-1.233h3.457c.01-.02.029-.175.029-.36 0-1.494-.854-2.456-2.311-2.456-1.194 0-2.301.99-2.301 2.486 0 1.602 1.136 2.535 2.417 2.535 1.137 0 1.884-.67 2.137-1.496l-.952-.301zm2.873-1.233a1.136 1.136 0 011.156-1.049c.776 0 1.145.495 1.165 1.049h-2.321zm2.447 1.233c-.155.466-.505.825-1.185.825a1.266 1.266 0 01-1.291-1.233h3.457c.01-.02.029-.175.029-.36 0-1.494-.855-2.456-2.311-2.456-1.195 0-2.302.99-2.302 2.486 0 1.602 1.137 2.535 2.418 2.535 1.136 0 1.884-.67 2.137-1.496l-.952-.301zm6.514-3.078h-1.495l-1.816 1.913v-4.215h-1.117v7.03h1.117v-1.32l.583-.612 1.388 1.933h1.379l-1.981-2.729 1.942-2zM298.547 320.328v-1.098h-5.642v1.098h2.233v5.787h1.166v-5.787h2.243zm2.004 3.01c.019-.602.359-1.068.98-1.068.709 0 .972.466.972 1.048v2.797h1.126v-2.991c0-1.039-.563-1.874-1.729-1.874-.495 0-1.029.175-1.349.593v-2.758h-1.127v7.03h1.127v-2.777zm5.236-.107a1.135 1.135 0 011.155-1.049c.777 0 1.146.496 1.166 1.049h-2.321zm2.447 1.233c-.156.466-.505.826-1.185.826a1.266 1.266 0 01-1.291-1.234h3.457c.009-.019.029-.174.029-.359 0-1.495-.855-2.457-2.311-2.457-1.195 0-2.302.991-2.302 2.486 0 1.603 1.136 2.535 2.418 2.535 1.136 0 1.884-.67 2.136-1.496l-.951-.301zm7.049.127l-1.923-5.361h-1.262l2.563 6.885h1.185l2.602-6.885h-1.233l-1.932 5.361zm4.197-1.36a1.136 1.136 0 011.156-1.049c.776 0 1.145.496 1.165 1.049h-2.321zm2.447 1.233c-.155.466-.505.826-1.185.826a1.266 1.266 0 01-1.291-1.234h3.457a1.64 1.64 0 00.029-.359c0-1.495-.855-2.457-2.311-2.457-1.194 0-2.301.991-2.301 2.486 0 1.603 1.136 2.535 2.417 2.535 1.137 0 1.884-.67 2.137-1.496l-.952-.301zm4.854-3.107a1.594 1.594 0 00-.301-.029c-.622 0-1.146.301-1.369.816v-.758h-1.098v4.729h1.127v-2.253c0-.883.398-1.388 1.272-1.388.116 0 .243.009.369.029v-1.146zm.553 5.02c.126.952 1 1.729 2.253 1.729 1.777 0 2.427-1.175 2.427-2.438v-4.282h-1.087v.602c-.204-.388-.66-.689-1.398-.689-1.302 0-2.185 1.039-2.185 2.301 0 1.33.922 2.301 2.185 2.301.689 0 1.165-.32 1.369-.689v.495c0 .962-.447 1.418-1.34 1.418-.651 0-1.107-.437-1.185-1.02l-1.039.272zm2.379-1.437c-.738 0-1.233-.515-1.233-1.34 0-.806.514-1.33 1.233-1.33.699 0 1.214.524 1.214 1.33 0 .816-.495 1.34-1.214 1.34zm4.466-1.709a1.134 1.134 0 011.155-1.049c.777 0 1.146.496 1.165 1.049h-2.32zm2.447 1.233c-.156.466-.505.826-1.185.826a1.268 1.268 0 01-1.292-1.234h3.457a1.64 1.64 0 00.029-.359c0-1.495-.854-2.457-2.311-2.457-1.194 0-2.301.991-2.301 2.486 0 1.603 1.136 2.535 2.418 2.535 1.136 0 1.884-.67 2.136-1.496l-.951-.301z" fill="#fff"/><path d="M277.86 96.366c0 18.179-14.737 32.917-32.917 32.917-18.179 0-32.917-14.738-32.917-32.917 0-18.18 14.738-32.917 32.917-32.917 18.18 0 32.917 14.737 32.917 32.917z" fill="#30B59D"/><path d="M231.918 99.892v-2.777h2.797v-1.078h-2.797v-1.932h3.117v-1.098h-4.282v6.885h1.165zm5.899-.864c-.69 0-1.321-.525-1.321-1.505 0-.981.631-1.486 1.321-1.486.699 0 1.32.505 1.32 1.486 0 .99-.621 1.505-1.32 1.505zm0-4.01c-1.408 0-2.448 1.058-2.448 2.505 0 1.456 1.04 2.515 2.448 2.515 1.417 0 2.456-1.059 2.456-2.515 0-1.447-1.039-2.506-2.456-2.506zm6.312.116a1.597 1.597 0 00-.301-.03c-.621 0-1.146.302-1.369.817v-.758h-1.097v4.73h1.126v-2.254c0-.883.398-1.388 1.272-1.388.117 0 .243.01.369.029v-1.146zm2.038 4.758v-.631c.272.456.786.748 1.457.748 1.378 0 2.223-1.078 2.223-2.506 0-1.388-.767-2.466-2.185-2.466-.728 0-1.272.34-1.485.709v-2.884h-1.107v7.03h1.097zm2.544-2.379c0 .932-.534 1.495-1.272 1.495-.719 0-1.272-.563-1.272-1.495 0-.942.553-1.476 1.272-1.476.748 0 1.272.534 1.272 1.476zm3.006-.505a1.134 1.134 0 011.155-1.049c.777 0 1.146.496 1.165 1.05h-2.32zm2.447 1.233c-.156.466-.505.826-1.185.826a1.266 1.266 0 01-1.291-1.233h3.456c.01-.02.03-.175.03-.36 0-1.495-.855-2.457-2.312-2.457-1.194 0-2.301.99-2.301 2.486 0 1.603 1.136 2.535 2.418 2.535 1.136 0 1.884-.67 2.136-1.496l-.951-.3zm1.668.37c.059.533.583 1.427 1.952 1.427 1.204 0 1.787-.796 1.787-1.515 0-.7-.466-1.243-1.359-1.437l-.719-.146c-.291-.058-.476-.243-.476-.495 0-.291.282-.544.68-.544.631 0 .835.437.874.709l.951-.272c-.077-.466-.505-1.32-1.825-1.32-.981 0-1.738.699-1.738 1.524 0 .65.437 1.194 1.272 1.379l.699.155c.379.078.553.272.553.525 0 .29-.242.543-.708.543-.603 0-.923-.378-.962-.806l-.981.272z" fill="#fff"/><path d="M238.092 227.438v6.885h2.544c1.282 0 2.136-.796 2.136-1.903 0-.816-.505-1.447-1.233-1.641.592-.214 1.019-.758 1.019-1.486 0-1.078-.776-1.855-2.097-1.855h-2.369zm1.155 2.913v-1.922h1.03c.708 0 1.116.378 1.116.961 0 .573-.408.961-1.087.961h-1.059zm0 2.981v-2h1.224c.718 0 1.116.418 1.116 1.01 0 .612-.456.99-1.155.99h-1.185zm7.601.467c0 .194.019.417.039.524h1.078a7.539 7.539 0 01-.049-.864v-3.865h-1.126v2.797c0 .621-.34 1.058-.991 1.058-.68 0-.952-.495-.952-1.078v-2.777h-1.126v2.981c0 1.049.66 1.884 1.787 1.884.553 0 1.107-.233 1.34-.66zm6.031.524v-.991h-2.476l2.428-2.786v-.952h-3.768v.99h2.35l-2.398 2.758v.981h3.864zm4.619 0v-.991h-2.477l2.428-2.786v-.952h-3.768v.99h2.35l-2.398 2.758v.981h3.865zm3.286-6.069c.213 0 .34.029.408.048v-.961c-.078-.039-.311-.097-.593-.097-.971 0-1.651.641-1.651 1.699v.651h-.825v.981h.825v3.748h1.137v-3.748h1.097v-.981h-1.097v-.622c0-.582.398-.718.699-.718zm1.941 3.185a1.136 1.136 0 011.156-1.049c.777 0 1.146.495 1.165 1.049h-2.321zm2.447 1.233c-.155.466-.505.826-1.184.826a1.267 1.267 0 01-1.292-1.234h3.457a1.64 1.64 0 00.029-.359c0-1.495-.854-2.457-2.311-2.457-1.194 0-2.301.991-2.301 2.486 0 1.602 1.136 2.535 2.418 2.535 1.136 0 1.884-.67 2.136-1.496l-.952-.301zm2.873-1.233a1.136 1.136 0 011.156-1.049c.777 0 1.146.495 1.165 1.049h-2.321zm2.447 1.233c-.155.466-.505.826-1.184.826a1.267 1.267 0 01-1.292-1.234h3.457a1.64 1.64 0 00.029-.359c0-1.495-.854-2.457-2.311-2.457-1.194 0-2.301.991-2.301 2.486 0 1.602 1.136 2.535 2.418 2.535 1.136 0 1.883-.67 2.136-1.496l-.952-.301zm2.844-.728c0-.903.544-1.476 1.282-1.476s1.243.563 1.243 1.466-.515 1.515-1.253 1.515c-.767 0-1.272-.602-1.272-1.505zm3.612-4.651h-1.097v2.854c-.146-.301-.563-.679-1.389-.679-1.33 0-2.252 1.116-2.252 2.476 0 1.427.912 2.495 2.272 2.495.67 0 1.165-.33 1.389-.728 0 .194.029.505.048.612h1.078a7.636 7.636 0 01-.049-.864v-6.166zM372.934 155.455c0 27.965-22.671 50.636-50.636 50.636-27.966 0-50.637-22.671-50.637-50.636 0-27.966 22.671-50.636 50.637-50.636 27.965 0 50.636 22.67 50.636 50.636z" fill="#000"/><path d="M292.975 158.981v-6.885h-1.165v4.885l-3.127-4.885h-1.486v6.885h1.165v-5.214l3.399 5.214h1.214zm2.318-2.884a1.135 1.135 0 011.155-1.049c.777 0 1.146.496 1.166 1.049h-2.321zm2.447 1.233c-.156.466-.505.826-1.185.826a1.266 1.266 0 01-1.291-1.234h3.457c.009-.019.029-.174.029-.359 0-1.495-.855-2.457-2.311-2.457-1.195 0-2.302.991-2.302 2.486 0 1.603 1.136 2.535 2.418 2.535 1.136 0 1.884-.67 2.136-1.496l-.951-.301zm4.7-3.078l-1.117 3.272-.961-3.272h-1.204l1.534 4.729h1.155l1.146-3.399 1.175 3.399h1.127l1.515-4.729h-1.146l-.942 3.272-1.117-3.272h-1.165zm9.414 1.816v2.913h1.165v-2.913l2.428-3.972h-1.311l-1.66 2.884-1.651-2.884h-1.379l2.408 3.972zm5.574 2.049c-.69 0-1.321-.525-1.321-1.505 0-.981.631-1.486 1.321-1.486.699 0 1.32.505 1.32 1.486 0 .99-.621 1.505-1.32 1.505zm0-4.011c-1.408 0-2.447 1.059-2.447 2.506 0 1.456 1.039 2.515 2.447 2.515 1.417 0 2.456-1.059 2.456-2.515 0-1.447-1.039-2.506-2.456-2.506zm6.312.117a1.584 1.584 0 00-.301-.029c-.621 0-1.145.301-1.369.815v-.757h-1.097v4.729h1.126v-2.253c0-.883.398-1.388 1.272-1.388.117 0 .243.009.369.029v-1.146zm5.369.029h-1.496l-1.816 1.913v-4.214h-1.116v7.03h1.116v-1.321l.583-.611 1.389 1.932h1.379l-1.981-2.729 1.942-2zm8.302-1.058v-1.098h-5.642v1.098h2.234v5.787h1.165v-5.787h2.243zm1.852 5.787v-4.729h-1.117v4.729h1.117zm-1.291-6.389c0 .407.33.728.728.728a.73.73 0 00.738-.728.737.737 0 00-.738-.738.735.735 0 00-.728.738zm3.861 6.389v-2.806c0-.602.379-1.049.981-1.049.641 0 .913.427.913.971v2.884h1.107v-2.806c0-.583.388-1.049.98-1.049.631 0 .913.418.913.971v2.884h1.088v-3.068c0-1.253-.816-1.797-1.671-1.797-.611 0-1.165.214-1.534.835-.252-.553-.796-.835-1.418-.835-.534 0-1.126.253-1.398.738v-.602h-1.078v4.729h1.117zm8.148-2.884a1.134 1.134 0 011.155-1.049c.777 0 1.146.496 1.165 1.049h-2.32zm2.447 1.233c-.156.466-.505.826-1.185.826a1.268 1.268 0 01-1.292-1.234h3.457a1.64 1.64 0 00.029-.359c0-1.495-.854-2.457-2.311-2.457-1.194 0-2.301.991-2.301 2.486 0 1.603 1.136 2.535 2.418 2.535 1.136 0 1.884-.67 2.136-1.496l-.951-.301zm1.668.369c.059.534.583 1.428 1.952 1.428 1.204 0 1.787-.797 1.787-1.515 0-.699-.466-1.243-1.36-1.437l-.718-.146c-.291-.058-.476-.243-.476-.495 0-.291.282-.544.68-.544.631 0 .835.437.874.709l.951-.272c-.077-.466-.505-1.321-1.825-1.321-.981 0-1.738.7-1.738 1.525 0 .651.437 1.194 1.272 1.379l.699.155c.379.078.553.272.553.525 0 .291-.242.543-.709.543-.602 0-.922-.378-.961-.806l-.981.272zM202.69 342.651h1.272l-2.68-6.885h-1.35l-2.68 6.885h1.233l.641-1.729h2.913l.651 1.729zm-2.107-5.622l1.048 2.816h-2.097l1.049-2.816zm4.866 3.243c0-.903.544-1.476 1.282-1.476s1.243.563 1.243 1.466-.515 1.515-1.253 1.515c-.767 0-1.272-.602-1.272-1.505zm3.613-4.652h-1.098v2.855c-.145-.301-.563-.679-1.388-.679-1.331 0-2.253 1.116-2.253 2.476 0 1.427.913 2.495 2.272 2.495.67 0 1.165-.33 1.389-.728 0 .194.029.505.048.612h1.078a7.74 7.74 0 01-.048-.864v-6.167zm7.939 5.215l-1.642-5.069h-1.213l-1.612 5.03-1.379-5.03h-1.224l1.952 6.885h1.194l1.671-5.205 1.67 5.205h1.204l1.932-6.885h-1.204l-1.349 5.069zm3.83-1.068a1.136 1.136 0 011.156-1.049c.777 0 1.146.495 1.165 1.049h-2.321zm2.447 1.233c-.155.466-.505.825-1.184.825-.7 0-1.263-.514-1.292-1.233h3.457a1.65 1.65 0 00.029-.359c0-1.495-.854-2.457-2.311-2.457-1.194 0-2.301.991-2.301 2.486 0 1.602 1.136 2.535 2.418 2.535 1.136 0 1.883-.67 2.136-1.496l-.952-.301zm2.873-1.233a1.136 1.136 0 011.156-1.049c.777 0 1.146.495 1.165 1.049h-2.321zm2.447 1.233c-.155.466-.505.825-1.184.825-.7 0-1.263-.514-1.292-1.233h3.457a1.65 1.65 0 00.029-.359c0-1.495-.854-2.457-2.311-2.457-1.194 0-2.301.991-2.301 2.486 0 1.602 1.136 2.535 2.418 2.535 1.136 0 1.883-.67 2.136-1.496l-.952-.301zm6.514-3.078h-1.495l-1.816 1.913v-4.215h-1.117v7.031h1.117v-1.321l.583-.612 1.388 1.933h1.379l-1.981-2.729 1.942-2z" fill="#fff"/></svg>