<svg xmlns="http://www.w3.org/2000/svg" width="164.83" height="158.326"><path d="M63.649 109.95c-12.687-1.057-14.272-2.643-10.572-13.744 2.114-7.4 4.757-14.272 7.4-22.201H97.48c3.7 10.572 7.401 19.558 9.515 26.43 2.643 6.872 1.057 7.929-10.043 9.515v4.757h41.76v-4.757c-11.101-1.057-13.744-2.643-19.03-17.444C108.581 62.375 96.951 29.602 86.379 0l-5.286 1.586-35.416 90.391c-6.343 15.33-8.458 16.387-19.558 17.973v4.757H63.65v-4.757zm15.859-87.749l15.329 43.874H63.121c4.757-13.743 10.572-29.073 16.387-43.874zM0 146.867h2.238v11.262h2.028v-11.262h2.258v-1.871H0zM12.448 150.62H9.554v-5.624H7.525v13.133h2.029v-5.637h2.894v5.637h2.027v-13.133h-2.027zM19.546 144.799c-1.261 0-2.244.433-2.835 1.26-.532.748-.748 1.635-.748 3.111v4.785c0 1.476.216 2.363.748 3.111.591.827 1.575 1.259 2.835 1.259s2.245-.432 2.835-1.259c.532-.749.749-1.635.749-3.111v-4.785c0-1.477-.217-2.363-.749-3.111-.59-.827-1.576-1.26-2.835-1.26zm1.556 9.117c0 1.063-.039 1.378-.256 1.792-.236.434-.729.708-1.3.708-.571 0-1.063-.275-1.3-.708-.197-.414-.256-.748-.256-1.792v-4.706c0-1.043.059-1.398.256-1.792.237-.434.729-.71 1.3-.71.571 0 1.064.276 1.3.71.217.414.256.728.256 1.792v4.706zM29.376 154.23c0 1.556-.413 2.186-1.437 2.186-1.044 0-1.457-.63-1.457-2.186v-9.234h-2.027v8.9c0 1.654.197 2.501.748 3.249.571.768 1.536 1.181 2.737 1.181 1.181 0 2.146-.414 2.717-1.181.552-.748.749-1.595.749-3.249v-8.9h-2.029v9.234zM36.356 152.642h1.673v1.176c0 1.831-.453 2.598-1.515 2.598-.651 0-1.162-.373-1.379-.985-.156-.492-.217-1.063-.217-2.146v-4.017c0-1.084.061-1.457.296-1.89.217-.433.669-.67 1.202-.67 1.024 0 1.556.789 1.556 2.284v.427h2.027v-.545c0-2.58-1.3-4.076-3.564-4.076-1.201 0-2.205.433-2.776 1.221-.61.807-.768 1.556-.768 3.642v3.624c0 1.812.137 2.659.571 3.505.512.964 1.517 1.536 2.717 1.536 1.064 0 1.793-.373 2.461-1.319l.374 1.122h1.044v-7.162h-3.701v1.675zM46.773 150.62h-2.894v-5.624H41.85v13.133h2.029v-5.637h2.894v5.637h2.028v-13.133h-2.028zM127.636 152.642h1.673v1.176c0 1.831-.453 2.598-1.515 2.598-.651 0-1.162-.373-1.379-.985-.156-.492-.217-1.063-.217-2.146v-4.017c0-1.084.06-1.457.296-1.89.217-.433.669-.67 1.201-.67 1.024 0 1.556.789 1.556 2.284v.427h2.027v-.545c0-2.58-1.3-4.076-3.564-4.076-1.201 0-2.205.433-2.776 1.221-.61.807-.768 1.556-.768 3.642v3.624c0 1.812.137 2.659.571 3.505.512.964 1.517 1.536 2.717 1.536 1.064 0 1.793-.373 2.461-1.319l.374 1.122h1.044v-7.162h-3.701v1.675zM49.832 146.867h2.238v11.262h2.028v-11.262h2.258v-1.871h-6.524zM64.678 153.857c0 1.712-.512 2.559-1.576 2.559-.59 0-1.102-.334-1.299-.847-.158-.432-.217-.944-.217-1.948v-4.372c0-1.064.059-1.457.315-1.89.217-.413.649-.65 1.2-.65 1.005 0 1.537.768 1.537 2.284v.752h2.027v-.87c0-2.58-1.319-4.076-3.564-4.076-1.22 0-2.205.433-2.776 1.221-.61.826-.768 1.556-.768 3.642v3.682c0 1.95.137 2.718.63 3.525.571.947 1.615 1.457 2.934 1.457 2.362 0 3.603-1.496 3.603-4.352v-.959h-2.047v.842zM154.414 153.857c0 1.712-.512 2.559-1.576 2.559-.59 0-1.102-.334-1.299-.847-.158-.432-.217-.944-.217-1.948v-4.372c0-1.064.059-1.457.315-1.89.217-.413.649-.65 1.2-.65 1.005 0 1.537.768 1.537 2.284v.752h2.027v-.87c0-2.58-1.319-4.076-3.564-4.076-1.22 0-2.205.433-2.776 1.221-.61.826-.768 1.556-.768 3.642v3.682c0 1.95.137 2.718.63 3.525.571.947 1.615 1.457 2.934 1.457 2.362 0 3.603-1.496 3.603-4.352v-.959h-2.047v.842zM81.445 144.996h-6.524v1.871h2.239v11.262h2.027v-11.262h2.258zM92.382 144.996h-2.027v13.133h4.857v-1.871h-2.83zM99.521 144.799c-1.259 0-2.245.433-2.835 1.26-.532.748-.749 1.635-.749 3.111v4.785c0 1.476.217 2.363.749 3.111.59.827 1.576 1.259 2.835 1.259 1.261 0 2.244-.432 2.835-1.259.532-.749.748-1.635.748-3.111v-4.785c0-1.477-.216-2.363-.748-3.111-.591-.827-1.574-1.26-2.835-1.26zm1.556 9.117c0 1.063-.039 1.378-.256 1.792-.237.434-.729.708-1.3.708-.571 0-1.063-.275-1.3-.708-.197-.414-.256-.748-.256-1.792v-4.706c0-1.043.059-1.398.256-1.792.237-.434.729-.71 1.3-.71.571 0 1.063.276 1.3.71.217.414.256.728.256 1.792v4.706zM107.756 152.642h1.674v1.176c0 1.831-.453 2.598-1.517 2.598-.649 0-1.162-.373-1.378-.985-.158-.492-.217-1.063-.217-2.146v-4.017c0-1.084.059-1.457.295-1.89.217-.433.669-.67 1.201-.67 1.024 0 1.556.789 1.556 2.284v.427h2.027v-.545c0-2.58-1.299-4.076-3.564-4.076-1.2 0-2.205.433-2.776 1.221-.61.807-.768 1.556-.768 3.642v3.624c0 1.812.138 2.659.571 3.505.512.964 1.517 1.536 2.717 1.536 1.064 0 1.793-.373 2.462-1.319l.374 1.122h1.043v-7.162h-3.701v1.675zM69.811 144.996l-2.52 13.134h1.99l.378-2.102h3.11l.391 2.102h2.088l-2.659-13.134h-2.778zm.202 9.063l1.178-6.543 1.214 6.543h-2.392zM83.699 144.996l-2.52 13.134h1.988l.378-2.102h3.111l.39 2.102h2.088l-2.659-13.134h-2.776zm.201 9.063l1.177-6.543 1.214 6.543H83.9zM118.119 144.996l-2.52 13.134h1.988l.378-2.102h3.111l.39 2.102h2.088l-2.659-13.134h-2.776zm.201 9.063l1.177-6.543 1.214 6.543h-2.391zM133.142 158.107h5.937v-1.868h-3.912v-4.049h2.89v-1.868h-2.89v-3.46h3.912v-1.868h-5.937zM145.821 153.153l-3.302-8.159h-2.045v13.113h1.927v-8.729l3.538 8.729h1.809v-13.113h-1.927zM162.628 144.994l-1.808 5.544-1.75-5.544h-2.242l2.95 8.001v5.112h2.024v-5.112l3.028-8.001z"/></svg>