<svg width="1041" height="213" viewBox="0 0 1041 213" fill="none" xmlns="http://www.w3.org/2000/svg">
<path d="M419.55 61.3083C424.423 62.1943 428.409 64.2615 428.409 69.4296C428.409 72.8257 426.638 75.4836 423.537 77.1079C420.879 78.5845 417.483 79.1751 413.496 79.1751H401.831V77.5508C406.261 77.2555 406.556 76.9602 406.556 72.8258V52.5964C406.556 48.462 406.408 48.1666 402.274 47.8713V46.2471H415.711C419.55 46.2471 421.765 46.8377 423.389 48.019C425.161 49.2003 426.195 51.4151 426.195 53.7777C426.195 58.5028 422.208 60.57 419.55 61.3083ZM413.496 60.7177C418.959 60.7177 421.469 58.5028 421.469 54.3683C421.469 50.9722 419.55 48.019 414.677 48.019C413.348 48.019 412.167 48.3143 411.724 48.6096C411.281 48.9049 411.133 49.4956 411.133 51.1198V60.8653H413.496V60.7177ZM410.986 72.8258C410.986 76.3696 411.872 77.4032 415.268 77.4032C419.402 77.4032 423.241 75.336 423.241 70.0202C423.241 64.8521 419.55 62.6373 413.348 62.6373H410.986V72.8258Z" fill="black"/>
<path d="M470.345 62.3405C470.345 73.4149 462.519 80.0596 453.069 80.0596C443.914 80.0596 436.383 72.9719 436.383 63.0788C436.383 53.9239 442.88 45.5073 453.659 45.5073C462.371 45.3596 470.345 52.0043 470.345 62.3405ZM441.699 61.7498C441.699 71.2 447.015 78.14 454.25 78.14C459.861 78.14 465.029 73.5626 465.029 63.817C465.029 53.0379 459.27 47.5745 452.773 47.5745C447.015 47.4269 441.699 52.152 441.699 61.7498Z" fill="black"/>
<path d="M512.428 62.3405C512.428 73.4149 504.602 80.0596 495.151 80.0596C485.997 80.0596 478.466 72.9719 478.466 63.0788C478.466 53.9239 484.963 45.5073 495.742 45.5073C504.454 45.3596 512.428 52.0043 512.428 62.3405ZM483.782 61.7498C483.782 71.2 489.097 78.14 496.333 78.14C501.944 78.14 507.112 73.5626 507.112 63.817C507.112 53.0379 501.353 47.5745 494.856 47.5745C489.097 47.4269 483.782 52.152 483.782 61.7498Z" fill="black"/>
<path d="M543.436 79.322C539.597 75.0399 535.61 70.1671 530.885 64.5561C529.556 63.0795 528.818 62.9318 527.932 63.0795V72.6773C527.932 77.1071 528.375 77.4024 532.657 77.6977V79.322H519.072V77.6977C523.059 77.4024 523.502 77.1071 523.502 72.6773V52.891C523.502 48.3135 523.059 48.1659 518.925 47.7229V46.0986H532.509V47.8705C528.523 48.1659 527.932 48.4612 527.932 53.0386V61.7505C529.113 61.4552 530.147 60.7169 531.623 59.388C534.429 56.7301 537.677 53.4816 539.892 50.5284C541.221 48.9042 541.221 48.3135 539.006 48.0182L537.973 47.8705V46.2463H550.672V47.8705C546.685 48.3135 545.356 48.7565 542.255 51.562C540.335 53.3339 536.792 57.0254 533.395 60.2739C537.234 64.999 542.698 71.3484 545.356 74.1539C548.014 76.9594 549.195 77.4024 551.557 77.5501V79.1743H543.436V79.322Z" fill="black"/>
<path d="M575.921 54.0723C575.035 50.9714 573.854 47.2799 569.424 47.2799C565.437 47.2799 563.813 50.0855 563.813 52.7433C563.813 56.4348 566.323 58.2067 570.31 60.1263C574.297 62.0459 579.169 64.5561 579.169 70.3148C579.169 75.7782 574.592 80.0603 567.8 80.0603C565.585 80.0603 563.961 79.765 562.632 79.1743C561.45 78.879 560.712 78.436 560.121 78.1407C559.678 76.9595 559.088 72.825 558.645 70.1671L560.417 69.7241C561.155 72.825 563.37 77.9931 568.686 77.9931C572.525 77.9931 574.74 75.6305 574.74 72.0867C574.74 68.2476 571.934 66.4756 568.095 64.5561C564.699 62.7842 559.678 60.2739 559.678 54.5152C559.678 49.4948 563.665 45.3604 570.31 45.3604C572.525 45.3604 574.74 45.8033 576.807 46.5416C576.955 48.3135 577.25 50.3808 577.693 53.7769L575.921 54.0723Z" fill="black"/>
<path d="M408.623 20.2584H405.67V3.72057H401.978V0.915039H412.462V3.72057H408.623V20.2584Z" fill="black"/>
<path d="M417.335 11.6942V20.2584H414.382V0.915039H417.335V9.0363H421.617V0.915039H424.57V20.2584H421.617V11.6942H417.335Z" fill="black"/>
<path d="M437.86 14.0571C437.86 16.272 437.564 17.6009 436.826 18.6346C435.94 19.8158 434.464 20.5541 432.692 20.5541C430.92 20.5541 429.443 19.9635 428.557 18.6346C427.819 17.6009 427.524 16.272 427.524 14.0571V7.11713C427.524 4.90224 427.819 3.5733 428.557 2.53969C429.148 1.21075 430.624 0.620117 432.544 0.620117C434.464 0.620117 435.793 1.21075 436.679 2.53969C437.417 3.5733 437.712 4.90224 437.712 7.11713V14.0571H437.86ZM430.181 14.0571C430.181 15.5337 430.329 16.1243 430.624 16.715C430.92 17.3056 431.658 17.7486 432.544 17.7486C433.43 17.7486 434.168 17.3056 434.464 16.715C434.759 16.1243 434.907 15.6814 434.907 14.0571V7.11713C434.907 5.49288 434.907 5.0499 434.464 4.45926C434.168 3.86862 433.43 3.42564 432.544 3.42564C431.658 3.42564 430.92 3.86862 430.624 4.45926C430.329 5.0499 430.181 5.49288 430.181 7.11713V14.0571Z" fill="black"/>
<path d="M450.706 0.915039V14.0567C450.706 16.5669 450.41 17.7482 449.672 18.7818C448.786 19.9631 447.457 20.5537 445.685 20.5537C443.913 20.5537 442.437 19.9631 441.699 18.7818C440.96 17.7482 440.665 16.4193 440.665 14.0567V0.915039H443.618V14.4997C443.618 16.8622 444.209 17.7482 445.833 17.7482C447.31 17.7482 447.9 16.8622 447.9 14.4997V0.915039H450.706Z" fill="black"/>
<path d="M463.848 10.661V20.2588H462.371L461.78 18.6346C460.747 19.9635 459.713 20.5541 458.089 20.5541C456.317 20.5541 454.84 19.6682 454.102 18.3392C453.512 17.158 453.216 15.829 453.216 13.1712V7.85542C453.216 4.75458 453.512 3.72096 454.397 2.53969C455.283 1.21075 456.76 0.620117 458.532 0.620117C460.599 0.620117 462.223 1.50607 463.109 3.13033C463.552 4.01628 463.848 5.34522 463.848 7.11713H460.894C460.894 4.45926 460.156 3.27799 458.532 3.27799C457.794 3.27799 457.055 3.5733 456.76 4.3116C456.465 4.90224 456.317 5.49288 456.317 7.11713V13.0235C456.317 14.6478 456.465 15.5337 456.612 16.1243C456.908 17.0103 457.646 17.6009 458.68 17.6009C460.304 17.6009 460.894 16.4197 460.894 13.7618V13.1712H458.384V10.661H463.848Z" fill="black"/>
<path d="M469.311 11.6942V20.2584H466.358V0.915039H469.311V9.0363H473.593V0.915039H476.546V20.2584H473.593V11.6942H469.311Z" fill="black"/>
<path d="M485.258 20.2584H482.305V3.72057H478.614V0.915039H489.097V3.72057H485.258V20.2584Z" fill="black"/>
<path d="M502.091 7.26479V6.82181C502.091 4.60692 501.353 3.42564 499.877 3.42564C499.138 3.42564 498.4 3.72096 498.105 4.3116C497.662 4.90224 497.662 5.49288 497.662 7.11713V13.6141C497.662 15.0907 497.809 15.829 497.957 16.4197C498.252 17.158 498.991 17.6009 499.877 17.6009C500.91 17.6009 501.648 17.0103 502.091 15.6814C502.239 15.2384 502.239 14.7954 502.239 13.3188H505.192V14.0571C505.192 18.1916 503.42 20.4065 499.877 20.4065C497.957 20.4065 496.333 19.6682 495.594 18.1916C494.856 17.0103 494.708 15.829 494.708 13.0235V7.85543C494.708 4.75458 495.004 3.72096 495.89 2.53969C496.628 1.21075 498.105 0.620117 499.877 0.620117C503.125 0.620117 505.192 2.83501 505.192 6.67415V7.26479H502.091Z" fill="black"/>
<path d="M510.508 16.124L509.77 20.2584H506.817L510.508 0.915039H514.643L518.482 20.2584H515.528L514.643 16.124H510.508ZM512.575 4.60652L510.951 13.3184H514.052L512.575 4.60652Z" fill="black"/>
<path d="M525.126 20.2584H522.173V3.72057H518.482V0.915039H528.965V3.72057H525.126V20.2584Z" fill="black"/>
<path d="M532.657 16.124L531.919 20.2584H528.965L532.657 0.915039H536.791L540.63 20.2584H537.53L536.644 16.124H532.657ZM534.724 4.60652L533.1 13.3184H536.201L534.724 4.60652Z" fill="black"/>
<path d="M545.503 17.4529H551.41V20.2584H542.402V0.915039H545.355V17.4529H545.503Z" fill="black"/>
<path d="M563.813 14.0571C563.813 16.272 563.518 17.6009 562.779 18.6346C561.893 19.8158 560.417 20.5541 558.645 20.5541C556.873 20.5541 555.396 19.9635 554.51 18.6346C553.772 17.6009 553.477 16.272 553.477 14.0571V7.11713C553.477 4.90224 553.772 3.5733 554.51 2.53969C555.396 1.35841 556.873 0.620117 558.645 0.620117C560.417 0.620117 561.893 1.21075 562.779 2.53969C563.518 3.5733 563.813 4.90224 563.813 7.11713V14.0571ZM556.282 14.0571C556.282 15.5337 556.43 16.1243 556.725 16.715C557.021 17.3056 557.759 17.7486 558.645 17.7486C559.531 17.7486 560.269 17.3056 560.564 16.715C560.86 16.1243 561.007 15.6814 561.007 14.0571V7.11713C561.007 5.49288 561.007 5.0499 560.564 4.45926C560.269 3.86862 559.531 3.42564 558.645 3.42564C557.759 3.42564 557.021 3.86862 556.725 4.45926C556.43 5.0499 556.282 5.49288 556.282 7.11713V14.0571Z" fill="black"/>
<path d="M576.807 10.6617V20.2596H575.33L574.74 18.6353C573.706 19.9643 572.672 20.5549 571.048 20.5549C569.276 20.5549 567.8 19.669 567.061 18.34C566.471 17.1587 566.175 15.8298 566.175 13.1719V7.8562C566.175 4.75536 566.471 3.72174 567.357 2.54047C568.243 1.35919 569.719 0.768555 571.491 0.768555C573.558 0.768555 575.183 1.65451 576.069 3.27876C576.512 4.16472 576.807 5.49365 576.807 7.26557H573.854C573.854 4.6077 573.115 3.42642 571.491 3.42642C570.753 3.42642 570.015 3.72174 569.719 4.46004C569.424 5.05068 569.276 5.64131 569.276 7.26557V13.1719C569.276 14.7962 569.424 15.6821 569.572 16.2728C569.867 17.1587 570.605 17.7494 571.639 17.7494C573.263 17.7494 573.854 16.5681 573.854 13.9102V13.1719H571.343V10.6617H576.807Z" fill="black"/>
<path d="M401.978 32.5117H576.807" stroke="black" stroke-width="1.0178" stroke-miterlimit="10"/>
<path fill-rule="evenodd" clip-rule="evenodd" d="M209.668 211.749L199.687 198.084L209.514 188.104H201.991L192.932 197.623V176.435H187.404V211.749H192.932V205.147L195.849 202.076L202.758 211.749H209.668ZM50.1386 211.75L33.0956 185.648V211.75H27.261V177.204H34.631L50.2922 201.617V177.204H56.1267V211.75H50.1386ZM83.6102 204.993C82.3819 209.138 78.5434 212.516 72.8623 212.516C66.4136 212.516 60.7326 207.91 60.7326 199.772C60.7326 192.249 66.2601 187.335 72.2482 187.335C79.6181 187.335 83.7638 192.095 83.7638 199.619C83.7638 200.273 83.6863 200.85 83.6415 201.184L83.6414 201.184C83.6231 201.321 83.6102 201.417 83.6102 201.461H66.4136C66.5671 204.993 69.3309 207.603 72.8623 207.603C76.2402 207.603 78.0827 205.76 78.8504 203.457L83.6102 204.993ZM78.2363 197.316C78.0827 194.552 76.2402 192.095 72.4017 192.095C68.8703 192.095 66.8742 194.859 66.5671 197.316H78.2363ZM100.193 188.104H95.2794V180.888H90.2125V184.419C90.2125 186.569 88.9842 188.104 86.5275 188.104H85.2992V193.018H89.7519V204.994C89.7519 209.447 92.3621 212.057 96.8148 212.057C98.9644 212.057 100.039 211.75 100.346 211.596V206.99C100.227 206.99 100.016 207.013 99.7574 207.041C99.3484 207.086 98.8205 207.143 98.3502 207.143C96.2006 207.143 95.2794 206.376 95.2794 204.226V193.171H100.193V188.104ZM124.299 188.104L129.827 204.533L134.587 188.104H140.268L132.744 211.75H127.063L121.228 194.707L115.547 211.75H109.713L102.036 188.104H108.024L112.784 204.533L118.465 188.104H124.299ZM153.318 212.516C160.381 212.516 165.602 207.296 165.602 199.926C165.602 192.556 160.381 187.335 153.318 187.335C146.256 187.335 141.035 192.709 141.035 199.926C141.035 207.142 146.256 212.516 153.318 212.516ZM153.318 192.556C156.85 192.556 159.921 195.012 159.921 199.926C159.921 204.839 156.696 207.449 153.318 207.449C149.941 207.449 146.716 204.839 146.716 199.926C146.716 195.012 149.787 192.556 153.318 192.556ZM183.719 193.63C183.105 193.476 182.491 193.476 181.877 193.476C177.424 193.476 175.428 195.933 175.428 200.386V211.748H169.747V188.102H175.274V191.941C176.349 189.331 178.959 187.795 182.184 187.795C182.544 187.795 182.903 187.848 183.201 187.892C183.412 187.922 183.592 187.949 183.719 187.949V193.63Z" fill="black"/>
<path fill-rule="evenodd" clip-rule="evenodd" d="M83.918 168.449C83.918 169.985 83.7645 170.906 83.1503 171.674C82.5361 172.595 81.4613 172.902 80.233 172.902C79.0047 172.902 77.9299 172.441 77.3157 171.674C76.7016 170.906 76.548 169.985 76.548 168.449V163.382C76.548 161.847 76.7016 160.926 77.3157 160.158C77.9299 159.39 78.8511 158.93 80.233 158.93C81.4613 158.93 82.5361 159.39 83.1503 160.158C83.7645 160.926 83.918 161.847 83.918 163.382V168.449ZM78.5441 168.296V168.296C78.5441 169.37 78.5441 169.678 78.8511 170.138C79.1582 170.599 79.6188 170.906 80.233 170.906C80.8472 170.906 81.3078 170.599 81.6149 170.138C81.6321 170.087 81.6493 170.037 81.6663 169.988L81.6663 169.988L81.6664 169.988L81.6664 169.987L81.6665 169.987C81.801 169.599 81.922 169.25 81.922 168.296V163.536V163.536C81.922 162.461 81.922 162.154 81.6149 161.693C81.3078 161.233 80.8472 160.926 80.233 160.926C79.6188 160.926 79.1582 161.233 78.8511 161.693C78.6976 162.001 78.5441 162.461 78.5441 163.536V168.296ZM61.3473 172.749H63.4968V161.08H66.107V159.084H58.7371V161.08H61.3473V172.749ZM69.6387 172.749V166.761H72.556V172.749H74.7056V159.084H72.556V164.765H69.6387V159.084H67.4891V172.749H69.6387ZM92.8233 168.297V159.084H90.9809V168.604C90.9809 170.293 90.5202 170.907 89.4454 170.907C88.3707 170.907 87.91 170.139 87.91 168.604V159.084H85.7605V168.297C85.7605 169.986 85.914 170.907 86.5282 171.675C86.9888 172.442 88.0636 172.903 89.2919 172.903C90.5202 172.903 91.4415 172.442 92.0556 171.675C92.6698 170.907 92.8233 169.986 92.8233 168.297ZM102.035 165.993V172.748H100.961L100.5 171.52C99.7323 172.441 99.1181 172.902 97.8898 172.902C96.6615 172.902 95.5867 172.288 95.1261 171.367C94.6655 170.445 94.5119 169.678 94.5119 167.682V163.997C94.5119 161.847 94.6654 161.079 95.2796 160.312C96.0473 159.39 97.1221 158.93 98.3504 158.93C99.8858 158.93 100.961 159.544 101.575 160.772C101.882 161.386 102.035 162.308 102.035 163.536H99.8858C99.8858 161.693 99.4252 160.926 98.3504 160.926C97.7363 160.926 97.2757 161.233 97.1221 161.693C96.815 162.001 96.815 162.461 96.815 163.536V167.682C96.815 168.756 96.815 169.37 96.9686 169.831C97.1221 170.445 97.7363 170.906 98.3504 170.906C99.4252 170.906 99.8858 170.138 99.8858 168.296V167.682H98.1969V165.993H102.035ZM106.028 172.749V166.761H108.945V172.749H111.094V159.084H108.945V164.765H106.028V159.084H103.878V172.749H106.028ZM117.083 172.749H114.933V161.08H112.323V159.084H119.693V161.08H117.083V172.749ZM128.905 163.23V163.537H131.208V163.23C131.208 160.62 129.827 159.084 127.523 159.084C126.142 159.084 125.22 159.545 124.606 160.313C123.992 161.08 123.838 161.848 123.838 163.998V167.529C123.838 169.525 123.992 170.446 124.453 171.214C125.067 172.289 126.142 172.749 127.523 172.749C129.98 172.749 131.208 171.214 131.208 168.297V167.836H129.059C129.059 168.911 129.059 169.218 128.905 169.525C128.598 170.446 128.138 170.907 127.37 170.907C126.756 170.907 126.142 170.446 125.988 169.986C125.834 169.525 125.834 169.064 125.834 167.99V163.537C125.834 162.462 125.834 162.002 126.142 161.541C126.295 161.234 126.756 160.927 127.37 160.927C128.291 160.927 128.905 161.694 128.905 163.23ZM134.893 169.677L134.279 172.747H132.283L134.893 159.236H137.811L140.421 172.747H138.271L137.657 169.677H134.893ZM136.275 161.692L135.2 167.834H137.35L136.275 161.692ZM142.878 172.749H145.027V161.08H147.638V159.084H140.268V161.08H142.878V172.749ZM150.401 169.677L149.787 172.747H147.791L150.401 159.236H153.165L155.929 172.747H153.779L153.165 169.677H150.401ZM151.783 161.692L150.708 167.834H152.858L151.783 161.692ZM163.452 170.753H159.307V159.084H157.157V172.749H163.452V170.753ZM172.204 168.449C172.204 169.985 172.051 170.906 171.437 171.674C170.822 172.595 169.748 172.902 168.519 172.902C167.291 172.902 166.216 172.441 165.602 171.674C164.988 170.906 164.834 169.985 164.834 168.449V163.382C164.834 161.847 164.988 160.926 165.602 160.158C166.216 159.39 167.137 158.93 168.519 158.93C169.901 158.93 170.822 159.39 171.437 160.158C172.051 160.926 172.204 161.847 172.204 163.382V168.449ZM166.83 168.296V168.296C166.83 169.371 166.83 169.678 167.137 170.138C167.444 170.599 167.905 170.906 168.519 170.906C169.133 170.906 169.594 170.599 169.901 170.138C170.055 169.831 170.055 169.37 170.055 168.296V163.536C170.055 162.461 170.055 162.154 169.748 161.693C169.44 161.233 168.98 160.926 168.366 160.926C167.752 160.926 167.291 161.233 166.984 161.693C166.984 161.8 166.965 161.926 166.941 162.09L166.941 162.09C166.896 162.396 166.83 162.836 166.83 163.536V168.296ZM181.263 172.748V165.993H177.271V167.682H178.96V168.296C178.96 170.138 178.499 170.906 177.424 170.906C176.81 170.906 176.196 170.445 176.042 169.831C175.889 169.371 175.889 168.756 175.889 167.682V167.682V163.536C175.889 162.461 176.042 162.001 176.349 161.693C176.503 161.233 176.964 160.926 177.578 160.926C178.653 160.926 179.113 161.693 179.113 163.536H181.263C181.263 162.308 181.109 161.386 180.802 160.772C180.188 159.544 179.113 158.93 177.578 158.93C176.349 158.93 175.275 159.39 174.507 160.312C173.893 161.079 173.739 161.847 173.739 163.997V167.682C173.739 169.678 173.893 170.445 174.353 171.367C174.814 172.288 175.889 172.902 177.117 172.902C178.345 172.902 178.96 172.441 179.727 171.52L180.188 172.748H181.263Z" fill="black"/>
<path d="M389.437 197.779C389.069 199.123 388.332 201.324 387.841 202.302C386.981 202.546 384.525 203.035 382.438 203.035C375.193 203.035 372 198.145 372 193.622C372 187.632 376.666 183.721 383.175 183.721C385.508 183.721 387.473 184.332 388.332 184.454C388.578 186.043 388.701 187.266 388.946 188.977L387.841 189.099C386.981 186.043 385.385 184.821 382.315 184.821C377.649 184.821 375.193 188.733 375.193 193.011C375.193 198.268 378.386 201.813 382.561 201.813C385.385 201.813 386.859 200.346 388.455 197.412L389.437 197.779Z" fill="black"/>
<path d="M413.137 202.79C412.769 202.79 412.401 202.79 412.032 202.79C409.699 202.668 408.471 202.057 407.243 200.223C406.261 198.878 405.278 197.167 404.541 195.7C404.05 194.967 403.559 194.6 402.208 194.6H401.349V198.878C401.349 201.201 401.594 201.446 403.927 201.568V202.546H396.068V201.568C398.402 201.446 398.647 201.201 398.647 198.878V187.754C398.647 185.309 398.402 185.309 396.191 185.065V184.087H403.559C405.769 184.087 407.12 184.331 408.225 185.065C409.453 185.798 410.19 187.143 410.19 188.854C410.19 191.299 408.717 192.766 406.629 193.744C407.12 194.6 408.225 196.556 409.085 197.778C410.19 199.367 410.681 199.979 411.295 200.712C412.032 201.446 412.769 201.812 413.383 201.934L413.137 202.79ZM402.577 193.5C403.927 193.5 404.91 193.255 405.647 192.644C406.752 191.788 407.243 190.688 407.243 189.221C407.243 186.165 405.155 185.065 403.068 185.065C402.208 185.065 401.84 185.187 401.594 185.309C401.349 185.432 401.226 185.798 401.226 186.532V193.377H402.577V193.5Z" fill="black"/>
<path d="M434.013 197.9C433.89 198.878 433.276 201.69 433.031 202.546H418.909V201.568C421.488 201.323 421.733 201.201 421.733 198.878V187.876C421.733 185.432 421.488 185.309 419.277 185.065V184.087H432.417C432.417 184.698 432.539 186.654 432.662 188.243L431.68 188.365C431.434 187.143 431.066 186.532 430.697 185.921C430.329 185.309 429.592 185.187 427.628 185.187H425.54C424.558 185.187 424.558 185.187 424.558 186.165V192.399H427.014C429.592 192.399 429.715 192.277 430.083 190.321H431.066V195.945H430.083C429.715 193.866 429.469 193.744 427.014 193.744H424.435V198.878C424.435 200.223 424.558 200.834 425.172 201.201C425.786 201.568 426.768 201.568 428.119 201.568C430.083 201.568 430.943 201.323 431.557 200.59C432.048 200.101 432.539 199.123 433.031 197.9H434.013Z" fill="black"/>
<path d="M455.503 197.9C455.38 198.878 454.766 201.69 454.52 202.546H440.398V201.568C442.977 201.323 443.223 201.201 443.223 198.878V187.876C443.223 185.432 442.977 185.309 440.767 185.065V184.087H453.906C453.906 184.698 454.029 186.654 454.152 188.243L453.047 188.488C452.801 187.265 452.433 186.654 452.064 186.043C451.696 185.432 450.959 185.309 448.994 185.309H446.907C445.924 185.309 445.924 185.309 445.924 186.287V192.522H448.38C450.959 192.522 451.082 192.399 451.45 190.444H452.433V196.067H451.45C451.082 193.989 450.836 193.866 448.38 193.866H445.802V199.001C445.802 200.345 445.924 200.957 446.538 201.323C447.152 201.69 448.135 201.69 449.485 201.69C451.45 201.69 452.31 201.446 452.924 200.712C453.415 200.223 453.906 199.245 454.397 198.023L455.503 197.9Z" fill="black"/>
<path d="M469.624 184.087C471.712 184.087 473.308 184.454 474.536 185.309C475.642 186.165 476.378 187.51 476.378 189.343C476.378 193.011 473.554 194.844 470.73 195.211C470.238 195.211 469.747 195.211 469.379 195.211L467.291 194.722V198.878C467.291 201.323 467.537 201.446 470.238 201.568V202.546H462.134V201.568C464.467 201.446 464.713 201.201 464.713 198.878V187.754C464.713 185.309 464.467 185.187 462.379 185.065V184.087H469.624ZM467.414 193.622C467.782 193.744 468.519 193.989 469.379 193.989C471.098 193.989 473.308 193.011 473.308 189.466C473.308 186.41 471.344 185.187 469.133 185.187C468.396 185.187 467.782 185.309 467.537 185.554C467.291 185.676 467.291 186.043 467.291 186.776V193.622H467.414Z" fill="black"/>
<path d="M500.569 185.065C498.605 185.309 498.113 185.554 497.008 187.387C495.78 189.343 494.921 190.81 493.57 193.377C493.202 194.111 493.079 194.355 493.079 195.211V198.878C493.079 201.201 493.324 201.446 496.026 201.568V202.546H487.553V201.568C490.132 201.446 490.377 201.201 490.377 198.878V195.211C490.377 194.6 490.254 194.355 489.763 193.622C488.781 191.788 487.676 189.955 486.202 187.387C485.097 185.554 484.729 185.187 483.009 185.065V184.087H490.132V185.065C488.044 185.309 488.167 185.676 488.658 186.654C489.763 188.732 491.114 190.933 492.342 193.133C493.324 191.299 494.798 188.61 495.658 187.021C496.271 185.676 496.272 185.432 494.061 185.187V184.087H500.692V185.065H500.569Z" fill="black"/>
<path d="M522.305 189.345V188.856C522.305 186.289 521.445 184.944 519.726 184.944C518.744 184.944 518.007 185.311 517.638 186.044C517.147 186.778 517.147 187.511 517.147 189.222V196.679C517.147 198.391 517.27 199.246 517.516 199.98C517.884 200.836 518.744 201.447 519.726 201.447C520.954 201.447 521.814 200.713 522.182 199.246C522.305 198.635 522.305 198.146 522.428 196.557H525.989V197.291C525.989 202.18 523.901 204.747 519.849 204.747C517.638 204.747 515.796 203.892 514.814 202.303C513.954 200.958 513.709 199.613 513.709 196.313V190.078C513.709 186.533 513.954 185.311 515.06 183.844C516.042 182.499 517.761 181.766 519.849 181.766C523.655 181.766 525.989 184.333 525.989 188.734V189.345H522.305Z" fill="black"/>
<path d="M532.129 199.613L531.269 204.502H527.831L532.129 182.132H536.918L541.461 204.502H537.777L536.795 199.613H532.129ZM534.462 186.41L532.62 196.434H536.304L534.462 186.41Z" fill="black"/>
<path d="M549.075 204.502H545.636V185.31H541.338V182.132H553.495V185.31H549.075V204.502Z" fill="black"/>
<path d="M557.793 199.613L556.934 204.502H553.495L557.793 182.132H562.582L567.126 204.502H563.565L562.582 199.613H557.793ZM560.126 186.41L558.284 196.434H561.968L560.126 186.41Z" fill="black"/>
<path d="M572.775 201.324H579.651V204.502H569.213V182.132H572.652V201.324H572.775Z" fill="black"/>
<path d="M593.896 197.413C593.896 199.98 593.527 201.447 592.668 202.669C591.686 204.136 589.966 204.87 587.756 204.87C585.546 204.87 583.949 204.136 582.844 202.669C581.984 201.447 581.616 199.858 581.616 197.413V189.222C581.616 186.655 581.984 185.188 582.844 183.966C583.826 182.499 585.546 181.766 587.756 181.766C589.966 181.766 591.563 182.499 592.668 183.966C593.527 185.188 593.896 186.778 593.896 189.222V197.413ZM585.177 197.291C585.177 199.124 585.3 199.613 585.668 200.347C586.037 201.08 586.896 201.569 587.879 201.569C588.861 201.569 589.721 201.08 590.089 200.347C590.458 199.613 590.58 199.124 590.58 197.291V189.222C590.58 187.389 590.458 186.9 590.089 186.166C589.721 185.433 588.861 184.944 587.879 184.944C586.896 184.944 586.037 185.433 585.668 186.166C585.3 186.778 585.177 187.389 585.177 189.222V197.291Z" fill="black"/>
<path d="M609 193.379V204.503H607.158L606.544 202.547C605.439 204.136 604.211 204.747 602.369 204.747C600.281 204.747 598.562 203.769 597.703 202.18C596.966 200.713 596.72 199.246 596.72 196.19V190.078C596.72 186.533 596.966 185.188 598.071 183.844C599.053 182.499 600.772 181.766 602.86 181.766C605.316 181.766 607.158 182.866 608.14 184.699C608.754 185.8 609 187.144 609 189.345H605.562C605.562 186.289 604.825 184.944 602.86 184.944C602 184.944 601.141 185.311 600.772 186.044C600.404 186.778 600.281 187.511 600.281 189.222V196.068C600.281 197.902 600.404 198.88 600.65 199.735C601.018 200.836 601.878 201.447 602.983 201.447C604.825 201.447 605.562 200.102 605.562 197.046V196.19H602.737V193.379H609Z" fill="black"/>
<path d="M791.385 212.382H783.793V187.82H791.72C794.064 187.82 796.185 188.267 797.86 189.272C799.535 190.276 800.875 191.616 801.768 193.514C802.661 195.3 803.107 197.533 803.107 200.101C803.107 202.669 802.661 204.902 801.768 206.688C800.875 208.586 799.535 209.926 797.748 210.931C795.962 211.935 793.841 212.382 791.385 212.382ZM786.807 209.702H791.273C793.283 209.702 794.957 209.256 796.297 208.474C797.637 207.693 798.642 206.576 799.311 205.125C799.981 203.674 800.316 201.999 800.316 199.989C800.316 197.98 799.981 196.305 799.311 194.854C798.642 193.402 797.748 192.286 796.409 191.505C795.069 190.723 793.506 190.388 791.608 190.388H786.807V209.702Z" fill="black"/>
<path d="M812.485 187.82V212.382H809.471V187.82H812.485Z" fill="black"/>
<path d="M819.742 212.382V187.82H828.004C829.902 187.82 831.465 188.155 832.693 188.825C833.921 189.495 834.814 190.388 835.484 191.505C836.154 192.621 836.377 193.961 836.377 195.412C836.377 196.863 836.042 198.092 835.484 199.32C834.926 200.436 834.033 201.329 832.805 201.999C831.577 202.669 830.014 203.004 828.116 203.004H821.417V200.324H828.004C829.344 200.324 830.348 200.101 831.13 199.766C831.911 199.431 832.47 198.873 832.916 198.092C833.363 197.31 833.474 196.529 833.474 195.524C833.474 194.519 833.251 193.626 832.916 192.956C832.581 192.286 831.911 191.616 831.13 191.281C830.348 190.946 829.232 190.723 827.892 190.723H822.645V212.717H819.742V212.382ZM831.353 201.329L837.382 212.382H833.921L828.004 201.329H831.353Z" fill="black"/>
<path d="M842.741 212.382V187.82H857.589V190.5H845.755V198.761H856.808V201.441H845.755V209.702H857.813V212.382H842.741Z" fill="black"/>
<path d="M884.049 195.524H881.035C880.811 194.631 880.588 193.961 880.141 193.291C879.695 192.621 879.137 192.063 878.578 191.616C877.909 191.17 877.239 190.835 876.569 190.611C875.787 190.388 875.006 190.276 874.224 190.276C872.773 190.276 871.433 190.611 870.205 191.393C868.977 192.174 868.084 193.291 867.302 194.742C866.521 196.194 866.186 197.98 866.186 200.101C866.186 202.222 866.521 204.009 867.302 205.46C868.084 206.911 868.977 208.028 870.205 208.809C871.433 209.591 872.773 209.926 874.224 209.926C875.006 209.926 875.787 209.814 876.569 209.591C877.35 209.368 878.02 209.033 878.578 208.586C879.248 208.139 879.695 207.581 880.141 206.911C880.588 206.241 880.923 205.46 881.035 204.678H884.049C883.826 205.907 883.379 207.023 882.821 208.028C882.263 209.033 881.481 209.814 880.588 210.596C879.695 211.265 878.69 211.824 877.574 212.159C876.457 212.494 875.341 212.717 874.113 212.717C871.991 212.717 870.094 212.159 868.531 211.154C866.856 210.149 865.628 208.698 864.623 206.8C863.73 204.902 863.172 202.669 863.172 200.101C863.172 197.533 863.618 195.3 864.623 193.402C865.516 191.505 866.856 190.053 868.531 189.048C870.205 188.044 871.991 187.485 874.113 187.485C875.341 187.485 876.569 187.709 877.574 188.044C878.69 188.379 879.695 188.937 880.588 189.607C881.481 190.276 882.151 191.17 882.821 192.174C883.491 193.068 883.826 194.184 884.049 195.524Z" fill="black"/>
<path d="M888.961 190.389V187.71H907.383V190.389H899.679V212.383H896.665V190.389H888.961Z" fill="black"/>
<path d="M933.061 200.101C933.061 202.669 932.614 204.902 931.609 206.8C930.716 208.698 929.376 210.149 927.702 211.154C926.027 212.159 924.241 212.717 922.12 212.717C919.998 212.717 918.1 212.159 916.537 211.154C914.863 210.149 913.635 208.698 912.63 206.8C911.737 204.902 911.178 202.669 911.178 200.101C911.178 197.533 911.625 195.3 912.63 193.402C913.523 191.505 914.863 190.053 916.537 189.048C918.212 188.044 919.998 187.485 922.12 187.485C924.241 187.485 926.027 188.044 927.702 189.048C929.376 190.053 930.604 191.505 931.609 193.402C932.614 195.189 933.061 197.533 933.061 200.101ZM930.158 200.101C930.158 197.98 929.823 196.194 929.041 194.742C928.26 193.291 927.367 192.174 926.139 191.393C924.911 190.611 923.571 190.276 922.12 190.276C920.668 190.276 919.328 190.611 918.1 191.393C916.872 192.174 915.979 193.291 915.198 194.742C914.416 196.194 914.081 197.98 914.081 200.101C914.081 202.222 914.416 204.009 915.198 205.46C915.979 206.911 916.872 208.028 918.1 208.809C919.328 209.591 920.668 209.926 922.12 209.926C923.571 209.926 924.911 209.591 926.139 208.809C927.367 208.028 928.26 206.911 929.041 205.46C929.823 204.009 930.158 202.222 930.158 200.101Z" fill="black"/>
<path d="M939.424 212.382V187.82H947.686C949.584 187.82 951.147 188.155 952.375 188.825C953.603 189.495 954.496 190.388 955.166 191.505C955.836 192.621 956.059 193.961 956.059 195.412C956.059 196.863 955.724 198.092 955.166 199.32C954.608 200.436 953.715 201.329 952.487 201.999C951.259 202.669 949.696 203.004 947.798 203.004H941.099V200.324H947.686C949.026 200.324 950.03 200.101 950.812 199.766C951.593 199.431 952.152 198.873 952.598 198.092C953.045 197.31 953.156 196.529 953.156 195.524C953.156 194.519 952.933 193.626 952.598 192.956C952.263 192.286 951.593 191.616 950.812 191.281C950.03 190.946 948.914 190.723 947.574 190.723H942.327V212.717H939.424V212.382ZM951.035 201.329L957.064 212.382H953.603L947.686 201.329H951.035Z" fill="black"/>
<path d="M960.302 187.82H963.763L970.573 199.32H970.908L977.718 187.82H981.179L972.248 202.334V212.494H969.121V202.334L960.302 187.82Z" fill="black"/>
<path d="M788.705 178.333H786.472V166.164H783.793V164.154H791.496V166.164H788.705V178.333Z" fill="black"/>
<path d="M795.181 172.081V178.333H792.948V164.154H795.181V170.071H798.307V164.154H800.54V178.445H798.307V172.081H795.181Z" fill="black"/>
<path d="M810.141 173.866C810.141 175.429 809.918 176.434 809.359 177.215C808.689 178.108 807.685 178.555 806.233 178.555C804.782 178.555 803.777 178.108 803.107 177.215C802.549 176.434 802.326 175.429 802.326 173.866V168.619C802.326 167.056 802.549 166.051 803.107 165.269C803.889 164.376 804.894 163.93 806.233 163.93C807.573 163.93 808.689 164.376 809.359 165.269C809.918 166.051 810.141 167.056 810.141 168.619V173.866ZM804.559 173.866C804.559 174.982 804.67 175.429 804.782 175.764C805.005 176.21 805.563 176.545 806.233 176.545C806.903 176.545 807.35 176.21 807.685 175.764C807.908 175.317 807.908 174.982 807.908 173.866V168.73C807.908 167.614 807.908 167.279 807.685 166.832C807.461 166.386 806.903 166.051 806.233 166.051C805.563 166.051 805.117 166.386 804.782 166.832C804.559 167.279 804.559 167.614 804.559 168.73V173.866Z" fill="black"/>
<path d="M819.631 164.154V173.756C819.631 175.542 819.407 176.435 818.849 177.328C818.179 178.11 817.174 178.556 815.946 178.556C814.607 178.556 813.602 178.11 812.932 177.328C812.374 176.547 812.151 175.654 812.151 173.756V164.154H814.383V174.202C814.383 175.877 814.83 176.547 815.946 176.547C817.063 176.547 817.509 175.877 817.509 174.202V164.154H819.631Z" fill="black"/>
<path d="M829.232 171.298V178.332H828.116L827.669 177.104C826.888 178.108 826.106 178.555 824.99 178.555C823.65 178.555 822.645 177.885 822.087 176.88C821.64 175.987 821.417 175.094 821.417 173.084V169.177C821.417 166.944 821.64 166.051 822.198 165.269C822.98 164.376 824.096 163.93 825.325 163.93C826.888 163.93 828.004 164.6 828.674 165.828C829.009 166.497 829.232 167.391 829.232 168.73H826.999C826.999 166.721 826.553 165.939 825.325 165.939C824.766 165.939 824.208 166.163 823.985 166.721C823.762 167.167 823.65 167.614 823.65 168.73V173.084C823.65 174.313 823.762 174.871 823.873 175.429C824.096 176.099 824.655 176.545 825.325 176.545C826.441 176.545 826.999 175.764 826.999 173.754V173.084H825.213V171.298H829.232Z" fill="black"/>
<path d="M833.363 172.081V178.333H831.13V164.154H833.363V170.071H836.489V164.154H838.722V178.445H836.489V172.081H833.363Z" fill="black"/>
<path d="M845.085 178.333H842.853V166.164H840.062V164.154H847.765V166.164H844.974V178.333H845.085Z" fill="black"/>
<path d="M857.478 168.73V168.507C857.478 166.832 856.92 166.051 855.803 166.051C855.245 166.051 854.687 166.274 854.463 166.721C854.24 167.167 854.129 167.614 854.129 168.73V173.419C854.129 174.536 854.24 175.094 854.352 175.541C854.575 176.099 855.133 176.434 855.803 176.434C856.585 176.434 857.143 175.987 857.366 174.982C857.478 174.759 857.478 174.424 857.478 173.419H859.711V173.866C859.711 176.992 858.371 178.555 855.803 178.555C854.352 178.555 853.235 177.997 852.565 176.992C852.007 176.099 851.896 175.317 851.896 173.196V169.177C851.896 166.944 852.119 166.163 852.677 165.269C853.347 164.376 854.463 163.93 855.803 163.93C858.259 163.93 859.711 165.604 859.711 168.395V168.842H857.478V168.73Z" fill="black"/>
<path d="M863.618 175.316L863.06 178.33H860.939L863.618 164.04H866.633L869.535 178.33H867.303L866.744 175.204H863.618V175.316ZM865.07 166.831L863.953 173.195H866.298L865.07 166.831Z" fill="black"/>
<path d="M874.336 178.333H872.103V166.164H869.312V164.154H877.016V166.164H874.224V178.333H874.336Z" fill="black"/>
<path d="M879.918 175.319L879.36 178.445H877.239L879.918 164.154H882.933L885.835 178.445H883.602L883.044 175.319H879.918ZM881.37 166.834L880.253 173.197H882.598L881.37 166.834Z" fill="black"/>
<path d="M889.408 176.323H893.762V178.333H887.175V164.154H889.408V176.323Z" fill="black"/>
<path d="M902.805 173.866C902.805 175.429 902.582 176.434 902.024 177.215C901.354 178.108 900.349 178.555 898.898 178.555C897.446 178.555 896.441 178.108 895.772 177.215C895.213 176.434 894.99 175.429 894.99 173.866V168.619C894.99 167.056 895.213 166.051 895.772 165.269C896.441 164.376 897.446 163.93 898.898 163.93C900.349 163.93 901.354 164.376 902.024 165.269C902.582 166.051 902.805 167.056 902.805 168.619V173.866ZM897.223 173.866C897.223 174.982 897.335 175.429 897.446 175.764C897.67 176.21 898.228 176.545 898.898 176.545C899.568 176.545 900.014 176.21 900.349 175.764C900.572 175.317 900.572 174.982 900.572 173.866V168.73C900.572 167.614 900.572 167.279 900.349 166.832C900.126 166.386 899.568 166.051 898.898 166.051C898.228 166.051 897.781 166.386 897.446 166.832C897.223 167.279 897.223 167.614 897.223 168.73V173.866Z" fill="black"/>
<path d="M912.295 171.298V178.332H911.178L910.732 177.104C909.95 178.108 909.169 178.555 908.052 178.555C906.713 178.555 905.708 177.885 905.15 176.88C904.703 175.987 904.48 175.094 904.48 173.084V169.177C904.48 166.944 904.703 166.051 905.261 165.269C905.931 164.376 906.936 163.93 908.276 163.93C909.839 163.93 910.955 164.6 911.625 165.828C911.96 166.497 912.183 167.391 912.183 168.73H909.95C909.95 166.721 909.504 165.939 908.276 165.939C907.718 165.939 907.159 166.163 906.936 166.721C906.713 167.167 906.601 167.614 906.601 168.73V173.084C906.601 174.313 906.713 174.871 906.824 175.429C907.048 176.099 907.606 176.545 908.276 176.545C909.392 176.545 909.95 175.764 909.95 173.754V173.084H908.164V171.298H912.295Z" fill="black"/>
<path d="M146.645 34.5315V34.0957C146.645 31.3357 145.628 30.0283 143.885 30.0283C142.868 30.0283 142.142 30.4641 141.706 31.1904C141.271 31.9167 141.125 32.643 141.125 34.5315V42.3757C141.125 44.1188 141.271 45.1357 141.561 45.862C141.852 46.7335 142.868 47.3146 143.885 47.3146C145.193 47.3146 146.064 46.5883 146.5 44.9904C146.645 44.4093 146.645 43.8283 146.645 42.0851H150.277V42.9567C150.277 48.0409 148.098 50.6556 143.885 50.6556C141.561 50.6556 139.673 49.7841 138.656 48.0409C137.784 46.5883 137.494 45.2809 137.494 41.7946V35.2578C137.494 31.4809 137.784 30.1736 138.801 28.7209C139.818 27.2683 141.561 26.542 143.74 26.542C147.807 26.542 150.132 29.1567 150.132 33.8051V34.5315H146.645Z" fill="black"/>
<path d="M156.814 45.2807L155.797 50.3649H152.311L156.814 26.9775H161.753L166.546 50.3649H162.769L161.753 45.2807H156.814ZM159.283 31.4807L157.395 41.9396H161.172L159.283 31.4807Z" fill="black"/>
<path d="M174.39 50.3649H170.759V30.3186H166.256V26.9775H178.894V30.3186H174.39V50.3649Z" fill="black"/>
<path d="M183.542 45.2807L182.525 50.3649H179.039L183.542 26.9775H188.481L193.275 50.3649H189.498L188.481 45.2807H183.542ZM186.012 31.4807L184.123 41.9396H187.9L186.012 31.4807Z" fill="black"/>
<path d="M199.085 47.0238H206.203V50.3649H195.454V26.9775H199.085V47.0238Z" fill="black"/>
<path d="M221.165 42.8105C221.165 45.4252 220.729 47.0231 219.858 48.3305C218.841 49.7831 217.098 50.5094 214.774 50.5094C212.449 50.5094 210.706 49.7831 209.689 48.3305C208.672 47.0231 208.382 45.4252 208.382 42.8105V34.24C208.382 31.6252 208.818 30.0273 209.689 28.72C210.706 27.2673 212.449 26.541 214.774 26.541C217.098 26.541 218.841 27.2673 219.858 28.72C220.875 30.0273 221.165 31.6252 221.165 34.24V42.8105ZM212.014 42.8105C212.014 44.6989 212.159 45.2799 212.449 46.0063C212.885 46.7326 213.757 47.3136 214.774 47.3136C215.79 47.3136 216.662 46.8778 217.098 46.0063C217.534 45.2799 217.534 44.6989 217.534 42.8105V34.3852C217.534 32.4968 217.534 31.9157 217.098 31.1894C216.662 30.4631 215.79 29.8821 214.774 29.8821C213.757 29.8821 212.885 30.3179 212.449 31.1894C212.159 31.9157 212.014 32.4968 212.014 34.3852V42.8105Z" fill="black"/>
<path d="M236.854 38.7431V50.3641H234.965L234.239 48.3305C233.077 50.0736 231.769 50.6547 229.881 50.6547C227.702 50.6547 225.959 49.6378 225.087 47.8947C224.361 46.442 224.07 44.8442 224.07 41.6484V35.2568C224.07 31.48 224.361 30.1726 225.378 28.72C226.395 27.2673 228.138 26.541 230.317 26.541C232.931 26.541 234.82 27.5579 235.837 29.5915C236.418 30.7536 236.708 32.2063 236.708 34.3852H233.077C233.077 31.1894 232.205 29.8821 230.317 29.8821C229.3 29.8821 228.574 30.3179 228.138 31.0442C227.702 31.7705 227.557 32.4968 227.557 34.3852V41.5031C227.557 43.3915 227.702 44.4084 227.993 45.2799C228.428 46.2968 229.3 47.0231 230.462 47.0231C232.35 47.0231 233.222 45.7157 233.222 42.3747V41.3578H230.171V38.3073H236.854V38.7431Z" fill="black"/>
<path d="M36.2454 37.5811H0.0749512V40.3411H36.2454V37.5811Z" fill="black"/>
<path d="M52.9507 34.967C52.0791 32.3523 50.4812 30.6091 48.3023 30.6091C47.8665 30.6091 47.576 30.6091 47.1402 30.8997C46.7044 31.0449 46.4139 31.3354 46.1233 31.626C45.8328 31.9165 45.6875 32.207 45.5423 32.6428C45.397 33.0786 45.397 33.3691 45.397 33.8049C45.397 35.6933 47.1402 36.8554 49.1739 37.5817C52.5149 39.0344 54.8391 40.6323 54.8391 43.6828C54.8391 47.7502 51.0623 49.7838 47.4307 49.7838C45.6875 49.7838 43.7991 49.348 42.3465 48.3312C41.9107 46.5881 41.6202 44.8449 41.6202 43.1017L42.7823 42.8112C43.5086 45.7165 45.5423 48.3312 48.157 48.3312C48.5928 48.3312 49.0286 48.3312 49.3191 48.1859C49.7549 48.0407 50.0454 47.7502 50.336 47.4596C50.6265 47.1691 50.917 46.8786 51.0623 46.4428C51.2075 46.007 51.3528 45.7165 51.3528 45.2807C51.3528 43.3923 50.0454 42.2302 47.8665 41.2133C45.2518 40.0512 42.3465 38.4533 42.3465 35.1123C42.3465 32.0618 44.9612 29.3018 49.1739 29.3018C50.4812 29.3018 51.9338 29.5923 53.096 30.1733C53.5317 31.7712 53.9675 33.2239 54.1128 34.967H52.9507Z" fill="black"/>
<path d="M69.5106 49.057V47.8949C72.1254 47.6043 72.4159 47.3138 72.4159 44.4086V37.0002C72.4159 33.3686 70.9633 31.4802 68.058 31.4802C67.1864 31.4802 66.3148 31.7707 65.4433 32.0612C64.7169 32.497 63.9906 33.078 63.4096 33.6591V44.2633C63.4096 47.1686 63.7001 47.4591 66.3148 47.7496V48.9117H56.8727V47.7496C59.4875 47.4591 59.9233 47.3138 59.9233 44.2633V23.2002C59.9233 20.4402 59.778 20.1496 56.8727 20.0044V18.9875C59.0517 18.5518 61.2306 18.116 63.4096 17.3896V32.3517C65.0075 30.7538 67.3317 29.156 69.8011 29.156C73.4327 29.156 75.9022 31.4802 75.9022 36.7096V44.5538C75.9022 47.4591 76.1927 47.7496 78.8075 48.0401V49.2022L69.5106 49.057Z" fill="black"/>
<path d="M91.1549 29.1553C87.0875 29.1553 81.4222 32.4963 81.4222 39.9047C81.4222 44.8437 85.0538 49.7826 91.1549 49.7826C95.5128 49.7826 100.887 46.2963 100.887 39.1784C100.742 33.5132 96.6749 29.1553 91.1549 29.1553ZM91.5906 48.1847C87.9591 48.1847 85.4896 43.9721 85.4896 38.4521C85.4896 33.3679 87.9591 30.6079 90.5738 30.6079C94.4959 30.6079 96.6749 34.8205 96.6749 40.05C96.5296 46.151 94.3506 48.1847 91.5906 48.1847Z" fill="black"/>
<path d="M112.508 49.6376C118.319 48.6208 123.548 44.2629 123.548 37.5808C123.548 33.2229 120.643 29.1555 115.704 29.1555C114.978 29.1555 114.106 29.446 113.525 29.8818L109.458 32.206V28.7197C107.424 29.5913 105.245 30.1724 103.066 30.6081V31.625C105.826 31.9155 105.972 32.0608 105.972 34.966V55.1576C105.972 58.0628 105.536 58.3534 102.776 58.6439V59.806H113.235V58.6439C109.748 58.3534 109.458 58.0629 109.458 54.7218V48.9113C110.33 49.3471 111.492 49.6376 112.508 49.6376ZM109.458 33.6587C110.62 32.7871 112.508 31.7702 113.961 31.7702C117.157 31.7702 119.917 34.385 119.917 39.3239C119.917 44.2629 117.447 47.4587 113.671 47.4587C112.073 47.4587 110.62 46.8776 109.458 45.7155V33.6587Z" fill="black"/>
<path d="M934.558 41.8968C931.749 33.8848 928.706 25.166 925.896 17.3896L924.492 17.8609L915.128 41.8968C913.489 45.9028 913.021 46.1384 909.978 46.6097V47.7879H919.81V46.6097C916.299 46.3741 916.065 45.9028 917.001 43.075C917.703 41.1899 918.171 39.3047 919.108 37.1839H928.706C929.642 40.0116 930.578 42.3681 931.281 44.2533C931.983 46.1384 931.515 46.3741 928.706 46.8454V48.0236H939.708V46.8454C936.665 46.1384 935.963 45.6671 934.558 41.8968ZM919.576 34.8274C920.98 31.0571 922.385 27.0511 923.79 23.2808L927.769 34.8274H919.576ZM1032.18 27.7581V28.9363C1034.75 29.4076 1034.98 29.8789 1034.52 31.5284C1033.58 34.3561 1031.71 39.776 1030.3 42.8394L1026.32 31.5284C1025.62 29.8789 1025.85 29.4076 1027.96 28.9363V27.7581H1018.83V28.9363C1021.41 29.4076 1021.88 29.8789 1022.81 32.471C1024.22 35.77 1026.32 41.1899 1027.96 46.3741C1028.2 47.081 1028.2 47.7879 1027.96 48.4949C1027.73 49.2018 1027.49 50.1444 1026.56 51.5583C1025.62 53.6791 1024.68 54.6217 1023.28 55.5642C1022.58 56.0355 1022.11 56.5068 1022.11 57.2138C1022.11 58.392 1023.51 59.3346 1024.68 59.3346C1025.39 59.3346 1025.85 59.0989 1026.09 58.1563C1026.79 55.7999 1027.73 53.2078 1030.77 45.9028C1033.81 38.3621 1035.22 34.5918 1036.39 32.2353C1037.56 29.6432 1038.03 29.1719 1040.37 28.9363V27.7581H1032.18ZM969.672 27.2868C967.331 27.2868 964.756 28.465 963.117 30.5858C961.245 32.7066 960.074 35.5344 960.074 38.5978C960.074 43.782 963.352 48.2592 968.97 48.2592C970.374 48.2592 973.418 47.5523 976.461 43.782L975.759 42.8394C974.12 44.4889 972.481 45.1958 970.609 45.1958C967.331 45.1958 963.82 42.6037 963.82 36.4769C969.204 36.2413 974.822 35.77 975.524 35.77C976.227 35.5344 976.461 35.2987 976.461 34.3561C976.461 30.5858 973.418 27.2868 969.672 27.2868ZM971.545 34.3561C968.97 34.3561 966.395 34.5918 963.82 34.5918C964.522 30.8215 966.395 28.9363 968.502 28.9363C971.077 28.9363 972.481 31.0571 972.481 33.4136C972.481 34.1205 972.247 34.3561 971.545 34.3561ZM959.84 27.9937L959.606 27.5224C957.967 27.9937 955.626 28.2293 953.52 28.465C952.115 27.7581 950.71 27.2868 949.072 27.2868C945.56 27.2868 940.879 29.6432 940.879 34.8274C940.879 37.8908 942.751 40.0116 944.858 40.9542C944.156 41.8968 942.751 43.075 940.879 43.782C940.879 44.2533 940.879 44.9602 941.347 45.6671C942.049 46.6097 942.985 47.7879 944.624 48.2592C943.454 48.9662 941.815 50.6157 940.879 51.5583C940.176 52.2652 939.708 53.2078 939.708 54.1504C939.708 56.7425 942.517 59.8059 947.433 59.8059C953.52 59.8059 958.67 55.3286 958.67 50.8513C958.67 46.3741 954.924 45.4315 952.115 45.4315C950.71 45.4315 949.072 45.4315 947.433 45.4315C945.326 45.4315 944.624 44.4889 944.624 43.5463C944.624 42.8394 945.326 42.1324 946.029 41.6612C946.731 41.6612 947.667 41.8968 948.37 41.8968C952.115 41.8968 956.329 39.5403 956.329 34.5918C956.329 32.9423 955.861 31.5284 954.924 30.5858L957.499 30.8215C958.436 30.1145 959.372 28.9363 959.84 27.9937ZM945.56 49.2018C946.263 48.4949 947.433 48.2592 949.54 48.2592C951.413 48.2592 952.817 48.4949 953.988 48.9662C955.392 49.4375 956.095 50.6157 956.095 52.2652C956.095 55.093 953.988 57.2138 949.54 57.2138C946.263 57.2138 943.454 55.3286 943.454 52.9721C943.454 51.5583 944.39 50.1444 945.56 49.2018ZM949.072 40.2473C946.497 40.2473 944.858 37.6552 944.858 34.1205C944.858 30.5858 946.731 28.7006 948.604 28.7006C951.179 28.7006 952.817 31.2927 952.817 34.8274C952.817 38.3621 951.179 40.2473 949.072 40.2473ZM997.295 43.075V34.1205C997.295 29.6432 994.954 27.2868 991.443 27.2868C990.038 27.2868 988.868 27.7581 987.697 28.7006C986.527 29.4076 985.591 30.1145 984.654 30.8215V27.0511C982.547 27.9937 980.44 28.465 978.334 28.9363V29.8789C980.675 30.3502 981.143 30.5858 981.143 33.4136V42.8394C981.143 45.9028 980.909 46.1384 977.865 46.3741V47.5523H987.697V46.3741C985.122 46.1384 984.654 45.9028 984.654 42.8394V32.2353C986.059 31.0571 987.697 29.8789 989.57 29.8789C992.613 29.8789 993.784 31.9997 993.784 35.0631V42.6037C993.784 45.6671 993.55 46.1384 990.741 46.3741V47.5523H1000.1V46.3741C997.529 46.1384 997.295 46.1384 997.295 43.075ZM1012.04 45.1958C1009.47 45.1958 1005.25 43.075 1005.25 36.7126C1005.25 31.9997 1007.83 29.4076 1010.87 29.4076C1012.51 29.4076 1014.15 30.1145 1015.32 31.2927C1015.79 31.764 1016.02 31.764 1016.26 31.764C1016.73 31.764 1017.66 30.8215 1017.66 29.8789C1017.66 29.4076 1017.43 28.9363 1016.96 28.465C1016.26 27.7581 1014.85 27.2868 1012.98 27.2868C1011.11 27.2868 1008.53 27.9937 1006.19 29.8789C1003.15 32.2353 1001.74 35.2987 1001.74 38.8334C1001.74 43.782 1005.02 48.2592 1010.87 48.2592C1013.45 48.2592 1016.49 46.1384 1018.6 43.5463L1017.9 42.6037C1015.55 44.7245 1014.15 45.1958 1012.04 45.1958Z" fill="black"/>
<g clip-path="url(#clip0)">
<path d="M731.318 46.9381H728.337V29.9345H724.603V27.1104H735.08V29.9345H731.318V46.9381Z" fill="black"/>
<path d="M740.005 38.1983V46.9381H737.023V27.1104H740.005V35.3741H744.261V27.1104H747.24V46.9381H744.261V38.1983H740.005Z" fill="black"/>
<path d="M760.355 40.6368C760.355 42.8661 760.038 44.2041 759.255 45.3333C758.387 46.5815 756.94 47.2348 755.087 47.2348C753.233 47.2348 751.788 46.5815 750.919 45.3333C750.138 44.2041 749.819 42.8661 749.819 40.6368V33.4125C749.819 31.1832 750.138 29.8452 750.919 28.716C751.788 27.4677 753.235 26.8145 755.087 26.8145C756.938 26.8145 758.387 27.4677 759.255 28.716C760.038 29.8452 760.355 31.1832 760.355 33.4125V40.6368ZM752.801 40.5785C752.801 42.1544 752.888 42.6887 753.176 43.2837C753.524 43.9369 754.248 44.3545 755.087 44.3545C755.926 44.3545 756.65 43.9392 756.997 43.2837C757.314 42.6596 757.373 42.1836 757.373 40.5785V33.4731C757.373 31.8679 757.316 31.392 756.997 30.7679C756.65 30.1146 755.926 29.697 755.087 29.697C754.248 29.697 753.524 30.1146 753.176 30.7679C752.888 31.3628 752.801 31.8971 752.801 33.4731V40.5785Z" fill="black"/>
<path d="M773.181 27.1104V40.5466C773.181 43.043 772.893 44.3226 772.082 45.4519C771.242 46.6103 769.824 47.2366 768.086 47.2366C766.322 47.2366 764.903 46.6125 764.064 45.4519C763.255 44.3226 762.965 43.0452 762.965 40.5466V27.1104H765.946V41.0517C765.946 43.4 766.554 44.3518 768.088 44.3518C769.594 44.3518 770.202 43.4 770.202 41.0517V27.1104H773.181Z" fill="black"/>
<path d="M786.296 37.0987V46.9385H784.761L784.213 45.2458C783.229 46.6736 782.158 47.2371 780.595 47.2371C778.831 47.2371 777.354 46.375 776.602 44.918C775.966 43.6406 775.762 42.361 775.762 39.6266V34.1578C775.762 31.0058 775.996 29.8766 776.89 28.6576C777.73 27.4677 779.205 26.8145 780.971 26.8145C783.085 26.8145 784.648 27.7371 785.516 29.459C786.007 30.4401 786.211 31.6591 786.211 33.5606H783.229C783.229 30.8262 782.563 29.697 780.943 29.697C780.163 29.697 779.496 30.054 779.177 30.7073C778.829 31.3605 778.742 31.9555 778.742 33.5606V39.6266C778.742 41.2609 778.829 42.123 779.061 42.8661C779.378 43.7865 780.132 44.3523 781.087 44.3523C782.65 44.3523 783.314 43.1939 783.314 40.428V39.6266H780.853V37.0987H786.296Z" fill="black"/>
<path d="M791.8 38.1983V46.9381H788.818V27.1104H791.8V35.3741H796.056V27.1104H799.035V46.9381H796.056V38.1983H791.8Z" fill="black"/>
<path d="M807.695 46.9381H804.714V29.9345H800.98V27.1104H811.457V29.9345H807.695V46.9381Z" fill="black"/>
<path d="M824.515 33.5606V33.1453C824.515 30.8577 823.732 29.697 822.257 29.697C821.448 29.697 820.81 30.054 820.491 30.6781C820.115 31.3314 820.027 31.9263 820.027 33.5314V40.1317C820.027 41.6471 820.115 42.4193 820.347 43.0749C820.635 43.8472 821.387 44.3523 822.257 44.3523C823.356 44.3523 824.08 43.699 824.399 42.3902C824.515 41.885 824.543 41.4383 824.574 39.9813H827.584V40.666C827.584 44.9764 825.761 47.2371 822.288 47.2371C820.349 47.2371 818.814 46.4648 817.975 45.037C817.251 43.818 817.048 42.6596 817.048 39.7164V34.1578C817.048 31.0058 817.282 29.9058 818.176 28.6576C819.015 27.4677 820.462 26.8145 822.257 26.8145C825.555 26.8145 827.496 29.0729 827.496 32.968V33.5606H824.515Z" fill="black"/>
<path d="M832.884 42.6277L832.104 46.9381H829.179L832.884 27.1104H836.965L840.874 46.9381H837.807L836.996 42.6277H832.884ZM834.911 30.9156L833.348 39.8035H836.504L834.911 30.9156Z" fill="black"/>
<path d="M847.446 46.9381H844.465V29.9345H840.731V27.1104H851.208V29.9345H847.446V46.9381Z" fill="black"/>
<path d="M854.946 42.6277L854.165 46.9381H851.241L854.946 27.1104H859.027L862.935 46.9381H859.868L859.057 42.6277H854.946ZM856.974 30.9156L855.411 39.8035H858.568L856.974 30.9156Z" fill="black"/>
<path d="M867.829 44.1139H873.763V46.9381H864.848V27.1104H867.829V44.1139Z" fill="black"/>
<path d="M886.039 40.6368C886.039 42.8661 885.722 44.2041 884.939 45.3333C884.072 46.5815 882.625 47.2348 880.771 47.2348C878.92 47.2348 877.473 46.5815 876.603 45.3333C875.822 44.2041 875.503 42.8661 875.503 40.6368V33.4125C875.503 31.1832 875.82 29.8452 876.603 28.716C877.473 27.4677 878.92 26.8145 880.771 26.8145C882.623 26.8145 884.07 27.4677 884.939 28.716C885.722 29.8452 886.039 31.1832 886.039 33.4125V40.6368ZM878.485 40.5785C878.485 42.1544 878.572 42.6887 878.861 43.2837C879.208 43.9369 879.932 44.3545 880.771 44.3545C881.611 44.3545 882.334 43.9392 882.682 43.2837C883.001 42.6596 883.058 42.1836 883.058 40.5785V33.4731C883.058 31.8679 883.001 31.392 882.682 30.7679C882.334 30.1146 881.611 29.697 880.771 29.697C879.932 29.697 879.208 30.1146 878.861 30.7679C878.572 31.3628 878.485 31.8971 878.485 33.4731V40.5785Z" fill="black"/>
<path d="M898.981 37.0987V46.9385H897.447L896.898 45.2458C895.915 46.6736 894.844 47.2371 893.281 47.2371C891.517 47.2371 890.039 46.375 889.287 44.918C888.651 43.6406 888.448 42.361 888.448 39.6266V34.1578C888.448 31.0058 888.682 29.8766 889.576 28.6576C890.415 27.4677 891.89 26.8145 893.657 26.8145C895.77 26.8145 897.333 27.7371 898.201 29.459C898.693 30.4401 898.896 31.6591 898.896 33.5606H895.915C895.915 30.8262 895.248 29.697 893.628 29.697C892.848 29.697 892.181 30.054 891.862 30.7073C891.515 31.3605 891.427 31.9555 891.427 33.5606V39.6266C891.427 41.2609 891.515 42.123 891.746 42.8661C892.063 43.7865 892.817 44.3523 893.772 44.3523C895.335 44.3523 896 43.1939 896 40.428V39.6266H893.539V37.0987H898.981Z" fill="black"/>
</g>
<defs>
<clipPath id="clip0">
<rect width="174.378" height="20.4226" fill="white" transform="translate(724.603 26.8145)"/>
</clipPath>
</defs>
</svg>
