<svg width="283" height="360" viewBox="0 0 283 360" fill="none" xmlns="http://www.w3.org/2000/svg">
<path d="M174.636 120.439C177.943 121.04 180.65 122.443 180.65 125.952C180.65 128.257 179.447 130.061 177.342 131.164C175.538 132.166 173.232 132.567 170.526 132.567H162.607V131.464C165.614 131.264 165.815 131.064 165.815 128.257V114.525C165.815 111.718 165.715 111.518 162.908 111.317V110.215H172.029C174.636 110.215 176.139 110.616 177.242 111.418C178.444 112.22 179.146 113.723 179.146 115.327C179.146 118.534 176.44 119.938 174.636 120.439ZM170.526 120.038C174.235 120.038 175.939 118.534 175.939 115.728C175.939 113.422 174.636 111.418 171.328 111.418C170.426 111.418 169.624 111.618 169.323 111.819C169.022 112.019 168.922 112.42 168.922 113.523V120.138H170.526V120.038ZM168.822 128.257C168.822 130.663 169.423 131.364 171.729 131.364C174.535 131.364 177.141 129.961 177.141 126.353C177.141 122.844 174.636 121.341 170.426 121.341H168.822V128.257Z" fill="black"/>
<path d="M209.116 121.14C209.116 128.658 203.804 133.168 197.389 133.168C191.174 133.168 186.062 128.357 186.062 121.641C186.062 115.427 190.473 109.714 197.79 109.714C203.703 109.613 209.116 114.124 209.116 121.14ZM189.671 120.739C189.671 127.154 193.279 131.865 198.191 131.865C201.999 131.865 205.508 128.758 205.508 122.143C205.508 114.825 201.599 111.117 197.188 111.117C193.279 111.017 189.671 114.224 189.671 120.739Z" fill="black"/>
<path d="M237.683 121.14C237.683 128.658 232.37 133.168 225.955 133.168C219.741 133.168 214.629 128.357 214.629 121.641C214.629 115.427 219.039 109.714 226.356 109.714C232.27 109.613 237.683 114.124 237.683 121.14ZM218.237 120.739C218.237 127.154 221.846 131.865 226.757 131.865C230.566 131.865 234.074 128.758 234.074 122.143C234.074 114.825 230.165 111.117 225.755 111.117C221.846 111.017 218.237 114.224 218.237 120.739Z" fill="black"/>
<path d="M258.732 132.668C256.126 129.761 253.42 126.453 250.212 122.645C249.31 121.642 248.809 121.542 248.207 121.642V128.157C248.207 131.164 248.508 131.365 251.415 131.565V132.668H242.193V131.565C244.9 131.365 245.2 131.164 245.2 128.157V114.726C245.2 111.619 244.9 111.519 242.093 111.218V110.115H251.315V111.318C248.608 111.519 248.207 111.719 248.207 114.826V120.74C249.009 120.54 249.711 120.038 250.713 119.136C252.618 117.332 254.823 115.127 256.326 113.122C257.228 112.02 257.228 111.619 255.725 111.418L255.023 111.318V110.215H263.643V111.318C260.937 111.619 260.035 111.919 257.93 113.824C256.627 115.027 254.221 117.533 251.916 119.738C254.522 122.945 258.231 127.255 260.035 129.16C261.839 131.064 262.641 131.365 264.245 131.465V132.568H258.732V132.668Z" fill="black"/>
<path d="M280.783 115.528C280.182 113.423 279.38 110.917 276.373 110.917C273.667 110.917 272.564 112.822 272.564 114.626C272.564 117.132 274.268 118.335 276.975 119.638C279.681 120.941 282.989 122.645 282.989 126.554C282.989 130.262 279.881 133.169 275.271 133.169C273.767 133.169 272.664 132.969 271.762 132.568C270.96 132.367 270.459 132.067 270.058 131.866C269.758 131.064 269.357 128.258 269.056 126.454L270.259 126.153C270.76 128.258 272.264 131.766 275.872 131.766C278.478 131.766 279.982 130.162 279.982 127.757C279.982 125.151 278.077 123.948 275.471 122.645C273.166 121.442 269.758 119.738 269.758 115.829C269.758 112.421 272.464 109.614 276.975 109.614C278.478 109.614 279.982 109.915 281.385 110.416C281.485 111.619 281.686 113.022 281.986 115.328L280.783 115.528Z" fill="black"/>
<path d="M167.218 92.5731H165.214V81.3468H162.708V79.4424H169.825V81.3468H167.218V92.5731Z" fill="black"/>
<path d="M173.132 86.7595V92.5731H171.127V79.4424H173.132V84.9553H176.039V79.4424H178.043V92.5731H176.039V86.7595H173.132Z" fill="black"/>
<path d="M187.065 88.3635C187.065 89.867 186.864 90.7691 186.363 91.4708C185.762 92.2726 184.759 92.7738 183.557 92.7738C182.354 92.7738 181.351 92.3729 180.75 91.4708C180.249 90.7691 180.048 89.867 180.048 88.3635V83.6525C180.048 82.149 180.249 81.2469 180.75 80.5452C181.151 79.6431 182.153 79.2422 183.456 79.2422C184.759 79.2422 185.661 79.6431 186.263 80.5452C186.764 81.2469 186.964 82.149 186.964 83.6525V88.3635H187.065ZM181.853 88.3635C181.853 89.3658 181.953 89.7668 182.153 90.1677C182.354 90.5686 182.855 90.8693 183.456 90.8693C184.058 90.8693 184.559 90.5686 184.759 90.1677C184.96 89.7668 185.06 89.4661 185.06 88.3635V83.6525C185.06 82.5499 185.06 82.2492 184.759 81.8483C184.559 81.4473 184.058 81.1466 183.456 81.1466C182.855 81.1466 182.354 81.4473 182.153 81.8483C181.953 82.2492 181.853 82.5499 181.853 83.6525V88.3635Z" fill="black"/>
<path d="M195.785 79.4424V88.3632C195.785 90.0672 195.584 90.8691 195.083 91.5707C194.482 92.3726 193.58 92.7735 192.377 92.7735C191.174 92.7735 190.172 92.3726 189.671 91.5707C189.169 90.8691 188.969 89.967 188.969 88.3632V79.4424H190.974V88.6639C190.974 90.2677 191.374 90.8691 192.477 90.8691C193.479 90.8691 193.88 90.2677 193.88 88.6639V79.4424H195.785Z" fill="black"/>
<path d="M204.706 86.0581V92.5733H203.703L203.302 91.4708C202.601 92.3729 201.899 92.7738 200.797 92.7738C199.594 92.7738 198.591 92.1724 198.09 91.2703C197.689 90.4684 197.489 89.5663 197.489 87.7621V84.1537C197.489 82.0487 197.689 81.3471 198.291 80.5452C198.892 79.6431 199.895 79.2422 201.097 79.2422C202.501 79.2422 203.603 79.8436 204.205 80.9462C204.505 81.5476 204.706 82.4497 204.706 83.6525H202.701C202.701 81.8483 202.2 81.0464 201.097 81.0464C200.596 81.0464 200.095 81.2469 199.895 81.748C199.694 82.149 199.594 82.5499 199.594 83.6525V87.6619C199.594 88.7644 199.694 89.3658 199.794 89.7668C199.995 90.3682 200.496 90.7691 201.198 90.7691C202.3 90.7691 202.701 89.9672 202.701 88.163V87.7621H200.997V86.0581H204.706Z" fill="black"/>
<path d="M208.414 86.7595V92.5731H206.41V79.4424H208.414V84.9553H211.321V79.4424H213.326V92.5731H211.321V86.7595H208.414Z" fill="black"/>
<path d="M219.24 92.5731H217.235V81.3468H214.729V79.4424H221.846V81.3468H219.24V92.5731Z" fill="black"/>
<path d="M230.666 83.7527V83.452C230.666 81.9485 230.165 81.1466 229.163 81.1466C228.662 81.1466 228.161 81.3471 227.96 81.748C227.659 82.149 227.659 82.5499 227.659 83.6525V88.0628C227.659 89.0651 227.76 89.5663 227.86 89.9672C228.06 90.4684 228.562 90.7691 229.163 90.7691C229.865 90.7691 230.366 90.3682 230.666 89.4661C230.767 89.1654 230.767 88.8647 230.767 87.8623H232.771V88.3635C232.771 91.1701 231.569 92.6736 229.163 92.6736C227.86 92.6736 226.757 92.1724 226.256 91.1701C225.755 90.3682 225.655 89.5663 225.655 87.6619V84.1537C225.655 82.0487 225.855 81.3471 226.457 80.5452C226.958 79.6431 227.96 79.2422 229.163 79.2422C231.368 79.2422 232.771 80.7457 232.771 83.3518V83.7527H230.666Z" fill="black"/>
<path d="M236.38 89.7665L235.879 92.5731H233.874L236.38 79.4424H239.186L241.793 92.5731H239.788L239.186 89.7665H236.38ZM237.783 81.9482L236.681 87.8621H238.785L237.783 81.9482Z" fill="black"/>
<path d="M246.303 92.5731H244.298V81.3468H241.792V79.4424H248.909V81.3468H246.303V92.5731Z" fill="black"/>
<path d="M251.415 89.7665L250.914 92.5731H248.909L251.415 79.4424H254.221L256.827 92.5731H254.723L254.121 89.7665H251.415ZM252.818 81.9482L251.715 87.8621H253.82L252.818 81.9482Z" fill="black"/>
<path d="M260.135 90.6686H264.145V92.5731H258.03V79.4424H260.035V90.6686H260.135Z" fill="black"/>
<path d="M272.564 88.3635C272.564 89.867 272.364 90.7691 271.863 91.4708C271.261 92.2726 270.259 92.7738 269.056 92.7738C267.853 92.7738 266.851 92.3729 266.249 91.4708C265.748 90.7691 265.548 89.867 265.548 88.3635V83.6525C265.548 82.149 265.748 81.2469 266.249 80.5452C266.851 79.7434 267.853 79.2422 269.056 79.2422C270.259 79.2422 271.261 79.6431 271.863 80.5452C272.364 81.2469 272.564 82.149 272.564 83.6525V88.3635ZM267.452 88.3635C267.452 89.3658 267.553 89.7668 267.753 90.1677C267.953 90.5686 268.455 90.8693 269.056 90.8693C269.657 90.8693 270.159 90.5686 270.359 90.1677C270.56 89.7668 270.66 89.4661 270.66 88.3635V83.6525C270.66 82.5499 270.66 82.2492 270.359 81.8483C270.159 81.4473 269.657 81.1466 269.056 81.1466C268.455 81.1466 267.953 81.4473 267.753 81.8483C267.553 82.2492 267.452 82.5499 267.452 83.6525V88.3635Z" fill="black"/>
<path d="M281.385 86.0604V92.5756H280.382L279.982 91.4731C279.28 92.3752 278.578 92.7761 277.476 92.7761C276.273 92.7761 275.271 92.1747 274.769 91.2726C274.368 90.4707 274.168 89.5686 274.168 87.7644V84.156C274.168 82.051 274.368 81.3494 274.97 80.5475C275.571 79.7457 276.574 79.3447 277.776 79.3447C279.18 79.3447 280.282 79.9461 280.884 81.0487C281.184 81.6501 281.385 82.5522 281.385 83.755H279.38C279.38 81.9508 278.879 81.1489 277.776 81.1489C277.275 81.1489 276.774 81.3494 276.574 81.8506C276.373 82.2515 276.273 82.6525 276.273 83.755V87.7644C276.273 88.867 276.373 89.4684 276.473 89.8693C276.674 90.4707 277.175 90.8717 277.877 90.8717C278.979 90.8717 279.38 90.0698 279.38 88.2656V87.7644H277.676V86.0604H281.385Z" fill="black"/>
<path d="M162.708 100.891H281.385" stroke="black" stroke-width="1.0178" stroke-miterlimit="10"/>
<path fill-rule="evenodd" clip-rule="evenodd" d="M132.883 124.411L125.616 114.462L132.771 107.196H127.293L120.698 114.127V98.7002H116.673V124.411H120.698V119.605L122.822 117.369L127.852 124.411H132.883ZM16.7351 124.414L4.32668 105.41V124.414H0.0787354V99.2613H5.44456L16.8469 117.036V99.2613H21.0949V124.414H16.7351ZM41.1047 119.492C40.2104 122.51 37.4157 124.97 33.2795 124.97C28.5844 124.97 24.4483 121.616 24.4483 115.691C24.4483 110.214 28.4726 106.637 32.8324 106.637C38.1982 106.637 41.2165 110.102 41.2165 115.58C41.2165 116.056 41.1601 116.476 41.1274 116.719L41.1274 116.719L41.1274 116.719C41.1141 116.819 41.1047 116.889 41.1047 116.921H28.5844C28.6962 119.492 30.7084 121.393 33.2795 121.393C35.7389 121.393 37.0803 120.051 37.6393 118.374L41.1047 119.492ZM37.1921 113.903C37.0803 111.891 35.7389 110.102 32.9442 110.102C30.373 110.102 28.9198 112.114 28.6962 113.903H37.1921ZM53.1777 107.196H49.6005V101.942H45.9115V104.514C45.9115 106.079 45.0172 107.196 43.2286 107.196H42.3343V110.774H45.5762V119.493C45.5762 122.735 47.4766 124.635 50.7184 124.635C52.2834 124.635 53.066 124.412 53.2895 124.3V120.946C53.2029 120.946 53.0492 120.963 52.8609 120.984L52.8608 120.984C52.563 121.016 52.1787 121.058 51.8363 121.058C50.2713 121.058 49.6005 120.499 49.6005 118.934V110.885H53.1777V107.196ZM70.729 107.197L74.7533 119.158L78.2187 107.197H82.3549L76.8773 124.412H72.7411L68.4932 112.004L64.357 124.412H60.1091L54.5197 107.197H58.8794L62.3449 119.158L66.481 107.197H70.729ZM91.8567 124.97C96.999 124.97 100.8 121.169 100.8 115.803C100.8 110.437 96.999 106.637 91.8567 106.637C86.7145 106.637 82.9137 110.549 82.9137 115.803C82.9137 121.057 86.7145 124.97 91.8567 124.97ZM91.8567 110.437C94.4278 110.437 96.6636 112.226 96.6636 115.803C96.6636 119.38 94.3161 121.281 91.8567 121.281C89.3974 121.281 87.0498 119.38 87.0498 115.803C87.0498 112.226 89.2856 110.437 91.8567 110.437ZM113.991 111.219C113.543 111.107 113.096 111.107 112.649 111.107C109.407 111.107 107.954 112.896 107.954 116.138V124.41H103.818V107.195H107.842V109.989C108.625 108.089 110.525 106.971 112.873 106.971C113.135 106.971 113.397 107.009 113.614 107.041C113.767 107.064 113.898 107.083 113.991 107.083V111.219Z" fill="black"/>
<path fill-rule="evenodd" clip-rule="evenodd" d="M41.3287 92.8889C41.3287 94.0067 41.2169 94.6775 40.7697 95.2364C40.3226 95.9071 39.5401 96.1307 38.6458 96.1307C37.7515 96.1307 36.9689 95.7953 36.5218 95.2364C36.0746 94.6775 35.9628 94.0067 35.9628 92.8889V89.1999C35.9628 88.082 36.0746 87.4113 36.5218 86.8523C36.9689 86.2934 37.6397 85.958 38.6458 85.958C39.5401 85.958 40.3226 86.2934 40.7697 86.8523C41.2169 87.4113 41.3287 88.082 41.3287 89.1999V92.8889ZM37.4161 92.7771V92.7771C37.4161 93.5596 37.4161 93.7832 37.6397 94.1185C37.8632 94.4539 38.1986 94.6775 38.6458 94.6775C39.0929 94.6775 39.4283 94.4539 39.6519 94.1185C39.6644 94.0808 39.677 94.0445 39.6894 94.0086C39.7874 93.7258 39.8754 93.4715 39.8754 92.7771V89.3116V89.3116C39.8754 88.5291 39.8754 88.3056 39.6519 87.9702C39.4283 87.6348 39.0929 87.4113 38.6458 87.4113C38.1986 87.4113 37.8632 87.6348 37.6397 87.9702C37.5279 88.1938 37.4161 88.5291 37.4161 89.3116V92.7771ZM24.8958 96.0205H26.4608V87.5246H28.3612V86.0713H22.9954V87.5246H24.8958V96.0205ZM30.9324 96.0205V91.6607H33.0564V96.0205H34.6214V86.0713H33.0564V90.2075H30.9324V86.0713H29.3674V96.0205H30.9324ZM47.8124 92.7786V86.0713H46.4709V93.0022C46.4709 94.2319 46.1355 94.679 45.353 94.679C44.5705 94.679 44.2351 94.1201 44.2351 93.0022V86.0713H42.6701V92.7786C42.6701 94.0083 42.7819 94.679 43.2291 95.2379C43.5644 95.7969 44.3469 96.1322 45.2412 96.1322C46.1355 96.1322 46.8063 95.7969 47.2534 95.2379C47.7006 94.679 47.8124 94.0083 47.8124 92.7786ZM54.5194 91.1003V96.0189H53.7369L53.4015 95.1246C52.8426 95.7953 52.3954 96.1307 51.5011 96.1307C50.6068 96.1307 49.8243 95.6836 49.4889 95.0128C49.1535 94.3421 49.0418 93.7832 49.0418 92.3299V89.647C49.0418 88.082 49.1535 87.523 49.6007 86.9641C50.1596 86.2934 50.9422 85.958 51.8365 85.958C52.9543 85.958 53.7369 86.4052 54.184 87.2995C54.4076 87.7466 54.5194 88.4173 54.5194 89.3116H52.9543C52.9543 87.9702 52.619 87.4113 51.8365 87.4113C51.3893 87.4113 51.0539 87.6348 50.9422 87.9702C50.7186 88.1938 50.7186 88.5291 50.7186 89.3116V92.3299C50.7186 93.1124 50.7186 93.5596 50.8304 93.895C50.9422 94.3421 51.3893 94.6775 51.8365 94.6775C52.619 94.6775 52.9543 94.1185 52.9543 92.7771V92.3299H51.7247V91.1003H54.5194ZM57.4259 96.0205V91.6607H59.5499V96.0205H61.1149V86.0713H59.5499V90.2075H57.4259V86.0713H55.8609V96.0205H57.4259ZM65.4747 96.0205H63.9096V87.5246H62.0092V86.0713H67.3751V87.5246H65.4747V96.0205ZM74.0824 89.0896V89.3132H75.7592V89.0896C75.7592 87.1892 74.7531 86.0713 73.0763 86.0713C72.0702 86.0713 71.3995 86.4067 70.9523 86.9656C70.5052 87.5246 70.3934 88.0835 70.3934 89.6485V92.2197C70.3934 93.6729 70.5052 94.3436 70.8405 94.9026C71.2877 95.6851 72.0702 96.0205 73.0763 96.0205C74.8649 96.0205 75.7592 94.9026 75.7592 92.7786V92.4432H74.1942C74.1942 93.2258 74.1942 93.4493 74.0824 93.6729C73.8588 94.3436 73.5234 94.679 72.9645 94.679C72.5173 94.679 72.0702 94.3436 71.9584 94.0083C71.8466 93.6729 71.8466 93.3376 71.8466 92.555V89.3132C71.8466 88.5307 71.8466 88.1953 72.0702 87.8599C72.182 87.6364 72.5173 87.4128 72.9645 87.4128C73.6352 87.4128 74.0824 87.9717 74.0824 89.0896ZM78.442 93.7826L77.9948 96.0183H76.5416L78.442 86.181H80.566L82.4663 96.0183H80.9013L80.4542 93.7826H78.442ZM79.4481 87.9696L78.6656 92.4411H80.2306L79.4481 87.9696ZM84.2552 96.0205H85.8202V87.5246H87.7206V86.0713H82.3548V87.5246H84.2552V96.0205ZM89.7327 93.7826L89.2856 96.0183H87.8323L89.7327 86.181H91.7449L93.7571 96.0183H92.1921L91.7449 93.7826H89.7327ZM90.7388 87.9696L89.9563 92.4411H91.5213L90.7388 87.9696ZM99.2348 94.5672H96.2166V86.0713H94.6515V96.0205H99.2348V94.5672ZM105.607 92.8889C105.607 94.0067 105.495 94.6775 105.048 95.2364C104.601 95.9071 103.818 96.1307 102.924 96.1307C102.03 96.1307 101.247 95.7953 100.8 95.2364C100.353 94.6775 100.241 94.0067 100.241 92.8889V89.1999C100.241 88.082 100.353 87.4113 100.8 86.8523C101.247 86.2934 101.918 85.958 102.924 85.958C103.93 85.958 104.601 86.2934 105.048 86.8523C105.495 87.4113 105.607 88.082 105.607 89.1999V92.8889ZM101.694 92.7771C101.694 93.5596 101.694 93.7832 101.918 94.1185C102.141 94.4539 102.477 94.6775 102.924 94.6775C103.371 94.6775 103.706 94.4539 103.93 94.1185C104.042 93.895 104.042 93.5596 104.042 92.7771V89.3116C104.042 88.5291 104.042 88.3056 103.818 87.9702C103.595 87.6348 103.259 87.4113 102.812 87.4113C102.365 87.4113 102.03 87.6348 101.806 87.9702C101.806 88.0481 101.792 88.1395 101.775 88.2586V88.2587C101.742 88.4817 101.694 88.8017 101.694 89.3116V92.7771ZM112.202 96.0189V91.1003H109.296V92.3299H110.525V92.7771C110.525 94.1185 110.19 94.6775 109.407 94.6775C108.96 94.6775 108.513 94.3421 108.401 93.895C108.289 93.5596 108.289 93.1124 108.289 92.3299V89.3116C108.289 88.5291 108.401 88.1938 108.625 87.9702C108.737 87.6348 109.072 87.4113 109.519 87.4113C110.302 87.4113 110.637 87.9702 110.637 89.3116H112.202C112.202 88.4173 112.09 87.7466 111.867 87.2995C111.42 86.4052 110.637 85.958 109.519 85.958C108.625 85.958 107.842 86.2934 107.283 86.9641C106.836 87.523 106.724 88.082 106.724 89.647V92.3299C106.724 93.7832 106.836 94.3421 107.172 95.0128C107.507 95.6836 108.289 96.1307 109.184 96.1307C110.078 96.1307 110.525 95.7953 111.084 95.1246L111.42 96.0189H112.202Z" fill="black"/>
<path d="M39.3719 193.583C38.9841 194.999 38.2086 197.315 37.6916 198.344C36.7868 198.601 34.2018 199.116 32.0045 199.116C24.3785 199.116 21.0179 193.969 21.0179 189.208C21.0179 182.904 25.9296 178.786 32.78 178.786C35.2358 178.786 37.3039 179.429 38.2086 179.558C38.4671 181.231 38.5964 182.518 38.8549 184.319L37.6916 184.448C36.7868 181.231 35.1065 179.944 31.8752 179.944C26.9636 179.944 24.3785 184.062 24.3785 188.565C24.3785 194.098 27.7391 197.829 32.1337 197.829C35.1065 197.829 36.6576 196.285 38.3379 193.197L39.3719 193.583Z" fill="black"/>
<path d="M64.3178 198.857C63.93 198.857 63.5422 198.857 63.1545 198.857C60.6987 198.729 59.4061 198.085 58.1136 196.155C57.0796 194.74 56.0456 192.939 55.27 191.395C54.753 190.623 54.236 190.237 52.8142 190.237H51.9095V194.74C51.9095 197.185 52.168 197.442 54.6238 197.571V198.6H46.3516V197.571C48.8074 197.442 49.0659 197.185 49.0659 194.74V183.031C49.0659 180.458 48.8074 180.458 46.4808 180.2V179.171H54.236C56.5626 179.171 57.9844 179.428 59.1476 180.2C60.4402 180.972 61.2157 182.388 61.2157 184.189C61.2157 186.762 59.6646 188.306 57.4673 189.336C57.9844 190.237 59.1476 192.295 60.0524 193.582C61.2157 195.255 61.7327 195.898 62.379 196.67C63.1545 197.442 63.93 197.828 64.5763 197.957L64.3178 198.857ZM53.202 189.078C54.6238 189.078 55.6578 188.821 56.4333 188.178C57.5966 187.277 58.1136 186.119 58.1136 184.575C58.1136 181.358 55.9163 180.2 53.719 180.2C52.8142 180.2 52.4265 180.329 52.168 180.458C51.9095 180.586 51.7802 180.972 51.7802 181.744V188.95H53.202V189.078Z" fill="black"/>
<path d="M86.2907 193.711C86.1615 194.74 85.5152 197.699 85.2567 198.6H70.3926V197.571C73.1069 197.313 73.3654 197.185 73.3654 194.74V183.16C73.3654 180.586 73.1069 180.458 70.7803 180.2V179.171H84.6104C84.6104 179.814 84.7397 181.873 84.8689 183.546L83.8349 183.674C83.5764 182.388 83.1886 181.744 82.8009 181.101C82.4131 180.458 81.6376 180.329 79.5696 180.329H77.3723C76.3382 180.329 76.3382 180.329 76.3382 181.358V187.92H78.9233C81.6376 187.92 81.7669 187.792 82.1546 185.733H83.1886V191.652H82.1546C81.7669 189.464 81.5084 189.336 78.9233 189.336H76.209V194.74C76.209 196.155 76.3382 196.799 76.9845 197.185C77.6308 197.571 78.6648 197.571 80.0866 197.571C82.1546 197.571 83.0594 197.313 83.7057 196.541C84.2227 196.027 84.7397 194.997 85.2567 193.711H86.2907Z" fill="black"/>
<path d="M108.91 193.711C108.781 194.74 108.135 197.699 107.876 198.6H93.012V197.571C95.7263 197.313 95.9848 197.185 95.9848 194.74V183.16C95.9848 180.586 95.7263 180.458 93.3997 180.2V179.171H107.23C107.23 179.814 107.359 181.873 107.488 183.546L106.325 183.803C106.067 182.516 105.679 181.873 105.291 181.23C104.903 180.586 104.128 180.458 102.06 180.458H99.8624C98.8284 180.458 98.8284 180.458 98.8284 181.487V188.049H101.413C104.128 188.049 104.257 187.92 104.645 185.862H105.679V191.781H104.645C104.257 189.593 103.998 189.464 101.413 189.464H98.6991V194.869C98.6991 196.284 98.8284 196.927 99.4746 197.313C100.121 197.699 101.155 197.699 102.577 197.699C104.645 197.699 105.55 197.442 106.196 196.67C106.713 196.155 107.23 195.126 107.747 193.839L108.91 193.711Z" fill="black"/>
<path d="M123.774 179.171C125.972 179.171 127.652 179.557 128.944 180.458C130.108 181.358 130.883 182.774 130.883 184.704C130.883 188.564 127.91 190.494 124.937 190.88C124.42 190.88 123.903 190.88 123.516 190.88L121.318 190.365V194.74C121.318 197.313 121.577 197.442 124.42 197.571V198.6H115.89V197.571C118.346 197.442 118.604 197.185 118.604 194.74V183.031C118.604 180.458 118.346 180.329 116.148 180.2V179.171H123.774ZM121.448 189.207C121.835 189.336 122.611 189.593 123.516 189.593C125.325 189.593 127.652 188.564 127.652 184.832C127.652 181.616 125.584 180.329 123.257 180.329C122.482 180.329 121.835 180.458 121.577 180.715C121.318 180.844 121.318 181.23 121.318 182.002V189.207H121.448Z" fill="black"/>
<path d="M156.346 180.2C154.278 180.458 153.761 180.715 152.598 182.645C151.305 184.704 150.4 186.248 148.979 188.95C148.591 189.722 148.462 189.979 148.462 190.88V194.74C148.462 197.185 148.72 197.442 151.564 197.571V198.6H142.645V197.571C145.359 197.442 145.618 197.185 145.618 194.74V190.88C145.618 190.237 145.489 189.979 144.972 189.207C143.938 187.277 142.774 185.347 141.223 182.645C140.06 180.715 139.672 180.329 137.863 180.2V179.171H145.359V180.2C143.162 180.458 143.291 180.844 143.808 181.873C144.972 184.06 146.394 186.376 147.686 188.692C148.72 186.762 150.271 183.932 151.176 182.259C151.822 180.844 151.822 180.586 149.496 180.329V179.171H156.475V180.2H156.346Z" fill="black"/>
<path d="M179.224 184.712V184.197C179.224 181.495 178.319 180.08 176.51 180.08C175.476 180.08 174.7 180.466 174.312 181.238C173.795 182.01 173.795 182.782 173.795 184.583V192.432C173.795 194.233 173.925 195.134 174.183 195.906C174.571 196.807 175.476 197.45 176.51 197.45C177.802 197.45 178.707 196.678 179.095 195.134C179.224 194.491 179.224 193.976 179.353 192.303H183.102V193.075C183.102 198.222 180.904 200.924 176.639 200.924C174.312 200.924 172.374 200.024 171.34 198.351C170.435 196.936 170.176 195.52 170.176 192.046V185.484C170.176 181.753 170.435 180.466 171.598 178.922C172.632 177.506 174.442 176.734 176.639 176.734C180.646 176.734 183.102 179.436 183.102 184.069V184.712H179.224Z" fill="black"/>
<path d="M189.564 195.513L188.66 200.66H185.041L189.564 177.113H194.605L199.388 200.66H195.51L194.476 195.513H189.564V195.513ZM192.02 181.617L190.081 192.168H193.959L192.02 181.617Z" fill="black"/>
<path d="M207.401 200.66H203.782V180.459H199.258V177.113H212.054V180.459H207.401V200.66Z" fill="black"/>
<path d="M216.578 195.513L215.673 200.66H212.054L216.578 177.113H221.619L226.401 200.66H222.653L221.619 195.513H216.578V195.513ZM219.034 181.617L217.095 192.168H220.973L219.034 181.617Z" fill="black"/>
<path d="M232.347 197.314H239.585V200.66H228.599V177.113H232.218V197.314H232.347Z" fill="black"/>
<path d="M254.579 193.199C254.579 195.901 254.191 197.445 253.286 198.732C252.252 200.276 250.443 201.048 248.116 201.048C245.79 201.048 244.109 200.276 242.946 198.732C242.041 197.445 241.653 195.773 241.653 193.199V184.578C241.653 181.876 242.041 180.332 242.946 179.046C243.98 177.502 245.79 176.729 248.116 176.729C250.443 176.729 252.123 177.502 253.286 179.046C254.191 180.332 254.579 182.005 254.579 184.578V193.199ZM245.402 193.071C245.402 195.001 245.531 195.515 245.919 196.287C246.307 197.059 247.211 197.574 248.245 197.574C249.279 197.574 250.184 197.059 250.572 196.287C250.96 195.515 251.089 195.001 251.089 193.071V184.578C251.089 182.648 250.96 182.134 250.572 181.362C250.184 180.59 249.279 180.075 248.245 180.075C247.211 180.075 246.307 180.59 245.919 181.362C245.531 182.005 245.402 182.648 245.402 184.578V193.071Z" fill="black"/>
<path d="M270.477 188.953V200.662H268.538L267.892 198.603C266.728 200.276 265.436 200.919 263.497 200.919C261.3 200.919 259.49 199.89 258.586 198.217C257.81 196.673 257.552 195.129 257.552 191.913V185.479C257.552 181.748 257.81 180.332 258.973 178.917C260.007 177.502 261.817 176.729 264.014 176.729C266.599 176.729 268.538 177.888 269.572 179.818C270.218 180.976 270.477 182.391 270.477 184.707H266.858C266.858 181.49 266.082 180.075 264.014 180.075C263.109 180.075 262.205 180.461 261.817 181.233C261.429 182.005 261.3 182.777 261.3 184.578V191.784C261.3 193.714 261.429 194.743 261.688 195.644C262.075 196.802 262.98 197.445 264.143 197.445C266.082 197.445 266.858 196.03 266.858 192.813V191.913H263.885V188.953H270.477Z" fill="black"/>
<path d="M167.88 17.8935V17.4385C167.88 14.5572 166.818 13.1923 164.998 13.1923C163.937 13.1923 163.178 13.6473 162.724 14.4055C162.269 15.1638 162.117 15.922 162.117 17.8935V26.0826C162.117 27.9024 162.269 28.9639 162.572 29.7222C162.875 30.6321 163.937 31.2387 164.998 31.2387C166.363 31.2387 167.273 30.4804 167.728 28.8123C167.88 28.2057 167.88 27.5991 167.88 25.7793H171.671V26.6892C171.671 31.9969 169.396 34.7266 164.998 34.7266C162.572 34.7266 160.6 33.8167 159.539 31.9969C158.629 30.4804 158.326 29.1156 158.326 25.476V18.6517C158.326 14.7088 158.629 13.344 159.691 11.8275C160.752 10.311 162.572 9.55273 164.847 9.55273C169.093 9.55273 171.519 12.2824 171.519 17.1352V17.8935H167.88Z" fill="black"/>
<path d="M178.495 29.1157L177.433 34.4235H173.794L178.495 10.0078H183.651L188.656 34.4235H184.713L183.651 29.1157H178.495ZM181.073 14.709L179.102 25.6278H183.044L181.073 14.709Z" fill="black"/>
<path d="M196.845 34.4235H193.053V13.4958H188.352V10.0078H201.546V13.4958H196.845V34.4235Z" fill="black"/>
<path d="M206.399 29.1157L205.337 34.4235H201.697L206.399 10.0078H211.555L216.559 34.4235H212.616L211.555 29.1157H206.399ZM208.977 14.709L207.005 25.6278H210.948L208.977 14.709Z" fill="black"/>
<path d="M222.625 30.9355H230.056V34.4235H218.834V10.0078H222.625V30.9355Z" fill="black"/>
<path d="M245.676 26.5366C245.676 29.2663 245.221 30.9344 244.311 32.2993C243.25 33.8158 241.43 34.574 239.003 34.574C236.577 34.574 234.757 33.8158 233.696 32.2993C232.634 30.9344 232.331 29.2663 232.331 26.5366V17.5892C232.331 14.8595 232.786 13.1914 233.696 11.8265C234.757 10.31 236.577 9.55176 239.003 9.55176C241.43 9.55176 243.25 10.31 244.311 11.8265C245.373 13.1914 245.676 14.8595 245.676 17.5892V26.5366ZM236.122 26.5366C236.122 28.508 236.274 29.1146 236.577 29.8729C237.032 30.6311 237.942 31.2377 239.003 31.2377C240.065 31.2377 240.975 30.7828 241.43 29.8729C241.885 29.1146 241.885 28.508 241.885 26.5366V17.7409C241.885 15.7694 241.885 15.1628 241.43 14.4046C240.975 13.6463 240.065 13.0397 239.003 13.0397C237.942 13.0397 237.032 13.4947 236.577 14.4046C236.274 15.1628 236.122 15.7694 236.122 17.7409V26.5366Z" fill="black"/>
<path d="M262.054 22.2904V34.4224H260.083L259.325 32.2993C258.111 34.1191 256.747 34.7257 254.775 34.7257C252.5 34.7257 250.681 33.6641 249.771 31.8443C249.012 30.3278 248.709 28.6597 248.709 25.3234V18.6508C248.709 14.7079 249.012 13.343 250.074 11.8265C251.136 10.31 252.955 9.55176 255.23 9.55176C257.96 9.55176 259.931 10.6133 260.993 12.7364C261.599 13.9496 261.903 15.4661 261.903 17.7409H258.111C258.111 14.4046 257.202 13.0397 255.23 13.0397C254.169 13.0397 253.41 13.4947 252.955 14.2529C252.5 15.0112 252.349 15.7694 252.349 17.7409V25.1717C252.349 27.1432 252.5 28.2047 252.804 29.1146C253.259 30.1762 254.169 30.9344 255.382 30.9344C257.353 30.9344 258.263 29.5696 258.263 26.0816V25.0201H255.078V21.8354H262.054V22.2904Z" fill="black"/>
<path d="M52.6256 21.0781H14.8647V23.9595H52.6256V21.0781Z" fill="black"/>
<path d="M70.0654 18.3509C69.1555 15.6212 67.4873 13.8014 65.2126 13.8014C64.7576 13.8014 64.4543 13.8014 63.9994 14.1047C63.5444 14.2563 63.2411 14.5596 62.9378 14.8629C62.6345 15.1662 62.4829 15.4695 62.3312 15.9245C62.1796 16.3794 62.1796 16.6827 62.1796 17.1377C62.1796 19.1091 63.9994 20.3223 66.1225 21.0806C69.6104 22.5971 72.0368 24.2652 72.0368 27.4499C72.0368 31.6961 68.0939 33.8192 64.3027 33.8192C62.4829 33.8192 60.5114 33.3642 58.9949 32.3027C58.54 30.4829 58.2367 28.6631 58.2367 26.8433L59.4499 26.54C60.2081 29.573 62.3312 32.3027 65.0609 32.3027C65.5159 32.3027 65.9708 32.3027 66.2741 32.151C66.7291 31.9994 67.0324 31.6961 67.3357 31.3928C67.639 31.0895 67.9423 30.7862 68.0939 30.3312C68.2456 29.8763 68.3972 29.573 68.3972 29.118C68.3972 27.1466 67.0324 25.9334 64.7576 24.8718C62.0279 23.6586 58.9949 21.9905 58.9949 18.5025C58.9949 15.3179 61.7246 12.4365 66.1225 12.4365C67.4873 12.4365 69.0038 12.7398 70.217 13.3464C70.672 15.0146 71.1269 16.5311 71.2786 18.3509H70.0654Z" fill="black"/>
<path d="M87.3535 33.0597V31.8465C90.0832 31.5432 90.3865 31.2399 90.3865 28.2069V20.4728C90.3865 16.6815 88.87 14.7101 85.837 14.7101C84.9271 14.7101 84.0172 15.0134 83.1073 15.3167C82.349 15.7716 81.5908 16.3782 80.9842 16.9848V28.0553C80.9842 31.0883 81.2875 31.3916 84.0172 31.6949V32.9081H74.1599V31.6949C76.8896 31.3916 77.3446 31.2399 77.3446 28.0553V6.066C77.3446 3.18465 77.1929 2.88135 74.1599 2.7297V1.66815C76.4347 1.2132 78.7094 0.75825 80.9842 0V15.62C82.6523 13.9518 85.0787 12.2837 87.6568 12.2837C91.448 12.2837 94.0261 14.7101 94.0261 20.1695V28.3586C94.0261 31.3916 94.3294 31.6949 97.0591 31.9982V33.2114L87.3535 33.0597Z" fill="black"/>
<path d="M109.949 12.2822C105.703 12.2822 99.7888 15.7702 99.7888 23.5043C99.7888 28.6604 103.58 33.8165 109.949 33.8165C114.499 33.8165 120.11 30.1769 120.11 22.7461C119.958 16.8317 115.712 12.2822 109.949 12.2822ZM110.404 32.1484C106.613 32.1484 104.035 27.7505 104.035 21.9878C104.035 16.6801 106.613 13.7987 109.343 13.7987C113.437 13.7987 115.712 18.1966 115.712 23.656C115.56 30.0253 113.286 32.1484 110.404 32.1484Z" fill="black"/>
<path d="M132.242 33.6667C138.308 32.6052 143.767 28.0557 143.767 21.0798C143.767 16.5303 140.734 12.2841 135.578 12.2841C134.82 12.2841 133.91 12.5874 133.303 13.0423L129.057 15.4687V11.8291C126.934 12.739 124.659 13.3456 122.385 13.8006V14.8621C125.266 15.1654 125.418 15.3171 125.418 18.3501V39.4294C125.418 42.4624 124.963 42.7657 122.081 43.069V44.2822H133V43.069C129.361 42.7657 129.057 42.4624 129.057 38.9745V32.9085C129.967 33.3634 131.18 33.6667 132.242 33.6667ZM129.057 16.9852C130.27 16.0753 132.242 15.0138 133.758 15.0138C137.095 15.0138 139.976 17.7435 139.976 22.8996C139.976 28.0557 137.398 31.392 133.455 31.392C131.787 31.392 130.27 30.7854 129.057 29.5722V16.9852Z" fill="black"/>
<path d="M51.774 359.163H43.9429V333.827H52.1195C54.5379 333.827 56.726 334.288 58.4535 335.324C60.1809 336.361 61.5629 337.743 62.4842 339.7C63.4055 341.543 63.8662 343.846 63.8662 346.495C63.8662 349.144 63.4055 351.447 62.4842 353.29C61.5629 355.248 60.1809 356.63 58.3383 357.666C56.4957 358.702 54.3076 359.163 51.774 359.163ZM47.0523 356.399H51.6588C53.7318 356.399 55.4592 355.939 56.8412 355.132C58.2232 354.326 59.2596 353.175 59.9506 351.678C60.6416 350.18 60.9871 348.453 60.9871 346.38C60.9871 344.307 60.6416 342.58 59.9506 341.082C59.2596 339.585 58.3383 338.434 56.9564 337.628C55.5744 336.821 53.9621 336.476 52.0043 336.476H47.0523V356.399Z" fill="black"/>
<path d="M73.54 333.827V359.163H70.4305V333.827H73.54Z" fill="black"/>
<path d="M81.0256 359.163V333.827H89.5477C91.5055 333.827 93.1178 334.173 94.3846 334.864C95.6514 335.555 96.5727 336.476 97.2637 337.628C97.9547 338.779 98.185 340.161 98.185 341.658C98.185 343.155 97.8395 344.422 97.2637 345.689C96.6879 346.841 95.7666 347.762 94.4998 348.453C93.233 349.144 91.6207 349.489 89.6629 349.489H82.7531V346.725H89.5477C90.9297 346.725 91.9662 346.495 92.7723 346.15C93.5785 345.804 94.1543 345.228 94.6149 344.422C95.0756 343.616 95.1908 342.81 95.1908 341.773C95.1908 340.737 94.9604 339.816 94.6149 339.125C94.2695 338.434 93.5785 337.743 92.7723 337.397C91.9662 337.052 90.8145 336.821 89.4326 336.821H84.0199V359.509H81.0256V359.163ZM93.0027 347.762L99.2215 359.163H95.6514L89.5477 347.762H93.0027Z" fill="black"/>
<path d="M104.749 359.163V333.827H120.066V336.591H107.859V345.113H119.26V347.877H107.859V356.399H120.296V359.163H104.749Z" fill="black"/>
<path d="M147.36 341.774H144.25C144.02 340.853 143.79 340.162 143.329 339.471C142.868 338.78 142.293 338.204 141.717 337.743C141.026 337.283 140.335 336.937 139.644 336.707C138.838 336.477 138.031 336.362 137.225 336.362C135.728 336.362 134.346 336.707 133.079 337.513C131.813 338.319 130.891 339.471 130.085 340.968C129.279 342.465 128.934 344.308 128.934 346.496C128.934 348.684 129.279 350.527 130.085 352.024C130.891 353.521 131.813 354.673 133.079 355.479C134.346 356.285 135.728 356.63 137.225 356.63C138.031 356.63 138.838 356.515 139.644 356.285C140.45 356.054 141.141 355.709 141.717 355.248C142.408 354.788 142.868 354.212 143.329 353.521C143.79 352.83 144.135 352.024 144.25 351.218H147.36C147.129 352.484 146.669 353.636 146.093 354.673C145.517 355.709 144.711 356.515 143.79 357.321C142.868 358.012 141.832 358.588 140.68 358.934C139.529 359.279 138.377 359.509 137.11 359.509C134.922 359.509 132.964 358.934 131.352 357.897C129.625 356.861 128.358 355.364 127.321 353.406C126.4 351.448 125.824 349.145 125.824 346.496C125.824 343.847 126.285 341.544 127.321 339.586C128.243 337.628 129.625 336.131 131.352 335.095C133.079 334.058 134.922 333.482 137.11 333.482C138.377 333.482 139.644 333.713 140.68 334.058C141.832 334.404 142.868 334.98 143.79 335.671C144.711 336.362 145.402 337.283 146.093 338.319C146.784 339.241 147.129 340.392 147.36 341.774Z" fill="black"/>
<path d="M152.427 336.479V333.715H171.429V336.479H163.483V359.166H160.373V336.479H152.427Z" fill="black"/>
<path d="M197.917 346.496C197.917 349.145 197.456 351.448 196.42 353.406C195.498 355.364 194.116 356.861 192.389 357.897C190.661 358.934 188.819 359.509 186.631 359.509C184.443 359.509 182.485 358.934 180.872 357.897C179.145 356.861 177.878 355.364 176.842 353.406C175.92 351.448 175.345 349.145 175.345 346.496C175.345 343.847 175.805 341.544 176.842 339.586C177.763 337.628 179.145 336.131 180.872 335.095C182.6 334.058 184.443 333.482 186.631 333.482C188.819 333.482 190.661 334.058 192.389 335.095C194.116 336.131 195.383 337.628 196.42 339.586C197.456 341.429 197.917 343.847 197.917 346.496ZM194.922 346.496C194.922 344.308 194.577 342.465 193.771 340.968C192.965 339.471 192.043 338.319 190.777 337.513C189.51 336.707 188.128 336.362 186.631 336.362C185.134 336.362 183.752 336.707 182.485 337.513C181.218 338.319 180.297 339.471 179.49 340.968C178.684 342.465 178.339 344.308 178.339 346.496C178.339 348.684 178.684 350.527 179.49 352.024C180.297 353.521 181.218 354.673 182.485 355.479C183.752 356.285 185.134 356.63 186.631 356.63C188.128 356.63 189.51 356.285 190.777 355.479C192.043 354.673 192.965 353.521 193.771 352.024C194.577 350.527 194.922 348.684 194.922 346.496Z" fill="black"/>
<path d="M204.481 359.163V333.827H213.003C214.961 333.827 216.573 334.173 217.84 334.864C219.107 335.555 220.028 336.476 220.719 337.628C221.41 338.779 221.64 340.161 221.64 341.658C221.64 343.155 221.295 344.422 220.719 345.689C220.143 346.841 219.222 347.762 217.955 348.453C216.688 349.144 215.076 349.489 213.118 349.489H206.209V346.725H213.003C214.385 346.725 215.422 346.495 216.228 346.15C217.034 345.804 217.61 345.228 218.07 344.422C218.531 343.616 218.646 342.81 218.646 341.773C218.646 340.737 218.416 339.816 218.07 339.125C217.725 338.434 217.034 337.743 216.228 337.397C215.422 337.052 214.27 336.821 212.888 336.821H207.475V359.509H204.481V359.163ZM216.458 347.762L222.677 359.163H219.107L213.003 347.762H216.458Z" fill="black"/>
<path d="M226.017 333.827H229.587L236.612 345.689H236.957L243.982 333.827H247.552L238.339 348.798V359.278H235.115V348.798L226.017 333.827Z" fill="black"/>
<path d="M49.0098 324.041H46.7066V311.488H43.9426V309.415H51.8889V311.488H49.0098V324.041Z" fill="black"/>
<path d="M55.6894 317.594V324.043H53.3861V309.417H55.6894V315.521H58.914V309.417H61.2172V324.158H58.914V317.594H55.6894Z" fill="black"/>
<path d="M71.1213 319.434C71.1213 321.046 70.8909 322.083 70.3151 322.889C69.6241 323.81 68.5877 324.271 67.0905 324.271C65.5934 324.271 64.5569 323.81 63.866 322.889C63.2901 322.083 63.0598 321.046 63.0598 319.434V314.021C63.0598 312.409 63.2901 311.373 63.866 310.567C64.6721 309.645 65.7086 309.185 67.0905 309.185C68.4725 309.185 69.6241 309.645 70.3151 310.567C70.8909 311.373 71.1213 312.409 71.1213 314.021V319.434ZM65.3631 319.434C65.3631 320.586 65.4782 321.046 65.5934 321.392C65.8237 321.853 66.3996 322.198 67.0905 322.198C67.7815 322.198 68.2422 321.853 68.5877 321.392C68.818 320.931 68.818 320.586 68.818 319.434V314.137C68.818 312.985 68.818 312.639 68.5877 312.179C68.3573 311.718 67.7815 311.373 67.0905 311.373C66.3996 311.373 65.9389 311.718 65.5934 312.179C65.3631 312.639 65.3631 312.985 65.3631 314.137V319.434Z" fill="black"/>
<path d="M80.9102 309.417V319.321C80.9102 321.164 80.6799 322.085 80.104 323.006C79.4131 323.812 78.3766 324.273 77.1098 324.273C75.7278 324.273 74.6913 323.812 74.0004 323.006C73.4245 322.2 73.1942 321.279 73.1942 319.321V309.417H75.4975V319.782C75.4975 321.509 75.9581 322.2 77.1098 322.2C78.2614 322.2 78.7221 321.509 78.7221 319.782V309.417H80.9102V309.417Z" fill="black"/>
<path d="M90.8144 316.785V324.041H89.6627L89.2021 322.774C88.3959 323.81 87.5898 324.271 86.4382 324.271C85.0562 324.271 84.0197 323.58 83.4439 322.544C82.9833 321.622 82.7529 320.701 82.7529 318.628V314.597C82.7529 312.294 82.9833 311.373 83.5591 310.567C84.3652 309.645 85.5169 309.185 86.7837 309.185C88.3959 309.185 89.5476 309.876 90.2386 311.142C90.5841 311.833 90.8144 312.755 90.8144 314.137H88.5111C88.5111 312.064 88.0505 311.258 86.7837 311.258C86.2078 311.258 85.632 311.488 85.4017 312.064C85.1714 312.524 85.0562 312.985 85.0562 314.137V318.628C85.0562 319.895 85.1714 320.471 85.2865 321.046C85.5169 321.737 86.0927 322.198 86.7837 322.198C87.9353 322.198 88.5111 321.392 88.5111 319.319V318.628H86.6685V316.785H90.8144Z" fill="black"/>
<path d="M95.0754 317.594V324.043H92.7721V309.417H95.0754V315.521H98.2999V309.417H100.603V324.158H98.2999V317.594H95.0754Z" fill="black"/>
<path d="M107.168 324.043H104.864V311.49H101.985V309.417H109.932V311.49H107.052V324.043H107.168Z" fill="black"/>
<path d="M119.951 314.137V313.906C119.951 312.179 119.375 311.373 118.223 311.373C117.647 311.373 117.072 311.603 116.841 312.064C116.611 312.524 116.496 312.985 116.496 314.137V318.973C116.496 320.125 116.611 320.701 116.726 321.162C116.956 321.737 117.532 322.083 118.223 322.083C119.029 322.083 119.605 321.622 119.836 320.586C119.951 320.355 119.951 320.01 119.951 318.973H122.254V319.434C122.254 322.659 120.872 324.271 118.223 324.271C116.726 324.271 115.574 323.695 114.883 322.659C114.308 321.737 114.193 320.931 114.193 318.743V314.597C114.193 312.294 114.423 311.488 114.999 310.567C115.69 309.645 116.841 309.185 118.223 309.185C120.757 309.185 122.254 310.912 122.254 313.791V314.252H119.951V314.137Z" fill="black"/>
<path d="M126.285 320.93L125.709 324.04H123.521L126.285 309.299H129.394L132.388 324.04H130.085L129.509 320.815H126.285V320.93ZM127.782 312.178L126.63 318.742H129.049L127.782 312.178Z" fill="black"/>
<path d="M137.341 324.043H135.037V311.49H132.158V309.417H140.104V311.49H137.225V324.043H137.341Z" fill="black"/>
<path d="M143.099 320.933L142.523 324.158H140.335L143.099 309.417H146.208L149.202 324.158H146.899L146.323 320.933H143.099ZM144.596 312.181L143.444 318.745H145.863L144.596 312.181Z" fill="black"/>
<path d="M152.888 321.97H157.379V324.043H150.584V309.417H152.888V321.97Z" fill="black"/>
<path d="M166.707 319.434C166.707 321.046 166.477 322.083 165.901 322.889C165.21 323.81 164.174 324.271 162.676 324.271C161.179 324.271 160.143 323.81 159.452 322.889C158.876 322.083 158.646 321.046 158.646 319.434V314.021C158.646 312.409 158.876 311.373 159.452 310.567C160.143 309.645 161.179 309.185 162.676 309.185C164.174 309.185 165.21 309.645 165.901 310.567C166.477 311.373 166.707 312.409 166.707 314.021V319.434ZM160.949 319.434C160.949 320.586 161.064 321.046 161.179 321.392C161.41 321.853 161.985 322.198 162.676 322.198C163.367 322.198 163.828 321.853 164.174 321.392C164.404 320.931 164.404 320.586 164.404 319.434V314.137C164.404 312.985 164.404 312.639 164.174 312.179C163.943 311.718 163.367 311.373 162.676 311.373C161.985 311.373 161.525 311.718 161.179 312.179C160.949 312.639 160.949 312.985 160.949 314.137V319.434Z" fill="black"/>
<path d="M176.496 316.785V324.041H175.344L174.884 322.774C174.078 323.81 173.271 324.271 172.12 324.271C170.738 324.271 169.701 323.58 169.126 322.544C168.665 321.622 168.435 320.701 168.435 318.628V314.597C168.435 312.294 168.665 311.373 169.241 310.567C169.932 309.645 170.968 309.185 172.35 309.185C173.962 309.185 175.114 309.876 175.805 311.142C176.151 311.833 176.381 312.755 176.381 314.137H174.078C174.078 312.064 173.617 311.258 172.35 311.258C171.774 311.258 171.199 311.488 170.968 312.064C170.738 312.524 170.623 312.985 170.623 314.137V318.628C170.623 319.895 170.738 320.471 170.853 321.046C171.083 321.737 171.659 322.198 172.35 322.198C173.502 322.198 174.078 321.392 174.078 319.319V318.628H172.235V316.785H176.496Z" fill="black"/>
<path d="M188.914 259.378C186.586 252.736 184.063 245.508 181.734 239.062L180.57 239.452L172.807 259.378C171.449 262.699 171.061 262.894 168.538 263.285V264.261H176.689V263.285C173.778 263.089 173.584 262.699 174.36 260.354C174.942 258.792 175.33 257.229 176.106 255.471H184.063C184.839 257.815 185.615 259.768 186.198 261.331C186.78 262.894 186.392 263.089 184.063 263.48V264.457H193.184V263.48C190.661 262.894 190.079 262.503 188.914 259.378ZM176.494 253.517C177.659 250.392 178.823 247.071 179.988 243.945L183.287 253.517H176.494ZM269.838 247.657V248.634C271.973 249.024 272.167 249.415 271.779 250.782C271.002 253.127 269.45 257.62 268.285 260.159L264.986 250.782C264.404 249.415 264.598 249.024 266.345 248.634V247.657H258.776V248.634C260.911 249.024 261.299 249.415 262.076 251.564C263.24 254.299 264.986 258.792 266.345 263.089C266.539 263.675 266.539 264.261 266.345 264.847C266.151 265.433 265.957 266.215 265.18 267.387C264.404 269.145 263.628 269.926 262.464 270.708C261.881 271.098 261.493 271.489 261.493 272.075C261.493 273.052 262.658 273.833 263.628 273.833C264.21 273.833 264.598 273.638 264.792 272.857C265.375 270.903 266.151 268.754 268.674 262.699C271.196 256.447 272.361 253.322 273.331 251.368C274.301 249.22 274.689 248.829 276.63 248.634V247.657H269.838ZM218.024 247.266C216.083 247.266 213.948 248.243 212.59 250.001C211.037 251.759 210.067 254.103 210.067 256.643C210.067 260.94 212.784 264.652 217.441 264.652C218.606 264.652 221.129 264.066 223.651 260.94L223.069 260.159C221.711 261.526 220.352 262.112 218.8 262.112C216.083 262.112 213.172 259.964 213.172 254.885C217.635 254.689 222.293 254.299 222.875 254.299C223.457 254.103 223.651 253.908 223.651 253.127C223.651 250.001 221.129 247.266 218.024 247.266ZM219.576 253.127C217.441 253.127 215.307 253.322 213.172 253.322C213.754 250.196 215.307 248.634 217.053 248.634C219.188 248.634 220.352 250.392 220.352 252.345C220.352 252.931 220.158 253.127 219.576 253.127ZM209.873 247.852L209.679 247.461C208.321 247.852 206.38 248.047 204.633 248.243C203.469 247.657 202.305 247.266 200.946 247.266C198.035 247.266 194.154 249.22 194.154 253.517C194.154 256.057 195.707 257.815 197.453 258.596C196.871 259.378 195.707 260.354 194.154 260.94C194.154 261.331 194.154 261.917 194.542 262.503C195.124 263.285 195.901 264.261 197.259 264.652C196.289 265.238 194.93 266.605 194.154 267.387C193.572 267.973 193.184 268.754 193.184 269.536C193.184 271.685 195.512 274.224 199.588 274.224C204.633 274.224 208.903 270.512 208.903 266.801C208.903 263.089 205.798 262.308 203.469 262.308C202.305 262.308 200.946 262.308 199.588 262.308C197.841 262.308 197.259 261.526 197.259 260.745C197.259 260.159 197.841 259.573 198.423 259.182C199.006 259.182 199.782 259.378 200.364 259.378C203.469 259.378 206.962 257.424 206.962 253.322C206.962 251.954 206.574 250.782 205.798 250.001L207.932 250.196C208.709 249.61 209.485 248.634 209.873 247.852ZM198.035 265.433C198.617 264.847 199.588 264.652 201.334 264.652C202.887 264.652 204.051 264.847 205.022 265.238C206.186 265.629 206.768 266.605 206.768 267.973C206.768 270.317 205.021 272.075 201.334 272.075C198.617 272.075 196.289 270.512 196.289 268.559C196.289 267.387 197.065 266.215 198.035 265.433ZM200.946 258.01C198.812 258.01 197.453 255.861 197.453 252.931C197.453 250.001 199.006 248.438 200.558 248.438C202.693 248.438 204.051 250.587 204.051 253.517C204.051 256.447 202.693 258.01 200.946 258.01ZM240.923 260.354V252.931C240.923 249.22 238.982 247.266 236.071 247.266C234.907 247.266 233.937 247.657 232.966 248.438C231.996 249.024 231.22 249.61 230.444 250.196V247.071C228.697 247.852 226.95 248.243 225.204 248.634V249.415C227.144 249.806 227.533 250.001 227.533 252.345V260.159C227.533 262.699 227.339 262.894 224.816 263.089V264.066H232.966V263.089C230.832 262.894 230.444 262.699 230.444 260.159V251.368C231.608 250.392 232.966 249.415 234.519 249.415C237.042 249.415 238.012 251.173 238.012 253.713V259.964C238.012 262.503 237.818 262.894 235.489 263.089V264.066H243.252V263.089C241.117 262.894 240.923 262.894 240.923 260.354ZM253.149 262.112C251.014 262.112 247.521 260.354 247.521 255.08C247.521 251.173 249.656 249.024 252.178 249.024C253.537 249.024 254.895 249.61 255.866 250.587C256.254 250.978 256.448 250.978 256.642 250.978C257.03 250.978 257.806 250.196 257.806 249.415C257.806 249.024 257.612 248.634 257.224 248.243C256.642 247.657 255.477 247.266 253.925 247.266C252.372 247.266 250.238 247.852 248.297 249.415C245.774 251.368 244.61 253.908 244.61 256.838C244.61 260.94 247.327 264.652 252.178 264.652C254.313 264.652 256.836 262.894 258.582 260.745L258 259.964C256.06 261.722 254.895 262.112 253.149 262.112Z" fill="black"/>
<g clip-path="url(#clip0)">
<path d="M20.4312 263.556H17.9597V249.46H14.8647V247.119H23.5497V249.46H20.4312V263.556Z" fill="black"/>
<path d="M27.6322 256.311V263.556H25.1606V247.119H27.6322V253.97H31.1602V247.119H33.63V263.556H31.1602V256.311H27.6322Z" fill="black"/>
<path d="M44.5021 258.332C44.5021 260.18 44.2394 261.289 43.5907 262.225C42.8713 263.26 41.6717 263.801 40.1351 263.801C38.5986 263.801 37.4008 263.26 36.6796 262.225C36.0327 261.289 35.7682 260.18 35.7682 258.332V252.343C35.7682 250.495 36.0327 249.385 36.6796 248.449C37.4008 247.415 38.6004 246.873 40.1351 246.873C41.6699 246.873 42.8713 247.415 43.5907 248.449C44.2394 249.385 44.5021 250.495 44.5021 252.343V258.332V258.332ZM38.2398 258.283C38.2398 259.59 38.3123 260.033 38.5514 260.526C38.8396 261.067 39.4393 261.414 40.1351 261.414C40.831 261.414 41.4307 261.069 41.7188 260.526C41.9816 260.008 42.0305 259.614 42.0305 258.283V252.393C42.0305 251.062 41.9834 250.668 41.7188 250.15C41.4307 249.609 40.831 249.263 40.1351 249.263C39.4393 249.263 38.8396 249.609 38.5514 250.15C38.3123 250.644 38.2398 251.086 38.2398 252.393V258.283Z" fill="black"/>
<path d="M55.135 247.119V258.258C55.135 260.327 54.8958 261.388 54.2236 262.324C53.5277 263.284 52.3518 263.804 50.9112 263.804C49.4489 263.804 48.2729 263.286 47.5771 262.324C46.9066 261.388 46.6656 260.329 46.6656 258.258V247.119H49.1372V258.676C49.1372 260.623 49.641 261.412 50.913 261.412C52.1615 261.412 52.6652 260.623 52.6652 258.676V247.119H55.135V247.119Z" fill="black"/>
<path d="M66.007 255.399V263.556H64.735L64.2801 262.152C63.4647 263.336 62.5768 263.803 61.2813 263.803C59.819 263.803 58.594 263.088 57.9707 261.881C57.4434 260.822 57.2749 259.761 57.2749 257.494V252.961C57.2749 250.348 57.4688 249.412 58.2099 248.401C58.9057 247.415 60.1288 246.873 61.5929 246.873C63.3451 246.873 64.6407 247.638 65.3601 249.065C65.7678 249.879 65.9363 250.889 65.9363 252.466H63.4647C63.4647 250.199 62.9121 249.263 61.5694 249.263C60.9225 249.263 60.3698 249.559 60.1053 250.1C59.8172 250.642 59.7447 251.135 59.7447 252.466V257.494C59.7447 258.849 59.8172 259.564 60.0092 260.18C60.272 260.943 60.8971 261.412 61.689 261.412C62.9845 261.412 63.5354 260.451 63.5354 258.159V257.494H61.4951V255.399H66.007Z" fill="black"/>
<path d="M70.5697 256.311V263.556H68.0981V247.119H70.5697V253.97H74.0977V247.119H76.5675V263.556H74.0977V256.311H70.5697Z" fill="black"/>
<path d="M83.7467 263.556H81.2751V249.46H78.1802V247.119H86.8651V249.46H83.7467V263.556V263.556Z" fill="black"/>
<path d="M97.6901 252.466V252.121C97.6901 250.225 97.0414 249.263 95.8183 249.263C95.1478 249.263 94.6187 249.559 94.3542 250.076C94.0425 250.618 93.97 251.111 93.97 252.441V257.913C93.97 259.169 94.0425 259.809 94.2346 260.353C94.4737 260.993 95.0971 261.412 95.8183 261.412C96.7297 261.412 97.3295 260.87 97.594 259.785C97.6901 259.366 97.7136 258.996 97.739 257.788H100.234V258.356C100.234 261.929 98.7229 263.803 95.8436 263.803C94.2364 263.803 92.9643 263.163 92.2685 261.979C91.6688 260.969 91.5002 260.008 91.5002 257.569V252.961C91.5002 250.348 91.6941 249.436 92.4352 248.401C93.131 247.415 94.3306 246.873 95.8183 246.873C98.5526 246.873 100.162 248.745 100.162 251.974V252.466H97.6901Z" fill="black"/>
<path d="M104.628 259.983L103.981 263.556H101.557L104.628 247.119H108.011L111.251 263.556H108.709L108.037 259.983H104.628V259.983ZM106.308 250.274L105.012 257.642H107.629L106.308 250.274Z" fill="black"/>
<path d="M116.7 263.556H114.228V249.46H111.133V247.119H119.818V249.46H116.7V263.556Z" fill="black"/>
<path d="M122.917 259.983L122.27 263.556H119.846L122.917 247.119H126.3L129.54 263.556H126.998L126.325 259.983H122.917V259.983ZM124.599 250.274L123.303 257.642H125.919L124.599 250.274Z" fill="black"/>
<path d="M133.597 261.215H138.517V263.556H131.125V247.119H133.597V261.215V261.215Z" fill="black"/>
<path d="M148.693 258.332C148.693 260.18 148.43 261.289 147.781 262.225C147.062 263.26 145.862 263.801 144.326 263.801C142.791 263.801 141.591 263.26 140.87 262.225C140.223 261.289 139.959 260.18 139.959 258.332V252.343C139.959 250.495 140.222 249.385 140.87 248.449C141.591 247.415 142.791 246.873 144.326 246.873C145.861 246.873 147.06 247.415 147.781 248.449C148.43 249.385 148.693 250.495 148.693 252.343V258.332ZM142.43 258.283C142.43 259.59 142.503 260.033 142.742 260.526C143.03 261.067 143.63 261.414 144.326 261.414C145.022 261.414 145.621 261.069 145.91 260.526C146.174 260.008 146.221 259.614 146.221 258.283V252.393C146.221 251.062 146.174 250.668 145.91 250.15C145.621 249.609 145.022 249.263 144.326 249.263C143.63 249.263 143.03 249.609 142.742 250.15C142.503 250.644 142.43 251.086 142.43 252.393V258.283Z" fill="black"/>
<path d="M159.422 255.399V263.556H158.15L157.695 262.152C156.88 263.336 155.992 263.803 154.696 263.803C153.234 263.803 152.009 263.088 151.386 261.881C150.858 260.822 150.69 259.761 150.69 257.494V252.961C150.69 250.348 150.884 249.412 151.625 248.401C152.321 247.415 153.544 246.873 155.008 246.873C156.76 246.873 158.056 247.638 158.775 249.065C159.183 249.879 159.351 250.889 159.351 252.466H156.88C156.88 250.199 156.327 249.263 154.984 249.263C154.337 249.263 153.785 249.559 153.52 250.1C153.232 250.642 153.159 251.135 153.159 252.466V257.494C153.159 258.849 153.232 259.564 153.424 260.18C153.687 260.943 154.312 261.412 155.104 261.412C156.399 261.412 156.95 260.451 156.95 258.159V257.494H154.91V255.399H159.422Z" fill="black"/>
</g>
<defs>
<clipPath id="clip0">
<rect width="144.557" height="16.9301" fill="white" transform="translate(14.8647 246.873)"/>
</clipPath>
</defs>
</svg>
