<svg width="643" height="298" fill="none" xmlns="http://www.w3.org/2000/svg"><path d="M51.72 176.688c4.872.886 8.859 2.953 8.859 8.121 0 3.397-1.772 6.054-4.873 7.679-2.658 1.476-6.054 2.067-10.04 2.067H34v-1.624c4.43-.296 4.725-.591 4.725-4.725v-20.23c0-4.134-.148-4.429-4.282-4.725v-1.624H47.88c3.84 0 6.054.591 7.678 1.772 1.772 1.181 2.806 3.396 2.806 5.759 0 4.725-3.987 6.792-6.645 7.53zm-6.055-.59c5.464 0 7.974-2.215 7.974-6.35 0-3.396-1.92-6.349-6.793-6.349-1.329 0-2.51.295-2.953.591-.443.295-.59.885-.59 2.51v9.745h2.362v-.147zm-2.51 12.108c0 3.543.886 4.577 4.282 4.577 4.135 0 7.974-2.067 7.974-7.383 0-5.168-3.692-7.383-9.894-7.383h-2.362v10.189zM102.514 177.72c0 11.075-7.826 17.719-17.276 17.719-9.155 0-16.686-7.087-16.686-16.98 0-9.155 6.497-17.572 17.276-17.572 8.712-.147 16.686 6.497 16.686 16.833zm-28.646-.59c0 9.45 5.316 16.39 12.551 16.39 5.611 0 10.78-4.578 10.78-14.323 0-10.779-5.76-16.243-12.257-16.243-5.758-.147-11.074 4.578-11.074 14.176zM144.597 177.72c0 11.075-7.826 17.719-17.276 17.719-9.155 0-16.686-7.087-16.686-16.98 0-9.155 6.497-17.572 17.276-17.572 8.712-.147 16.686 6.497 16.686 16.833zm-28.646-.59c0 9.45 5.316 16.39 12.551 16.39 5.611 0 10.779-4.578 10.779-14.323 0-10.779-5.759-16.243-12.256-16.243-5.758-.147-11.074 4.578-11.074 14.176zM175.605 194.702c-3.839-4.282-7.826-9.155-12.551-14.766-1.329-1.477-2.067-1.624-2.953-1.477v9.598c0 4.43.443 4.725 4.725 5.021v1.624h-13.584v-1.624c3.986-.296 4.429-.591 4.429-5.021v-19.786c0-4.578-.443-4.725-4.577-5.168v-1.624h13.585v1.771c-3.987.296-4.578.591-4.578 5.169v8.711c1.181-.295 2.215-1.033 3.692-2.362 2.805-2.658 6.054-5.907 8.269-8.86 1.329-1.624 1.329-2.215-.886-2.51l-1.034-.148v-1.624h12.699v1.624c-3.987.443-5.316.886-8.417 3.692-1.919 1.772-5.463 5.463-8.859 8.712 3.839 4.725 9.302 11.074 11.96 13.88 2.658 2.805 3.839 3.248 6.202 3.396v1.624h-8.122v.148zM208.09 169.452c-.886-3.101-2.067-6.792-6.497-6.792-3.987 0-5.611 2.805-5.611 5.463 0 3.692 2.51 5.464 6.497 7.383 3.987 1.92 8.86 4.43 8.86 10.189 0 5.463-4.578 9.745-11.37 9.745-2.215 0-3.839-.295-5.168-.886-1.182-.295-1.92-.738-2.51-1.033-.443-1.182-1.034-5.316-1.477-7.974l1.772-.443c.738 3.101 2.953 8.269 8.269 8.269 3.839 0 6.054-2.363 6.054-5.906 0-3.84-2.806-5.611-6.645-7.531-3.396-1.772-8.416-4.282-8.416-10.041 0-5.02 3.986-9.155 10.631-9.155 2.215 0 4.43.443 6.497 1.182.148 1.771.443 3.839.886 7.235l-1.772.295zM40.792 135.638H37.84V119.1h-3.691v-2.805H44.63v2.805h-3.839v16.538zM49.504 127.074v8.564h-2.953v-19.343h2.953v8.121h4.282v-8.121h2.953v19.343h-2.953v-8.564h-4.282zM70.029 129.437c0 2.215-.295 3.544-1.034 4.577-.886 1.182-2.362 1.92-4.134 1.92-1.772 0-3.249-.591-4.135-1.92-.738-1.033-1.033-2.362-1.033-4.577v-6.94c0-2.215.295-3.544 1.034-4.577.59-1.329 2.067-1.92 3.986-1.92 1.92 0 3.249.591 4.135 1.92.738 1.033 1.033 2.362 1.033 4.577v6.94h.148zm-7.678 0c0 1.477.147 2.067.443 2.658.295.591 1.033 1.033 1.92 1.033.885 0 1.624-.442 1.919-1.033.295-.591.443-1.034.443-2.658v-6.94c0-1.624 0-2.067-.443-2.658-.295-.59-1.034-1.033-1.92-1.033-.886 0-1.624.443-1.92 1.033-.295.591-.442 1.034-.442 2.658v6.94zM82.875 116.295v13.142c0 2.51-.295 3.691-1.034 4.725-.885 1.181-2.214 1.772-3.986 1.772-1.772 0-3.249-.591-3.987-1.772-.739-1.034-1.034-2.363-1.034-4.725v-13.142h2.953v13.585c0 2.362.591 3.248 2.215 3.248 1.477 0 2.068-.886 2.068-3.248v-13.585h2.805zM96.017 126.041v9.598H94.54l-.59-1.625c-1.034 1.329-2.068 1.92-3.692 1.92-1.772 0-3.248-.886-3.986-2.215-.591-1.181-.887-2.51-.887-5.168v-5.316c0-3.101.296-4.134 1.182-5.315.886-1.329 2.362-1.92 4.134-1.92 2.068 0 3.692.886 4.578 2.51.443.886.738 2.215.738 3.987h-2.953c0-2.658-.738-3.839-2.363-3.839-.738 0-1.476.295-1.772 1.033-.295.591-.443 1.182-.443 2.806v5.906c0 1.625.148 2.511.296 3.101.295.886 1.033 1.477 2.067 1.477 1.624 0 2.215-1.181 2.215-3.839v-.591h-2.51v-2.51h5.463zM101.48 127.074v8.564h-2.953v-19.343h2.953v8.121h4.282v-8.121h2.954v19.343h-2.954v-8.564h-4.282zM117.428 135.638h-2.954V119.1h-3.691v-2.805h10.484v2.805h-3.839v16.538zM134.261 122.645v-.443c0-2.215-.739-3.396-2.215-3.396-.739 0-1.477.295-1.772.885-.443.591-.443 1.182-.443 2.806v6.497c0 1.477.148 2.215.295 2.806.296.738 1.034 1.181 1.92 1.181 1.033 0 1.772-.591 2.215-1.92.147-.443.147-.886.147-2.362h2.953v.738c0 4.134-1.771 6.349-5.315 6.349-1.92 0-3.544-.738-4.282-2.215-.739-1.181-.886-2.362-.886-5.168v-5.168c0-3.101.295-4.134 1.181-5.315.738-1.329 2.215-1.92 3.987-1.92 3.248 0 5.315 2.215 5.315 6.054v.591h-3.1zM142.677 131.504l-.738 4.134h-2.953l3.691-19.343h4.135l3.839 19.343h-2.953l-.886-4.134h-4.135zm2.068-11.518l-1.625 8.712h3.101l-1.476-8.712zM157.296 135.638h-2.954V119.1h-3.691v-2.805h10.484v2.805h-3.839v16.538zM164.826 131.504l-.738 4.134h-2.953l3.691-19.343h4.135l3.839 19.343h-3.101l-.886-4.134h-3.987zm2.067-11.518l-1.624 8.712h3.101l-1.477-8.712zM177.672 132.833h5.907v2.805h-9.007v-19.343h2.953v16.538h.147zM195.982 129.437c0 2.215-.295 3.544-1.033 4.577-.886 1.182-2.363 1.92-4.135 1.92-1.772 0-3.248-.591-4.134-1.92-.739-1.033-1.034-2.362-1.034-4.577v-6.94c0-2.215.295-3.544 1.034-4.577.886-1.182 2.362-1.92 4.134-1.92 1.772 0 3.249.591 4.135 1.92.738 1.033 1.033 2.362 1.033 4.577v6.94zm-7.53 0c0 1.477.147 2.067.443 2.658.295.591 1.033 1.033 1.919 1.033.886 0 1.624-.442 1.92-1.033.295-.591.443-1.034.443-2.658v-6.94c0-1.624 0-2.067-.443-2.658-.296-.59-1.034-1.033-1.92-1.033-.886 0-1.624.443-1.919 1.033-.296.591-.443 1.034-.443 2.658v6.94zM208.976 126.042v9.597H207.5l-.591-1.624c-1.034 1.329-2.067 1.92-3.692 1.92-1.771 0-3.248-.886-3.986-2.215-.591-1.181-.886-2.51-.886-5.168v-5.316c0-3.101.295-4.134 1.181-5.316.886-1.181 2.363-1.772 4.134-1.772 2.068 0 3.692.886 4.578 2.511.443.886.738 2.215.738 3.986h-2.953c0-2.657-.738-3.839-2.363-3.839-.738 0-1.476.296-1.771 1.034-.296.591-.443 1.181-.443 2.805v5.907c0 1.624.147 2.51.295 3.101.295.886 1.034 1.476 2.067 1.476 1.624 0 2.215-1.181 2.215-3.839v-.738h-2.51v-2.51h5.463z" fill="#000"/><path d="M34.148 147.892h174.828" stroke="#000" stroke-width="1.018" stroke-miterlimit="10"/><path fill-rule="evenodd" clip-rule="evenodd" d="M572.407 52.82l-9.981-13.666 9.827-9.98h-7.523l-9.059 9.52v-21.19h-5.528V52.82h5.528v-6.602l2.917-3.07 6.909 9.672h6.91zm-159.529 0L395.835 26.72V52.82H390V18.274h7.37l15.661 24.413V18.274h5.835V52.82h-5.988zm33.471-6.757c-1.228 4.145-5.067 7.523-10.748 7.523-6.448 0-12.129-4.606-12.129-12.743 0-7.524 5.527-12.437 11.515-12.437 7.37 0 11.516 4.76 11.516 12.283 0 .654-.078 1.23-.123 1.565-.018.137-.031.233-.031.278h-17.196c.153 3.53 2.917 6.141 6.448 6.141 3.378 0 5.221-1.842 5.988-4.145l4.76 1.535zm-5.374-7.677c-.153-2.764-1.996-5.22-5.834-5.22-3.532 0-5.528 2.763-5.835 5.22h11.669zm21.957-9.211h-4.914v-7.217h-5.066v3.532c0 2.15-1.229 3.685-3.685 3.685h-1.229v4.913h4.453v11.976c0 4.453 2.61 7.063 7.063 7.063 2.149 0 3.224-.307 3.531-.46V48.06c-.119 0-.33.023-.589.051-.409.045-.937.103-1.407.103-2.149 0-3.071-.768-3.071-2.917V34.242h4.914v-5.067zm24.106 0l5.528 16.429 4.76-16.43h5.681l-7.524 23.646h-5.681l-5.834-17.043-5.682 17.043h-5.834l-7.677-23.645h5.988l4.76 16.429 5.681-16.43h5.834zm29.019 24.412c7.063 0 12.284-5.22 12.284-12.59s-5.221-12.591-12.284-12.591c-7.062 0-12.283 5.374-12.283 12.59s5.221 12.59 12.283 12.59zm0-19.96c3.532 0 6.603 2.456 6.603 7.37 0 4.912-3.225 7.523-6.603 7.523-3.377 0-6.602-2.61-6.602-7.524 0-4.913 3.071-7.37 6.602-7.37zm30.401 1.073c-.614-.153-1.228-.153-1.842-.153-4.453 0-6.449 2.456-6.449 6.909v11.362h-5.681V29.173h5.527v3.838c1.075-2.61 3.685-4.145 6.91-4.145.36 0 .719.052 1.017.096.211.03.391.057.518.057V34.7zM446.657 9.52c0 1.535-.154 2.456-.768 3.224-.614.921-1.689 1.228-2.917 1.228-1.228 0-2.303-.46-2.917-1.228-.614-.768-.768-1.689-.768-3.224V4.453c0-1.536.154-2.457.768-3.225C440.669.461 441.59 0 442.972 0c1.228 0 2.303.46 2.917 1.228.614.768.768 1.69.768 3.225V9.52zm-5.374-.154c0 1.075 0 1.382.307 1.843.307.46.768.767 1.382.767.614 0 1.075-.307 1.382-.768l.051-.15h.001c.134-.389.255-.738.255-1.692v-4.76c0-1.075 0-1.382-.307-1.842-.307-.46-.768-.768-1.382-.768-.614 0-1.075.307-1.382.768-.153.307-.307.767-.307 1.842v4.76zm-17.197 4.454h2.15V2.15h2.61V.156h-7.37V2.15h2.61V13.82zm8.292 0V7.832h2.917v5.988h2.15V.155h-2.15v5.68h-2.917V.156h-2.15V13.82h2.15zm23.184-4.453V.155h-1.842v9.52c0 1.688-.461 2.302-1.536 2.302-1.074 0-1.535-.768-1.535-2.303V.154h-2.15v9.213c0 1.689.154 2.61.768 3.378.461.768 1.536 1.228 2.764 1.228 1.228 0 2.149-.46 2.764-1.228.614-.768.767-1.689.767-3.378zm9.212-2.304v6.756H463.7l-.461-1.229c-.768.922-1.382 1.382-2.61 1.382-1.229 0-2.303-.614-2.764-1.535-.461-.921-.614-1.69-.614-3.685V5.067c0-2.15.153-2.917.768-3.685C458.786.46 459.861 0 461.089 0c1.536 0 2.611.614 3.225 1.842.307.615.46 1.536.46 2.764h-2.149c0-1.842-.461-2.61-1.536-2.61-.614 0-1.074.307-1.228.768-.307.307-.307.767-.307 1.842v4.146c0 1.075 0 1.689.154 2.15.153.614.767 1.074 1.381 1.074 1.075 0 1.536-.768 1.536-2.61v-.614h-1.689v-1.69h3.838zm3.993 6.757V7.832h2.917v5.988h2.149V.155h-2.149v5.68h-2.917V.156h-2.15V13.82h2.15zm11.055 0h-2.15V2.15h-2.61V.156h7.37V2.15h-2.61V13.82zm11.822-9.52v.307h2.303V4.3c0-2.61-1.381-4.145-3.685-4.145-1.381 0-2.303.46-2.917 1.228-.614.768-.768 1.535-.768 3.685v3.531c0 1.996.154 2.918.615 3.685.614 1.075 1.689 1.536 3.07 1.536 2.457 0 3.685-1.536 3.685-4.453v-.46h-2.149c0 1.074 0 1.381-.154 1.688-.307.922-.767 1.382-1.535 1.382-.614 0-1.228-.46-1.382-.921-.154-.46-.154-.921-.154-1.996V4.607c0-1.075 0-1.535.308-1.996.153-.307.614-.614 1.228-.614.921 0 1.535.768 1.535 2.303zm5.988 6.447l-.614 3.07h-1.996l2.61-13.51h2.918l2.61 13.51h-2.15l-.614-3.07h-2.764zm1.382-7.984l-1.075 6.141h2.15l-1.075-6.141zm6.603 11.057h2.149V2.15h2.611V.156h-7.37V2.15h2.61V13.82zm7.523-3.073l-.614 3.07h-1.996l2.61-13.51h2.764l2.764 13.51h-2.15l-.614-3.07h-2.764zm1.382-7.984l-1.075 6.141h2.15l-1.075-6.141zm11.669 9.06h-4.145V.156h-2.15V13.82h6.295v-1.996zm8.752-2.303c0 1.535-.153 2.456-.767 3.224-.615.921-1.689 1.228-2.918 1.228-1.228 0-2.303-.46-2.917-1.228-.614-.768-.768-1.689-.768-3.224V4.453c0-1.536.154-2.457.768-3.225C528.955.461 529.876 0 531.258 0s2.303.46 2.918 1.228c.614.768.767 1.69.767 3.225V9.52zm-5.374-.154c0 1.075 0 1.382.307 1.843.307.46.768.767 1.382.767.614 0 1.075-.307 1.382-.768.154-.307.154-.767.154-1.842v-4.76c0-1.075 0-1.382-.307-1.842-.307-.46-.768-.768-1.382-.768-.614 0-1.075.307-1.382.768 0 .107-.019.232-.043.396-.045.306-.111.746-.111 1.446v4.76zm14.433 4.453V7.063h-3.992v1.689h1.689v.614c0 1.843-.461 2.61-1.536 2.61-.614 0-1.228-.46-1.382-1.075-.153-.46-.153-1.074-.153-2.149V4.606c0-1.075.153-1.535.46-1.842.154-.46.615-.768 1.229-.768 1.075 0 1.535.768 1.535 2.61h2.15c0-1.228-.154-2.15-.461-2.764C542.927.614 541.852 0 540.317 0c-1.229 0-2.303.46-3.071 1.382-.614.768-.768 1.535-.768 3.685v3.685c0 1.996.154 2.764.614 3.685.461.921 1.536 1.535 2.764 1.535 1.229 0 1.843-.46 2.61-1.382l.461 1.229h1.075z" fill="#000"/><path d="M22.437 279.013c-.368 1.345-1.105 3.545-1.596 4.523-.86.245-3.316.734-5.403.734C8.193 284.27 5 279.38 5 274.857c0-5.99 4.666-9.902 11.175-9.902 2.333 0 4.297.611 5.157.734.246 1.589.369 2.811.614 4.523l-1.105.122c-.86-3.056-2.456-4.279-5.526-4.279-4.666 0-7.122 3.912-7.122 8.191 0 5.256 3.193 8.801 7.368 8.801 2.824 0 4.297-1.467 5.894-4.401l.982.367zM46.137 284.025h-1.105c-2.333-.123-3.561-.734-4.789-2.568-.982-1.344-1.965-3.056-2.702-4.523-.49-.733-.982-1.1-2.333-1.1h-.86v4.279c0 2.322.246 2.567 2.58 2.689v.978h-7.86v-.978c2.333-.122 2.58-.367 2.58-2.689v-11.124c0-2.445-.247-2.445-2.457-2.69v-.978h7.368c2.21 0 3.561.245 4.666.978 1.228.734 1.965 2.078 1.965 3.79 0 2.445-1.473 3.912-3.561 4.89.491.855 1.596 2.811 2.456 4.034 1.105 1.589 1.596 2.2 2.21 2.933.737.734 1.474 1.101 2.088 1.223l-.246.856zm-10.56-9.291c1.35 0 2.333-.244 3.07-.856 1.105-.855 1.596-1.956 1.596-3.422 0-3.057-2.088-4.157-4.175-4.157-.86 0-1.228.122-1.474.245-.245.122-.368.489-.368 1.222v6.846h1.35v.122zM67.013 279.135c-.123.978-.737 3.789-.982 4.645H51.909v-.978c2.579-.244 2.824-.367 2.824-2.689v-11.002c0-2.445-.245-2.567-2.456-2.812v-.978h13.14c0 .612.122 2.567.245 4.157l-.982.122c-.246-1.223-.614-1.834-.983-2.445-.368-.611-1.105-.734-3.07-.734H58.54c-.983 0-.983 0-.983.978v6.235h2.456c2.58 0 2.702-.122 3.07-2.078h.983v5.623h-.983c-.368-2.078-.614-2.2-3.07-2.2h-2.578v5.134c0 1.344.122 1.956.736 2.322.614.367 1.597.367 2.948.367 1.964 0 2.824-.244 3.438-.978.491-.489.982-1.467 1.474-2.689h.982zM88.503 279.135c-.123.978-.737 3.789-.983 4.645H73.398v-.978c2.58-.244 2.825-.367 2.825-2.689v-11.002c0-2.445-.246-2.567-2.456-2.812v-.978h13.14c0 .612.122 2.567.245 4.157l-1.105.244c-.246-1.222-.614-1.834-.983-2.445-.368-.611-1.105-.733-3.07-.733h-2.087c-.983 0-.983 0-.983.978v6.234h2.456c2.579 0 2.702-.122 3.07-2.078h.983v5.623h-.983c-.368-2.078-.614-2.2-3.07-2.2h-2.578v5.134c0 1.345.122 1.956.736 2.323.614.366 1.597.366 2.948.366 1.964 0 2.824-.244 3.438-.978.491-.489.982-1.467 1.473-2.689l1.106-.122zM102.624 265.321c2.088 0 3.684.367 4.912 1.223 1.106.855 1.842 2.2 1.842 4.034 0 3.667-2.824 5.501-5.648 5.867h-1.351l-2.088-.489v4.157c0 2.445.246 2.567 2.947 2.689v.978h-8.104v-.978c2.333-.122 2.579-.367 2.579-2.689v-11.124c0-2.445-.246-2.568-2.334-2.69v-.978h7.245zm-2.21 9.535c.368.123 1.105.367 1.965.367 1.719 0 3.929-.978 3.929-4.523 0-3.056-1.964-4.279-4.175-4.279-.737 0-1.351.123-1.596.367-.246.122-.246.489-.246 1.223v6.845h.123zM133.569 266.299c-1.964.245-2.456.489-3.561 2.323-1.228 1.956-2.087 3.423-3.438 5.99-.369.733-.491.978-.491 1.833v3.668c0 2.322.245 2.567 2.947 2.689v.978h-8.473v-.978c2.579-.122 2.824-.367 2.824-2.689v-3.668c0-.611-.123-.855-.614-1.589-.982-1.833-2.087-3.667-3.561-6.234-1.105-1.834-1.474-2.201-3.193-2.323v-.978h7.123v.978c-2.088.245-1.965.611-1.474 1.589 1.105 2.079 2.456 4.279 3.684 6.479.982-1.833 2.456-4.523 3.315-6.112.614-1.345.614-1.589-1.596-1.834v-1.1h6.631v.978h-.123zM155.305 270.579v-.489c0-2.567-.86-3.912-2.579-3.912-.983 0-1.719.367-2.088 1.101-.491.733-.491 1.466-.491 3.178v7.457c0 1.711.123 2.567.368 3.3a2.426 2.426 0 002.211 1.467c1.228 0 2.087-.733 2.456-2.2.123-.611.123-1.1.245-2.69h3.562v.734c0 4.89-2.088 7.457-6.14 7.457-2.211 0-4.053-.856-5.035-2.445-.86-1.345-1.105-2.689-1.105-5.99v-6.234c0-3.545.245-4.768 1.351-6.235.982-1.345 2.701-2.078 4.789-2.078 3.806 0 6.14 2.567 6.14 6.968v.611h-3.684zM165.128 280.847l-.859 4.89h-3.438l4.297-22.371h4.79l4.543 22.371h-3.684l-.982-4.89h-4.667zm2.334-13.202l-1.842 10.024h3.684l-1.842-10.024zM182.074 285.737h-3.438v-19.192h-4.298v-3.179h12.157v3.179h-4.421v19.192zM190.793 280.847l-.859 4.89h-3.439l4.298-22.371h4.789l4.544 22.371h-3.561l-.983-4.89h-4.789zm2.333-13.202l-1.842 10.024h3.684l-1.842-10.024zM205.775 282.558h6.876v3.179h-10.438v-22.371h3.439v19.192h.123zM226.896 278.647c0 2.567-.369 4.034-1.228 5.257-.983 1.467-2.702 2.2-4.912 2.2-2.211 0-3.807-.733-4.912-2.2-.86-1.223-1.228-2.812-1.228-5.257v-8.19c0-2.567.368-4.034 1.228-5.257.982-1.467 2.701-2.2 4.912-2.2 2.21 0 3.807.733 4.912 2.2.859 1.223 1.228 2.812 1.228 5.257v8.19zm-8.719-.122c0 1.834.123 2.323.491 3.056.369.733 1.228 1.222 2.211 1.222.982 0 1.842-.489 2.21-1.222.368-.733.491-1.222.491-3.056v-8.068c0-1.834-.123-2.323-.491-3.056-.368-.734-1.228-1.223-2.21-1.223-.983 0-1.842.489-2.211 1.223-.368.611-.491 1.222-.491 3.056v8.068zM242 274.613v11.124h-1.842l-.614-1.956c-1.105 1.59-2.333 2.201-4.175 2.201-2.088 0-3.807-.978-4.667-2.567-.736-1.467-.982-2.934-.982-5.99v-6.112c0-3.545.246-4.89 1.351-6.235.982-1.345 2.701-2.078 4.789-2.078 2.456 0 4.298 1.1 5.28 2.934.614 1.1.86 2.445.86 4.645h-3.439c0-3.056-.736-4.401-2.701-4.401-.86 0-1.719.367-2.088 1.101-.368.733-.491 1.466-.491 3.178v6.846c0 1.833.123 2.811.368 3.667.369 1.1 1.228 1.711 2.334 1.711 1.842 0 2.578-1.344 2.578-4.401v-.855h-2.824v-2.812H242zM399.592 297.452H392v-24.561h7.927c2.344 0 4.465.446 6.14 1.451 1.675 1.005 3.014 2.345 3.908 4.242.893 1.787 1.339 4.02 1.339 6.587 0 2.568-.446 4.801-1.339 6.587-.894 1.898-2.233 3.238-4.02 4.243-1.786 1.005-3.907 1.451-6.363 1.451zm-4.578-2.679h4.466c2.01 0 3.684-.447 5.024-1.228 1.34-.782 2.345-1.898 3.014-3.35.67-1.451 1.005-3.126 1.005-5.135 0-2.01-.335-3.684-1.005-5.136-.669-1.451-1.563-2.568-2.902-3.349-1.34-.782-2.903-1.117-4.801-1.117h-4.801v19.315zM420.692 272.891v24.561h-3.014v-24.561h3.014zM427.949 297.452v-24.561h8.262c1.898 0 3.461.335 4.689 1.004a7.17 7.17 0 012.791 2.68c.67 1.116.893 2.456.893 3.907 0 1.452-.335 2.68-.893 3.908-.558 1.116-1.451 2.01-2.679 2.679-1.229.67-2.792 1.005-4.69 1.005h-6.698v-2.679h6.587c1.34 0 2.344-.224 3.126-.559.781-.334 1.34-.893 1.786-1.674.447-.782.558-1.563.558-2.568 0-1.005-.223-1.898-.558-2.568a3.735 3.735 0 00-1.786-1.674c-.782-.335-1.898-.559-3.238-.559h-5.247v21.994h-2.903v-.335zM439.56 286.4l6.029 11.052h-3.461l-5.917-11.052h3.349zM450.948 297.452v-24.561h14.848v2.679h-11.834v8.262h11.053v2.679h-11.053v8.262h12.058v2.679h-15.072zM492.256 280.594h-3.014c-.224-.893-.447-1.563-.893-2.233a7.517 7.517 0 00-1.564-1.675 8.438 8.438 0 00-2.009-1.004 8.476 8.476 0 00-2.345-.335c-1.451 0-2.791.335-4.019 1.116-1.228.782-2.121 1.898-2.903 3.35-.781 1.451-1.116 3.237-1.116 5.358 0 2.122.335 3.908 1.116 5.359.782 1.452 1.675 2.568 2.903 3.35 1.228.781 2.568 1.116 4.019 1.116.782 0 1.563-.112 2.345-.335.781-.223 1.451-.558 2.009-1.005.67-.446 1.117-1.004 1.564-1.674.446-.67.781-1.452.893-2.233h3.014c-.223 1.228-.67 2.344-1.228 3.349-.558 1.005-1.34 1.786-2.233 2.568-.893.67-1.898 1.228-3.014 1.563-1.117.335-2.233.558-3.461.558-2.121 0-4.019-.558-5.582-1.563-1.675-1.005-2.903-2.456-3.908-4.354-.893-1.898-1.451-4.131-1.451-6.699 0-2.567.446-4.8 1.451-6.698.893-1.898 2.233-3.35 3.908-4.354 1.674-1.005 3.461-1.563 5.582-1.563 1.228 0 2.456.223 3.461.558 1.116.335 2.121.893 3.014 1.563.893.67 1.563 1.563 2.233 2.568.67.893 1.005 2.009 1.228 3.349zM497.168 275.46v-2.68h18.422v2.68h-7.704v21.994h-3.014V275.46h-7.704zM541.268 285.171c0 2.568-.447 4.801-1.452 6.699-.893 1.898-2.233 3.349-3.907 4.354-1.675 1.005-3.461 1.563-5.582 1.563-2.122 0-4.02-.558-5.583-1.563-1.674-1.005-2.902-2.456-3.907-4.354-.893-1.898-1.452-4.131-1.452-6.699 0-2.567.447-4.8 1.452-6.698.893-1.898 2.233-3.35 3.907-4.354 1.675-1.005 3.461-1.563 5.583-1.563 2.121 0 3.907.558 5.582 1.563 1.674 1.004 2.902 2.456 3.907 4.354 1.005 1.786 1.452 4.131 1.452 6.698zm-2.903 0c0-2.121-.335-3.907-1.117-5.358-.781-1.452-1.674-2.568-2.902-3.35-1.228-.781-2.568-1.116-4.019-1.116-1.452 0-2.792.335-4.02 1.116-1.228.782-2.121 1.898-2.902 3.35-.782 1.451-1.117 3.237-1.117 5.358 0 2.122.335 3.908 1.117 5.359.781 1.452 1.674 2.568 2.902 3.35 1.228.781 2.568 1.116 4.02 1.116 1.451 0 2.791-.335 4.019-1.116 1.228-.782 2.121-1.898 2.902-3.35.782-1.451 1.117-3.237 1.117-5.359zM547.631 297.452v-24.561h8.262c1.898 0 3.461.335 4.689 1.004a7.17 7.17 0 012.791 2.68c.67 1.116.893 2.456.893 3.907 0 1.452-.335 2.68-.893 3.908-.558 1.116-1.451 2.01-2.679 2.679-1.228.67-2.791 1.005-4.689 1.005h-6.699v-2.679h6.587c1.34 0 2.345-.224 3.126-.559.782-.334 1.34-.893 1.786-1.674.447-.782.559-1.563.559-2.568 0-1.005-.224-1.898-.559-2.568a3.731 3.731 0 00-1.786-1.674c-.781-.335-1.898-.559-3.238-.559h-5.247v21.994h-2.903v-.335zm11.611-11.052l6.029 11.052h-3.461l-5.917-11.052h3.349zM568.509 272.891h3.46l6.811 11.499h.335l6.81-11.499h3.461l-8.932 14.513v10.16h-3.126v-10.16l-8.819-14.513zM396.912 263.403h-2.233v-12.169H392v-2.009h7.703v2.009h-2.791v12.169zM403.388 257.151v6.252h-2.233v-14.178h2.233v5.917h3.126v-5.917h2.233v14.29h-2.233v-6.364h-3.126zM418.348 258.936c0 1.563-.224 2.568-.782 3.35-.67.893-1.674 1.339-3.126 1.339-1.451 0-2.456-.446-3.126-1.339-.558-.782-.781-1.787-.781-3.35v-5.247c0-1.563.223-2.568.781-3.349.782-.893 1.787-1.34 3.126-1.34 1.34 0 2.456.447 3.126 1.34.558.781.782 1.786.782 3.349v5.247zm-5.582 0c0 1.117.111 1.563.223 1.898.223.447.781.782 1.451.782s1.117-.335 1.452-.782c.223-.446.223-.781.223-1.898v-5.135c0-1.117 0-1.452-.223-1.898-.224-.447-.782-.782-1.452-.782-.67 0-1.116.335-1.451.782-.223.446-.223.781-.223 1.898v5.135zM427.838 249.225v9.601c0 1.786-.224 2.679-.782 3.573-.67.781-1.675 1.228-2.903 1.228-1.339 0-2.344-.447-3.014-1.228-.558-.782-.782-1.675-.782-3.573v-9.601h2.233v10.048c0 1.674.447 2.344 1.563 2.344 1.117 0 1.563-.67 1.563-2.344v-10.048h2.122zM437.439 256.368v7.034h-1.116l-.447-1.228c-.781 1.005-1.563 1.451-2.679 1.451-1.34 0-2.345-.67-2.903-1.674-.447-.893-.67-1.787-.67-3.796v-3.908c0-2.233.223-3.126.782-3.907.781-.893 1.897-1.34 3.126-1.34 1.563 0 2.679.67 3.349 1.898.335.67.558 1.563.558 2.903h-2.233c0-2.01-.446-2.791-1.674-2.791-.559 0-1.117.223-1.34.781-.223.447-.335.893-.335 2.01v4.354c0 1.228.112 1.786.223 2.344.223.67.782 1.117 1.452 1.117 1.116 0 1.674-.782 1.674-2.791v-.67h-1.786v-1.787h4.019zM441.57 257.151v6.252h-2.233v-14.178h2.233v5.917h3.126v-5.917h2.233v14.29h-2.233v-6.364h-3.126zM453.293 263.403h-2.233v-12.169h-2.791v-2.009h7.703v2.009h-2.791v12.169h.112zM465.685 253.801v-.224c0-1.674-.558-2.456-1.675-2.456-.558 0-1.116.224-1.34.67-.223.447-.335.893-.335 2.01v4.689c0 1.116.112 1.674.224 2.121.223.558.781.893 1.451.893.782 0 1.34-.446 1.563-1.451.112-.224.112-.558.112-1.563h2.233v.446c0 3.126-1.34 4.689-3.908 4.689-1.451 0-2.568-.558-3.238-1.563-.558-.893-.669-1.674-.669-3.796v-4.019c0-2.233.223-3.014.781-3.907.67-.893 1.786-1.34 3.126-1.34 2.456 0 3.908 1.675 3.908 4.466v.446h-2.233v-.111zM471.825 260.386l-.558 3.015h-2.121l2.679-14.291h3.015l2.902 14.291h-2.233l-.558-3.126h-3.126v.111zm1.452-8.485l-1.117 6.364h2.345l-1.228-6.364zM482.543 263.403h-2.233v-12.169h-2.791v-2.009h7.703v2.009h-2.791v12.169h.112zM488.125 260.389l-.558 3.126h-2.121l2.679-14.29h3.015l2.902 14.29h-2.233l-.558-3.126h-3.126zm1.452-8.485l-1.117 6.364h2.345l-1.228-6.364zM497.615 261.394h4.354v2.009h-6.587v-14.178h2.233v12.169zM511.012 258.936c0 1.563-.223 2.568-.781 3.35-.67.893-1.675 1.339-3.126 1.339-1.452 0-2.457-.446-3.126-1.339-.559-.782-.782-1.787-.782-3.35v-5.247c0-1.563.223-2.568.782-3.349.669-.893 1.674-1.34 3.126-1.34 1.451 0 2.456.447 3.126 1.34.558.781.781 1.786.781 3.349v5.247zm-5.582 0c0 1.117.112 1.563.223 1.898.223.447.782.782 1.452.782.669 0 1.116-.335 1.451-.782.223-.446.223-.781.223-1.898v-5.135c0-1.117 0-1.452-.223-1.898-.223-.447-.782-.782-1.451-.782-.67 0-1.117.335-1.452.782-.223.446-.223.781-.223 1.898v5.135zM520.502 256.368v7.034h-1.117l-.446-1.228c-.782 1.005-1.563 1.451-2.68 1.451-1.339 0-2.344-.67-2.902-1.674-.447-.893-.67-1.787-.67-3.796v-3.908c0-2.233.223-3.126.781-3.907.67-.893 1.675-1.34 3.015-1.34 1.563 0 2.679.67 3.349 1.898.335.67.558 1.563.558 2.903h-2.233c0-2.01-.446-2.791-1.674-2.791-.559 0-1.117.223-1.34.781-.223.447-.335.893-.335 2.01v4.354c0 1.228.112 1.786.223 2.344.224.67.782 1.117 1.452 1.117 1.116 0 1.674-.782 1.674-2.791v-.67h-1.786v-1.787h4.131zM146.57 20.142v-.436c0-2.76-1.017-4.067-2.76-4.067-1.017 0-1.743.435-2.179 1.162-.435.726-.581 1.452-.581 3.34v7.845c0 1.743.146 2.76.436 3.486.291.872 1.307 1.453 2.324 1.453 1.308 0 2.179-.726 2.615-2.324.145-.581.145-1.162.145-2.905h3.632v.871c0 5.084-2.179 7.699-6.392 7.699-2.324 0-4.212-.872-5.229-2.615-.872-1.452-1.162-2.76-1.162-6.246v-6.537c0-3.777.29-5.084 1.307-6.537 1.017-1.452 2.76-2.179 4.939-2.179 4.067 0 6.392 2.615 6.392 7.264v.726h-3.487zM156.739 30.891l-1.017 5.084h-3.487l4.504-23.387h4.939l4.793 23.387h-3.777l-1.016-5.084h-4.939zm2.469-13.8L157.32 27.55h3.777l-1.889-10.459zM174.316 35.975h-3.632V15.93h-4.503v-3.341h12.638v3.34h-4.503v20.047zM183.467 30.891l-1.017 5.084h-3.486l4.503-23.387h4.939l4.794 23.387h-3.777l-1.017-5.084h-4.939zm2.469-13.8l-1.888 10.459h3.777l-1.889-10.459zM199.01 32.634h7.118v3.341h-10.749V12.588h3.631v20.046zM221.09 28.42c0 2.616-.436 4.213-1.307 5.52-1.017 1.453-2.76 2.18-5.085 2.18-2.324 0-4.067-.727-5.084-2.18-1.017-1.307-1.307-2.904-1.307-5.52v-8.57c0-2.614.436-4.212 1.307-5.52 1.017-1.452 2.76-2.179 5.084-2.179 2.325 0 4.068.727 5.085 2.18 1.017 1.307 1.307 2.905 1.307 5.52v8.57zm-9.152 0c0 1.89.146 2.47.436 3.197a2.752 2.752 0 002.324 1.307c1.017 0 1.889-.436 2.325-1.307.435-.727.435-1.308.435-3.196v-8.425c0-1.889 0-2.47-.435-3.196a2.752 2.752 0 00-2.325-1.308c-1.016 0-1.888.436-2.324 1.308-.29.726-.436 1.307-.436 3.196v8.425zM236.779 24.354v11.62h-1.889l-.726-2.033c-1.162 1.743-2.47 2.324-4.358 2.324-2.179 0-3.922-1.017-4.794-2.76-.726-1.453-1.017-3.05-1.017-6.246v-6.392c0-3.777.291-5.084 1.308-6.537 1.017-1.452 2.76-2.179 4.939-2.179 2.615 0 4.503 1.017 5.52 3.05.581 1.163.871 2.616.871 4.795h-3.631c0-3.196-.872-4.504-2.76-4.504-1.017 0-1.743.436-2.179 1.162-.436.727-.581 1.453-.581 3.342v7.117c0 1.889.145 2.906.436 3.777.435 1.017 1.307 1.743 2.469 1.743 1.888 0 2.76-1.307 2.76-4.648v-1.017h-3.05v-3.05h6.682v.436zM36.17 23.191H0v2.76h36.17v-2.76zM52.876 20.577c-.872-2.614-2.47-4.358-4.649-4.358-.435 0-.726 0-1.162.291-.436.145-.726.436-1.017.726-.29.29-.436.581-.58 1.017-.146.436-.146.727-.146 1.162 0 1.889 1.743 3.05 3.777 3.777 3.34 1.453 5.665 3.05 5.665 6.101 0 4.068-3.777 6.101-7.408 6.101-1.744 0-3.632-.436-5.084-1.452-.436-1.744-.727-3.487-.727-5.23l1.162-.29c.727 2.905 2.76 5.52 5.375 5.52.436 0 .872 0 1.162-.146.436-.145.726-.435 1.017-.726.29-.29.581-.581.726-1.017.145-.436.29-.726.29-1.162 0-1.888-1.307-3.05-3.486-4.067-2.614-1.162-5.52-2.76-5.52-6.101 0-3.05 2.615-5.81 6.828-5.81 1.307 0 2.76.29 3.922.87.436 1.599.871 3.051 1.017 4.794h-1.162zM69.436 34.667v-1.162c2.614-.29 2.905-.58 2.905-3.486V22.61c0-3.631-1.453-5.52-4.358-5.52-.871 0-1.743.291-2.615.582a10.967 10.967 0 00-2.033 1.598v10.604c0 2.905.29 3.195 2.905 3.486v1.162h-9.442V33.36c2.615-.29 3.05-.436 3.05-3.486V8.81c0-2.76-.145-3.051-3.05-3.196V4.598c2.179-.436 4.358-.872 6.537-1.598v14.962c1.598-1.598 3.922-3.196 6.391-3.196 3.632 0 6.101 2.324 6.101 7.554v7.844c0 2.905.29 3.196 2.906 3.486v1.163l-9.297-.146zM91.08 14.766c-4.067 0-9.733 3.34-9.733 10.75 0 4.938 3.632 9.877 9.733 9.877 4.358 0 9.733-3.486 9.733-10.604-.146-5.666-4.213-10.023-9.733-10.023zm.436 19.03c-3.632 0-6.101-4.214-6.101-9.733 0-5.085 2.47-7.845 5.084-7.845 3.922 0 6.1 4.213 6.1 9.442-.144 6.101-2.323 8.135-5.083 8.135zM112.434 35.248c5.81-1.017 11.04-5.375 11.04-12.057 0-4.358-2.906-8.425-7.845-8.425-.726 0-1.598.29-2.179.726l-4.067 2.324V14.33c-2.034.872-4.213 1.453-6.392 1.888v1.017c2.76.29 2.906.436 2.906 3.341v20.192c0 2.905-.436 3.196-3.196 3.486v1.162h10.459v-1.162c-3.486-.29-3.777-.58-3.777-3.922v-5.81c.872.435 2.034.726 3.051.726zm-3.051-15.979c1.162-.872 3.051-1.888 4.503-1.888 3.196 0 5.956 2.614 5.956 7.553 0 4.94-2.47 8.135-6.246 8.135-1.598 0-3.051-.581-4.213-1.743V19.269zM536.955 153.507c-2.81-8.012-5.853-16.731-8.662-24.507l-1.405.471-9.363 24.036c-1.639 4.006-2.107 4.242-5.15 4.713v1.178h9.832v-1.178c-3.512-.236-3.746-.707-2.81-3.535.703-1.885 1.171-3.77 2.107-5.891h9.598c.937 2.828 1.873 5.184 2.575 7.07.703 1.885.234 2.12-2.575 2.592v1.178h11.003v-1.178c-3.044-.707-3.746-1.179-5.15-4.949zm-14.982-7.069c1.404-3.771 2.809-7.777 4.213-11.547l3.98 11.547h-8.193zm112.599-7.07v1.179c2.575.471 2.809.942 2.341 2.592-.937 2.827-2.809 8.247-4.214 11.311l-3.979-11.311c-.703-1.65-.469-2.121 1.638-2.592v-1.179h-9.129v1.179c2.575.471 3.043.942 3.979 3.534 1.405 3.299 3.512 8.719 5.15 13.903a3.292 3.292 0 010 2.121c-.234.707-.468 1.65-1.404 3.064-.937 2.12-1.873 3.063-3.278 4.006-.702.471-1.17.942-1.17 1.649 0 1.178 1.404 2.121 2.575 2.121.702 0 1.17-.236 1.404-1.178.703-2.357 1.639-4.949 4.682-12.254 3.044-7.541 4.448-11.311 5.619-13.667 1.17-2.592 1.638-3.064 3.979-3.299v-1.179h-8.193zm-62.503-.471c-2.341 0-4.916 1.178-6.555 3.299a12.128 12.128 0 00-3.043 8.012c0 5.184 3.277 9.662 8.895 9.662 1.405 0 4.448-.707 7.491-4.478l-.702-.942c-1.638 1.649-3.277 2.356-5.15 2.356-3.277 0-6.789-2.592-6.789-8.719 5.385-.235 11.003-.707 11.705-.707.702-.235.936-.471.936-1.414 0-3.77-3.043-7.069-6.788-7.069zm1.872 7.069c-2.575 0-5.15.236-7.725.236.703-3.77 2.575-5.655 4.682-5.655 2.575 0 3.98 2.12 3.98 4.477 0 .707-.234.942-.937.942zm-11.704-6.362l-.234-.471c-1.639.471-3.98.707-6.087.942-1.404-.707-2.809-1.178-4.448-1.178-3.511 0-8.193 2.357-8.193 7.541 0 3.063 1.873 5.184 3.98 6.127-.703.942-2.107 2.12-3.98 2.827 0 .472 0 1.179.468 1.885.703.943 1.639 2.121 3.278 2.593-1.171.707-2.81 2.356-3.746 3.299-.702.707-1.17 1.649-1.17 2.592 0 2.592 2.809 5.655 7.725 5.655 6.086 0 11.236-4.477 11.236-8.954 0-4.478-3.745-5.42-6.554-5.42h-4.682c-2.107 0-2.809-.943-2.809-1.885 0-.707.702-1.414 1.404-1.885.702 0 1.639.235 2.341.235 3.746 0 7.959-2.356 7.959-7.305 0-1.649-.468-3.063-1.404-4.006l2.575.236c.936-.707 1.873-1.885 2.341-2.828zm-14.28 21.208c.702-.707 1.873-.942 3.98-.942 1.872 0 3.277.235 4.447.707 1.405.471 2.107 1.649 2.107 3.299 0 2.827-2.107 4.948-6.554 4.948-3.278 0-6.087-1.885-6.087-4.242 0-1.413.937-2.827 2.107-3.77zm3.511-8.954c-2.575 0-4.213-2.592-4.213-6.127 0-3.535 1.872-5.42 3.745-5.42 2.575 0 4.214 2.592 4.214 6.127 0 3.534-1.639 5.42-3.746 5.42zm48.224 2.827v-8.954c0-4.477-2.341-6.834-5.852-6.834-1.405 0-2.576.471-3.746 1.414-1.17.707-2.107 1.414-3.043 2.121v-3.771c-2.107.943-4.214 1.414-6.321 1.886v.942c2.341.472 2.809.707 2.809 3.535v9.426c0 3.063-.234 3.299-3.277 3.534v1.179h9.832v-1.179c-2.575-.235-3.043-.471-3.043-3.534v-10.604c1.404-1.179 3.043-2.357 4.916-2.357 3.043 0 4.213 2.121 4.213 5.184v7.541c0 3.063-.234 3.535-3.043 3.77v1.179h9.364v-1.179c-2.575-.235-2.809-.235-2.809-3.299zm14.748 2.121c-2.575 0-6.789-2.121-6.789-8.483 0-4.713 2.575-7.305 5.618-7.305 1.639 0 3.278.707 4.448 1.885.468.471.702.471.937.471.468 0 1.404-.942 1.404-1.885 0-.471-.234-.942-.702-1.414-.702-.707-2.107-1.178-3.98-1.178-1.873 0-4.448.707-6.789 2.592-3.043 2.357-4.447 5.42-4.447 8.955 0 4.948 3.277 9.426 9.129 9.426 2.575 0 5.619-2.121 7.725-4.713l-.702-.943c-2.341 2.121-3.745 2.592-5.852 2.592z" fill="#000"/><g clip-path="url(#clip0)" fill="#000"><path d="M333.715 158.548h-2.982v-17.003H327v-2.824h10.477v2.824h-3.762v17.003zM342.401 149.809v8.739h-2.981v-19.827h2.981v8.263h4.256v-8.263h2.979v19.827h-2.979v-8.739h-4.256zM362.751 152.247c0 2.229-.317 3.567-1.099 4.697-.868 1.248-2.315 1.901-4.169 1.901-1.853 0-3.298-.653-4.168-1.901-.78-1.13-1.099-2.468-1.099-4.697v-7.224c0-2.229.319-3.567 1.099-4.697.87-1.248 2.317-1.901 4.168-1.901 1.852 0 3.301.653 4.169 1.901.782 1.13 1.099 2.468 1.099 4.697v7.224zm-7.554-.058c0 1.576.087 2.11.376 2.705.348.653 1.071 1.071 1.91 1.071.84 0 1.563-.415 1.911-1.071.317-.624.376-1.1.376-2.705v-7.106c0-1.605-.057-2.081-.376-2.705-.348-.653-1.071-1.071-1.911-1.071-.839 0-1.562.418-1.91 1.071-.289.595-.376 1.129-.376 2.705v7.106zM375.578 138.721v13.436c0 2.496-.289 3.776-1.1 4.905-.839 1.159-2.258 1.785-3.996 1.785-1.763 0-3.182-.624-4.021-1.785-.809-1.129-1.1-2.406-1.1-4.905v-13.436h2.982v13.941c0 2.348.607 3.3 2.142 3.3 1.506 0 2.113-.952 2.113-3.3v-13.941h2.98zM388.693 148.709v9.84h-1.535l-.549-1.693c-.983 1.428-2.054 1.991-3.617 1.991-1.764 0-3.242-.862-3.994-2.319-.636-1.277-.839-2.557-.839-5.291v-5.469c0-3.152.234-4.281 1.128-5.5.839-1.19 2.315-1.843 4.081-1.843 2.114 0 3.676.922 4.544 2.644.492.981.695 2.2.695 4.102h-2.981c0-2.734-.667-3.864-2.287-3.864-.78 0-1.447.357-1.766 1.011-.347.653-.435 1.248-.435 2.853v6.066c0 1.634.088 2.496.319 3.239.317.921 1.071 1.487 2.027 1.487 1.563 0 2.227-1.159 2.227-3.925v-.801h-2.461v-2.528h5.443zM394.196 149.809v8.739h-2.981v-19.827h2.981v8.263h4.256v-8.263h2.979v19.827h-2.979v-8.739h-4.256zM410.092 158.548h-2.982v-17.003h-3.733v-2.824h10.476v2.824h-3.761v17.003zM426.911 145.171v-.415c0-2.288-.782-3.449-2.258-3.449-.808 0-1.447.357-1.766.981-.376.654-.463 1.249-.463 2.854v6.6c0 1.515.087 2.288.319 2.943.289.773 1.041 1.278 1.91 1.278 1.1 0 1.823-.654 2.143-1.962.115-.506.144-.952.174-2.409h3.01v.684c0 4.311-1.823 6.571-5.296 6.571-1.939 0-3.473-.772-4.313-2.2-.723-1.219-.926-2.377-.926-5.32v-5.559c0-3.152.234-4.252 1.128-5.5.839-1.19 2.286-1.843 4.08-1.843 3.299 0 5.24 2.258 5.24 6.153v.593h-2.982zM435.281 154.238l-.78 4.31h-2.925l3.705-19.827h4.081l3.908 19.827h-3.067l-.811-4.31h-4.111zm2.026-11.712l-1.563 8.888h3.157l-1.594-8.888zM449.843 158.548h-2.982v-17.003h-3.733v-2.824h10.477v2.824h-3.762v17.003zM457.342 154.238l-.78 4.31h-2.925l3.705-19.827h4.081l3.909 19.827h-3.067l-.811-4.31h-4.112zm2.029-11.712l-1.563 8.888h3.156l-1.593-8.888zM470.226 155.724h5.934v2.824h-8.916v-19.827h2.982v17.003zM488.436 152.247c0 2.229-.317 3.567-1.1 4.697-.868 1.248-2.315 1.901-4.168 1.901-1.852 0-3.299-.653-4.169-1.901-.78-1.13-1.099-2.468-1.099-4.697v-7.224c0-2.229.317-3.567 1.099-4.697.87-1.248 2.317-1.901 4.169-1.901 1.851 0 3.298.653 4.168 1.901.783 1.13 1.1 2.468 1.1 4.697v7.224zm-7.555-.058c0 1.576.088 2.11.376 2.705.348.653 1.071 1.071 1.911 1.071.839 0 1.563-.415 1.91-1.071.319-.624.376-1.1.376-2.705v-7.106c0-1.605-.057-2.081-.376-2.705-.347-.653-1.071-1.071-1.91-1.071-.84 0-1.563.418-1.911 1.071-.288.595-.376 1.129-.376 2.705v7.106zM501.378 148.709v9.84h-1.535l-.548-1.693c-.984 1.428-2.055 1.991-3.618 1.991-1.764 0-3.241-.862-3.993-2.319-.636-1.277-.84-2.557-.84-5.291v-5.469c0-3.152.234-4.281 1.128-5.5.84-1.19 2.315-1.843 4.081-1.843 2.114 0 3.677.922 4.544 2.644.492.981.696 2.2.696 4.102h-2.982c0-2.734-.667-3.864-2.286-3.864-.781 0-1.447.357-1.766 1.011-.348.653-.435 1.248-.435 2.853v6.066c0 1.634.087 2.496.319 3.239.317.921 1.071 1.487 2.026 1.487 1.563 0 2.227-1.159 2.227-3.925v-.801h-2.461v-2.528h5.443z"/></g><defs><clipPath id="clip0"><path fill="#fff" transform="translate(327 138.425)" d="M0 0h174.378v20.423H0z"/></clipPath></defs></svg>