<?xml version="1.0" encoding="utf-8"?>
<!-- Generator: Adobe Illustrator 14.0.0, SVG Export Plug-In . SVG Version: 6.00 Build 43363)  -->
<!DOCTYPE svg PUBLIC "-//W3C//DTD SVG 1.0//EN" "http://www.w3.org/TR/2001/REC-SVG-20010904/DTD/svg10.dtd">
<svg xmlns="http://www.w3.org/2000/svg" viewBox="0 0 55 34" class="icon-perrier "><path d="M30.6,4.1v1.2c0.8-0.9,2-1.2,3.3-1.1v5.6l-1.5,0.6V9.1c-0.1-0.9-0.3-1.6-0.8-1.8 c-0.3-0.2-0.6-0.1-0.9,0.1v8.1c0,0.4,0.5,0.7,1.1,0.7v1.4h-5.5V16c0.5-0.1,1.2-0.4,1.2-0.8v-9c0-0.5-0.3-0.7-1-0.6V4.1 C26.5,4.1,30.6,4.1,30.6,4.1z"></path><path d="M51.5,9.2v1.2c0.8-0.9,2.5-1,3.3-0.4v6.1l-1.5,0.6c0-0.6,0.3-1.9-0.2-3.1c-0.3-1-1.2-1.3-1.7-1.3 v8c0,0.8,0.5,1.5,1.1,1.8v1.6L47,21.1v-1.5c0.8,0.1,1.6,0.1,1.6-0.6v-8.8c0-0.5-0.4-0.9-1.1-0.8V7.6L51.5,9.2z"></path><path d="M38.2,4.9v11.7c0,0.4,0.5,0.7,1.1,0.8v1.3L34,17.9v-1.4c0.5-0.1,1.2,0,1.2-0.6V6.8 c0-0.5-0.3-0.7-0.9-0.6V4.3L38.2,4.9z"></path><path d="M22.9,4.4v1.2c0.6-1.2,2-1.9,3.3-1.8v6.3l-1.4,0.6V9.4c-0.1-0.9-0.2-1.7-0.7-2 c-0.3-0.2-0.8,0-1.1,0.3v8.1c0,0.4,0,0.7,1.1,0.6v1.5L18.8,19v-1.5c0.6,0,1-0.3,1-0.8V7.3c0-0.5-0.3-0.7-1-0.6V5.3L22.9,4.4z"></path><path d="M36.7,0c0.9,0,1.7,1,1.7,2.1s-0.8,2.2-1.7,2.2S35,3.3,35,2.1S35.8,0,36.7,0"></path><path d="M42.5,9.1c0-0.6,0.3-1.3,0.8-1.2c0.7,0.2,0.8,0.8,0.8,1.3v2.6l-0.8-0.2l-0.8-0.2 C42.5,11.4,42.5,9.1,42.5,9.1z M47,14.8v-5c0-2.3-1.7-3.9-3.6-4.2l-0.6-0.1c-1.8,0-3.2,1.6-3.2,3.4v6.2c0,3,1.4,4.7,3.8,5.1 c0.3,0.1,0.6,0.1,0.9,0.1c1.5,0,2.7-1.5,2.7-3.4V16l-2.7-0.9v1.5c0,0.8-0.4,1.3-0.8,1.2h-0.2c-0.5-0.1-0.8-0.7-0.8-1.9v-2.6 C42.5,13.3,47,14.8,47,14.8z"></path><path d="M14.1,11.6V9.4c0-0.6,0.3-1.6,0.8-1.7c0.7-0.1,0.8,0.8,0.8,1.2V11l-0.8,0.3L14.1,11.6z M15.8,14.4v1.9c0,0.7-0.3,1.6-0.9,1.6c-0.6,0-0.8-0.2-0.8-1v-3.2l4.4-1.4V9.2c0-2.6-0.7-3.8-2.9-3.8c-0.3,0-0.5,0-0.7,0.1 c-2.6,0.4-3.8,2.6-3.8,4.3v5.7c0,2.6,0.4,4.8,2.9,4.9c0.3,0,0.6,0,0.8-0.1c2.5-0.4,3.6-2.8,3.6-5.8v-0.9 C18.4,13.6,15.8,14.4,15.8,14.4z"></path><g transform="translate(0 4.684)"><path d="M6.7,17.6c0,0.7-0.3,1.1-0.9,1.1c-0.5,0-0.9-0.2-0.9-0.8V5.5c0-0.4,0.5-0.7,0.9-0.7h0.1 c0.4,0,0.8,0.2,0.8,0.6V17.6z M9.7,16.1V4.8c0.2-0.1,0.6-0.2,1.2-0.1c-0.1-1.2-0.4-2.2-1.3-2.9C9.4,2.2,8.8,3,8.3,2.5 C7.8,2.1,8.6,1.3,8.8,1c-0.9-0.6-2-0.9-3-0.7C4.7,0.4,3.7,1,2.8,1.9c0.3,0.4,1,1,0.6,1.4S2.4,3,2.1,2.4C1.3,3,0.6,4,0,5.4l0.9,1.2 C1.1,6.4,1.4,6,1.6,6S2,6.2,2,6.5v15.9c0,0.4-0.3,0.7-0.5,0.6c-0.3-0.2-0.3-0.4-0.2-0.9c-0.2,0.1-0.8,0.9-0.7,1.8s0.6,1.3,1.4,1.6 v1.2c0,0.6-0.5,0.7-1.2,0.7C1.1,28.3,2,28.9,2.9,29C4,28.9,5,27.7,5,26.8l0.9,0.1c0.2,0,0.3,0,0.5-0.1c0.6-0.6,0.8-2.1,0.6-3 c-0.3,0.2-0.3,0.7-1.1,0.7H5.8c-0.5-0.1-0.9-0.5-0.9-1.2v-2.2c0.3,0.3,0.6,0.5,0.9,0.6C6.2,21.9,6.7,22,7.3,22 c1.3-0.1,2.2-1.6,2.5-3.1c0-0.1,0.3-0.2,0.4,0.1c0.1,0.4,0.1,0.8,0.1,1.4c0.5-0.1,1-0.9,1.1-1.8v-0.3 C11.3,17.1,10.7,16.1,9.7,16.1z"></path></g></svg>