<svg width="139" height="87" viewBox="-5 0 139 87" fill="none" xmlns="http://www.w3.org/2000/svg">
<rect x="1.07955" y="1.34994" width="126.649" height="84.7195" stroke="white" stroke-width="1.6198"/>
<path d="M18.2293 50.3711V38.5627H21.6989C22.4084 38.5627 22.9818 38.6939 23.4192 38.9564C23.8662 39.2188 24.1918 39.6027 24.3959 40.108C24.6097 40.6037 24.7166 41.2063 24.7166 41.9157C24.7166 42.6835 24.5854 43.3055 24.323 43.7817C24.0606 44.2482 23.6913 44.5884 23.2151 44.8022C22.7486 45.016 22.1946 45.1229 21.5531 45.1229H20.3869V50.3711H18.2293ZM20.3869 43.6068H21.2033C21.592 43.6068 21.8933 43.5533 22.1071 43.4464C22.3306 43.3298 22.4813 43.15 22.559 42.907C22.6465 42.6544 22.6902 42.3191 22.6902 41.9012C22.6902 41.4735 22.6562 41.1285 22.5882 40.8661C22.5299 40.594 22.3938 40.3947 22.18 40.2684C21.9759 40.142 21.6503 40.0789 21.2033 40.0789H20.3869V43.6068ZM26.4724 50.3711V38.5627H28.6154V43.5048H31.0208V38.5627H33.1784V50.3711H31.0208V45.0355H28.6154V50.3711H26.4724ZM38.7755 50.5315C37.9397 50.5315 37.2739 50.376 36.7783 50.065C36.2826 49.7539 35.9279 49.3069 35.7141 48.7238C35.5002 48.1406 35.3933 47.4506 35.3933 46.6536V42.2364C35.3933 41.4395 35.5002 40.7592 35.7141 40.1955C35.9279 39.6221 36.2826 39.1847 36.7783 38.8835C37.2739 38.5822 37.9397 38.4315 38.7755 38.4315C39.6307 38.4315 40.3013 38.5822 40.7873 38.8835C41.2829 39.1847 41.6377 39.6221 41.8515 40.1955C42.075 40.7592 42.1868 41.4395 42.1868 42.2364V46.6682C42.1868 47.4555 42.075 48.1406 41.8515 48.7238C41.6377 49.2972 41.2829 49.7442 40.7873 50.065C40.3013 50.376 39.6307 50.5315 38.7755 50.5315ZM38.7755 48.9424C39.1351 48.9424 39.3975 48.8647 39.5627 48.7092C39.7376 48.5537 39.8543 48.3399 39.9126 48.0677C39.9709 47.7956 40.0001 47.4992 40.0001 47.1785V41.7408C40.0001 41.4104 39.9709 41.1139 39.9126 40.8515C39.8543 40.5891 39.7376 40.385 39.5627 40.2392C39.3975 40.0837 39.1351 40.006 38.7755 40.006C38.4353 40.006 38.1778 40.0837 38.0028 40.2392C37.8279 40.385 37.7113 40.5891 37.653 40.8515C37.5946 41.1139 37.5655 41.4104 37.5655 41.7408V47.1785C37.5655 47.4992 37.5898 47.7956 37.6384 48.0677C37.6967 48.3399 37.8133 48.5537 37.9883 48.7092C38.1632 48.8647 38.4256 48.9424 38.7755 48.9424ZM45.4898 50.3711V40.1518H43.6092V38.5627H49.4988V40.1518H47.6474V50.3711H45.4898ZM54.3064 50.5315C53.4706 50.5315 52.8048 50.376 52.3092 50.065C51.8135 49.7539 51.4588 49.3069 51.245 48.7238C51.0312 48.1406 50.9243 47.4506 50.9243 46.6536V42.2364C50.9243 41.4395 51.0312 40.7592 51.245 40.1955C51.4588 39.6221 51.8135 39.1847 52.3092 38.8835C52.8048 38.5822 53.4706 38.4315 54.3064 38.4315C55.1617 38.4315 55.8323 38.5822 56.3182 38.8835C56.8139 39.1847 57.1686 39.6221 57.3824 40.1955C57.6059 40.7592 57.7177 41.4395 57.7177 42.2364V46.6682C57.7177 47.4555 57.6059 48.1406 57.3824 48.7238C57.1686 49.2972 56.8139 49.7442 56.3182 50.065C55.8323 50.376 55.1617 50.5315 54.3064 50.5315ZM54.3064 48.9424C54.666 48.9424 54.9284 48.8647 55.0936 48.7092C55.2686 48.5537 55.3852 48.3399 55.4435 48.0677C55.5018 47.7956 55.531 47.4992 55.531 47.1785V41.7408C55.531 41.4104 55.5018 41.1139 55.4435 40.8515C55.3852 40.5891 55.2686 40.385 55.0936 40.2392C54.9284 40.0837 54.666 40.006 54.3064 40.006C53.9662 40.006 53.7087 40.0837 53.5338 40.2392C53.3588 40.385 53.2422 40.5891 53.1839 40.8515C53.1256 41.1139 53.0964 41.4104 53.0964 41.7408V47.1785C53.0964 47.4992 53.1207 47.7956 53.1693 48.0677C53.2276 48.3399 53.3442 48.5537 53.5192 48.7092C53.6941 48.8647 53.9565 48.9424 54.3064 48.9424ZM62.8562 50.5315C62.0787 50.5315 61.4615 50.3662 61.0048 50.0358C60.548 49.7054 60.2175 49.2389 60.0134 48.6363C59.8191 48.024 59.7219 47.3048 59.7219 46.4787V42.5134C59.7219 41.6679 59.8191 40.939 60.0134 40.3267C60.2078 39.7144 60.548 39.2479 61.0339 38.9272C61.5296 38.5968 62.2099 38.4315 63.0749 38.4315C63.8815 38.4315 64.523 38.5676 64.9992 38.8397C65.4754 39.1119 65.8156 39.5055 66.0197 40.0206C66.2335 40.5259 66.3404 41.1431 66.3404 41.872V42.4843H64.2849V41.8137C64.2849 41.4346 64.2557 41.1091 64.1974 40.8369C64.1488 40.5648 64.0419 40.3607 63.8767 40.2247C63.7212 40.0789 63.4636 40.006 63.104 40.006C62.725 40.006 62.448 40.0983 62.2731 40.283C62.1078 40.4676 62.0009 40.7106 61.9523 41.0119C61.9135 41.3132 61.894 41.6436 61.894 42.0032V46.9452C61.894 47.3534 61.928 47.7081 61.9961 48.0094C62.0641 48.3107 62.1905 48.544 62.3751 48.7092C62.5598 48.8647 62.8222 48.9424 63.1623 48.9424C63.5122 48.9424 63.7795 48.855 63.9641 48.68C64.1488 48.5051 64.2751 48.2621 64.3432 47.9511C64.4209 47.6401 64.4598 47.2708 64.4598 46.8432V45.7352H63.1915V44.3794H66.3987V50.3711H65.0138L64.8534 49.2048C64.6979 49.5936 64.4598 49.9143 64.1391 50.167C63.8281 50.41 63.4004 50.5315 62.8562 50.5315ZM68.6232 50.3711V38.5627H71.4514C72.2484 38.5627 72.919 38.6599 73.4632 38.8543C74.0172 39.039 74.4351 39.3597 74.7169 39.8165C75.0085 40.2732 75.1543 40.8953 75.1543 41.6825C75.1543 42.1587 75.1105 42.5863 75.0231 42.9654C74.9356 43.3444 74.785 43.67 74.5712 43.9421C74.3671 44.2045 74.0804 44.4086 73.711 44.5544L75.3584 50.3711H73.2008L71.7721 44.9626H70.7808V50.3711H68.6232ZM70.7808 43.6068H71.4514C71.8693 43.6068 72.1998 43.5485 72.4427 43.4319C72.6954 43.3055 72.8752 43.1111 72.9821 42.8487C73.089 42.5766 73.1425 42.2316 73.1425 41.8137C73.1425 41.2208 73.0307 40.7786 72.8072 40.4871C72.5934 40.1858 72.1803 40.0351 71.568 40.0351H70.7808V43.6068ZM76.7804 50.3711L79.1421 38.5627H81.4455L83.8071 50.3711H81.8099L81.3434 47.645H79.2879L78.8068 50.3711H76.7804ZM79.5066 46.2746H81.1102L80.3084 41.318L79.5066 46.2746ZM85.5209 50.3711V38.5627H88.9905C89.7 38.5627 90.2734 38.6939 90.7107 38.9564C91.1578 39.2188 91.4834 39.6027 91.6875 40.108C91.9013 40.6037 92.0082 41.2063 92.0082 41.9157C92.0082 42.6835 91.877 43.3055 91.6146 43.7817C91.3522 44.2482 90.9828 44.5884 90.5066 44.8022C90.0401 45.016 89.4862 45.1229 88.8447 45.1229H87.6785V50.3711H85.5209ZM87.6785 43.6068H88.4948C88.8836 43.6068 89.1849 43.5533 89.3987 43.4464C89.6222 43.3298 89.7729 43.15 89.8506 42.907C89.9381 42.6544 89.9818 42.3191 89.9818 41.9012C89.9818 41.4735 89.9478 41.1285 89.8798 40.8661C89.8215 40.594 89.6854 40.3947 89.4716 40.2684C89.2675 40.142 88.9419 40.0789 88.4948 40.0789H87.6785V43.6068ZM93.7639 50.3711V38.5627H95.9069V43.5048H98.3124V38.5627H100.47V50.3711H98.3124V45.0355H95.9069V50.3711H93.7639ZM104.507 50.3711V45.8664L102.116 38.5627H104.128L105.586 43.2423L106.956 38.5627H108.924L106.563 45.8664V50.3711H104.507Z" fill="white"/>
</svg>
