<svg width="129" height="130" viewBox="0 0 129 130" fill="none" xmlns="http://www.w3.org/2000/svg">
<rect x="1.45431" y="1.57357" width="126.649" height="126.649" stroke="white" stroke-width="1.6198"/>
<path d="M34.4204 71.5591V59.7507H39.377V61.2669H36.578V64.6636H38.7793V66.1651H36.578V70.0721H39.4061V71.5591H34.4204ZM41.2391 71.5591V59.7507H44.0235C44.9857 59.7507 45.7341 59.8819 46.2686 60.1443C46.8128 60.4067 47.1967 60.8101 47.4203 61.3543C47.6535 61.8986 47.7701 62.5886 47.7701 63.4244V67.7396C47.7701 68.5948 47.6535 69.3092 47.4203 69.8826C47.1967 70.4463 46.8177 70.869 46.2832 71.1509C45.7584 71.423 45.0343 71.5591 44.111 71.5591H41.2391ZM43.3967 70.0575H44.0527C44.5484 70.0575 44.9031 69.9701 45.1169 69.7951C45.3307 69.6202 45.4619 69.3675 45.5105 69.0371C45.5591 68.6969 45.5834 68.2838 45.5834 67.7979V63.2787C45.5834 62.8024 45.5494 62.4185 45.4814 62.127C45.4133 61.8354 45.2724 61.6216 45.0586 61.4855C44.8448 61.3495 44.4998 61.2814 44.0235 61.2814H43.3967V70.0575ZM49.9954 71.5591V59.7507H52.1238V71.5591H49.9954ZM55.7157 71.5591V61.3398H53.8351V59.7507H59.7247V61.3398H57.8733V71.5591H55.7157ZM64.5324 71.7194C63.6965 71.7194 63.0308 71.5639 62.5351 71.2529C62.0395 70.9419 61.6848 70.4949 61.4709 69.9117C61.2571 69.3286 61.1502 68.6386 61.1502 67.8416V63.4244C61.1502 62.6275 61.2571 61.9472 61.4709 61.3835C61.6848 60.8101 62.0395 60.3727 62.5351 60.0714C63.0308 59.7702 63.6965 59.6195 64.5324 59.6195C65.3876 59.6195 66.0582 59.7702 66.5442 60.0714C67.0398 60.3727 67.3946 60.8101 67.6084 61.3835C67.8319 61.9472 67.9437 62.6275 67.9437 63.4244V67.8562C67.9437 68.6434 67.8319 69.3286 67.6084 69.9117C67.3946 70.4852 67.0398 70.9322 66.5442 71.2529C66.0582 71.5639 65.3876 71.7194 64.5324 71.7194ZM64.5324 70.1304C64.892 70.1304 65.1544 70.0527 65.3196 69.8972C65.4945 69.7417 65.6112 69.5279 65.6695 69.2557C65.7278 68.9836 65.7569 68.6872 65.7569 68.3665V62.9288C65.7569 62.5983 65.7278 62.3019 65.6695 62.0395C65.6112 61.7771 65.4945 61.573 65.3196 61.4272C65.1544 61.2717 64.892 61.194 64.5324 61.194C64.1922 61.194 63.9347 61.2717 63.7597 61.4272C63.5848 61.573 63.4682 61.7771 63.4098 62.0395C63.3515 62.3019 63.3224 62.5983 63.3224 62.9288V68.3665C63.3224 68.6872 63.3467 68.9836 63.3953 69.2557C63.4536 69.5279 63.5702 69.7417 63.7451 69.8972C63.9201 70.0527 64.1825 70.1304 64.5324 70.1304ZM70.1228 71.5591V59.7507H72.9509C73.7479 59.7507 74.4185 59.8479 74.9627 60.0423C75.5167 60.2269 75.9346 60.5477 76.2165 61.0045C76.508 61.4612 76.6538 62.0832 76.6538 62.8705C76.6538 63.3467 76.6101 63.7743 76.5226 64.1533C76.4351 64.5324 76.2845 64.858 76.0707 65.1301C75.8666 65.3925 75.5799 65.5966 75.2106 65.7424L76.8579 71.5591H74.7003L73.2717 66.1506H72.2803V71.5591H70.1228ZM72.2803 64.7948H72.9509C73.3689 64.7948 73.6993 64.7365 73.9423 64.6199C74.195 64.4935 74.3747 64.2991 74.4817 64.0367C74.5886 63.7646 74.642 63.4196 74.642 63.0017C74.642 62.4088 74.5302 61.9666 74.3067 61.6751C74.0929 61.3738 73.6799 61.2231 73.0676 61.2231H72.2803V64.7948ZM78.9075 71.5591V59.7507H81.0359V71.5591H78.9075ZM82.8493 71.5591L85.211 59.7507H87.5144L89.876 71.5591H87.8788L87.4123 68.833H85.3568L84.8757 71.5591H82.8493ZM85.5754 67.4626H87.1791L86.3773 62.506L85.5754 67.4626ZM91.5898 71.5591V59.7507H93.7473V70.0721H96.6047V71.5591H91.5898Z" fill="white"/>
</svg>
