<svg width="166" height="14" viewBox="0 0 166 14" fill="none" xmlns="http://www.w3.org/2000/svg">
<path d="M2.5187 13.5391V2.36141H0.461752V0.623371H6.90365V2.36141H4.8786V13.5391H2.5187ZM7.79161 13.5391V0.623371H10.1356V6.02883H12.7665V0.623371H15.1264V13.5391H12.7665V7.70308H10.1356V13.5391H7.79161ZM20.2917 13.7145C19.3775 13.7145 18.6494 13.5444 18.1072 13.2042C17.5651 12.864 17.1771 12.3751 16.9432 11.7372C16.7093 11.0994 16.5924 10.3447 16.5924 9.47301V4.64159C16.5924 3.76991 16.7093 3.0258 16.9432 2.40924C17.1771 1.78206 17.5651 1.3037 18.1072 0.974168C18.6494 0.644631 19.3775 0.479863 20.2917 0.479863C21.2272 0.479863 21.9607 0.644631 22.4922 0.974168C23.0343 1.3037 23.4223 1.78206 23.6562 2.40924C23.9007 3.0258 24.0229 3.76991 24.0229 4.64159V9.48896C24.0229 10.35 23.9007 11.0994 23.6562 11.7372C23.4223 12.3644 23.0343 12.8534 22.4922 13.2042C21.9607 13.5444 21.2272 13.7145 20.2917 13.7145ZM20.2917 11.9764C20.685 11.9764 20.9721 11.8914 21.1528 11.7213C21.3441 11.5512 21.4717 11.3174 21.5355 11.0197C21.5992 10.7221 21.6311 10.3978 21.6311 10.047V4.09945C21.6311 3.73802 21.5992 3.4138 21.5355 3.12678C21.4717 2.83977 21.3441 2.61653 21.1528 2.45708C20.9721 2.287 20.685 2.20196 20.2917 2.20196C19.9197 2.20196 19.638 2.287 19.4466 2.45708C19.2553 2.61653 19.1277 2.83977 19.0639 3.12678C19.0002 3.4138 18.9683 3.73802 18.9683 4.09945V10.047C18.9683 10.3978 18.9948 10.7221 19.048 11.0197C19.1118 11.3174 19.2393 11.5512 19.4307 11.7213C19.622 11.8914 19.909 11.9764 20.2917 11.9764ZM28.9895 13.7145C28.0328 13.7145 27.2887 13.5391 26.7572 13.1883C26.2257 12.8375 25.8589 12.3379 25.6569 11.6894C25.455 11.041 25.354 10.265 25.354 9.36139V0.623371H27.6501V9.63246C27.6501 10.0364 27.6767 10.4191 27.7298 10.7805C27.783 11.1313 27.9052 11.4183 28.0966 11.6416C28.2985 11.8542 28.5962 11.9605 28.9895 11.9605C29.4041 11.9605 29.7017 11.8542 29.8824 11.6416C30.0738 11.4183 30.196 11.1313 30.2492 10.7805C30.313 10.4191 30.3449 10.0364 30.3449 9.63246V0.623371H32.625V9.36139C32.625 10.265 32.5241 11.041 32.3221 11.6894C32.1201 12.3379 31.7534 12.8375 31.2219 13.1883C30.701 13.5391 29.9569 13.7145 28.9895 13.7145ZM37.3992 13.7145C36.5487 13.7145 35.8737 13.5337 35.3741 13.1723C34.8745 12.8109 34.5131 12.3006 34.2898 11.6416C34.0772 10.9719 33.9709 10.1852 33.9709 9.28167V4.94455C33.9709 4.01972 34.0772 3.22245 34.2898 2.55275C34.5024 1.88305 34.8745 1.3728 35.406 1.022C35.9481 0.660577 36.6922 0.479863 37.6383 0.479863C38.5206 0.479863 39.2222 0.628686 39.7431 0.926332C40.264 1.22398 40.6361 1.6545 40.8593 2.2179C41.0932 2.77067 41.2101 3.44569 41.2101 4.24295V4.91266H38.9618V4.17917C38.9618 3.76459 38.9299 3.40848 38.8661 3.11084C38.813 2.81319 38.696 2.58996 38.5153 2.44113C38.3452 2.28168 38.0635 2.20196 37.6702 2.20196C37.2556 2.20196 36.9527 2.30294 36.7613 2.50492C36.5806 2.70689 36.4637 2.97265 36.4105 3.30218C36.368 3.63172 36.3468 3.99314 36.3468 4.38646V9.79192C36.3468 10.2384 36.384 10.6264 36.4584 10.9559C36.5328 11.2855 36.671 11.5406 36.873 11.7213C37.0749 11.8914 37.362 11.9764 37.734 11.9764C38.1167 11.9764 38.409 11.8808 38.611 11.6894C38.813 11.4981 38.9512 11.2323 39.0256 10.8921C39.1106 10.552 39.1531 10.148 39.1531 9.6803V8.46846H37.7659V6.98555H41.2739V13.5391H39.7591L39.5837 12.2634C39.4136 12.6886 39.1531 13.0394 38.8023 13.3158C38.4622 13.5816 37.9944 13.7145 37.3992 13.7145ZM42.7822 13.5391V0.623371H45.1262V6.02883H47.7571V0.623371H50.117V13.5391H47.7571V7.70308H45.1262V13.5391H42.7822ZM53.0659 13.5391V2.36141H51.009V0.623371H57.4509V2.36141H55.4258V13.5391H53.0659ZM65.3414 13.7145C64.3953 13.7145 63.6512 13.5284 63.1091 13.1564C62.5776 12.7843 62.2055 12.2794 61.9929 11.6416C61.7803 10.9931 61.674 10.249 61.674 9.40923V4.80104C61.674 3.91873 61.7803 3.15336 61.9929 2.50492C62.2055 1.85647 62.5776 1.35686 63.1091 1.00606C63.6512 0.655262 64.3953 0.479863 65.3414 0.479863C66.2344 0.479863 66.9306 0.634001 67.4303 0.942277C67.9405 1.23992 68.3019 1.67045 68.5145 2.23385C68.7271 2.79725 68.8334 3.451 68.8334 4.19512V5.2794H66.5692V4.16323C66.5692 3.8018 66.548 3.47226 66.5054 3.17462C66.4735 2.87697 66.3726 2.64311 66.2025 2.47303C66.043 2.29231 65.7613 2.20196 65.3574 2.20196C64.9534 2.20196 64.6558 2.29763 64.4644 2.48897C64.2837 2.66968 64.1668 2.91949 64.1136 3.2384C64.0605 3.54668 64.0339 3.89747 64.0339 4.29079V9.90353C64.0339 10.3713 64.0711 10.7593 64.1455 11.0675C64.2199 11.3652 64.3528 11.5937 64.5442 11.7532C64.7461 11.902 65.0172 11.9764 65.3574 11.9764C65.7507 11.9764 66.0271 11.8861 66.1865 11.7054C66.3566 11.514 66.4629 11.2642 66.5054 10.9559C66.548 10.6476 66.5692 10.3022 66.5692 9.91948V8.75547H68.8334V9.79192C68.8334 10.5573 68.7325 11.2376 68.5305 11.8329C68.3285 12.4176 67.9724 12.88 67.4621 13.2202C66.9625 13.5497 66.2556 13.7145 65.3414 13.7145ZM69.5038 13.5391L72.0869 0.623371H74.6063L77.1894 13.5391H75.0049L74.4946 10.5573H72.2464L71.7202 13.5391H69.5038ZM72.4855 9.05843H74.2395L73.3625 3.63703L72.4855 9.05843ZM78.8537 13.5391V2.36141H76.7968V0.623371H83.2387V2.36141H81.2136V13.5391H78.8537ZM83.1295 13.5391L85.7127 0.623371H88.232L90.8152 13.5391H88.6306L88.1204 10.5573H85.8721L85.3459 13.5391H83.1295ZM86.1113 9.05843H87.8653L86.9883 3.63703L86.1113 9.05843ZM91.7329 13.5391V0.623371H94.0928V11.9126H97.2181V13.5391H91.7329ZM101.478 13.7145C100.563 13.7145 99.8352 13.5444 99.2931 13.2042C98.7509 12.864 98.3629 12.3751 98.1291 11.7372C97.8952 11.0994 97.7783 10.3447 97.7783 9.47301V4.64159C97.7783 3.76991 97.8952 3.0258 98.1291 2.40924C98.3629 1.78206 98.7509 1.3037 99.2931 0.974168C99.8352 0.644631 100.563 0.479863 101.478 0.479863C102.413 0.479863 103.147 0.644631 103.678 0.974168C104.22 1.3037 104.608 1.78206 104.842 2.40924C105.087 3.0258 105.209 3.76991 105.209 4.64159V9.48896C105.209 10.35 105.087 11.0994 104.842 11.7372C104.608 12.3644 104.22 12.8534 103.678 13.2042C103.147 13.5444 102.413 13.7145 101.478 13.7145ZM101.478 11.9764C101.871 11.9764 102.158 11.8914 102.339 11.7213C102.53 11.5512 102.658 11.3174 102.721 11.0197C102.785 10.7221 102.817 10.3978 102.817 10.047V4.09945C102.817 3.73802 102.785 3.4138 102.721 3.12678C102.658 2.83977 102.53 2.61653 102.339 2.45708C102.158 2.287 101.871 2.20196 101.478 2.20196C101.106 2.20196 100.824 2.287 100.632 2.45708C100.441 2.61653 100.314 2.83977 100.25 3.12678C100.186 3.4138 100.154 3.73802 100.154 4.09945V10.047C100.154 10.3978 100.181 10.7221 100.234 11.0197C100.298 11.3174 100.425 11.5512 100.617 11.7213C100.808 11.8914 101.095 11.9764 101.478 11.9764ZM109.872 13.7145C109.022 13.7145 108.347 13.5337 107.847 13.1723C107.348 12.8109 106.986 12.3006 106.763 11.6416C106.55 10.9719 106.444 10.1852 106.444 9.28167V4.94455C106.444 4.01972 106.55 3.22245 106.763 2.55275C106.976 1.88305 107.348 1.3728 107.879 1.022C108.421 0.660577 109.165 0.479863 110.112 0.479863C110.994 0.479863 111.695 0.628686 112.216 0.926332C112.737 1.22398 113.109 1.6545 113.333 2.2179C113.566 2.77067 113.683 3.44569 113.683 4.24295V4.91266H111.435V4.17917C111.435 3.76459 111.403 3.40848 111.339 3.11084C111.286 2.81319 111.169 2.58996 110.989 2.44113C110.818 2.28168 110.537 2.20196 110.143 2.20196C109.729 2.20196 109.426 2.30294 109.235 2.50492C109.054 2.70689 108.937 2.97265 108.884 3.30218C108.841 3.63172 108.82 3.99314 108.82 4.38646V9.79192C108.82 10.2384 108.857 10.6264 108.932 10.9559C109.006 11.2855 109.144 11.5406 109.346 11.7213C109.548 11.8914 109.835 11.9764 110.207 11.9764C110.59 11.9764 110.882 11.8808 111.084 11.6894C111.286 11.4981 111.424 11.2323 111.499 10.8921C111.584 10.552 111.626 10.148 111.626 9.6803V8.46846H110.239V6.98555H113.747V13.5391H112.232L112.057 12.2634C111.887 12.6886 111.626 13.0394 111.276 13.3158C110.935 13.5816 110.468 13.7145 109.872 13.7145ZM118.128 13.5391L120.711 0.623371H123.231L125.814 13.5391H123.629L123.119 10.5573H120.871L120.345 13.5391H118.128ZM121.11 9.05843H122.864L121.987 3.63703L121.11 9.05843ZM129.891 13.7145C129.04 13.7145 128.365 13.5337 127.866 13.1723C127.366 12.8109 127.005 12.3006 126.781 11.6416C126.569 10.9719 126.462 10.1852 126.462 9.28167V4.94455C126.462 4.01972 126.569 3.22245 126.781 2.55275C126.994 1.88305 127.366 1.3728 127.897 1.022C128.44 0.660577 129.184 0.479863 130.13 0.479863C131.012 0.479863 131.714 0.628686 132.235 0.926332C132.755 1.22398 133.127 1.6545 133.351 2.2179C133.585 2.77067 133.702 3.44569 133.702 4.24295V4.91266H131.453V4.17917C131.453 3.76459 131.421 3.40848 131.358 3.11084C131.304 2.81319 131.187 2.58996 131.007 2.44113C130.837 2.28168 130.555 2.20196 130.162 2.20196C129.747 2.20196 129.444 2.30294 129.253 2.50492C129.072 2.70689 128.955 2.97265 128.902 3.30218C128.859 3.63172 128.838 3.99314 128.838 4.38646V9.79192C128.838 10.2384 128.875 10.6264 128.95 10.9559C129.024 11.2855 129.162 11.5406 129.364 11.7213C129.566 11.8914 129.853 11.9764 130.225 11.9764C130.608 11.9764 130.9 11.8808 131.102 11.6894C131.304 11.4981 131.443 11.2323 131.517 10.8921C131.602 10.552 131.645 10.148 131.645 9.6803V8.46846H130.257V6.98555H133.765V13.5391H132.251L132.075 12.2634C131.905 12.6886 131.645 13.0394 131.294 13.3158C130.954 13.5816 130.486 13.7145 129.891 13.7145ZM135.242 13.5391V0.623371H140.663V2.28168H137.602V5.99694H140.009V7.6393H137.602V11.9126H140.695V13.5391H135.242ZM141.743 13.5391V0.623371H143.386L146.527 7.9901V0.623371H148.472V13.5391H146.909L143.752 5.82154V13.5391H141.743ZM153.589 13.7145C152.643 13.7145 151.899 13.5284 151.357 13.1564C150.825 12.7843 150.453 12.2794 150.241 11.6416C150.028 10.9931 149.922 10.249 149.922 9.40923V4.80104C149.922 3.91873 150.028 3.15336 150.241 2.50492C150.453 1.85647 150.825 1.35686 151.357 1.00606C151.899 0.655262 152.643 0.479863 153.589 0.479863C154.482 0.479863 155.179 0.634001 155.678 0.942277C156.188 1.23992 156.55 1.67045 156.762 2.23385C156.975 2.79725 157.081 3.451 157.081 4.19512V5.2794H154.817V4.16323C154.817 3.8018 154.796 3.47226 154.753 3.17462C154.721 2.87697 154.62 2.64311 154.45 2.47303C154.291 2.29231 154.009 2.20196 153.605 2.20196C153.201 2.20196 152.904 2.29763 152.712 2.48897C152.532 2.66968 152.415 2.91949 152.362 3.2384C152.308 3.54668 152.282 3.89747 152.282 4.29079V9.90353C152.282 10.3713 152.319 10.7593 152.393 11.0675C152.468 11.3652 152.601 11.5937 152.792 11.7532C152.994 11.902 153.265 11.9764 153.605 11.9764C153.999 11.9764 154.275 11.8861 154.434 11.7054C154.604 11.514 154.711 11.2642 154.753 10.9559C154.796 10.6476 154.817 10.3022 154.817 9.91948V8.75547H157.081V9.79192C157.081 10.5573 156.98 11.2376 156.778 11.8329C156.576 12.4176 156.22 12.88 155.71 13.2202C155.21 13.5497 154.503 13.7145 153.589 13.7145ZM160.176 13.5391V8.61197L157.561 0.623371H159.761L161.356 5.74181L162.855 0.623371H165.007L162.424 8.61197V13.5391H160.176Z" fill="black"/>
</svg>
