<svg width="49" height="49" viewBox="0 0 49 49" fill="none" xmlns="http://www.w3.org/2000/svg">
<circle cx="24.5694" cy="24.5073" r="21.6746" transform="rotate(7.00893 24.5694 24.5073)" fill="black"/>
<path fill-rule="evenodd" clip-rule="evenodd" d="M31.9182 10.1772L31.9152 10.2015C31.8627 10.6403 31.2115 16.9972 37.8174 18.2108C37.0922 24.1101 37.8204 18.2112 37.2181 23.1107C36.7145 23.0789 32.8687 22.3215 30.7188 19.8709L29.5387 29.4081C29.0674 33.7344 26.1424 37.6743 21.5364 37.9745C20.2459 38.0583 19.1071 37.9456 17.2522 37.2948C6.67514 32.6601 12.3264 16.8221 23.1379 19.9206C22.4915 25.1785 23.1411 19.9195 22.4945 25.1789C18.022 23.9488 16.0325 27.5506 16.9092 30.4126C17.7071 33.018 22.1765 34.1113 24.1868 30.8211C24.4498 30.1611 24.635 29.3945 24.7423 28.5215L27.0709 9.58127L31.9182 10.1772Z" fill="white"/>
</svg>
