<?xml version="1.0" encoding="utf-8"?>
<!-- Generator: Adobe Illustrator 14.0.0, SVG Export Plug-In . SVG Version: 6.00 Build 43363)  -->
<!DOCTYPE svg PUBLIC "-//W3C//DTD SVG 1.0//EN" "http://www.w3.org/TR/2001/REC-SVG-20010904/DTD/svg10.dtd">
<svg xmlns="http://www.w3.org/2000/svg" viewBox="0 0 68 36" class="icon-titos "><path d="M1.3,11.3c0-0.9,0.3-1.5,0.7-2.2c2.2-3.7,5.5-5.7,9.8-5.8c2.8-0.1,5.6,0,8.3,0c1.8,0,3.3-0.6,4.5-1.9 c0.8-0.8,1.7-1.1,2.6-1.5c0,0,0.1,0,0.1,0.1l-0.9,1.3c-1.9,2-4.2,3.2-6.9,3.7c-1.2,0.2-2.3,0.3-3.5,0.3c-0.3,0-0.4,0.1-0.5,0.3 c-1.5,2.9-2.9,5.9-4.5,8.8c-1.2,2.2-2.9,3.9-4.9,5.3c0,0-0.1,0.1-0.2,0.1h3.9c-0.4,0.4-0.8,0.8-1.1,1.3c-0.5,0.8-1.2,1-2.2,1 c-2.1-0.1-4.2,0-6.3,0H0c0.1-0.1,0.1-0.2,0.2-0.2L2.3,20c0.1-0.1,0.3-0.1,0.4-0.1h0.5c0.7,0.1,1.3-0.2,1.9-0.6c1-0.9,1.8-2,2.4-3.1 c1.9-3.4,3.7-6.8,5.4-10.3l0.2-0.4c-0.6,0-1.2-0.1-1.8,0C10.1,5.6,8.9,5.8,7.7,6c-1.5,0.3-3.3,1.8-3.4,4c0,0.1-0.1,0.3-0.1,0.3 C3.3,10.6,2.3,10.9,1.3,11.3"></path><path d="M48.6,10.8v-0.6c-0.1-1-0.8-1.4-1.7-1.1c-1,0.3-1.9,0.7-2.6,1.4c-2.1,2-3.5,4.4-4.2,7.2 c-0.2,0.6-0.2,1.3-0.1,1.9c0.1,1.1,0.9,1.6,2,1.3c1.1-0.3,1.9-1,2.6-1.7c1.6-1.7,2.7-3.7,3.5-5.8C48.3,12.6,48.6,11.8,48.6,10.8 M40.2,22.1c-0.5,0-1-0.1-1.5-0.2c-1.1-0.2-1.7-0.9-1.9-2s0.1-2.2,0.5-3.2c0.9-2.1,2.4-3.8,4.1-5.3c1.5-1.3,3.1-2.4,4.9-3 c1-0.3,2-0.5,3.1-0.2c1.2,0.3,1.8,1.2,1.9,2.4c0,1-0.2,2-0.6,2.9c-1.5,3.2-3.7,5.8-6.8,7.6C42.8,21.8,41.6,22.2,40.2,22.1"></path><path d="M31.5,9.6H29l1.2-1.2c0.1-0.1,0.2,0,0.3,0h1.6c0.2,0,0.3-0.1,0.4-0.3C33,7,33.6,5.9,34.1,4.9 c0.1-0.2,0.3-0.3,0.5-0.4l2.2-0.4c-0.6,1.4-1.3,2.8-1.9,4.3h4.3v0.2c-0.4,0.4-0.8,0.7-1.3,1.1c-0.1,0.1-0.3,0.1-0.4,0 c-1.1,0-2.1,0-3.2-0.1c-0.2,0-0.3,0.1-0.4,0.2l-4.5,9.1c-0.2,0.3-0.3,0.6-0.4,1s0,0.6,0.5,0.5c0.7,0,1.3-0.3,1.8-0.7l1.8-1.6 c0.1,0,0.1-0.1,0.2-0.2c0.1,0.6,0.2,1.1-0.3,1.5c-1.5,1.3-3.3,2.2-5.3,2.6c-1.1,0.2-1.5-0.4-1.6-1.4c0-0.8,0.3-1.6,0.7-2.3 c0.9-1.8,1.8-3.6,2.7-5.3l1.6-3.2C31.4,9.8,31.4,9.7,31.5,9.6"></path><path d="M20,20.5c2.1-0.1,3.3-1.5,4.7-2.6c0,0,0.1,0,0.1,0.1c-0.1,0.3-0.1,0.7-0.3,0.9c-1.5,1.6-3.2,2.7-5.4,3.3h-0.5 c-0.7,0-1.2-0.5-1.1-1.2s0.3-1.4,0.5-2c0.8-1.9,1.8-3.8,2.6-5.6l1-2.2c0.1-0.1,0.1-0.4,0-0.5s-0.3-0.1-0.5-0.1 c-0.6,0.1-1.2,0.3-1.8,0.5c-0.1,0-0.2,0-0.3,0.1c0.1-0.4,0.3-0.7,0.4-0.9c0-0.1,0.2-0.2,0.3-0.2L26,8.3h0.3 C24.2,12.2,21.8,16.1,20,20.5"></path><path d="M52.6,21.3c0.7-0.7,1.4-1.3,2.1-1.9l0.8,0.7c1.4,0.9,3.4,0.6,4.5-0.6c0.4-0.5,0.6-1.1,0.3-1.7L59,14.9 c-0.3-0.7-0.5-1.4-0.4-2.2c0.1-1,0.5-1.9,1.2-2.5c1.5-1.5,3.4-2.3,5.6-2.3c0.7,0,1.5,0.2,2.2,0.5l-0.8,1.5 c-0.1,0.2-0.2,0.4-0.3,0.5C66,11.1,65.9,11.1,65,11l0.2-0.3c0.5-0.8,0.2-1.4-0.6-1.6c-1.2-0.3-2.2,0-3.1,0.8 c-0.3,0.4-0.5,0.8-0.5,1.3c0,0.3,0.1,0.6,0.2,0.9c0.3,0.8,0.7,1.6,1,2.5c0.2,0.6,0.5,1.2,0.6,1.9c0.2,1.1-0.2,2.1-1,2.9 C60.2,21,58.3,21.9,56,22C54.8,22,53.7,21.7,52.6,21.3"></path><path d="M55.4,8.9l1.2-6.8h3c-0.2,0.4-0.3,0.7-0.4,1l-2.7,5.6c-0.1,0.1-0.2,0.2-0.4,0.2L55.4,8.9"></path><path d="M42.4,32.2c1.2,1,2,2.5,3.5,3.3h-2.7v-0.1c0.2-0.1,0.4-0.2,0.7-0.3c-0.7-0.8-1.4-1.6-2.2-2.4 c-0.1,0.2-0.2,0.4-0.2,0.5v1.5c0,0.3,0.1,0.4,0.4,0.5c0.1,0,0.3,0.1,0.4,0.2v0.1h-2.5v-0.1l0.4-0.2c0.2-0.1,0.4-0.2,0.4-0.4v-4.3 c0-0.5-0.1-0.6-0.5-0.7c-0.1,0-0.1-0.1-0.2-0.2c0.1,0,0.2-0.1,0.2-0.1h2.1c0.1,0,0.2,0,0.2,0.1L42,29.8c-0.2,0.1-0.4,0.2-0.4,0.4v2 c0.2-0.2,0.5-0.4,0.6-0.5l1.4-1.4c0.3-0.3,0.2-0.4-0.2-0.5c-0.1,0-0.2-0.1-0.3-0.2h2.3v0.1l-0.3,0.1c-0.2,0.1-0.5,0.2-0.7,0.4 l-1.9,1.7C42.5,32.1,42.5,32.1,42.4,32.2"></path><path d="M32.5,35.1c1.1,0.1,2.2,0,2.8-0.9s0.6-2,0.1-3C34.9,30.3,34,30,33,30.1c-0.3,0-0.4,0.1-0.4,0.4v3.3 C32.5,34.2,32.5,34.7,32.5,35.1 M30.8,35.4l0.4-0.2c0.2-0.1,0.3-0.2,0.3-0.4v-4.4c0-0.1-0.2-0.3-0.3-0.4c-0.1-0.1-0.3-0.1-0.5-0.2 c0-0.1,0-0.1,0.1-0.1c1.2,0,2.5-0.2,3.7,0.1c1.5,0.4,2.3,1.3,2.2,2.9c0,1.4-0.9,2.5-2.3,2.7c-1.2,0.2-2.4,0.1-3.6,0.2L30.8,35.4"></path><path d="M27.7,0.6l-0.2,0.7c-1.9,2.8-4.5,4.5-7.8,5.1c-1,0.2-2,0.2-3,0.2c-0.3,0-0.4,0.1-0.5,0.3 c-1.2,2.8-2.5,5.5-4.1,8.1c-1,1.6-2.1,3.1-3.5,4.3c-0.1,0.1-0.2,0.2-0.4,0.3c-0.1-0.2-0.2-0.3,0-0.5c2-1.8,3.5-4,4.7-6.4l3-6.1 c0.2-0.3,0.3-0.4,0.7-0.4c4.1,0.2,7.5-1.3,10.2-4.4C27,1.3,27.3,1,27.6,0.6L27.7,0.6"></path><path d="M26.8,32.7l-0.2-1.2c-0.2-0.9-0.9-1.5-1.7-1.5c-0.8,0-1.5,0.5-1.7,1.4c-0.3,0.9-0.3,1.8,0,2.7 c0.3,0.8,1,1.3,1.7,1.3c0.8,0,1.4-0.5,1.6-1.4C26.7,33.5,26.7,33.1,26.8,32.7 M24.9,29.6c1.7,0,2.9,1.3,2.9,3 c0,1.8-1.2,3.1-2.9,3.1s-2.9-1.3-2.9-3C22,30.8,23.2,29.6,24.9,29.6"></path><path d="M51.5,31.1c-0.4,0.7-0.7,1.4-1,2.2h1.9C52.1,32.5,51.8,31.8,51.5,31.1 M53.2,35.1l-0.6-1.3 c0-0.1-0.2-0.2-0.3-0.2h-1.8c-0.1,0-0.2,0.1-0.3,0.2l-0.4,1c-0.1,0.3,0,0.4,0.3,0.5c0.1,0,0.2,0.1,0.3,0.2h-1.8l0.1-0.2 c0.4-0.2,0.6-0.6,0.8-1l1.9-4.5l0.2-0.3c0.1,0.1,0.2,0.2,0.2,0.3l2,4.5c0.2,0.4,0.3,0.9,0.9,1c-0.2,0.2-1.7,0.3-2.4,0.1 C52.7,35.3,52.9,35.3,53.2,35.1"></path><path d="M16.4,34c0.4-1.2,0.9-2.4,1.3-3.5c0.1-0.2,0-0.4-0.2-0.5c-0.1-0.1-0.3-0.1-0.4-0.3H19 c-0.1,0.1-0.1,0.2-0.2,0.2c-0.5,0.2-0.6,0.7-0.8,1.1c-0.6,1.5-1.1,2.9-1.7,4.3c0,0.1-0.1,0.3-0.2,0.5c-0.1-0.2-0.2-0.4-0.3-0.5 c-0.7-1.5-1.4-3.1-2-4.6c-0.2-0.3-0.4-0.6-0.7-0.8c-0.1,0-0.1-0.1-0.2-0.2h2.4v0.1L14.9,30c-0.2,0-0.3,0.1-0.2,0.4 c0.5,1.2,1.1,2.4,1.6,3.7C16.3,34.1,16.4,34,16.4,34z"></path><path d="M40.6,22.7l1.3-0.1c1.1-0.1,2-0.7,3-1.3c2.2-1.5,4.1-3.2,5.5-5.4c0.9-1.3,1.5-2.7,1.6-4.3c0-0.6-0.1-1.3-0.2-2 c-0.1-0.5-0.4-0.9-0.8-1.3c0.6,0.2,0.9,0.5,1.2,1.1c0.3,0.7,0.3,1.5,0.2,2.3c-0.2,1.9-1,3.6-2.1,5.2c-1.5,2.1-3.4,3.8-5.7,5.2 C43.3,22.7,41.9,22.8,40.6,22.7"></path><path d="M39.5,9c0.2,0.3,0,0.5-0.1,0.7c-0.6,0.7-1.3,1-2.2,0.9l-1.9-0.1c-0.2,0-0.4,0-0.5,0.3c-1.5,2.9-3,5.8-4.4,8.8 l-0.3,0.5c-0.1,0-0.1,0-0.2-0.1c0.1-0.3,0.1-0.6,0.2-0.8c1.5-2.9,3-5.8,4.4-8.7c0.1-0.2,0.2-0.3,0.5-0.3c1,0,1.9,0,2.9,0.1 c0.3,0,0.5-0.1,0.7-0.3C38.8,9.6,39.1,9.3,39.5,9"></path><path d="M63.4,9.3c-0.4,0.3-0.8,0.5-1.1,0.8c-0.6,0.5-0.8,1.2-0.5,1.9c0.2,0.5,0.4,0.9,0.7,1.3c0.6,1,0.9,2.1,0.9,3.2 c0,2.2-1,3.7-2.9,4.7c-1.3,0.6-2.6,0.9-4,1.1c0.7-0.2,1.4-0.3,2-0.6c0.8-0.3,1.5-0.6,2.2-1c2-1.3,2.7-3.4,2-5.6 c-0.2-0.7-0.6-1.3-0.9-1.9c-0.3-0.6-0.6-1.1-0.6-1.7c-0.1-0.6,0.1-1.1,0.6-1.5S62.9,9.4,63.4,9.3"></path><path d="M29.9,1.8l-1.2,1.9c0,0.1-0.1,0.1-0.2,0.2l-3.9,1.9h-0.2c0.2-0.3,0.4-0.5,0.5-0.8c0.5-0.8,1.2-1.4,2.1-1.8 C27.9,3,28.7,2.4,29.5,2C29.6,1.9,29.7,1.9,29.9,1.8"></path><path d="M1.6,11.6c0.8-0.3,1.5-0.6,2.3-0.8c0.7-0.2,1.1-0.5,1.2-1.3C5.4,8,6.4,7,7.9,6.5C9.2,6,10.5,6,11.8,6 c0,0.3-0.1,0.4-0.4,0.4c-1,0.1-1.9,0.1-2.9,0.3C6.8,7.1,5.7,8.2,5.4,10c-0.1,0.5-0.3,0.8-0.8,1l-2.4,0.9C2,11.9,1.8,11.9,1.6,11.6"></path><path d="M0.3,22.6h7.3c0.4,0,0.6-0.1,0.8-0.3c0.5-0.6,1-1.2,1.5-1.7c0.1-0.1,0.2-0.2,0.3-0.4c0.1,0.3,0.1,0.4,0,0.7 l-1.7,2C8.5,23,8.3,23,8.2,23H0.9C0.6,23,0.5,22.9,0.3,22.6"></path><path d="M26.8,8.4c0.1,0.4,0,0.8-0.2,1.1l-3.2,5.9c-0.6,1.2-1.2,2.4-1.8,3.7c-0.1,0.2-0.3,0.3-0.4,0.4l-0.1-0.1 c0.1-0.3,0.1-0.5,0.3-0.8l2-4c1-1.9,2.1-3.9,3.2-5.8C26.6,8.6,26.7,8.6,26.8,8.4"></path><path d="M59.9,2.7c0.1,0.4,0.1,0.7,0,1.1c-1,1.9-1.9,3.9-2.8,5.9C57,10,56.8,10,56.5,10c-0.3-0.1-0.7-0.2-0.9-0.5 c0.2,0,0.4,0,0.6,0.1c0.4,0.1,0.5,0,0.6-0.3l2.9-6.1C59.7,2.9,59.8,2.8,59.9,2.7"></path><path d="M30.1,2.3c0.1,0.4,0.1,0.8-0.1,1.1l-0.2,0.3c-0.3,0.9-0.9,1.4-1.7,1.7c-0.7,0.3-1.5,0.6-2.2,1 c-0.3,0.2-0.6,0.1-0.8-0.1l1.1-0.5c0.8-0.3,1.6-0.7,2.3-1c0.2-0.1,0.4-0.3,0.6-0.5c0.3-0.4,0.5-0.9,0.7-1.3 C29.9,2.7,30,2.5,30.1,2.3"></path><path d="M34.1,18.1c0.5,0.4,0.5,1,0.2,1.5c-0.2,0.3-0.5,0.5-0.7,0.7c-1.2,1.1-2.6,2-4.3,2.3c-0.3,0.1-0.6,0.1-0.9,0.1 c2.2-0.4,4-1.6,5.4-3.2c0.2-0.2,0.2-0.4,0.3-0.7V18.1"></path><path d="M25.1,18.1c0.5,0.5,0.5,1.1,0.1,1.5c-1.5,1.7-3.3,2.8-5.6,3.1h-0.2c1-0.2,2-0.5,2.8-1.1c1-0.6,1.9-1.3,2.6-2.2 c0.2-0.2,0.2-0.6,0.2-0.9C25.1,18.4,25.1,18.3,25.1,18.1"></path><path d="M65.1,11.5h0.5c0.5,0.1,0.8-0.2,1-0.6c0.3-0.7,0.7-1.3,1.1-2c0.2,0.3,0.2,0.6,0,0.9c-0.4,0.6-0.7,1.3-1,1.9 c-0.1,0.1-0.3,0.2-0.4,0.2C65.9,12,65.5,12,65.1,11.5"></path><path d="M35.7,8c0.5-1.2,1-2.4,1.6-3.7c0.2,0.3,0.3,0.5,0.1,0.8l-1.1,2.5C36.2,8,36.1,8.1,35.7,8"></path><path d="M47.1,9.3C47,9.4,47,9.5,46.9,9.5c-1.2,0.7-2.2,1.8-3,2.9c-1.2,1.5-2.2,3.2-2.8,5c-0.3,1-0.6,2-0.1,3 c-0.3-0.3-0.5-0.7-0.5-1.3c0-0.8,0.2-1.6,0.5-2.4c0.9-2.3,2.1-4.3,3.8-6C45.4,10,46.2,9.5,47.1,9.3"></path></svg>