<svg width="263" height="271" fill="none" xmlns="http://www.w3.org/2000/svg"><path d="M32.144 270.081h199.014v-20.028H32.144v20.028zM131.651.668L.301 87.376v37.794h31.843v102.442h199.014V125.17H263V87.376L131.651.668z" fill="#35BE95"/><path d="M59.76 159.058v-10.127l20.667-31.929a323.953 323.953 0 004.236-6.717 32.947 32.947 0 003.307-6.613c.895-2.342 1.343-4.891 1.343-7.647 0-3.1-.55-5.476-1.653-7.13-1.102-1.653-2.825-2.48-5.167-2.48-2.204 0-3.926.62-5.166 1.86-1.24 1.24-2.101 2.86-2.584 4.857-.413 1.998-.62 4.202-.62 6.613v3.514H60.07v-3.72c0-4.96.724-9.3 2.17-13.02 1.516-3.79 3.892-6.751 7.13-8.887 3.238-2.135 7.474-3.203 12.71-3.203 7.164 0 12.538 1.929 16.12 5.787 3.582 3.857 5.373 9.23 5.373 16.12 0 3.444-.482 6.578-1.447 9.402a40.153 40.153 0 01-3.823 7.957 190.154 190.154 0 01-5.166 7.853l-17.154 26.04h25.42v11.47H59.76zm70.583 1.24c-4.891 0-8.955-1.033-12.193-3.1-3.169-2.067-5.58-4.926-7.233-8.577-1.584-3.651-2.377-7.853-2.377-12.606V98.919c0-4.891.758-9.162 2.274-12.814 1.584-3.72 3.961-6.613 7.13-8.68 3.237-2.066 7.371-3.1 12.399-3.1 5.029 0 9.128 1.034 12.297 3.1 3.238 2.067 5.614 4.96 7.13 8.68 1.584 3.651 2.376 7.922 2.376 12.814v37.096c0 4.753-.826 8.955-2.48 12.606-1.584 3.651-3.995 6.51-7.233 8.577-3.169 2.067-7.199 3.1-12.09 3.1zm0-12.297c2.136 0 3.72-.654 4.754-1.963 1.033-1.309 1.722-2.893 2.066-4.753.345-1.86.517-3.686.517-5.477V99.125c0-1.929-.172-3.823-.517-5.683-.275-1.929-.93-3.548-1.963-4.857-1.033-1.308-2.652-1.963-4.857-1.963-2.204 0-3.823.654-4.856 1.963-1.034 1.31-1.722 2.928-2.067 4.857a38.807 38.807 0 00-.413 5.683v36.683c0 1.791.172 3.617.516 5.477.414 1.86 1.137 3.444 2.17 4.753 1.034 1.309 2.584 1.963 4.65 1.963zM172.842 118.161l12.909-44.117h4.956l-12.854 44.117h-5.011zm-5.283-19.88c-3.377 0-5.791-.944-7.244-2.832-1.452-1.888-2.178-4.594-2.178-8.116V84.61c0-3.595.708-6.282 2.124-8.06 1.416-1.78 3.849-2.67 7.298-2.67 3.45 0 5.882.872 7.299 2.615 1.452 1.706 2.178 4.357 2.178 7.952v2.995c0 3.522-.726 6.21-2.178 8.061-1.453 1.852-3.886 2.778-7.299 2.778zm0-5.011c.944 0 1.634-.254 2.07-.763.436-.508.726-1.216.871-2.124.146-.944.218-1.997.218-3.159v-2.56c0-1.815-.163-3.213-.49-4.193-.327-1.017-1.216-1.525-2.669-1.525-1.416 0-2.287.508-2.614 1.525-.327.98-.49 2.378-.49 4.194v2.614c0 1.162.072 2.197.218 3.104.145.908.435 1.616.871 2.124.436.509 1.107.763 2.015.763zm28.377 25.054c-3.377 0-5.792-.944-7.244-2.832-1.416-1.888-2.124-4.612-2.124-8.17v-2.669c0-3.594.689-6.281 2.069-8.06 1.416-1.816 3.849-2.724 7.299-2.724 3.485 0 5.936.872 7.352 2.614 1.417 1.743 2.125 4.412 2.125 8.007v2.941c0 3.558-.727 6.263-2.179 8.115-1.452 1.852-3.885 2.778-7.298 2.778zm0-5.065c.944 0 1.634-.254 2.069-.763.472-.508.763-1.216.872-2.124.145-.908.218-1.942.218-3.104v-2.615c0-1.815-.164-3.213-.491-4.194-.326-1.016-1.216-1.525-2.668-1.525-1.416 0-2.288.509-2.615 1.525-.326 1.017-.49 2.415-.49 4.194v2.615c0 1.198.073 2.251.218 3.159.145.871.436 1.561.871 2.069.436.509 1.108.763 2.016.763zM70.082 198.69v-19.411h-3.11v19.411h3.11zm6.827 0v-13.057h-3.084v13.057h3.084zm-3.566-17.642c0 1.126.911 2.011 2.01 2.011 1.127 0 2.038-.885 2.038-2.011a2.036 2.036 0 00-2.038-2.037c-1.099 0-2.01.911-2.01 2.037zm13.101.885c.59 0 .938.08 1.126.134v-2.654c-.214-.107-.858-.268-1.635-.268-2.682 0-4.558 1.769-4.558 4.692v1.796h-2.28v2.708h2.28v10.349h3.136v-10.349h3.03v-2.708h-3.03v-1.716c0-1.609 1.1-1.984 1.931-1.984zm7.57-.295h-2.816v1.957c0 1.153-.616 2.038-2.01 2.038h-.67v2.762h2.412v6.568c0 2.44 1.502 3.888 3.915 3.888 1.126 0 1.716-.214 1.903-.295v-2.574a6.623 6.623 0 01-1.072.107c-1.153 0-1.662-.482-1.662-1.635v-6.059h2.708v-2.762h-2.708v-3.995zm15.048 17.052v-13.057h-3.083v13.057h3.083zm-3.566-17.642c0 1.126.912 2.011 2.011 2.011 1.126 0 2.038-.885 2.038-2.011a2.037 2.037 0 00-2.038-2.037c-1.099 0-2.011.911-2.011 2.037zm10.421 10.108c0-1.716.938-3.083 2.708-3.083 1.957 0 2.681 1.287 2.681 2.896v7.721h3.11v-8.258c0-2.869-1.528-5.174-4.719-5.174-1.448 0-3.003.616-3.861 2.118v-1.743h-3.03v13.057h3.111v-7.534zm17.246 3.995c.161 1.475 1.609 3.941 5.39 3.941 3.324 0 4.933-2.198 4.933-4.182 0-1.931-1.287-3.432-3.754-3.968l-1.984-.402c-.804-.161-1.314-.671-1.314-1.368 0-.804.778-1.501 1.877-1.501 1.743 0 2.306 1.206 2.413 1.957l2.628-.751c-.215-1.287-1.394-3.646-5.041-3.646-2.708 0-4.799 1.93-4.799 4.209 0 1.797 1.207 3.298 3.512 3.807l1.931.429c1.045.215 1.528.751 1.528 1.448 0 .805-.67 1.502-1.957 1.502-1.663 0-2.547-1.046-2.655-2.226l-2.708.751zm12.151 0c0 2.065 1.689 3.941 4.424 3.941 2.118 0 3.405-1.072 4.022-2.064 0 1.046.107 1.582.134 1.662h2.896c-.027-.134-.161-.911-.161-2.091v-6.488c0-2.601-1.529-4.88-5.55-4.88-3.218 0-5.255 2.011-5.497 4.263l2.842.643c.134-1.313 1.046-2.359 2.682-2.359 1.715 0 2.466.885 2.466 1.984 0 .456-.214.831-.965.938l-3.351.51c-2.226.322-3.942 1.608-3.942 3.941zm5.014 1.502c-1.233 0-1.904-.805-1.904-1.69 0-1.072.778-1.608 1.743-1.769l3.405-.51v.59c0 2.547-1.501 3.379-3.244 3.379zm12.902 2.037v-19.411h-3.11v19.411h3.11zm5.916-7.963c.107-1.394 1.233-2.895 3.19-2.895 2.145 0 3.164 1.367 3.218 2.895h-6.408zm6.756 3.405c-.429 1.287-1.394 2.279-3.271 2.279-1.93 0-3.485-1.421-3.566-3.405h9.545c.027-.053.08-.482.08-.992 0-4.129-2.359-6.783-6.381-6.783-3.297 0-6.354 2.735-6.354 6.864 0 4.423 3.137 6.997 6.676 6.997 3.137 0 5.202-1.85 5.899-4.129l-2.628-.831zm4.34 1.019c.16 1.475 1.608 3.941 5.389 3.941 3.324 0 4.933-2.198 4.933-4.182 0-1.931-1.287-3.432-3.754-3.968l-1.984-.402c-.804-.161-1.313-.671-1.313-1.368 0-.804.777-1.501 1.876-1.501 1.743 0 2.306 1.206 2.413 1.957l2.628-.751c-.215-1.287-1.394-3.646-5.041-3.646-2.708 0-4.799 1.93-4.799 4.209 0 1.797 1.207 3.298 3.512 3.807l1.931.429c1.045.215 1.528.751 1.528 1.448 0 .805-.67 1.502-1.957 1.502-1.662 0-2.547-1.046-2.655-2.226l-2.707.751z" fill="#fff"/></svg>