<svg width="151" height="160" viewBox="10 -10 151 160" fill="none" xmlns="http://www.w3.org/2000/svg">
<path d="M13.6208 126.13L85.4741 1.67644L157.327 126.13H13.6208Z" stroke="white" stroke-width="1.6198"/>
<path d="M66.2686 78.7959L68.6302 66.9875H70.9336L73.2953 78.7959H71.298L70.8315 76.0698H68.776L68.2949 78.7959H66.2686ZM68.9947 74.6994H70.5983L69.7965 69.7428L68.9947 74.6994ZM78.2454 78.9563C77.3707 78.9563 76.6904 78.7959 76.2044 78.4752C75.7185 78.1545 75.3832 77.6977 75.1985 77.1048C75.0139 76.512 74.9215 75.8025 74.9215 74.9764V66.9875H77.0208V75.2242C77.0208 75.5936 77.0451 75.9434 77.0937 76.2739C77.1423 76.5946 77.254 76.857 77.429 77.0611C77.6136 77.2555 77.8858 77.3527 78.2454 77.3527C78.6244 77.3527 78.8965 77.2555 79.0617 77.0611C79.2367 76.857 79.3485 76.5946 79.397 76.2739C79.4554 75.9434 79.4845 75.5936 79.4845 75.2242V66.9875H81.5692V74.9764C81.5692 75.8025 81.4769 76.512 81.2922 77.1048C81.1076 77.6977 80.7723 78.1545 80.2863 78.4752C79.8101 78.7959 79.1298 78.9563 78.2454 78.9563ZM83.8493 78.7959V66.9875H86.6338C87.5959 66.9875 88.3443 67.1187 88.8788 67.3812C89.4231 67.6436 89.807 68.0469 90.0305 68.5911C90.2637 69.1354 90.3804 69.8254 90.3804 70.6613V74.9764C90.3804 75.8317 90.2637 76.546 90.0305 77.1194C89.807 77.6831 89.4279 78.1059 88.8934 78.3877C88.3686 78.6598 87.6445 78.7959 86.7212 78.7959H83.8493ZM86.0069 77.2943H86.6629C87.1586 77.2943 87.5133 77.2069 87.7271 77.0319C87.9409 76.857 88.0721 76.6043 88.1207 76.2739C88.1693 75.9337 88.1936 75.5207 88.1936 75.0347V70.5155C88.1936 70.0392 88.1596 69.6554 88.0916 69.3638C88.0236 69.0722 87.8826 68.8584 87.6688 68.7224C87.455 68.5863 87.11 68.5183 86.6338 68.5183H86.0069V77.2943ZM92.6056 78.7959V66.9875H94.734V78.7959H92.6056ZM100.352 78.9563C99.5165 78.9563 98.8508 78.8008 98.3551 78.4898C97.8594 78.1788 97.5047 77.7317 97.2909 77.1486C97.0771 76.5654 96.9702 75.8754 96.9702 75.0785V70.6613C96.9702 69.8643 97.0771 69.184 97.2909 68.6203C97.5047 68.0469 97.8594 67.6095 98.3551 67.3083C98.8508 67.007 99.5165 66.8563 100.352 66.8563C101.208 66.8563 101.878 67.007 102.364 67.3083C102.86 67.6095 103.215 68.0469 103.428 68.6203C103.652 69.184 103.764 69.8643 103.764 70.6613V75.093C103.764 75.8803 103.652 76.5654 103.428 77.1486C103.215 77.722 102.86 78.169 102.364 78.4898C101.878 78.8008 101.208 78.9563 100.352 78.9563ZM100.352 77.3672C100.712 77.3672 100.974 77.2895 101.14 77.134C101.314 76.9785 101.431 76.7647 101.489 76.4925C101.548 76.2204 101.577 75.924 101.577 75.6033V70.1656C101.577 69.8352 101.548 69.5387 101.489 69.2763C101.431 69.0139 101.314 68.8098 101.14 68.664C100.974 68.5085 100.712 68.4308 100.352 68.4308C100.012 68.4308 99.7546 68.5085 99.5797 68.664C99.4047 68.8098 99.2881 69.0139 99.2298 69.2763C99.1715 69.5387 99.1423 69.8352 99.1423 70.1656V75.6033C99.1423 75.924 99.1666 76.2204 99.2152 76.4925C99.2735 76.7647 99.3902 76.9785 99.5651 77.134C99.74 77.2895 100.002 77.3672 100.352 77.3672Z" fill="white"/>
</svg>
