<svg width="59" height="55" viewBox="0 0 59 55" fill="none" xmlns="http://www.w3.org/2000/svg">
<path d="M49.6123 26.8907C49.4555 27.2654 49.2731 27.6294 49.0899 27.9949C43.4964 39.1569 28.5387 47.7652 12.9843 39.9706L12.9876 39.9641C8.38934 37.6676 4.54845 34.0976 1.92328 29.6807C2.55131 30.0952 3.20305 30.4729 3.87524 30.8114C7.68207 32.7239 12.0208 33.3016 16.1933 32.4515C12.6093 30.5705 10.6156 26.6224 11.232 22.6262C12.377 23.5051 13.7082 24.1101 15.1231 24.3949C11.5761 21.6213 10.474 16.7361 12.4878 12.7149C12.506 12.6786 12.5241 12.6425 12.5414 12.6079C13.3894 13.8521 14.5241 14.8744 15.8498 15.5886C13.3759 11.2475 14.7037 5.73547 18.8823 3.00059C20.5322 10.4295 25.2598 16.812 31.8887 20.5599C32.6769 17.285 35.1494 14.6778 38.3795 13.7154C43.388 12.223 48.6627 15.0717 50.1608 20.0781C52.2416 20.6542 54.4051 20.8709 56.5583 20.7188C54.9468 22.3584 52.7934 23.3567 50.4991 23.5277C52.2747 24.1699 54.1364 24.5424 56.0222 24.6328C54.0372 25.7598 51.8665 26.5243 49.6123 26.8907Z" fill="#15B6EA"/>
</svg>
