<?xml version="1.0" standalone="no"?>
<!DOCTYPE svg PUBLIC "-//W3C//DTD SVG 20010904//EN"
 "http://www.w3.org/TR/2001/REC-SVG-20010904/DTD/svg10.dtd">
<svg version="1.0" xmlns="http://www.w3.org/2000/svg"
 width="1024.000000pt" height="1024.000000pt" viewBox="0 0 1024.000000 1024.000000"
 preserveAspectRatio="xMidYMid meet">
<metadata>
Created by potrace 1.14, written by Peter Selinger 2001-2017
</metadata>
<g transform="translate(0.000000,1024.000000) scale(0.100000,-0.100000)"
fill="#000000" stroke="none">
<path d="M0 5120 l0 -5120 5120 0 5120 0 0 5120 0 5120 -5120 0 -5120 0 0
-5120z m5740 2995 c1135 -3184 1946 -5419 2071 -5709 236 -548 438 -706 979
-766 52 -6 110 -13 128 -16 l32 -5 0 -165 0 -164 -1425 0 -1425 0 0 165 c0
163 0 165 23 169 12 3 93 16 179 31 290 47 426 93 500 167 47 47 62 102 54
188 -11 106 -145 496 -459 1340 -85 228 -178 484 -208 568 l-54 152 -1262 0
c-695 0 -1263 -1 -1263 -3 0 -2 -80 -235 -178 -518 -98 -283 -207 -604 -241
-714 -125 -402 -140 -451 -159 -525 -105 -403 -23 -556 338 -630 78 -16 405
-59 453 -60 4 0 6 -73 5 -162 l-3 -163 -1280 0 -1280 0 -3 162 -2 162 32 5
c344 57 457 85 583 145 197 94 321 234 481 545 141 274 129 245 873 2144 465
1187 1559 3977 1706 4352 42 107 80 199 84 203 4 4 86 32 182 61 l174 52 11
-25 c7 -14 166 -458 354 -986z"/>
<path d="M4892 7563 c-6 -16 -78 -203 -162 -417 -183 -472 -410 -1069 -561
-1478 -133 -363 -355 -984 -364 -1021 l-7 -27 1076 -2 c592 -2 1076 -1 1076 2
0 15 -1036 2970 -1042 2970 -3 0 -11 -12 -16 -27z"/>
</g>
</svg>
